[
  {
    "pitch": 39,
    "velocity": 67,
    "start": 0.0,
    "end": 0.1946706203849076
  },
  {
    "pitch": 63,
    "velocity": 73,
    "start": 0.0,
    "end": 0.3893412407698152
  },
  {
    "pitch": 39,
    "velocity": 80,
    "start": 0.1946706203849076,
    "end": 0.3893412407698152
  },
  {
    "pitch": 39,
    "velocity": 72,
    "start": 0.3893412407698152,
    "end": 0.5840118611547228
  },
  {
    "pitch": 63,
    "velocity": 76,
    "start": 0.3893412407698152,
    "end": 0.7786824815396304
  },
  {
    "pitch": 39,
    "velocity": 73,
    "start": 0.5840118611547228,
    "end": 0.7786824815396304
  },
  {
    "pitch": 39,
    "velocity": 78,
    "start": 0.7786824815396304,
    "end": 0.973353101924538
  },
  {
    "pitch": 63,
    "velocity": 78,
    "start": 0.7786824815396304,
    "end": 1.1680237223094456
  },
  {
    "pitch": 39,
    "velocity": 74,
    "start": 0.973353101924538,
    "end": 1.1680237223094456
  },
  {
    "pitch": 39,
    "velocity": 77,
    "start": 1.1680237223094456,
    "end": 1.3626943426943532
  },
  {
    "pitch": 63,
    "velocity": 76,
    "start": 1.1680237223094456,
    "end": 1.557364963079261
  },
  {
    "pitch": 39,
    "velocity": 74,
    "start": 1.3626943426943532,
    "end": 1.557364963079261
  },
  {
    "pitch": 63,
    "velocity": 73,
    "start": 1.557364963079261,
    "end": 1.7520355834641685
  },
  {
    "pitch": 51,
    "velocity": 85,
    "start": 1.557364963079261,
    "end": 1.7520355834641685
  },
  {
    "pitch": 61,
    "velocity": 69,
    "start": 1.7520355834641685,
    "end": 1.9467062038490763
  },
  {
    "pitch": 51,
    "velocity": 83,
    "start": 1.7520355834641685,
    "end": 1.9467062038490763
  },
  {
    "pitch": 61,
    "velocity": 74,
    "start": 1.9467062038490763,
    "end": 2.141376824233984
  },
  {
    "pitch": 51,
    "velocity": 79,
    "start": 1.9467062038490763,
    "end": 2.141376824233984
  },
  {
    "pitch": 61,
    "velocity": 75,
    "start": 2.141376824233984,
    "end": 2.3360474446188917
  },
  {
    "pitch": 51,
    "velocity": 75,
    "start": 2.141376824233984,
    "end": 2.3360474446188917
  },
  {
    "pitch": 61,
    "velocity": 74,
    "start": 2.3360474446188917,
    "end": 2.5307180650037995
  },
  {
    "pitch": 51,
    "velocity": 73,
    "start": 2.3360474446188917,
    "end": 2.5307180650037995
  },
  {
    "pitch": 61,
    "velocity": 69,
    "start": 2.5307180650037995,
    "end": 2.725388685388707
  },
  {
    "pitch": 51,
    "velocity": 80,
    "start": 2.5307180650037995,
    "end": 2.725388685388707
  },
  {
    "pitch": 61,
    "velocity": 72,
    "start": 2.725388685388707,
    "end": 2.9200593057736146
  },
  {
    "pitch": 51,
    "velocity": 76,
    "start": 2.725388685388707,
    "end": 2.9200593057736146
  },
  {
    "pitch": 63,
    "velocity": 79,
    "start": 2.9200593057736146,
    "end": 3.1147299261585224
  },
  {
    "pitch": 51,
    "velocity": 78,
    "start": 2.9200593057736146,
    "end": 3.1147299261585224
  },
  {
    "pitch": 42,
    "velocity": 66,
    "start": 3.1147299261585224,
    "end": 3.3094005465434297
  },
  {
    "pitch": 63,
    "velocity": 80,
    "start": 3.1147299261585224,
    "end": 3.5040711669283375
  },
  {
    "pitch": 42,
    "velocity": 74,
    "start": 3.3094005465434297,
    "end": 3.5040711669283375
  },
  {
    "pitch": 42,
    "velocity": 76,
    "start": 3.5040711669283375,
    "end": 3.6987417873132453
  },
  {
    "pitch": 63,
    "velocity": 75,
    "start": 3.5040711669283375,
    "end": 3.893412407698153
  },
  {
    "pitch": 42,
    "velocity": 73,
    "start": 3.6987417873132453,
    "end": 3.893412407698153
  },
  {
    "pitch": 42,
    "velocity": 71,
    "start": 3.893412407698153,
    "end": 4.0880830280830605
  },
  {
    "pitch": 63,
    "velocity": 76,
    "start": 3.893412407698153,
    "end": 4.282753648467968
  },
  {
    "pitch": 42,
    "velocity": 77,
    "start": 4.0880830280830605,
    "end": 4.282753648467968
  },
  {
    "pitch": 42,
    "velocity": 78,
    "start": 4.282753648467968,
    "end": 4.477424268852875
  },
  {
    "pitch": 63,
    "velocity": 81,
    "start": 4.282753648467968,
    "end": 4.672094889237783
  },
  {
    "pitch": 42,
    "velocity": 81,
    "start": 4.477424268852875,
    "end": 4.672094889237783
  },
  {
    "pitch": 66,
    "velocity": 83,
    "start": 4.672094889237783,
    "end": 4.866765509622691
  },
  {
    "pitch": 49,
    "velocity": 83,
    "start": 4.672094889237783,
    "end": 4.866765509622691
  },
  {
    "pitch": 66,
    "velocity": 77,
    "start": 4.866765509622691,
    "end": 5.061436130007599
  },
  {
    "pitch": 49,
    "velocity": 73,
    "start": 4.866765509622691,
    "end": 5.061436130007599
  },
  {
    "pitch": 66,
    "velocity": 77,
    "start": 5.061436130007599,
    "end": 5.256106750392506
  },
  {
    "pitch": 49,
    "velocity": 75,
    "start": 5.061436130007599,
    "end": 5.256106750392506
  },
  {
    "pitch": 66,
    "velocity": 72,
    "start": 5.256106750392506,
    "end": 5.450777370777414
  },
  {
    "pitch": 49,
    "velocity": 79,
    "start": 5.256106750392506,
    "end": 5.450777370777414
  },
  {
    "pitch": 66,
    "velocity": 78,
    "start": 5.450777370777414,
    "end": 5.645447991162322
  },
  {
    "pitch": 49,
    "velocity": 71,
    "start": 5.450777370777414,
    "end": 5.645447991162322
  },
  {
    "pitch": 66,
    "velocity": 81,
    "start": 5.645447991162322,
    "end": 5.840118611547229
  },
  {
    "pitch": 49,
    "velocity": 74,
    "start": 5.645447991162322,
    "end": 5.840118611547229
  },
  {
    "pitch": 66,
    "velocity": 81,
    "start": 5.840118611547229,
    "end": 6.034789231932137
  },
  {
    "pitch": 49,
    "velocity": 81,
    "start": 5.840118611547229,
    "end": 6.034789231932137
  },
  {
    "pitch": 63,
    "velocity": 73,
    "start": 6.034789231932137,
    "end": 6.229459852317045
  },
  {
    "pitch": 49,
    "velocity": 73,
    "start": 6.034789231932137,
    "end": 6.229459852317045
  },
  {
    "pitch": 39,
    "velocity": 67,
    "start": 6.229459852317045,
    "end": 6.424130472701952
  },
  {
    "pitch": 63,
    "velocity": 75,
    "start": 6.229459852317045,
    "end": 6.6188010930868595
  },
  {
    "pitch": 39,
    "velocity": 71,
    "start": 6.424130472701952,
    "end": 6.6188010930868595
  },
  {
    "pitch": 39,
    "velocity": 75,
    "start": 6.6188010930868595,
    "end": 6.813471713471768
  },
  {
    "pitch": 63,
    "velocity": 76,
    "start": 6.6188010930868595,
    "end": 7.008142333856675
  },
  {
    "pitch": 39,
    "velocity": 76,
    "start": 6.813471713471768,
    "end": 7.008142333856675
  },
  {
    "pitch": 39,
    "velocity": 80,
    "start": 7.008142333856675,
    "end": 7.202812954241583
  },
  {
    "pitch": 63,
    "velocity": 79,
    "start": 7.008142333856675,
    "end": 7.397483574626491
  },
  {
    "pitch": 39,
    "velocity": 76,
    "start": 7.202812954241583,
    "end": 7.397483574626491
  },
  {
    "pitch": 39,
    "velocity": 74,
    "start": 7.397483574626491,
    "end": 7.592154195011398
  },
  {
    "pitch": 63,
    "velocity": 75,
    "start": 7.397483574626491,
    "end": 7.786824815396306
  },
  {
    "pitch": 39,
    "velocity": 76,
    "start": 7.592154195011398,
    "end": 7.786824815396306
  },
  {
    "pitch": 63,
    "velocity": 76,
    "start": 7.786824815396306,
    "end": 7.981495435781214
  },
  {
    "pitch": 51,
    "velocity": 83,
    "start": 7.786824815396306,
    "end": 7.981495435781214
  },
  {
    "pitch": 61,
    "velocity": 69,
    "start": 7.981495435781214,
    "end": 8.176166056166121
  },
  {
    "pitch": 51,
    "velocity": 83,
    "start": 7.981495435781214,
    "end": 8.176166056166121
  },
  {
    "pitch": 61,
    "velocity": 76,
    "start": 8.176166056166121,
    "end": 8.370836676551027
  },
  {
    "pitch": 51,
    "velocity": 72,
    "start": 8.176166056166121,
    "end": 8.370836676551027
  },
  {
    "pitch": 61,
    "velocity": 77,
    "start": 8.370836676551027,
    "end": 8.565507296935936
  },
  {
    "pitch": 51,
    "velocity": 77,
    "start": 8.370836676551027,
    "end": 8.565507296935936
  },
  {
    "pitch": 61,
    "velocity": 76,
    "start": 8.565507296935936,
    "end": 8.760177917320844
  },
  {
    "pitch": 51,
    "velocity": 74,
    "start": 8.565507296935936,
    "end": 8.760177917320844
  },
  {
    "pitch": 61,
    "velocity": 74,
    "start": 8.760177917320844,
    "end": 8.95484853770575
  },
  {
    "pitch": 51,
    "velocity": 78,
    "start": 8.760177917320844,
    "end": 8.95484853770575
  },
  {
    "pitch": 61,
    "velocity": 80,
    "start": 8.95484853770575,
    "end": 9.149519158090659
  },
  {
    "pitch": 51,
    "velocity": 77,
    "start": 8.95484853770575,
    "end": 9.149519158090659
  },
  {
    "pitch": 63,
    "velocity": 81,
    "start": 9.149519158090659,
    "end": 9.344189778475567
  },
  {
    "pitch": 51,
    "velocity": 75,
    "start": 9.149519158090659,
    "end": 9.344189778475567
  },
  {
    "pitch": 42,
    "velocity": 66,
    "start": 9.344189778475567,
    "end": 9.538860398860473
  },
  {
    "pitch": 63,
    "velocity": 75,
    "start": 9.344189778475567,
    "end": 9.733531019245381
  },
  {
    "pitch": 42,
    "velocity": 76,
    "start": 9.538860398860473,
    "end": 9.733531019245381
  },
  {
    "pitch": 42,
    "velocity": 74,
    "start": 9.733531019245381,
    "end": 9.92820163963029
  },
  {
    "pitch": 63,
    "velocity": 76,
    "start": 9.733531019245381,
    "end": 10.122872260015198
  },
  {
    "pitch": 42,
    "velocity": 75,
    "start": 9.92820163963029,
    "end": 10.122872260015198
  },
  {
    "pitch": 42,
    "velocity": 76,
    "start": 10.122872260015198,
    "end": 10.317542880400104
  },
  {
    "pitch": 63,
    "velocity": 75,
    "start": 10.122872260015198,
    "end": 10.512213500785013
  },
  {
    "pitch": 42,
    "velocity": 81,
    "start": 10.317542880400104,
    "end": 10.512213500785013
  },
  {
    "pitch": 42,
    "velocity": 74,
    "start": 10.512213500785013,
    "end": 10.70688412116992
  },
  {
    "pitch": 63,
    "velocity": 80,
    "start": 10.512213500785013,
    "end": 10.901554741554827
  },
  {
    "pitch": 42,
    "velocity": 74,
    "start": 10.70688412116992,
    "end": 10.901554741554827
  },
  {
    "pitch": 68,
    "velocity": 87,
    "start": 10.901554741554827,
    "end": 11.096225361939736
  },
  {
    "pitch": 49,
    "velocity": 83,
    "start": 10.901554741554827,
    "end": 11.096225361939736
  },
  {
    "pitch": 68,
    "velocity": 81,
    "start": 11.096225361939736,
    "end": 11.290895982324644
  },
  {
    "pitch": 49,
    "velocity": 76,
    "start": 11.096225361939736,
    "end": 11.290895982324644
  },
  {
    "pitch": 68,
    "velocity": 77,
    "start": 11.290895982324644,
    "end": 11.48556660270955
  },
  {
    "pitch": 49,
    "velocity": 79,
    "start": 11.290895982324644,
    "end": 11.48556660270955
  },
  {
    "pitch": 68,
    "velocity": 72,
    "start": 11.48556660270955,
    "end": 11.680237223094458
  },
  {
    "pitch": 49,
    "velocity": 74,
    "start": 11.48556660270955,
    "end": 11.680237223094458
  },
  {
    "pitch": 68,
    "velocity": 80,
    "start": 11.680237223094458,
    "end": 11.874907843479367
  },
  {
    "pitch": 49,
    "velocity": 74,
    "start": 11.680237223094458,
    "end": 11.874907843479367
  },
  {
    "pitch": 68,
    "velocity": 72,
    "start": 11.874907843479367,
    "end": 12.069578463864273
  },
  {
    "pitch": 49,
    "velocity": 79,
    "start": 11.874907843479367,
    "end": 12.069578463864273
  },
  {
    "pitch": 68,
    "velocity": 77,
    "start": 12.069578463864273,
    "end": 12.264249084249181
  },
  {
    "pitch": 49,
    "velocity": 69,
    "start": 12.069578463864273,
    "end": 12.264249084249181
  },
  {
    "pitch": 49,
    "velocity": 77,
    "start": 12.264249084249181,
    "end": 12.45891970463409
  },
  {
    "pitch": 70,
    "velocity": 84,
    "start": 12.264249084249181,
    "end": 14.01628466771335
  },
  {
    "pitch": 39,
    "velocity": 68,
    "start": 12.45891970463409,
    "end": 12.653590325018996
  },
  {
    "pitch": 63,
    "velocity": 58,
    "start": 12.45891970463409,
    "end": 12.848260945403904
  },
  {
    "pitch": 39,
    "velocity": 76,
    "start": 12.653590325018996,
    "end": 12.848260945403904
  },
  {
    "pitch": 39,
    "velocity": 73,
    "start": 12.848260945403904,
    "end": 13.042931565788813
  },
  {
    "pitch": 63,
    "velocity": 60,
    "start": 12.848260945403904,
    "end": 13.237602186173719
  },
  {
    "pitch": 39,
    "velocity": 76,
    "start": 13.042931565788813,
    "end": 13.237602186173719
  },
  {
    "pitch": 39,
    "velocity": 74,
    "start": 13.237602186173719,
    "end": 13.432272806558627
  },
  {
    "pitch": 63,
    "velocity": 60,
    "start": 13.237602186173719,
    "end": 13.626943426943535
  },
  {
    "pitch": 39,
    "velocity": 75,
    "start": 13.432272806558627,
    "end": 13.626943426943535
  },
  {
    "pitch": 39,
    "velocity": 77,
    "start": 13.626943426943535,
    "end": 13.821614047328444
  },
  {
    "pitch": 63,
    "velocity": 59,
    "start": 13.626943426943535,
    "end": 14.01628466771335
  },
  {
    "pitch": 39,
    "velocity": 79,
    "start": 13.821614047328444,
    "end": 14.210955288098258
  },
  {
    "pitch": 63,
    "velocity": 65,
    "start": 14.01628466771335,
    "end": 14.210955288098258
  },
  {
    "pitch": 51,
    "velocity": 95,
    "start": 14.01628466771335,
    "end": 14.210955288098258
  },
  {
    "pitch": 61,
    "velocity": 57,
    "start": 14.210955288098258,
    "end": 14.405625908483167
  },
  {
    "pitch": 51,
    "velocity": 76,
    "start": 14.210955288098258,
    "end": 14.405625908483167
  },
  {
    "pitch": 61,
    "velocity": 62,
    "start": 14.405625908483167,
    "end": 14.600296528868073
  },
  {
    "pitch": 51,
    "velocity": 77,
    "start": 14.405625908483167,
    "end": 14.600296528868073
  },
  {
    "pitch": 61,
    "velocity": 63,
    "start": 14.600296528868073,
    "end": 14.794967149252981
  },
  {
    "pitch": 51,
    "velocity": 77,
    "start": 14.600296528868073,
    "end": 14.794967149252981
  },
  {
    "pitch": 61,
    "velocity": 61,
    "start": 14.794967149252981,
    "end": 14.98963776963789
  },
  {
    "pitch": 51,
    "velocity": 82,
    "start": 14.794967149252981,
    "end": 14.98963776963789
  },
  {
    "pitch": 61,
    "velocity": 66,
    "start": 14.98963776963789,
    "end": 15.184308390022796
  },
  {
    "pitch": 51,
    "velocity": 73,
    "start": 14.98963776963789,
    "end": 15.184308390022796
  },
  {
    "pitch": 61,
    "velocity": 62,
    "start": 15.184308390022796,
    "end": 15.378979010407704
  },
  {
    "pitch": 51,
    "velocity": 74,
    "start": 15.184308390022796,
    "end": 15.378979010407704
  },
  {
    "pitch": 63,
    "velocity": 63,
    "start": 15.378979010407704,
    "end": 15.573649630792612
  },
  {
    "pitch": 51,
    "velocity": 74,
    "start": 15.378979010407704,
    "end": 15.768320251177519
  },
  {
    "pitch": 42,
    "velocity": 71,
    "start": 15.573649630792612,
    "end": 15.768320251177519
  },
  {
    "pitch": 63,
    "velocity": 72,
    "start": 15.573649630792612,
    "end": 15.962990871562427
  },
  {
    "pitch": 42,
    "velocity": 70,
    "start": 15.768320251177519,
    "end": 15.962990871562427
  },
  {
    "pitch": 42,
    "velocity": 74,
    "start": 15.962990871562427,
    "end": 16.157661491947334
  },
  {
    "pitch": 63,
    "velocity": 70,
    "start": 15.962990871562427,
    "end": 16.352332112332242
  },
  {
    "pitch": 42,
    "velocity": 77,
    "start": 16.157661491947334,
    "end": 16.352332112332242
  },
  {
    "pitch": 42,
    "velocity": 75,
    "start": 16.352332112332242,
    "end": 16.547002732717147
  },
  {
    "pitch": 63,
    "velocity": 73,
    "start": 16.352332112332242,
    "end": 16.74167335310205
  },
  {
    "pitch": 42,
    "velocity": 77,
    "start": 16.547002732717147,
    "end": 16.74167335310205
  },
  {
    "pitch": 42,
    "velocity": 74,
    "start": 16.74167335310205,
    "end": 16.93634397348696
  },
  {
    "pitch": 63,
    "velocity": 74,
    "start": 16.74167335310205,
    "end": 17.131014593871864
  },
  {
    "pitch": 42,
    "velocity": 76,
    "start": 16.93634397348696,
    "end": 17.32568521425677
  },
  {
    "pitch": 66,
    "velocity": 79,
    "start": 17.131014593871864,
    "end": 17.32568521425677
  },
  {
    "pitch": 49,
    "velocity": 83,
    "start": 17.131014593871864,
    "end": 17.32568521425677
  },
  {
    "pitch": 66,
    "velocity": 74,
    "start": 17.32568521425677,
    "end": 17.520355834641677
  },
  {
    "pitch": 49,
    "velocity": 77,
    "start": 17.32568521425677,
    "end": 17.520355834641677
  },
  {
    "pitch": 66,
    "velocity": 76,
    "start": 17.520355834641677,
    "end": 17.71502645502658
  },
  {
    "pitch": 49,
    "velocity": 76,
    "start": 17.520355834641677,
    "end": 17.71502645502658
  },
  {
    "pitch": 66,
    "velocity": 77,
    "start": 17.71502645502658,
    "end": 17.909697075411486
  },
  {
    "pitch": 49,
    "velocity": 75,
    "start": 17.71502645502658,
    "end": 17.909697075411486
  },
  {
    "pitch": 66,
    "velocity": 76,
    "start": 17.909697075411486,
    "end": 18.104367695796395
  },
  {
    "pitch": 49,
    "velocity": 75,
    "start": 17.909697075411486,
    "end": 18.104367695796395
  },
  {
    "pitch": 66,
    "velocity": 73,
    "start": 18.104367695796395,
    "end": 18.2990383161813
  },
  {
    "pitch": 49,
    "velocity": 83,
    "start": 18.104367695796395,
    "end": 18.2990383161813
  },
  {
    "pitch": 66,
    "velocity": 77,
    "start": 18.2990383161813,
    "end": 18.493708936566204
  },
  {
    "pitch": 49,
    "velocity": 78,
    "start": 18.2990383161813,
    "end": 18.493708936566204
  },
  {
    "pitch": 63,
    "velocity": 71,
    "start": 18.493708936566204,
    "end": 18.688379556951112
  },
  {
    "pitch": 49,
    "velocity": 79,
    "start": 18.493708936566204,
    "end": 18.883050177336017
  },
  {
    "pitch": 39,
    "velocity": 82,
    "start": 18.688379556951112,
    "end": 18.883050177336017
  },
  {
    "pitch": 63,
    "velocity": 72,
    "start": 18.688379556951112,
    "end": 19.07772079772092
  },
  {
    "pitch": 39,
    "velocity": 72,
    "start": 18.883050177336017,
    "end": 19.07772079772092
  },
  {
    "pitch": 39,
    "velocity": 72,
    "start": 19.07772079772092,
    "end": 19.27239141810583
  },
  {
    "pitch": 63,
    "velocity": 76,
    "start": 19.07772079772092,
    "end": 19.467062038490734
  },
  {
    "pitch": 39,
    "velocity": 76,
    "start": 19.27239141810583,
    "end": 19.467062038490734
  },
  {
    "pitch": 39,
    "velocity": 72,
    "start": 19.467062038490734,
    "end": 19.66173265887564
  },
  {
    "pitch": 63,
    "velocity": 77,
    "start": 19.467062038490734,
    "end": 19.856403279260547
  },
  {
    "pitch": 39,
    "velocity": 78,
    "start": 19.66173265887564,
    "end": 19.856403279260547
  },
  {
    "pitch": 39,
    "velocity": 77,
    "start": 19.856403279260547,
    "end": 20.051073899645452
  },
  {
    "pitch": 63,
    "velocity": 82,
    "start": 19.856403279260547,
    "end": 20.245744520030357
  },
  {
    "pitch": 39,
    "velocity": 71,
    "start": 20.051073899645452,
    "end": 20.440415140415265
  },
  {
    "pitch": 63,
    "velocity": 76,
    "start": 20.245744520030357,
    "end": 20.440415140415265
  },
  {
    "pitch": 51,
    "velocity": 79,
    "start": 20.245744520030357,
    "end": 20.440415140415265
  },
  {
    "pitch": 61,
    "velocity": 76,
    "start": 20.440415140415265,
    "end": 20.63508576080017
  },
  {
    "pitch": 51,
    "velocity": 78,
    "start": 20.440415140415265,
    "end": 20.63508576080017
  },
  {
    "pitch": 61,
    "velocity": 76,
    "start": 20.63508576080017,
    "end": 20.829756381185074
  },
  {
    "pitch": 51,
    "velocity": 73,
    "start": 20.63508576080017,
    "end": 20.829756381185074
  },
  {
    "pitch": 61,
    "velocity": 76,
    "start": 20.829756381185074,
    "end": 21.024427001569983
  },
  {
    "pitch": 51,
    "velocity": 75,
    "start": 20.829756381185074,
    "end": 21.024427001569983
  },
  {
    "pitch": 61,
    "velocity": 77,
    "start": 21.024427001569983,
    "end": 21.219097621954887
  },
  {
    "pitch": 51,
    "velocity": 73,
    "start": 21.024427001569983,
    "end": 21.219097621954887
  },
  {
    "pitch": 61,
    "velocity": 77,
    "start": 21.219097621954887,
    "end": 21.413768242339792
  },
  {
    "pitch": 51,
    "velocity": 78,
    "start": 21.219097621954887,
    "end": 21.413768242339792
  },
  {
    "pitch": 61,
    "velocity": 81,
    "start": 21.413768242339792,
    "end": 21.6084388627247
  },
  {
    "pitch": 51,
    "velocity": 72,
    "start": 21.413768242339792,
    "end": 21.6084388627247
  },
  {
    "pitch": 63,
    "velocity": 81,
    "start": 21.6084388627247,
    "end": 21.803109483109605
  },
  {
    "pitch": 51,
    "velocity": 77,
    "start": 21.6084388627247,
    "end": 21.99778010349451
  },
  {
    "pitch": 42,
    "velocity": 79,
    "start": 21.803109483109605,
    "end": 21.99778010349451
  },
  {
    "pitch": 63,
    "velocity": 78,
    "start": 21.803109483109605,
    "end": 22.192450723879418
  },
  {
    "pitch": 42,
    "velocity": 70,
    "start": 21.99778010349451,
    "end": 22.192450723879418
  },
  {
    "pitch": 42,
    "velocity": 77,
    "start": 22.192450723879418,
    "end": 22.387121344264322
  },
  {
    "pitch": 63,
    "velocity": 80,
    "start": 22.192450723879418,
    "end": 22.581791964649227
  },
  {
    "pitch": 42,
    "velocity": 77,
    "start": 22.387121344264322,
    "end": 22.581791964649227
  },
  {
    "pitch": 42,
    "velocity": 74,
    "start": 22.581791964649227,
    "end": 22.776462585034135
  },
  {
    "pitch": 63,
    "velocity": 80,
    "start": 22.581791964649227,
    "end": 22.97113320541904
  },
  {
    "pitch": 42,
    "velocity": 75,
    "start": 22.776462585034135,
    "end": 22.97113320541904
  },
  {
    "pitch": 42,
    "velocity": 80,
    "start": 22.97113320541904,
    "end": 23.165803825803945
  },
  {
    "pitch": 63,
    "velocity": 77,
    "start": 22.97113320541904,
    "end": 23.360474446188853
  },
  {
    "pitch": 42,
    "velocity": 80,
    "start": 23.165803825803945,
    "end": 23.555145066573758
  },
  {
    "pitch": 68,
    "velocity": 86,
    "start": 23.360474446188853,
    "end": 23.555145066573758
  },
  {
    "pitch": 49,
    "velocity": 90,
    "start": 23.360474446188853,
    "end": 23.555145066573758
  },
  {
    "pitch": 68,
    "velocity": 75,
    "start": 23.555145066573758,
    "end": 23.749815686958662
  },
  {
    "pitch": 49,
    "velocity": 79,
    "start": 23.555145066573758,
    "end": 23.749815686958662
  },
  {
    "pitch": 68,
    "velocity": 77,
    "start": 23.749815686958662,
    "end": 23.94448630734357
  },
  {
    "pitch": 49,
    "velocity": 74,
    "start": 23.749815686958662,
    "end": 23.94448630734357
  },
  {
    "pitch": 68,
    "velocity": 73,
    "start": 23.94448630734357,
    "end": 24.139156927728475
  },
  {
    "pitch": 49,
    "velocity": 80,
    "start": 23.94448630734357,
    "end": 24.139156927728475
  },
  {
    "pitch": 68,
    "velocity": 72,
    "start": 24.139156927728475,
    "end": 24.33382754811338
  },
  {
    "pitch": 49,
    "velocity": 76,
    "start": 24.139156927728475,
    "end": 24.33382754811338
  },
  {
    "pitch": 68,
    "velocity": 79,
    "start": 24.33382754811338,
    "end": 24.528498168498288
  },
  {
    "pitch": 49,
    "velocity": 75,
    "start": 24.33382754811338,
    "end": 24.528498168498288
  },
  {
    "pitch": 68,
    "velocity": 70,
    "start": 24.528498168498288,
    "end": 24.723168788883193
  },
  {
    "pitch": 49,
    "velocity": 79,
    "start": 24.528498168498288,
    "end": 24.723168788883193
  },
  {
    "pitch": 70,
    "velocity": 81,
    "start": 24.723168788883193,
    "end": 24.917839409268097
  },
  {
    "pitch": 49,
    "velocity": 75,
    "start": 24.723168788883193,
    "end": 25.112510029653006
  },
  {
    "pitch": 39,
    "velocity": 80,
    "start": 24.917839409268097,
    "end": 25.112510029653006
  },
  {
    "pitch": 63,
    "velocity": 57,
    "start": 24.917839409268097,
    "end": 25.30718065003791
  },
  {
    "pitch": 70,
    "velocity": 72,
    "start": 24.917839409268097,
    "end": 26.475204372347346
  },
  {
    "pitch": 39,
    "velocity": 63,
    "start": 25.112510029653006,
    "end": 25.30718065003791
  },
  {
    "pitch": 39,
    "velocity": 79,
    "start": 25.30718065003791,
    "end": 25.501851270422815
  },
  {
    "pitch": 63,
    "velocity": 62,
    "start": 25.30718065003791,
    "end": 25.696521890807723
  },
  {
    "pitch": 39,
    "velocity": 75,
    "start": 25.501851270422815,
    "end": 25.696521890807723
  },
  {
    "pitch": 39,
    "velocity": 79,
    "start": 25.696521890807723,
    "end": 25.891192511192628
  },
  {
    "pitch": 63,
    "velocity": 59,
    "start": 25.696521890807723,
    "end": 26.085863131577533
  },
  {
    "pitch": 73,
    "velocity": 79,
    "start": 25.696521890807723,
    "end": 26.475204372347346
  },
  {
    "pitch": 39,
    "velocity": 77,
    "start": 25.891192511192628,
    "end": 26.085863131577533
  },
  {
    "pitch": 39,
    "velocity": 73,
    "start": 26.085863131577533,
    "end": 26.28053375196244
  },
  {
    "pitch": 63,
    "velocity": 66,
    "start": 26.085863131577533,
    "end": 26.475204372347346
  },
  {
    "pitch": 39,
    "velocity": 78,
    "start": 26.28053375196244,
    "end": 26.66987499273225
  },
  {
    "pitch": 63,
    "velocity": 63,
    "start": 26.475204372347346,
    "end": 26.66987499273225
  },
  {
    "pitch": 51,
    "velocity": 86,
    "start": 26.475204372347346,
    "end": 26.66987499273225
  },
  {
    "pitch": 75,
    "velocity": 78,
    "start": 26.475204372347346,
    "end": 26.73375129004605
  },
  {
    "pitch": 61,
    "velocity": 55,
    "start": 26.66987499273225,
    "end": 26.864545613117162
  },
  {
    "pitch": 51,
    "velocity": 80,
    "start": 26.66987499273225,
    "end": 26.864545613117162
  },
  {
    "pitch": 73,
    "velocity": 73,
    "start": 26.73375129004605,
    "end": 26.99229820774476
  },
  {
    "pitch": 61,
    "velocity": 62,
    "start": 26.864545613117162,
    "end": 27.05921623350207
  },
  {
    "pitch": 51,
    "velocity": 73,
    "start": 26.864545613117162,
    "end": 27.05921623350207
  },
  {
    "pitch": 73,
    "velocity": 75,
    "start": 26.99229820774476,
    "end": 27.25388685388698
  },
  {
    "pitch": 61,
    "velocity": 60,
    "start": 27.05921623350207,
    "end": 27.25388685388698
  },
  {
    "pitch": 51,
    "velocity": 73,
    "start": 27.05921623350207,
    "end": 27.25388685388698
  },
  {
    "pitch": 61,
    "velocity": 65,
    "start": 27.25388685388698,
    "end": 27.448557474271883
  },
  {
    "pitch": 51,
    "velocity": 73,
    "start": 27.25388685388698,
    "end": 27.448557474271883
  },
  {
    "pitch": 73,
    "velocity": 71,
    "start": 27.25388685388698,
    "end": 27.51243377158568
  },
  {
    "pitch": 61,
    "velocity": 60,
    "start": 27.448557474271883,
    "end": 27.64322809465679
  },
  {
    "pitch": 51,
    "velocity": 77,
    "start": 27.448557474271883,
    "end": 27.64322809465679
  },
  {
    "pitch": 73,
    "velocity": 72,
    "start": 27.51243377158568,
    "end": 27.77098068928439
  },
  {
    "pitch": 61,
    "velocity": 60,
    "start": 27.64322809465679,
    "end": 27.837898715041703
  },
  {
    "pitch": 51,
    "velocity": 78,
    "start": 27.64322809465679,
    "end": 27.837898715041703
  },
  {
    "pitch": 75,
    "velocity": 78,
    "start": 27.77098068928439,
    "end": 27.9017750123555
  },
  {
    "pitch": 63,
    "velocity": 65,
    "start": 27.837898715041703,
    "end": 28.03256933542661
  },
  {
    "pitch": 51,
    "velocity": 73,
    "start": 27.837898715041703,
    "end": 28.227239955811516
  },
  {
    "pitch": 70,
    "velocity": 68,
    "start": 27.9017750123555,
    "end": 28.227239955811516
  },
  {
    "pitch": 42,
    "velocity": 69,
    "start": 28.03256933542661,
    "end": 28.227239955811516
  },
  {
    "pitch": 63,
    "velocity": 60,
    "start": 28.03256933542661,
    "end": 28.421910576196424
  },
  {
    "pitch": 42,
    "velocity": 68,
    "start": 28.227239955811516,
    "end": 28.421910576196424
  },
  {
    "pitch": 75,
    "velocity": 85,
    "start": 28.227239955811516,
    "end": 28.54966317082402
  },
  {
    "pitch": 42,
    "velocity": 75,
    "start": 28.421910576196424,
    "end": 28.616581196581333
  },
  {
    "pitch": 63,
    "velocity": 63,
    "start": 28.421910576196424,
    "end": 28.81125181696624
  },
  {
    "pitch": 73,
    "velocity": 67,
    "start": 28.54966317082402,
    "end": 28.68045749389513
  },
  {
    "pitch": 42,
    "velocity": 73,
    "start": 28.616581196581333,
    "end": 28.81125181696624
  },
  {
    "pitch": 73,
    "velocity": 78,
    "start": 28.68045749389513,
    "end": 28.81125181696624
  },
  {
    "pitch": 73,
    "velocity": 72,
    "start": 28.81125181696624,
    "end": 29.00592243735115
  },
  {
    "pitch": 42,
    "velocity": 76,
    "start": 28.81125181696624,
    "end": 29.00592243735115
  },
  {
    "pitch": 63,
    "velocity": 60,
    "start": 28.81125181696624,
    "end": 29.200593057736054
  },
  {
    "pitch": 73,
    "velocity": 81,
    "start": 29.00592243735115,
    "end": 29.200593057736054
  },
  {
    "pitch": 42,
    "velocity": 80,
    "start": 29.00592243735115,
    "end": 29.200593057736054
  },
  {
    "pitch": 75,
    "velocity": 81,
    "start": 29.200593057736054,
    "end": 29.39526367812096
  },
  {
    "pitch": 42,
    "velocity": 78,
    "start": 29.200593057736054,
    "end": 29.39526367812096
  },
  {
    "pitch": 63,
    "velocity": 61,
    "start": 29.200593057736054,
    "end": 29.589934298505867
  },
  {
    "pitch": 42,
    "velocity": 78,
    "start": 29.39526367812096,
    "end": 29.78460491889077
  },
  {
    "pitch": 70,
    "velocity": 70,
    "start": 29.39526367812096,
    "end": 29.979275539275676
  },
  {
    "pitch": 66,
    "velocity": 62,
    "start": 29.589934298505867,
    "end": 29.78460491889077
  },
  {
    "pitch": 49,
    "velocity": 81,
    "start": 29.589934298505867,
    "end": 29.78460491889077
  },
  {
    "pitch": 66,
    "velocity": 64,
    "start": 29.78460491889077,
    "end": 29.979275539275676
  },
  {
    "pitch": 49,
    "velocity": 79,
    "start": 29.78460491889077,
    "end": 29.979275539275676
  },
  {
    "pitch": 75,
    "velocity": 73,
    "start": 29.78460491889077,
    "end": 30.107028133903274
  },
  {
    "pitch": 66,
    "velocity": 60,
    "start": 29.979275539275676,
    "end": 30.173946159660588
  },
  {
    "pitch": 49,
    "velocity": 78,
    "start": 29.979275539275676,
    "end": 30.173946159660588
  },
  {
    "pitch": 73,
    "velocity": 72,
    "start": 30.107028133903274,
    "end": 30.237822456974385
  },
  {
    "pitch": 66,
    "velocity": 59,
    "start": 30.173946159660588,
    "end": 30.368616780045496
  },
  {
    "pitch": 49,
    "velocity": 77,
    "start": 30.173946159660588,
    "end": 30.368616780045496
  },
  {
    "pitch": 73,
    "velocity": 75,
    "start": 30.237822456974385,
    "end": 30.368616780045496
  },
  {
    "pitch": 73,
    "velocity": 82,
    "start": 30.368616780045496,
    "end": 30.5632874004304
  },
  {
    "pitch": 66,
    "velocity": 62,
    "start": 30.368616780045496,
    "end": 30.5632874004304
  },
  {
    "pitch": 49,
    "velocity": 72,
    "start": 30.368616780045496,
    "end": 30.5632874004304
  },
  {
    "pitch": 73,
    "velocity": 77,
    "start": 30.5632874004304,
    "end": 30.75795802081531
  },
  {
    "pitch": 66,
    "velocity": 62,
    "start": 30.5632874004304,
    "end": 30.75795802081531
  },
  {
    "pitch": 49,
    "velocity": 72,
    "start": 30.5632874004304,
    "end": 30.75795802081531
  },
  {
    "pitch": 75,
    "velocity": 83,
    "start": 30.75795802081531,
    "end": 30.952628641200214
  },
  {
    "pitch": 66,
    "velocity": 64,
    "start": 30.75795802081531,
    "end": 30.952628641200214
  },
  {
    "pitch": 49,
    "velocity": 77,
    "start": 30.75795802081531,
    "end": 30.952628641200214
  },
  {
    "pitch": 63,
    "velocity": 57,
    "start": 30.952628641200214,
    "end": 31.14729926158512
  },
  {
    "pitch": 49,
    "velocity": 77,
    "start": 30.952628641200214,
    "end": 31.341969881970027
  },
  {
    "pitch": 70,
    "velocity": 69,
    "start": 30.952628641200214,
    "end": 32.70466422466437
  },
  {
    "pitch": 39,
    "velocity": 77,
    "start": 31.14729926158512,
    "end": 31.341969881970027
  },
  {
    "pitch": 63,
    "velocity": 61,
    "start": 31.14729926158512,
    "end": 31.53664050235493
  },
  {
    "pitch": 39,
    "velocity": 71,
    "start": 31.341969881970027,
    "end": 31.53664050235493
  },
  {
    "pitch": 39,
    "velocity": 73,
    "start": 31.53664050235493,
    "end": 31.731311122739836
  },
  {
    "pitch": 63,
    "velocity": 57,
    "start": 31.53664050235493,
    "end": 31.925981743124744
  },
  {
    "pitch": 39,
    "velocity": 79,
    "start": 31.731311122739836,
    "end": 31.925981743124744
  },
  {
    "pitch": 39,
    "velocity": 77,
    "start": 31.925981743124744,
    "end": 32.12065236350965
  },
  {
    "pitch": 63,
    "velocity": 61,
    "start": 31.925981743124744,
    "end": 32.31532298389455
  },
  {
    "pitch": 39,
    "velocity": 80,
    "start": 32.12065236350965,
    "end": 32.31532298389455
  },
  {
    "pitch": 39,
    "velocity": 76,
    "start": 32.31532298389455,
    "end": 32.50999360427946
  },
  {
    "pitch": 63,
    "velocity": 59,
    "start": 32.31532298389455,
    "end": 32.70466422466437
  },
  {
    "pitch": 39,
    "velocity": 75,
    "start": 32.50999360427946,
    "end": 32.899334845049275
  },
  {
    "pitch": 63,
    "velocity": 60,
    "start": 32.70466422466437,
    "end": 32.899334845049275
  },
  {
    "pitch": 51,
    "velocity": 83,
    "start": 32.70466422466437,
    "end": 32.899334845049275
  },
  {
    "pitch": 68,
    "velocity": 83,
    "start": 32.70466422466437,
    "end": 33.872687946973805
  },
  {
    "pitch": 73,
    "velocity": 83,
    "start": 32.70466422466437,
    "end": 33.872687946973805
  },
  {
    "pitch": 61,
    "velocity": 56,
    "start": 32.899334845049275,
    "end": 33.09400546543418
  },
  {
    "pitch": 51,
    "velocity": 73,
    "start": 32.899334845049275,
    "end": 33.09400546543418
  },
  {
    "pitch": 61,
    "velocity": 60,
    "start": 33.09400546543418,
    "end": 33.288676085819084
  },
  {
    "pitch": 51,
    "velocity": 78,
    "start": 33.09400546543418,
    "end": 33.288676085819084
  },
  {
    "pitch": 61,
    "velocity": 62,
    "start": 33.288676085819084,
    "end": 33.48334670620399
  },
  {
    "pitch": 51,
    "velocity": 82,
    "start": 33.288676085819084,
    "end": 33.48334670620399
  },
  {
    "pitch": 61,
    "velocity": 59,
    "start": 33.48334670620399,
    "end": 33.67801732658889
  },
  {
    "pitch": 51,
    "velocity": 80,
    "start": 33.48334670620399,
    "end": 33.67801732658889
  },
  {
    "pitch": 61,
    "velocity": 61,
    "start": 33.67801732658889,
    "end": 33.872687946973805
  },
  {
    "pitch": 51,
    "velocity": 75,
    "start": 33.67801732658889,
    "end": 33.872687946973805
  },
  {
    "pitch": 61,
    "velocity": 60,
    "start": 33.872687946973805,
    "end": 34.06735856735871
  },
  {
    "pitch": 51,
    "velocity": 79,
    "start": 33.872687946973805,
    "end": 34.06735856735871
  },
  {
    "pitch": 70,
    "velocity": 84,
    "start": 33.872687946973805,
    "end": 34.651370428513424
  },
  {
    "pitch": 75,
    "velocity": 84,
    "start": 33.872687946973805,
    "end": 34.651370428513424
  },
  {
    "pitch": 63,
    "velocity": 66,
    "start": 34.06735856735871,
    "end": 34.262029187743615
  },
  {
    "pitch": 51,
    "velocity": 76,
    "start": 34.06735856735871,
    "end": 34.45669980812852
  },
  {
    "pitch": 42,
    "velocity": 76,
    "start": 34.262029187743615,
    "end": 34.45669980812852
  },
  {
    "pitch": 63,
    "velocity": 65,
    "start": 34.262029187743615,
    "end": 34.651370428513424
  },
  {
    "pitch": 42,
    "velocity": 69,
    "start": 34.45669980812852,
    "end": 34.651370428513424
  },
  {
    "pitch": 69,
    "velocity": 77,
    "start": 34.60574450186071,
    "end": 34.651370428513424
  },
  {
    "pitch": 42,
    "velocity": 74,
    "start": 34.651370428513424,
    "end": 34.84604104889833
  },
  {
    "pitch": 63,
    "velocity": 66,
    "start": 34.651370428513424,
    "end": 35.04071166928324
  },
  {
    "pitch": 66,
    "velocity": 77,
    "start": 34.651370428513424,
    "end": 35.81939415082286
  },
  {
    "pitch": 70,
    "velocity": 77,
    "start": 34.651370428513424,
    "end": 35.81939415082286
  },
  {
    "pitch": 42,
    "velocity": 80,
    "start": 34.84604104889833,
    "end": 35.04071166928324
  },
  {
    "pitch": 42,
    "velocity": 75,
    "start": 35.04071166928324,
    "end": 35.235382289668145
  },
  {
    "pitch": 63,
    "velocity": 59,
    "start": 35.04071166928324,
    "end": 35.43005291005305
  },
  {
    "pitch": 42,
    "velocity": 75,
    "start": 35.235382289668145,
    "end": 35.43005291005305
  },
  {
    "pitch": 42,
    "velocity": 71,
    "start": 35.43005291005305,
    "end": 35.624723530437954
  },
  {
    "pitch": 63,
    "velocity": 63,
    "start": 35.43005291005305,
    "end": 35.81939415082286
  },
  {
    "pitch": 42,
    "velocity": 77,
    "start": 35.624723530437954,
    "end": 36.014064771207764
  },
  {
    "pitch": 68,
    "velocity": 71,
    "start": 35.81939415082286,
    "end": 36.014064771207764
  },
  {
    "pitch": 49,
    "velocity": 85,
    "start": 35.81939415082286,
    "end": 36.014064771207764
  },
  {
    "pitch": 68,
    "velocity": 62,
    "start": 36.014064771207764,
    "end": 36.208735391592676
  },
  {
    "pitch": 49,
    "velocity": 76,
    "start": 36.014064771207764,
    "end": 36.208735391592676
  },
  {
    "pitch": 68,
    "velocity": 58,
    "start": 36.208735391592676,
    "end": 36.40340601197758
  },
  {
    "pitch": 49,
    "velocity": 76,
    "start": 36.208735391592676,
    "end": 36.40340601197758
  },
  {
    "pitch": 68,
    "velocity": 63,
    "start": 36.40340601197758,
    "end": 36.598076632362485
  },
  {
    "pitch": 49,
    "velocity": 73,
    "start": 36.40340601197758,
    "end": 36.598076632362485
  },
  {
    "pitch": 68,
    "velocity": 58,
    "start": 36.598076632362485,
    "end": 36.79274725274739
  },
  {
    "pitch": 49,
    "velocity": 79,
    "start": 36.598076632362485,
    "end": 36.79274725274739
  },
  {
    "pitch": 68,
    "velocity": 62,
    "start": 36.79274725274739,
    "end": 36.987417873132294
  },
  {
    "pitch": 49,
    "velocity": 80,
    "start": 36.79274725274739,
    "end": 36.987417873132294
  },
  {
    "pitch": 68,
    "velocity": 60,
    "start": 36.987417873132294,
    "end": 37.1820884935172
  },
  {
    "pitch": 49,
    "velocity": 74,
    "start": 36.987417873132294,
    "end": 37.1820884935172
  },
  {
    "pitch": 70,
    "velocity": 63,
    "start": 37.1820884935172,
    "end": 37.37675911390211
  },
  {
    "pitch": 49,
    "velocity": 75,
    "start": 37.1820884935172,
    "end": 37.571429734287015
  },
  {
    "pitch": 39,
    "velocity": 76,
    "start": 37.37675911390211,
    "end": 37.571429734287015
  },
  {
    "pitch": 63,
    "velocity": 55,
    "start": 37.37675911390211,
    "end": 37.76610035467192
  },
  {
    "pitch": 70,
    "velocity": 71,
    "start": 37.37675911390211,
    "end": 38.934124076981355
  },
  {
    "pitch": 39,
    "velocity": 68,
    "start": 37.571429734287015,
    "end": 37.76610035467192
  },
  {
    "pitch": 39,
    "velocity": 81,
    "start": 37.76610035467192,
    "end": 37.960770975056825
  },
  {
    "pitch": 63,
    "velocity": 59,
    "start": 37.76610035467192,
    "end": 38.15544159544173
  },
  {
    "pitch": 39,
    "velocity": 77,
    "start": 37.960770975056825,
    "end": 38.15544159544173
  },
  {
    "pitch": 39,
    "velocity": 77,
    "start": 38.15544159544173,
    "end": 38.350112215826634
  },
  {
    "pitch": 63,
    "velocity": 55,
    "start": 38.15544159544173,
    "end": 38.544782836211546
  },
  {
    "pitch": 73,
    "velocity": 76,
    "start": 38.15544159544173,
    "end": 38.934124076981355
  },
  {
    "pitch": 39,
    "velocity": 75,
    "start": 38.350112215826634,
    "end": 38.544782836211546
  },
  {
    "pitch": 39,
    "velocity": 76,
    "start": 38.544782836211546,
    "end": 38.73945345659645
  },
  {
    "pitch": 63,
    "velocity": 62,
    "start": 38.544782836211546,
    "end": 38.934124076981355
  },
  {
    "pitch": 39,
    "velocity": 77,
    "start": 38.73945345659645,
    "end": 39.12879469736626
  },
  {
    "pitch": 63,
    "velocity": 58,
    "start": 38.934124076981355,
    "end": 39.12879469736626
  },
  {
    "pitch": 51,
    "velocity": 84,
    "start": 38.934124076981355,
    "end": 39.12879469736626
  },
  {
    "pitch": 75,
    "velocity": 80,
    "start": 38.934124076981355,
    "end": 39.19267099468006
  },
  {
    "pitch": 61,
    "velocity": 61,
    "start": 39.12879469736626,
    "end": 39.323465317751165
  },
  {
    "pitch": 51,
    "velocity": 82,
    "start": 39.12879469736626,
    "end": 39.323465317751165
  },
  {
    "pitch": 73,
    "velocity": 73,
    "start": 39.19267099468006,
    "end": 39.451217912378766
  },
  {
    "pitch": 61,
    "velocity": 60,
    "start": 39.323465317751165,
    "end": 39.51813593813607
  },
  {
    "pitch": 51,
    "velocity": 84,
    "start": 39.323465317751165,
    "end": 39.51813593813607
  },
  {
    "pitch": 73,
    "velocity": 75,
    "start": 39.451217912378766,
    "end": 39.71280655852098
  },
  {
    "pitch": 61,
    "velocity": 64,
    "start": 39.51813593813607,
    "end": 39.71280655852098
  },
  {
    "pitch": 51,
    "velocity": 75,
    "start": 39.51813593813607,
    "end": 39.71280655852098
  },
  {
    "pitch": 61,
    "velocity": 60,
    "start": 39.71280655852098,
    "end": 39.907477178905886
  },
  {
    "pitch": 51,
    "velocity": 73,
    "start": 39.71280655852098,
    "end": 39.907477178905886
  },
  {
    "pitch": 73,
    "velocity": 77,
    "start": 39.71280655852098,
    "end": 39.971353476219676
  },
  {
    "pitch": 61,
    "velocity": 63,
    "start": 39.907477178905886,
    "end": 40.10214779929079
  },
  {
    "pitch": 51,
    "velocity": 75,
    "start": 39.907477178905886,
    "end": 40.10214779929079
  },
  {
    "pitch": 73,
    "velocity": 73,
    "start": 39.971353476219676,
    "end": 40.229900393918385
  },
  {
    "pitch": 61,
    "velocity": 61,
    "start": 40.10214779929079,
    "end": 40.296818419675695
  },
  {
    "pitch": 51,
    "velocity": 73,
    "start": 40.10214779929079,
    "end": 40.296818419675695
  },
  {
    "pitch": 75,
    "velocity": 79,
    "start": 40.229900393918385,
    "end": 40.36069471698949
  },
  {
    "pitch": 63,
    "velocity": 67,
    "start": 40.296818419675695,
    "end": 40.4914890400606
  },
  {
    "pitch": 51,
    "velocity": 77,
    "start": 40.296818419675695,
    "end": 40.686159660445504
  },
  {
    "pitch": 70,
    "velocity": 64,
    "start": 40.36069471698949,
    "end": 40.686159660445504
  },
  {
    "pitch": 42,
    "velocity": 78,
    "start": 40.4914890400606,
    "end": 40.686159660445504
  },
  {
    "pitch": 63,
    "velocity": 61,
    "start": 40.4914890400606,
    "end": 40.880830280830416
  },
  {
    "pitch": 42,
    "velocity": 67,
    "start": 40.686159660445504,
    "end": 40.880830280830416
  },
  {
    "pitch": 75,
    "velocity": 85,
    "start": 40.686159660445504,
    "end": 41.00858287545801
  },
  {
    "pitch": 42,
    "velocity": 79,
    "start": 40.880830280830416,
    "end": 41.07550090121532
  },
  {
    "pitch": 63,
    "velocity": 58,
    "start": 40.880830280830416,
    "end": 41.270171521600226
  },
  {
    "pitch": 73,
    "velocity": 72,
    "start": 41.00858287545801,
    "end": 41.13937719852911
  },
  {
    "pitch": 42,
    "velocity": 74,
    "start": 41.07550090121532,
    "end": 41.270171521600226
  },
  {
    "pitch": 73,
    "velocity": 74,
    "start": 41.13937719852911,
    "end": 41.270171521600226
  },
  {
    "pitch": 73,
    "velocity": 79,
    "start": 41.270171521600226,
    "end": 41.46484214198513
  },
  {
    "pitch": 42,
    "velocity": 73,
    "start": 41.270171521600226,
    "end": 41.46484214198513
  },
  {
    "pitch": 63,
    "velocity": 61,
    "start": 41.270171521600226,
    "end": 41.659512762370035
  },
  {
    "pitch": 73,
    "velocity": 79,
    "start": 41.46484214198513,
    "end": 41.659512762370035
  },
  {
    "pitch": 42,
    "velocity": 75,
    "start": 41.46484214198513,
    "end": 41.659512762370035
  },
  {
    "pitch": 75,
    "velocity": 80,
    "start": 41.659512762370035,
    "end": 41.85418338275494
  },
  {
    "pitch": 42,
    "velocity": 75,
    "start": 41.659512762370035,
    "end": 41.85418338275494
  },
  {
    "pitch": 63,
    "velocity": 59,
    "start": 41.659512762370035,
    "end": 42.04885400313985
  },
  {
    "pitch": 42,
    "velocity": 81,
    "start": 41.85418338275494,
    "end": 42.243524623524756
  },
  {
    "pitch": 70,
    "velocity": 66,
    "start": 41.85418338275494,
    "end": 42.43819524390966
  },
  {
    "pitch": 66,
    "velocity": 66,
    "start": 42.04885400313985,
    "end": 42.243524623524756
  },
  {
    "pitch": 49,
    "velocity": 83,
    "start": 42.04885400313985,
    "end": 42.243524623524756
  },
  {
    "pitch": 66,
    "velocity": 61,
    "start": 42.243524623524756,
    "end": 42.43819524390966
  },
  {
    "pitch": 49,
    "velocity": 78,
    "start": 42.243524623524756,
    "end": 42.43819524390966
  },
  {
    "pitch": 75,
    "velocity": 70,
    "start": 42.243524623524756,
    "end": 42.565947838537255
  },
  {
    "pitch": 66,
    "velocity": 64,
    "start": 42.43819524390966,
    "end": 42.632865864294565
  },
  {
    "pitch": 49,
    "velocity": 77,
    "start": 42.43819524390966,
    "end": 42.632865864294565
  },
  {
    "pitch": 73,
    "velocity": 69,
    "start": 42.565947838537255,
    "end": 42.69674216160836
  },
  {
    "pitch": 66,
    "velocity": 62,
    "start": 42.632865864294565,
    "end": 42.82753648467947
  },
  {
    "pitch": 49,
    "velocity": 78,
    "start": 42.632865864294565,
    "end": 42.82753648467947
  },
  {
    "pitch": 73,
    "velocity": 81,
    "start": 42.69674216160836,
    "end": 42.82753648467947
  },
  {
    "pitch": 73,
    "velocity": 77,
    "start": 42.82753648467947,
    "end": 43.022207105064375
  },
  {
    "pitch": 66,
    "velocity": 60,
    "start": 42.82753648467947,
    "end": 43.022207105064375
  },
  {
    "pitch": 49,
    "velocity": 75,
    "start": 42.82753648467947,
    "end": 43.022207105064375
  },
  {
    "pitch": 73,
    "velocity": 75,
    "start": 43.022207105064375,
    "end": 43.21687772544929
  },
  {
    "pitch": 66,
    "velocity": 62,
    "start": 43.022207105064375,
    "end": 43.21687772544929
  },
  {
    "pitch": 49,
    "velocity": 76,
    "start": 43.022207105064375,
    "end": 43.21687772544929
  },
  {
    "pitch": 75,
    "velocity": 84,
    "start": 43.21687772544929,
    "end": 43.41154834583419
  },
  {
    "pitch": 66,
    "velocity": 59,
    "start": 43.21687772544929,
    "end": 43.41154834583419
  },
  {
    "pitch": 49,
    "velocity": 79,
    "start": 43.21687772544929,
    "end": 43.41154834583419
  },
  {
    "pitch": 63,
    "velocity": 54,
    "start": 43.41154834583419,
    "end": 43.606218966219096
  },
  {
    "pitch": 49,
    "velocity": 73,
    "start": 43.41154834583419,
    "end": 43.800889586604
  },
  {
    "pitch": 70,
    "velocity": 63,
    "start": 43.41154834583419,
    "end": 45.16358392929834
  },
  {
    "pitch": 39,
    "velocity": 71,
    "start": 43.606218966219096,
    "end": 43.800889586604
  },
  {
    "pitch": 63,
    "velocity": 55,
    "start": 43.606218966219096,
    "end": 43.995560206988905
  },
  {
    "pitch": 39,
    "velocity": 65,
    "start": 43.800889586604,
    "end": 43.995560206988905
  },
  {
    "pitch": 39,
    "velocity": 77,
    "start": 43.995560206988905,
    "end": 44.19023082737381
  },
  {
    "pitch": 63,
    "velocity": 60,
    "start": 43.995560206988905,
    "end": 44.38490144775872
  },
  {
    "pitch": 39,
    "velocity": 76,
    "start": 44.19023082737381,
    "end": 44.38490144775872
  },
  {
    "pitch": 39,
    "velocity": 73,
    "start": 44.38490144775872,
    "end": 44.57957206814363
  },
  {
    "pitch": 63,
    "velocity": 58,
    "start": 44.38490144775872,
    "end": 44.77424268852853
  },
  {
    "pitch": 39,
    "velocity": 75,
    "start": 44.57957206814363,
    "end": 44.77424268852853
  },
  {
    "pitch": 39,
    "velocity": 77,
    "start": 44.77424268852853,
    "end": 44.968913308913436
  },
  {
    "pitch": 63,
    "velocity": 60,
    "start": 44.77424268852853,
    "end": 45.16358392929834
  },
  {
    "pitch": 39,
    "velocity": 75,
    "start": 44.968913308913436,
    "end": 45.358254549683245
  },
  {
    "pitch": 63,
    "velocity": 60,
    "start": 45.16358392929834,
    "end": 45.358254549683245
  },
  {
    "pitch": 51,
    "velocity": 87,
    "start": 45.16358392929834,
    "end": 45.358254549683245
  },
  {
    "pitch": 68,
    "velocity": 80,
    "start": 45.16358392929834,
    "end": 46.331607651607776
  },
  {
    "pitch": 73,
    "velocity": 80,
    "start": 45.16358392929834,
    "end": 46.331607651607776
  },
  {
    "pitch": 61,
    "velocity": 59,
    "start": 45.358254549683245,
    "end": 45.55292517006816
  },
  {
    "pitch": 51,
    "velocity": 78,
    "start": 45.358254549683245,
    "end": 45.55292517006816
  },
  {
    "pitch": 61,
    "velocity": 61,
    "start": 45.55292517006816,
    "end": 45.74759579045306
  },
  {
    "pitch": 51,
    "velocity": 80,
    "start": 45.55292517006816,
    "end": 45.74759579045306
  },
  {
    "pitch": 61,
    "velocity": 62,
    "start": 45.74759579045306,
    "end": 45.942266410837966
  },
  {
    "pitch": 51,
    "velocity": 76,
    "start": 45.74759579045306,
    "end": 45.942266410837966
  },
  {
    "pitch": 61,
    "velocity": 63,
    "start": 45.942266410837966,
    "end": 46.13693703122287
  },
  {
    "pitch": 51,
    "velocity": 79,
    "start": 45.942266410837966,
    "end": 46.13693703122287
  },
  {
    "pitch": 61,
    "velocity": 56,
    "start": 46.13693703122287,
    "end": 46.331607651607776
  },
  {
    "pitch": 51,
    "velocity": 78,
    "start": 46.13693703122287,
    "end": 46.331607651607776
  },
  {
    "pitch": 61,
    "velocity": 59,
    "start": 46.331607651607776,
    "end": 46.52627827199268
  },
  {
    "pitch": 51,
    "velocity": 78,
    "start": 46.331607651607776,
    "end": 46.52627827199268
  },
  {
    "pitch": 70,
    "velocity": 85,
    "start": 46.331607651607776,
    "end": 47.1102901331474
  },
  {
    "pitch": 75,
    "velocity": 85,
    "start": 46.331607651607776,
    "end": 47.1102901331474
  },
  {
    "pitch": 63,
    "velocity": 60,
    "start": 46.52627827199268,
    "end": 46.72094889237759
  },
  {
    "pitch": 51,
    "velocity": 74,
    "start": 46.52627827199268,
    "end": 46.9156195127625
  },
  {
    "pitch": 42,
    "velocity": 76,
    "start": 46.72094889237759,
    "end": 46.9156195127625
  },
  {
    "pitch": 63,
    "velocity": 64,
    "start": 46.72094889237759,
    "end": 47.1102901331474
  },
  {
    "pitch": 42,
    "velocity": 67,
    "start": 46.9156195127625,
    "end": 47.1102901331474
  },
  {
    "pitch": 69,
    "velocity": 80,
    "start": 47.06466420649469,
    "end": 47.1102901331474
  },
  {
    "pitch": 42,
    "velocity": 76,
    "start": 47.1102901331474,
    "end": 47.304960753532306
  },
  {
    "pitch": 63,
    "velocity": 62,
    "start": 47.1102901331474,
    "end": 47.49963137391721
  },
  {
    "pitch": 66,
    "velocity": 80,
    "start": 47.1102901331474,
    "end": 48.27831385545684
  },
  {
    "pitch": 70,
    "velocity": 80,
    "start": 47.1102901331474,
    "end": 48.27831385545684
  },
  {
    "pitch": 42,
    "velocity": 73,
    "start": 47.304960753532306,
    "end": 47.49963137391721
  },
  {
    "pitch": 42,
    "velocity": 75,
    "start": 47.49963137391721,
    "end": 47.694301994302116
  },
  {
    "pitch": 63,
    "velocity": 60,
    "start": 47.49963137391721,
    "end": 47.88897261468703
  },
  {
    "pitch": 42,
    "velocity": 78,
    "start": 47.694301994302116,
    "end": 47.88897261468703
  },
  {
    "pitch": 42,
    "velocity": 75,
    "start": 47.88897261468703,
    "end": 48.08364323507193
  },
  {
    "pitch": 63,
    "velocity": 59,
    "start": 47.88897261468703,
    "end": 48.27831385545684
  },
  {
    "pitch": 42,
    "velocity": 72,
    "start": 48.08364323507193,
    "end": 48.47298447584174
  },
  {
    "pitch": 68,
    "velocity": 68,
    "start": 48.27831385545684,
    "end": 48.47298447584174
  },
  {
    "pitch": 49,
    "velocity": 78,
    "start": 48.27831385545684,
    "end": 48.47298447584174
  },
  {
    "pitch": 68,
    "velocity": 62,
    "start": 48.47298447584174,
    "end": 48.667655096226646
  },
  {
    "pitch": 49,
    "velocity": 79,
    "start": 48.47298447584174,
    "end": 48.667655096226646
  },
  {
    "pitch": 68,
    "velocity": 66,
    "start": 48.667655096226646,
    "end": 48.86232571661155
  },
  {
    "pitch": 49,
    "velocity": 77,
    "start": 48.667655096226646,
    "end": 48.86232571661155
  },
  {
    "pitch": 68,
    "velocity": 62,
    "start": 48.86232571661155,
    "end": 49.05699633699646
  },
  {
    "pitch": 49,
    "velocity": 74,
    "start": 48.86232571661155,
    "end": 49.05699633699646
  },
  {
    "pitch": 68,
    "velocity": 64,
    "start": 49.05699633699646,
    "end": 49.25166695738137
  },
  {
    "pitch": 49,
    "velocity": 75,
    "start": 49.05699633699646,
    "end": 49.25166695738137
  },
  {
    "pitch": 68,
    "velocity": 63,
    "start": 49.25166695738137,
    "end": 49.44633757776627
  },
  {
    "pitch": 49,
    "velocity": 79,
    "start": 49.25166695738137,
    "end": 49.44633757776627
  },
  {
    "pitch": 68,
    "velocity": 62,
    "start": 49.44633757776627,
    "end": 49.64100819815118
  },
  {
    "pitch": 49,
    "velocity": 74,
    "start": 49.44633757776627,
    "end": 49.64100819815118
  },
  {
    "pitch": 70,
    "velocity": 64,
    "start": 49.64100819815118,
    "end": 49.83567881853608
  },
  {
    "pitch": 49,
    "velocity": 76,
    "start": 49.64100819815118,
    "end": 49.83567881853608
  },
  {
    "pitch": 63,
    "velocity": 69,
    "start": 49.83567881853608,
    "end": 50.030349438920986
  },
  {
    "pitch": 56,
    "velocity": 75,
    "start": 49.83567881853608,
    "end": 50.030349438920986
  },
  {
    "pitch": 37,
    "velocity": 66,
    "start": 49.83567881853608,
    "end": 50.030349438920986
  },
  {
    "pitch": 56,
    "velocity": 81,
    "start": 50.030349438920986,
    "end": 50.2250200593059
  },
  {
    "pitch": 37,
    "velocity": 77,
    "start": 50.030349438920986,
    "end": 50.2250200593059
  },
  {
    "pitch": 63,
    "velocity": 78,
    "start": 50.030349438920986,
    "end": 50.61436130007571
  },
  {
    "pitch": 56,
    "velocity": 87,
    "start": 50.2250200593059,
    "end": 50.4196906796908
  },
  {
    "pitch": 37,
    "velocity": 76,
    "start": 50.2250200593059,
    "end": 50.4196906796908
  },
  {
    "pitch": 56,
    "velocity": 87,
    "start": 50.4196906796908,
    "end": 50.61436130007571
  },
  {
    "pitch": 37,
    "velocity": 80,
    "start": 50.4196906796908,
    "end": 50.61436130007571
  },
  {
    "pitch": 56,
    "velocity": 87,
    "start": 50.61436130007571,
    "end": 50.80903192046061
  },
  {
    "pitch": 37,
    "velocity": 75,
    "start": 50.61436130007571,
    "end": 50.80903192046061
  },
  {
    "pitch": 65,
    "velocity": 82,
    "start": 50.61436130007571,
    "end": 51.19837316123042
  },
  {
    "pitch": 56,
    "velocity": 86,
    "start": 50.80903192046061,
    "end": 51.00370254084552
  },
  {
    "pitch": 37,
    "velocity": 73,
    "start": 50.80903192046061,
    "end": 51.00370254084552
  },
  {
    "pitch": 56,
    "velocity": 80,
    "start": 51.00370254084552,
    "end": 51.19837316123042
  },
  {
    "pitch": 37,
    "velocity": 76,
    "start": 51.00370254084552,
    "end": 51.19837316123042
  },
  {
    "pitch": 58,
    "velocity": 86,
    "start": 51.19837316123042,
    "end": 51.39304378161533
  },
  {
    "pitch": 37,
    "velocity": 79,
    "start": 51.19837316123042,
    "end": 51.39304378161533
  },
  {
    "pitch": 65,
    "velocity": 77,
    "start": 51.19837316123042,
    "end": 51.78238502238514
  },
  {
    "pitch": 58,
    "velocity": 85,
    "start": 51.39304378161533,
    "end": 51.58771440200024
  },
  {
    "pitch": 37,
    "velocity": 76,
    "start": 51.39304378161533,
    "end": 51.58771440200024
  },
  {
    "pitch": 58,
    "velocity": 83,
    "start": 51.58771440200024,
    "end": 51.78238502238514
  },
  {
    "pitch": 37,
    "velocity": 79,
    "start": 51.58771440200024,
    "end": 51.78238502238514
  },
  {
    "pitch": 66,
    "velocity": 80,
    "start": 51.78238502238514,
    "end": 51.97705564277005
  },
  {
    "pitch": 58,
    "velocity": 85,
    "start": 51.78238502238514,
    "end": 51.97705564277005
  },
  {
    "pitch": 37,
    "velocity": 75,
    "start": 51.78238502238514,
    "end": 51.97705564277005
  },
  {
    "pitch": 65,
    "velocity": 76,
    "start": 51.97705564277005,
    "end": 52.17172626315495
  },
  {
    "pitch": 58,
    "velocity": 84,
    "start": 51.97705564277005,
    "end": 52.17172626315495
  },
  {
    "pitch": 37,
    "velocity": 79,
    "start": 51.97705564277005,
    "end": 52.17172626315495
  },
  {
    "pitch": 65,
    "velocity": 73,
    "start": 52.17172626315495,
    "end": 52.366396883539856
  },
  {
    "pitch": 61,
    "velocity": 92,
    "start": 52.17172626315495,
    "end": 52.366396883539856
  },
  {
    "pitch": 34,
    "velocity": 73,
    "start": 52.17172626315495,
    "end": 52.366396883539856
  },
  {
    "pitch": 65,
    "velocity": 75,
    "start": 52.366396883539856,
    "end": 52.56106750392477
  },
  {
    "pitch": 61,
    "velocity": 87,
    "start": 52.366396883539856,
    "end": 52.56106750392477
  },
  {
    "pitch": 34,
    "velocity": 80,
    "start": 52.366396883539856,
    "end": 52.56106750392477
  },
  {
    "pitch": 61,
    "velocity": 83,
    "start": 52.56106750392477,
    "end": 52.75573812430967
  },
  {
    "pitch": 34,
    "velocity": 75,
    "start": 52.56106750392477,
    "end": 52.75573812430967
  },
  {
    "pitch": 66,
    "velocity": 82,
    "start": 52.56106750392477,
    "end": 53.33974998546439
  },
  {
    "pitch": 61,
    "velocity": 80,
    "start": 52.75573812430967,
    "end": 52.95040874469458
  },
  {
    "pitch": 34,
    "velocity": 81,
    "start": 52.75573812430967,
    "end": 52.95040874469458
  },
  {
    "pitch": 58,
    "velocity": 79,
    "start": 52.95040874469458,
    "end": 53.14507936507948
  },
  {
    "pitch": 39,
    "velocity": 82,
    "start": 52.95040874469458,
    "end": 53.14507936507948
  },
  {
    "pitch": 58,
    "velocity": 84,
    "start": 53.14507936507948,
    "end": 53.33974998546439
  },
  {
    "pitch": 39,
    "velocity": 75,
    "start": 53.14507936507948,
    "end": 53.33974998546439
  },
  {
    "pitch": 58,
    "velocity": 88,
    "start": 53.33974998546439,
    "end": 53.53442060584929
  },
  {
    "pitch": 39,
    "velocity": 74,
    "start": 53.33974998546439,
    "end": 53.53442060584929
  },
  {
    "pitch": 61,
    "velocity": 68,
    "start": 53.33974998546439,
    "end": 53.92376184661911
  },
  {
    "pitch": 58,
    "velocity": 86,
    "start": 53.53442060584929,
    "end": 53.7290912262342
  },
  {
    "pitch": 39,
    "velocity": 78,
    "start": 53.53442060584929,
    "end": 53.7290912262342
  },
  {
    "pitch": 58,
    "velocity": 83,
    "start": 53.7290912262342,
    "end": 53.92376184661911
  },
  {
    "pitch": 39,
    "velocity": 71,
    "start": 53.7290912262342,
    "end": 53.92376184661911
  },
  {
    "pitch": 58,
    "velocity": 88,
    "start": 53.92376184661911,
    "end": 54.11843246700401
  },
  {
    "pitch": 39,
    "velocity": 76,
    "start": 53.92376184661911,
    "end": 54.11843246700401
  },
  {
    "pitch": 61,
    "velocity": 71,
    "start": 53.92376184661911,
    "end": 54.50777370777382
  },
  {
    "pitch": 58,
    "velocity": 86,
    "start": 54.11843246700401,
    "end": 54.31310308738892
  },
  {
    "pitch": 39,
    "velocity": 76,
    "start": 54.11843246700401,
    "end": 54.31310308738892
  },
  {
    "pitch": 49,
    "velocity": 75,
    "start": 54.31310308738892,
    "end": 54.50777370777382
  },
  {
    "pitch": 39,
    "velocity": 79,
    "start": 54.31310308738892,
    "end": 54.50777370777382
  },
  {
    "pitch": 63,
    "velocity": 81,
    "start": 54.50777370777382,
    "end": 54.70244432815873
  },
  {
    "pitch": 51,
    "velocity": 83,
    "start": 54.50777370777382,
    "end": 54.70244432815873
  },
  {
    "pitch": 44,
    "velocity": 76,
    "start": 54.50777370777382,
    "end": 54.70244432815873
  },
  {
    "pitch": 65,
    "velocity": 80,
    "start": 54.70244432815873,
    "end": 54.89711494854364
  },
  {
    "pitch": 49,
    "velocity": 78,
    "start": 54.70244432815873,
    "end": 54.89711494854364
  },
  {
    "pitch": 44,
    "velocity": 79,
    "start": 54.70244432815873,
    "end": 54.89711494854364
  },
  {
    "pitch": 54,
    "velocity": 82,
    "start": 54.89711494854364,
    "end": 55.09178556892854
  },
  {
    "pitch": 44,
    "velocity": 72,
    "start": 54.89711494854364,
    "end": 55.09178556892854
  },
  {
    "pitch": 63,
    "velocity": 68,
    "start": 54.89711494854364,
    "end": 55.67579743008326
  },
  {
    "pitch": 54,
    "velocity": 84,
    "start": 55.09178556892854,
    "end": 55.28645618931345
  },
  {
    "pitch": 44,
    "velocity": 75,
    "start": 55.09178556892854,
    "end": 55.28645618931345
  },
  {
    "pitch": 54,
    "velocity": 81,
    "start": 55.28645618931345,
    "end": 55.48112680969835
  },
  {
    "pitch": 44,
    "velocity": 80,
    "start": 55.28645618931345,
    "end": 55.48112680969835
  },
  {
    "pitch": 51,
    "velocity": 78,
    "start": 55.48112680969835,
    "end": 55.67579743008326
  },
  {
    "pitch": 44,
    "velocity": 77,
    "start": 55.48112680969835,
    "end": 55.67579743008326
  },
  {
    "pitch": 51,
    "velocity": 84,
    "start": 55.67579743008326,
    "end": 55.87046805046816
  },
  {
    "pitch": 44,
    "velocity": 70,
    "start": 55.67579743008326,
    "end": 55.87046805046816
  },
  {
    "pitch": 61,
    "velocity": 72,
    "start": 55.67579743008326,
    "end": 56.065138670853074
  },
  {
    "pitch": 49,
    "velocity": 79,
    "start": 55.87046805046816,
    "end": 56.065138670853074
  },
  {
    "pitch": 46,
    "velocity": 78,
    "start": 55.87046805046816,
    "end": 56.065138670853074
  },
  {
    "pitch": 56,
    "velocity": 89,
    "start": 56.065138670853074,
    "end": 56.25980929123798
  },
  {
    "pitch": 37,
    "velocity": 65,
    "start": 56.065138670853074,
    "end": 56.25980929123798
  },
  {
    "pitch": 63,
    "velocity": 80,
    "start": 56.065138670853074,
    "end": 56.84382115239269
  },
  {
    "pitch": 56,
    "velocity": 80,
    "start": 56.25980929123798,
    "end": 56.45447991162288
  },
  {
    "pitch": 37,
    "velocity": 76,
    "start": 56.25980929123798,
    "end": 56.45447991162288
  },
  {
    "pitch": 56,
    "velocity": 84,
    "start": 56.45447991162288,
    "end": 56.64915053200779
  },
  {
    "pitch": 37,
    "velocity": 72,
    "start": 56.45447991162288,
    "end": 56.64915053200779
  },
  {
    "pitch": 56,
    "velocity": 84,
    "start": 56.64915053200779,
    "end": 56.84382115239269
  },
  {
    "pitch": 37,
    "velocity": 75,
    "start": 56.64915053200779,
    "end": 56.84382115239269
  },
  {
    "pitch": 65,
    "velocity": 77,
    "start": 56.84382115239269,
    "end": 57.0384917727776
  },
  {
    "pitch": 56,
    "velocity": 82,
    "start": 56.84382115239269,
    "end": 57.0384917727776
  },
  {
    "pitch": 37,
    "velocity": 80,
    "start": 56.84382115239269,
    "end": 57.0384917727776
  },
  {
    "pitch": 56,
    "velocity": 86,
    "start": 57.0384917727776,
    "end": 57.23316239316251
  },
  {
    "pitch": 37,
    "velocity": 81,
    "start": 57.0384917727776,
    "end": 57.23316239316251
  },
  {
    "pitch": 65,
    "velocity": 74,
    "start": 57.0384917727776,
    "end": 57.62250363393232
  },
  {
    "pitch": 56,
    "velocity": 86,
    "start": 57.23316239316251,
    "end": 57.42783301354741
  },
  {
    "pitch": 37,
    "velocity": 75,
    "start": 57.23316239316251,
    "end": 57.42783301354741
  },
  {
    "pitch": 58,
    "velocity": 90,
    "start": 57.42783301354741,
    "end": 57.62250363393232
  },
  {
    "pitch": 37,
    "velocity": 76,
    "start": 57.42783301354741,
    "end": 57.62250363393232
  },
  {
    "pitch": 58,
    "velocity": 84,
    "start": 57.62250363393232,
    "end": 57.81717425431722
  },
  {
    "pitch": 37,
    "velocity": 75,
    "start": 57.62250363393232,
    "end": 57.81717425431722
  },
  {
    "pitch": 63,
    "velocity": 71,
    "start": 57.62250363393232,
    "end": 58.401186115471944
  },
  {
    "pitch": 58,
    "velocity": 78,
    "start": 57.81717425431722,
    "end": 58.01184487470213
  },
  {
    "pitch": 37,
    "velocity": 80,
    "start": 57.81717425431722,
    "end": 58.01184487470213
  },
  {
    "pitch": 58,
    "velocity": 85,
    "start": 58.01184487470213,
    "end": 58.20651549508703
  },
  {
    "pitch": 37,
    "velocity": 74,
    "start": 58.01184487470213,
    "end": 58.20651549508703
  },
  {
    "pitch": 58,
    "velocity": 83,
    "start": 58.20651549508703,
    "end": 58.401186115471944
  },
  {
    "pitch": 37,
    "velocity": 78,
    "start": 58.20651549508703,
    "end": 58.401186115471944
  },
  {
    "pitch": 61,
    "velocity": 93,
    "start": 58.401186115471944,
    "end": 58.59585673585685
  },
  {
    "pitch": 34,
    "velocity": 69,
    "start": 58.401186115471944,
    "end": 58.59585673585685
  },
  {
    "pitch": 65,
    "velocity": 77,
    "start": 58.401186115471944,
    "end": 58.659733033170646
  },
  {
    "pitch": 61,
    "velocity": 88,
    "start": 58.59585673585685,
    "end": 58.79052735624175
  },
  {
    "pitch": 34,
    "velocity": 82,
    "start": 58.59585673585685,
    "end": 58.79052735624175
  },
  {
    "pitch": 66,
    "velocity": 80,
    "start": 58.659733033170646,
    "end": 58.91827995086935
  },
  {
    "pitch": 61,
    "velocity": 84,
    "start": 58.79052735624175,
    "end": 58.98519797662666
  },
  {
    "pitch": 34,
    "velocity": 76,
    "start": 58.79052735624175,
    "end": 58.98519797662666
  },
  {
    "pitch": 65,
    "velocity": 73,
    "start": 58.91827995086935,
    "end": 59.17986859701156
  },
  {
    "pitch": 61,
    "velocity": 83,
    "start": 58.98519797662666,
    "end": 59.17986859701156
  },
  {
    "pitch": 34,
    "velocity": 74,
    "start": 58.98519797662666,
    "end": 59.17986859701156
  },
  {
    "pitch": 58,
    "velocity": 83,
    "start": 59.17986859701156,
    "end": 59.37453921739647
  },
  {
    "pitch": 39,
    "velocity": 79,
    "start": 59.17986859701156,
    "end": 59.37453921739647
  },
  {
    "pitch": 63,
    "velocity": 69,
    "start": 59.17986859701156,
    "end": 59.56920983778138
  },
  {
    "pitch": 58,
    "velocity": 82,
    "start": 59.37453921739647,
    "end": 59.56920983778138
  },
  {
    "pitch": 39,
    "velocity": 77,
    "start": 59.37453921739647,
    "end": 59.56920983778138
  },
  {
    "pitch": 58,
    "velocity": 82,
    "start": 59.56920983778138,
    "end": 59.763880458166284
  },
  {
    "pitch": 39,
    "velocity": 79,
    "start": 59.56920983778138,
    "end": 59.763880458166284
  },
  {
    "pitch": 63,
    "velocity": 73,
    "start": 59.56920983778138,
    "end": 59.95855107855119
  },
  {
    "pitch": 58,
    "velocity": 85,
    "start": 59.763880458166284,
    "end": 59.95855107855119
  },
  {
    "pitch": 39,
    "velocity": 80,
    "start": 59.763880458166284,
    "end": 59.95855107855119
  },
  {
    "pitch": 58,
    "velocity": 84,
    "start": 59.95855107855119,
    "end": 60.15322169893609
  },
  {
    "pitch": 39,
    "velocity": 79,
    "start": 59.95855107855119,
    "end": 60.15322169893609
  },
  {
    "pitch": 63,
    "velocity": 77,
    "start": 59.95855107855119,
    "end": 60.737233560090814
  },
  {
    "pitch": 58,
    "velocity": 80,
    "start": 60.15322169893609,
    "end": 60.347892319321
  },
  {
    "pitch": 39,
    "velocity": 76,
    "start": 60.15322169893609,
    "end": 60.347892319321
  },
  {
    "pitch": 58,
    "velocity": 89,
    "start": 60.347892319321,
    "end": 60.54256293970591
  },
  {
    "pitch": 39,
    "velocity": 75,
    "start": 60.347892319321,
    "end": 60.54256293970591
  },
  {
    "pitch": 49,
    "velocity": 74,
    "start": 60.54256293970591,
    "end": 60.737233560090814
  },
  {
    "pitch": 39,
    "velocity": 73,
    "start": 60.54256293970591,
    "end": 60.737233560090814
  },
  {
    "pitch": 51,
    "velocity": 91,
    "start": 60.737233560090814,
    "end": 60.93190418047572
  },
  {
    "pitch": 44,
    "velocity": 81,
    "start": 60.737233560090814,
    "end": 60.93190418047572
  },
  {
    "pitch": 61,
    "velocity": 71,
    "start": 60.737233560090814,
    "end": 62.29459852317006
  },
  {
    "pitch": 49,
    "velocity": 85,
    "start": 60.93190418047572,
    "end": 61.126574800860624
  },
  {
    "pitch": 44,
    "velocity": 74,
    "start": 60.93190418047572,
    "end": 61.126574800860624
  },
  {
    "pitch": 54,
    "velocity": 88,
    "start": 61.126574800860624,
    "end": 61.32124542124553
  },
  {
    "pitch": 44,
    "velocity": 75,
    "start": 61.126574800860624,
    "end": 61.32124542124553
  },
  {
    "pitch": 54,
    "velocity": 83,
    "start": 61.32124542124553,
    "end": 61.51591604163043
  },
  {
    "pitch": 44,
    "velocity": 78,
    "start": 61.32124542124553,
    "end": 61.51591604163043
  },
  {
    "pitch": 54,
    "velocity": 82,
    "start": 61.51591604163043,
    "end": 61.710586662015345
  },
  {
    "pitch": 44,
    "velocity": 75,
    "start": 61.51591604163043,
    "end": 61.710586662015345
  },
  {
    "pitch": 51,
    "velocity": 78,
    "start": 61.710586662015345,
    "end": 61.90525728240025
  },
  {
    "pitch": 44,
    "velocity": 78,
    "start": 61.710586662015345,
    "end": 61.90525728240025
  },
  {
    "pitch": 51,
    "velocity": 81,
    "start": 61.90525728240025,
    "end": 62.099927902785154
  },
  {
    "pitch": 44,
    "velocity": 75,
    "start": 61.90525728240025,
    "end": 62.099927902785154
  },
  {
    "pitch": 49,
    "velocity": 82,
    "start": 62.099927902785154,
    "end": 62.29459852317006
  },
  {
    "pitch": 46,
    "velocity": 77,
    "start": 62.099927902785154,
    "end": 62.29459852317006
  },
  {
    "pitch": 75,
    "velocity": 92,
    "start": 62.29459852317006,
    "end": 62.489269143554964
  },
  {
    "pitch": 68,
    "velocity": 109,
    "start": 62.29459852317006,
    "end": 62.489269143554964
  },
  {
    "pitch": 37,
    "velocity": 70,
    "start": 62.29459852317006,
    "end": 62.489269143554964
  },
  {
    "pitch": 68,
    "velocity": 88,
    "start": 62.489269143554964,
    "end": 62.68393976393987
  },
  {
    "pitch": 37,
    "velocity": 79,
    "start": 62.489269143554964,
    "end": 62.68393976393987
  },
  {
    "pitch": 75,
    "velocity": 80,
    "start": 62.489269143554964,
    "end": 63.073281004709685
  },
  {
    "pitch": 68,
    "velocity": 83,
    "start": 62.68393976393987,
    "end": 62.87861038432478
  },
  {
    "pitch": 37,
    "velocity": 76,
    "start": 62.68393976393987,
    "end": 62.87861038432478
  },
  {
    "pitch": 68,
    "velocity": 83,
    "start": 62.87861038432478,
    "end": 63.073281004709685
  },
  {
    "pitch": 37,
    "velocity": 82,
    "start": 62.87861038432478,
    "end": 63.073281004709685
  },
  {
    "pitch": 68,
    "velocity": 84,
    "start": 63.073281004709685,
    "end": 63.26795162509459
  },
  {
    "pitch": 37,
    "velocity": 71,
    "start": 63.073281004709685,
    "end": 63.26795162509459
  },
  {
    "pitch": 77,
    "velocity": 85,
    "start": 63.073281004709685,
    "end": 63.6572928658644
  },
  {
    "pitch": 68,
    "velocity": 84,
    "start": 63.26795162509459,
    "end": 63.462622245479494
  },
  {
    "pitch": 37,
    "velocity": 76,
    "start": 63.26795162509459,
    "end": 63.462622245479494
  },
  {
    "pitch": 68,
    "velocity": 85,
    "start": 63.462622245479494,
    "end": 63.6572928658644
  },
  {
    "pitch": 37,
    "velocity": 75,
    "start": 63.462622245479494,
    "end": 63.6572928658644
  },
  {
    "pitch": 70,
    "velocity": 90,
    "start": 63.6572928658644,
    "end": 63.8519634862493
  },
  {
    "pitch": 37,
    "velocity": 74,
    "start": 63.6572928658644,
    "end": 63.8519634862493
  },
  {
    "pitch": 77,
    "velocity": 78,
    "start": 63.6572928658644,
    "end": 64.24130472701911
  },
  {
    "pitch": 70,
    "velocity": 86,
    "start": 63.8519634862493,
    "end": 64.04663410663422
  },
  {
    "pitch": 37,
    "velocity": 73,
    "start": 63.8519634862493,
    "end": 64.04663410663422
  },
  {
    "pitch": 70,
    "velocity": 86,
    "start": 64.04663410663422,
    "end": 64.24130472701911
  },
  {
    "pitch": 37,
    "velocity": 74,
    "start": 64.04663410663422,
    "end": 64.24130472701911
  },
  {
    "pitch": 78,
    "velocity": 80,
    "start": 64.24130472701911,
    "end": 64.43597534740402
  },
  {
    "pitch": 70,
    "velocity": 83,
    "start": 64.24130472701911,
    "end": 64.43597534740402
  },
  {
    "pitch": 37,
    "velocity": 78,
    "start": 64.24130472701911,
    "end": 64.43597534740402
  },
  {
    "pitch": 77,
    "velocity": 75,
    "start": 64.43597534740402,
    "end": 64.63064596778894
  },
  {
    "pitch": 70,
    "velocity": 82,
    "start": 64.43597534740402,
    "end": 64.63064596778894
  },
  {
    "pitch": 37,
    "velocity": 72,
    "start": 64.43597534740402,
    "end": 64.63064596778894
  },
  {
    "pitch": 77,
    "velocity": 73,
    "start": 64.63064596778894,
    "end": 64.82531658817385
  },
  {
    "pitch": 73,
    "velocity": 91,
    "start": 64.63064596778894,
    "end": 64.82531658817385
  },
  {
    "pitch": 34,
    "velocity": 74,
    "start": 64.63064596778894,
    "end": 64.82531658817385
  },
  {
    "pitch": 77,
    "velocity": 73,
    "start": 64.82531658817385,
    "end": 65.01998720855875
  },
  {
    "pitch": 73,
    "velocity": 87,
    "start": 64.82531658817385,
    "end": 65.01998720855875
  },
  {
    "pitch": 34,
    "velocity": 75,
    "start": 64.82531658817385,
    "end": 65.01998720855875
  },
  {
    "pitch": 73,
    "velocity": 85,
    "start": 65.01998720855875,
    "end": 65.21465782894366
  },
  {
    "pitch": 34,
    "velocity": 77,
    "start": 65.01998720855875,
    "end": 65.21465782894366
  },
  {
    "pitch": 78,
    "velocity": 80,
    "start": 65.01998720855875,
    "end": 65.79866969009838
  },
  {
    "pitch": 73,
    "velocity": 87,
    "start": 65.21465782894366,
    "end": 65.40932844932856
  },
  {
    "pitch": 34,
    "velocity": 78,
    "start": 65.21465782894366,
    "end": 65.40932844932856
  },
  {
    "pitch": 70,
    "velocity": 71,
    "start": 65.40932844932856,
    "end": 65.60399906971347
  },
  {
    "pitch": 39,
    "velocity": 75,
    "start": 65.40932844932856,
    "end": 65.60399906971347
  },
  {
    "pitch": 70,
    "velocity": 82,
    "start": 65.60399906971347,
    "end": 65.79866969009838
  },
  {
    "pitch": 39,
    "velocity": 82,
    "start": 65.60399906971347,
    "end": 65.79866969009838
  },
  {
    "pitch": 70,
    "velocity": 87,
    "start": 65.79866969009838,
    "end": 65.99334031048328
  },
  {
    "pitch": 39,
    "velocity": 76,
    "start": 65.79866969009838,
    "end": 65.99334031048328
  },
  {
    "pitch": 73,
    "velocity": 68,
    "start": 65.79866969009838,
    "end": 66.38268155125309
  },
  {
    "pitch": 70,
    "velocity": 82,
    "start": 65.99334031048328,
    "end": 66.18801093086819
  },
  {
    "pitch": 39,
    "velocity": 78,
    "start": 65.99334031048328,
    "end": 66.18801093086819
  },
  {
    "pitch": 70,
    "velocity": 85,
    "start": 66.18801093086819,
    "end": 66.38268155125309
  },
  {
    "pitch": 39,
    "velocity": 80,
    "start": 66.18801093086819,
    "end": 66.38268155125309
  },
  {
    "pitch": 70,
    "velocity": 86,
    "start": 66.38268155125309,
    "end": 66.577352171638
  },
  {
    "pitch": 39,
    "velocity": 74,
    "start": 66.38268155125309,
    "end": 66.577352171638
  },
  {
    "pitch": 73,
    "velocity": 70,
    "start": 66.38268155125309,
    "end": 66.9666934124078
  },
  {
    "pitch": 70,
    "velocity": 88,
    "start": 66.577352171638,
    "end": 66.7720227920229
  },
  {
    "pitch": 39,
    "velocity": 79,
    "start": 66.577352171638,
    "end": 66.7720227920229
  },
  {
    "pitch": 61,
    "velocity": 68,
    "start": 66.7720227920229,
    "end": 66.9666934124078
  },
  {
    "pitch": 39,
    "velocity": 79,
    "start": 66.7720227920229,
    "end": 66.9666934124078
  },
  {
    "pitch": 75,
    "velocity": 79,
    "start": 66.9666934124078,
    "end": 67.16136403279272
  },
  {
    "pitch": 63,
    "velocity": 89,
    "start": 66.9666934124078,
    "end": 67.16136403279272
  },
  {
    "pitch": 44,
    "velocity": 80,
    "start": 66.9666934124078,
    "end": 67.16136403279272
  },
  {
    "pitch": 77,
    "velocity": 85,
    "start": 67.16136403279272,
    "end": 67.35603465317762
  },
  {
    "pitch": 61,
    "velocity": 77,
    "start": 67.16136403279272,
    "end": 67.35603465317762
  },
  {
    "pitch": 44,
    "velocity": 76,
    "start": 67.16136403279272,
    "end": 67.35603465317762
  },
  {
    "pitch": 66,
    "velocity": 93,
    "start": 67.35603465317762,
    "end": 67.55070527356253
  },
  {
    "pitch": 44,
    "velocity": 78,
    "start": 67.35603465317762,
    "end": 67.55070527356253
  },
  {
    "pitch": 75,
    "velocity": 71,
    "start": 67.35603465317762,
    "end": 68.13471713471725
  },
  {
    "pitch": 66,
    "velocity": 84,
    "start": 67.55070527356253,
    "end": 67.74537589394743
  },
  {
    "pitch": 44,
    "velocity": 78,
    "start": 67.55070527356253,
    "end": 67.74537589394743
  },
  {
    "pitch": 66,
    "velocity": 81,
    "start": 67.74537589394743,
    "end": 67.94004651433234
  },
  {
    "pitch": 44,
    "velocity": 77,
    "start": 67.74537589394743,
    "end": 67.94004651433234
  },
  {
    "pitch": 63,
    "velocity": 77,
    "start": 67.94004651433234,
    "end": 68.13471713471725
  },
  {
    "pitch": 44,
    "velocity": 71,
    "start": 67.94004651433234,
    "end": 68.13471713471725
  },
  {
    "pitch": 63,
    "velocity": 82,
    "start": 68.13471713471725,
    "end": 68.32938775510215
  },
  {
    "pitch": 44,
    "velocity": 75,
    "start": 68.13471713471725,
    "end": 68.32938775510215
  },
  {
    "pitch": 73,
    "velocity": 76,
    "start": 68.13471713471725,
    "end": 68.52405837548706
  },
  {
    "pitch": 61,
    "velocity": 77,
    "start": 68.32938775510215,
    "end": 68.52405837548706
  },
  {
    "pitch": 46,
    "velocity": 81,
    "start": 68.32938775510215,
    "end": 68.52405837548706
  },
  {
    "pitch": 68,
    "velocity": 95,
    "start": 68.52405837548706,
    "end": 68.71872899587196
  },
  {
    "pitch": 37,
    "velocity": 67,
    "start": 68.52405837548706,
    "end": 68.71872899587196
  },
  {
    "pitch": 75,
    "velocity": 83,
    "start": 68.52405837548706,
    "end": 69.30274085702668
  },
  {
    "pitch": 68,
    "velocity": 87,
    "start": 68.71872899587196,
    "end": 68.91339961625687
  },
  {
    "pitch": 37,
    "velocity": 81,
    "start": 68.71872899587196,
    "end": 68.91339961625687
  },
  {
    "pitch": 68,
    "velocity": 84,
    "start": 68.91339961625687,
    "end": 69.10807023664177
  },
  {
    "pitch": 37,
    "velocity": 77,
    "start": 68.91339961625687,
    "end": 69.10807023664177
  },
  {
    "pitch": 68,
    "velocity": 84,
    "start": 69.10807023664177,
    "end": 69.30274085702668
  },
  {
    "pitch": 37,
    "velocity": 76,
    "start": 69.10807023664177,
    "end": 69.30274085702668
  },
  {
    "pitch": 77,
    "velocity": 87,
    "start": 69.30274085702668,
    "end": 69.49741147741159
  },
  {
    "pitch": 68,
    "velocity": 83,
    "start": 69.30274085702668,
    "end": 69.49741147741159
  },
  {
    "pitch": 37,
    "velocity": 76,
    "start": 69.30274085702668,
    "end": 69.49741147741159
  },
  {
    "pitch": 68,
    "velocity": 85,
    "start": 69.49741147741159,
    "end": 69.69208209779649
  },
  {
    "pitch": 37,
    "velocity": 77,
    "start": 69.49741147741159,
    "end": 69.69208209779649
  },
  {
    "pitch": 77,
    "velocity": 76,
    "start": 69.49741147741159,
    "end": 70.0814233385663
  },
  {
    "pitch": 68,
    "velocity": 76,
    "start": 69.69208209779649,
    "end": 69.8867527181814
  },
  {
    "pitch": 37,
    "velocity": 80,
    "start": 69.69208209779649,
    "end": 69.8867527181814
  },
  {
    "pitch": 70,
    "velocity": 85,
    "start": 69.8867527181814,
    "end": 70.0814233385663
  },
  {
    "pitch": 37,
    "velocity": 77,
    "start": 69.8867527181814,
    "end": 70.0814233385663
  },
  {
    "pitch": 70,
    "velocity": 88,
    "start": 70.0814233385663,
    "end": 70.27609395895121
  },
  {
    "pitch": 37,
    "velocity": 75,
    "start": 70.0814233385663,
    "end": 70.27609395895121
  },
  {
    "pitch": 75,
    "velocity": 69,
    "start": 70.0814233385663,
    "end": 70.86010582010593
  },
  {
    "pitch": 70,
    "velocity": 83,
    "start": 70.27609395895121,
    "end": 70.47076457933612
  },
  {
    "pitch": 37,
    "velocity": 77,
    "start": 70.27609395895121,
    "end": 70.47076457933612
  },
  {
    "pitch": 70,
    "velocity": 87,
    "start": 70.47076457933612,
    "end": 70.66543519972102
  },
  {
    "pitch": 37,
    "velocity": 78,
    "start": 70.47076457933612,
    "end": 70.66543519972102
  },
  {
    "pitch": 70,
    "velocity": 82,
    "start": 70.66543519972102,
    "end": 70.86010582010593
  },
  {
    "pitch": 37,
    "velocity": 74,
    "start": 70.66543519972102,
    "end": 70.86010582010593
  },
  {
    "pitch": 73,
    "velocity": 90,
    "start": 70.86010582010593,
    "end": 71.05477644049083
  },
  {
    "pitch": 34,
    "velocity": 74,
    "start": 70.86010582010593,
    "end": 71.05477644049083
  },
  {
    "pitch": 77,
    "velocity": 78,
    "start": 70.86010582010593,
    "end": 71.11865273780462
  },
  {
    "pitch": 73,
    "velocity": 83,
    "start": 71.05477644049083,
    "end": 71.24944706087574
  },
  {
    "pitch": 34,
    "velocity": 78,
    "start": 71.05477644049083,
    "end": 71.24944706087574
  },
  {
    "pitch": 78,
    "velocity": 79,
    "start": 71.11865273780462,
    "end": 71.37719965550333
  },
  {
    "pitch": 73,
    "velocity": 84,
    "start": 71.24944706087574,
    "end": 71.44411768126064
  },
  {
    "pitch": 34,
    "velocity": 76,
    "start": 71.24944706087574,
    "end": 71.44411768126064
  },
  {
    "pitch": 77,
    "velocity": 73,
    "start": 71.37719965550333,
    "end": 71.63878830164555
  },
  {
    "pitch": 73,
    "velocity": 85,
    "start": 71.44411768126064,
    "end": 71.63878830164555
  },
  {
    "pitch": 34,
    "velocity": 80,
    "start": 71.44411768126064,
    "end": 71.63878830164555
  },
  {
    "pitch": 70,
    "velocity": 80,
    "start": 71.63878830164555,
    "end": 71.83345892203046
  },
  {
    "pitch": 39,
    "velocity": 86,
    "start": 71.63878830164555,
    "end": 71.83345892203046
  },
  {
    "pitch": 75,
    "velocity": 72,
    "start": 71.63878830164555,
    "end": 72.02812954241536
  },
  {
    "pitch": 70,
    "velocity": 83,
    "start": 71.83345892203046,
    "end": 72.02812954241536
  },
  {
    "pitch": 39,
    "velocity": 76,
    "start": 71.83345892203046,
    "end": 72.02812954241536
  },
  {
    "pitch": 70,
    "velocity": 82,
    "start": 72.02812954241536,
    "end": 72.22280016280027
  },
  {
    "pitch": 39,
    "velocity": 81,
    "start": 72.02812954241536,
    "end": 72.22280016280027
  },
  {
    "pitch": 75,
    "velocity": 76,
    "start": 72.02812954241536,
    "end": 72.41747078318517
  },
  {
    "pitch": 70,
    "velocity": 82,
    "start": 72.22280016280027,
    "end": 72.41747078318517
  },
  {
    "pitch": 39,
    "velocity": 78,
    "start": 72.22280016280027,
    "end": 72.41747078318517
  },
  {
    "pitch": 70,
    "velocity": 91,
    "start": 72.41747078318517,
    "end": 72.61214140357008
  },
  {
    "pitch": 39,
    "velocity": 78,
    "start": 72.41747078318517,
    "end": 72.61214140357008
  },
  {
    "pitch": 75,
    "velocity": 75,
    "start": 72.41747078318517,
    "end": 73.1961532647248
  },
  {
    "pitch": 70,
    "velocity": 85,
    "start": 72.61214140357008,
    "end": 72.80681202395499
  },
  {
    "pitch": 39,
    "velocity": 75,
    "start": 72.61214140357008,
    "end": 72.80681202395499
  },
  {
    "pitch": 70,
    "velocity": 83,
    "start": 72.80681202395499,
    "end": 73.00148264433989
  },
  {
    "pitch": 39,
    "velocity": 74,
    "start": 72.80681202395499,
    "end": 73.00148264433989
  },
  {
    "pitch": 61,
    "velocity": 64,
    "start": 73.00148264433989,
    "end": 73.1961532647248
  },
  {
    "pitch": 39,
    "velocity": 73,
    "start": 73.00148264433989,
    "end": 73.1961532647248
  },
  {
    "pitch": 63,
    "velocity": 84,
    "start": 73.1961532647248,
    "end": 73.3908238851097
  },
  {
    "pitch": 44,
    "velocity": 90,
    "start": 73.1961532647248,
    "end": 73.3908238851097
  },
  {
    "pitch": 73,
    "velocity": 69,
    "start": 73.1961532647248,
    "end": 74.75351822780404
  },
  {
    "pitch": 61,
    "velocity": 80,
    "start": 73.3908238851097,
    "end": 73.58549450549461
  },
  {
    "pitch": 44,
    "velocity": 75,
    "start": 73.3908238851097,
    "end": 73.58549450549461
  },
  {
    "pitch": 66,
    "velocity": 96,
    "start": 73.58549450549461,
    "end": 73.7801651258795
  },
  {
    "pitch": 44,
    "velocity": 81,
    "start": 73.58549450549461,
    "end": 73.7801651258795
  },
  {
    "pitch": 66,
    "velocity": 88,
    "start": 73.7801651258795,
    "end": 73.97483574626442
  },
  {
    "pitch": 44,
    "velocity": 75,
    "start": 73.7801651258795,
    "end": 73.97483574626442
  },
  {
    "pitch": 66,
    "velocity": 81,
    "start": 73.97483574626442,
    "end": 74.16950636664933
  },
  {
    "pitch": 44,
    "velocity": 77,
    "start": 73.97483574626442,
    "end": 74.16950636664933
  },
  {
    "pitch": 63,
    "velocity": 77,
    "start": 74.16950636664933,
    "end": 74.36417698703423
  },
  {
    "pitch": 44,
    "velocity": 81,
    "start": 74.16950636664933,
    "end": 74.36417698703423
  },
  {
    "pitch": 63,
    "velocity": 81,
    "start": 74.36417698703423,
    "end": 74.55884760741914
  },
  {
    "pitch": 44,
    "velocity": 81,
    "start": 74.36417698703423,
    "end": 74.55884760741914
  },
  {
    "pitch": 61,
    "velocity": 76,
    "start": 74.55884760741914,
    "end": 74.75351822780404
  },
  {
    "pitch": 46,
    "velocity": 78,
    "start": 74.55884760741914,
    "end": 74.75351822780404
  },
  {
    "pitch": 75,
    "velocity": 79,
    "start": 74.75351822780404,
    "end": 74.94818884818895
  },
  {
    "pitch": 68,
    "velocity": 113,
    "start": 74.75351822780404,
    "end": 74.94818884818895
  },
  {
    "pitch": 37,
    "velocity": 78,
    "start": 74.75351822780404,
    "end": 74.94818884818895
  },
  {
    "pitch": 49,
    "velocity": 78,
    "start": 74.75351822780404,
    "end": 74.94818884818895
  },
  {
    "pitch": 68,
    "velocity": 102,
    "start": 74.94818884818895,
    "end": 75.14285946857386
  },
  {
    "pitch": 37,
    "velocity": 77,
    "start": 74.94818884818895,
    "end": 75.14285946857386
  },
  {
    "pitch": 49,
    "velocity": 77,
    "start": 74.94818884818895,
    "end": 75.14285946857386
  },
  {
    "pitch": 75,
    "velocity": 78,
    "start": 74.94818884818895,
    "end": 75.53220070934367
  },
  {
    "pitch": 68,
    "velocity": 96,
    "start": 75.14285946857386,
    "end": 75.33753008895876
  },
  {
    "pitch": 37,
    "velocity": 79,
    "start": 75.14285946857386,
    "end": 75.33753008895876
  },
  {
    "pitch": 49,
    "velocity": 79,
    "start": 75.14285946857386,
    "end": 75.33753008895876
  },
  {
    "pitch": 68,
    "velocity": 94,
    "start": 75.33753008895876,
    "end": 75.53220070934367
  },
  {
    "pitch": 37,
    "velocity": 79,
    "start": 75.33753008895876,
    "end": 75.53220070934367
  },
  {
    "pitch": 49,
    "velocity": 79,
    "start": 75.33753008895876,
    "end": 75.53220070934367
  },
  {
    "pitch": 68,
    "velocity": 99,
    "start": 75.53220070934367,
    "end": 75.72687132972857
  },
  {
    "pitch": 37,
    "velocity": 78,
    "start": 75.53220070934367,
    "end": 75.72687132972857
  },
  {
    "pitch": 49,
    "velocity": 78,
    "start": 75.53220070934367,
    "end": 75.72687132972857
  },
  {
    "pitch": 77,
    "velocity": 81,
    "start": 75.53220070934367,
    "end": 76.11621257049838
  },
  {
    "pitch": 68,
    "velocity": 100,
    "start": 75.72687132972857,
    "end": 75.92154195011348
  },
  {
    "pitch": 37,
    "velocity": 76,
    "start": 75.72687132972857,
    "end": 75.92154195011348
  },
  {
    "pitch": 49,
    "velocity": 76,
    "start": 75.72687132972857,
    "end": 75.92154195011348
  },
  {
    "pitch": 68,
    "velocity": 98,
    "start": 75.92154195011348,
    "end": 76.11621257049838
  },
  {
    "pitch": 37,
    "velocity": 80,
    "start": 75.92154195011348,
    "end": 76.11621257049838
  },
  {
    "pitch": 49,
    "velocity": 80,
    "start": 75.92154195011348,
    "end": 76.11621257049838
  },
  {
    "pitch": 70,
    "velocity": 104,
    "start": 76.11621257049838,
    "end": 76.31088319088329
  },
  {
    "pitch": 37,
    "velocity": 78,
    "start": 76.11621257049838,
    "end": 76.31088319088329
  },
  {
    "pitch": 49,
    "velocity": 78,
    "start": 76.11621257049838,
    "end": 76.31088319088329
  },
  {
    "pitch": 77,
    "velocity": 78,
    "start": 76.11621257049838,
    "end": 76.7002244316531
  },
  {
    "pitch": 70,
    "velocity": 100,
    "start": 76.31088319088329,
    "end": 76.5055538112682
  },
  {
    "pitch": 37,
    "velocity": 80,
    "start": 76.31088319088329,
    "end": 76.5055538112682
  },
  {
    "pitch": 49,
    "velocity": 80,
    "start": 76.31088319088329,
    "end": 76.5055538112682
  },
  {
    "pitch": 70,
    "velocity": 99,
    "start": 76.5055538112682,
    "end": 76.7002244316531
  },
  {
    "pitch": 37,
    "velocity": 76,
    "start": 76.5055538112682,
    "end": 76.7002244316531
  },
  {
    "pitch": 49,
    "velocity": 76,
    "start": 76.5055538112682,
    "end": 76.7002244316531
  },
  {
    "pitch": 78,
    "velocity": 76,
    "start": 76.7002244316531,
    "end": 76.89489505203801
  },
  {
    "pitch": 70,
    "velocity": 101,
    "start": 76.7002244316531,
    "end": 76.89489505203801
  },
  {
    "pitch": 37,
    "velocity": 75,
    "start": 76.7002244316531,
    "end": 76.89489505203801
  },
  {
    "pitch": 49,
    "velocity": 75,
    "start": 76.7002244316531,
    "end": 76.89489505203801
  },
  {
    "pitch": 77,
    "velocity": 72,
    "start": 76.89489505203801,
    "end": 77.0895656724229
  },
  {
    "pitch": 70,
    "velocity": 99,
    "start": 76.89489505203801,
    "end": 77.0895656724229
  },
  {
    "pitch": 37,
    "velocity": 75,
    "start": 76.89489505203801,
    "end": 77.0895656724229
  },
  {
    "pitch": 49,
    "velocity": 75,
    "start": 76.89489505203801,
    "end": 77.0895656724229
  },
  {
    "pitch": 77,
    "velocity": 73,
    "start": 77.0895656724229,
    "end": 77.28423629280782
  },
  {
    "pitch": 73,
    "velocity": 105,
    "start": 77.0895656724229,
    "end": 77.28423629280782
  },
  {
    "pitch": 34,
    "velocity": 70,
    "start": 77.0895656724229,
    "end": 77.28423629280782
  },
  {
    "pitch": 46,
    "velocity": 70,
    "start": 77.0895656724229,
    "end": 77.28423629280782
  },
  {
    "pitch": 77,
    "velocity": 76,
    "start": 77.28423629280782,
    "end": 77.47890691319273
  },
  {
    "pitch": 73,
    "velocity": 100,
    "start": 77.28423629280782,
    "end": 77.47890691319273
  },
  {
    "pitch": 34,
    "velocity": 77,
    "start": 77.28423629280782,
    "end": 77.47890691319273
  },
  {
    "pitch": 46,
    "velocity": 77,
    "start": 77.28423629280782,
    "end": 77.47890691319273
  },
  {
    "pitch": 73,
    "velocity": 99,
    "start": 77.47890691319273,
    "end": 77.67357753357763
  },
  {
    "pitch": 34,
    "velocity": 74,
    "start": 77.47890691319273,
    "end": 77.67357753357763
  },
  {
    "pitch": 46,
    "velocity": 74,
    "start": 77.47890691319273,
    "end": 77.67357753357763
  },
  {
    "pitch": 78,
    "velocity": 83,
    "start": 77.47890691319273,
    "end": 78.25758939473235
  },
  {
    "pitch": 73,
    "velocity": 99,
    "start": 77.67357753357763,
    "end": 77.86824815396254
  },
  {
    "pitch": 34,
    "velocity": 77,
    "start": 77.67357753357763,
    "end": 77.86824815396254
  },
  {
    "pitch": 46,
    "velocity": 77,
    "start": 77.67357753357763,
    "end": 77.86824815396254
  },
  {
    "pitch": 70,
    "velocity": 89,
    "start": 77.86824815396254,
    "end": 78.06291877434744
  },
  {
    "pitch": 39,
    "velocity": 82,
    "start": 77.86824815396254,
    "end": 78.06291877434744
  },
  {
    "pitch": 51,
    "velocity": 82,
    "start": 77.86824815396254,
    "end": 78.06291877434744
  },
  {
    "pitch": 70,
    "velocity": 93,
    "start": 78.06291877434744,
    "end": 78.25758939473235
  },
  {
    "pitch": 39,
    "velocity": 74,
    "start": 78.06291877434744,
    "end": 78.25758939473235
  },
  {
    "pitch": 51,
    "velocity": 74,
    "start": 78.06291877434744,
    "end": 78.25758939473235
  },
  {
    "pitch": 70,
    "velocity": 91,
    "start": 78.25758939473235,
    "end": 78.45226001511725
  },
  {
    "pitch": 39,
    "velocity": 74,
    "start": 78.25758939473235,
    "end": 78.45226001511725
  },
  {
    "pitch": 51,
    "velocity": 74,
    "start": 78.25758939473235,
    "end": 78.45226001511725
  },
  {
    "pitch": 73,
    "velocity": 66,
    "start": 78.25758939473235,
    "end": 78.84160125588707
  },
  {
    "pitch": 70,
    "velocity": 99,
    "start": 78.45226001511725,
    "end": 78.64693063550216
  },
  {
    "pitch": 39,
    "velocity": 77,
    "start": 78.45226001511725,
    "end": 78.64693063550216
  },
  {
    "pitch": 51,
    "velocity": 77,
    "start": 78.45226001511725,
    "end": 78.64693063550216
  },
  {
    "pitch": 70,
    "velocity": 96,
    "start": 78.64693063550216,
    "end": 78.84160125588707
  },
  {
    "pitch": 39,
    "velocity": 72,
    "start": 78.64693063550216,
    "end": 78.84160125588707
  },
  {
    "pitch": 51,
    "velocity": 72,
    "start": 78.64693063550216,
    "end": 78.84160125588707
  },
  {
    "pitch": 70,
    "velocity": 100,
    "start": 78.84160125588707,
    "end": 79.03627187627197
  },
  {
    "pitch": 39,
    "velocity": 80,
    "start": 78.84160125588707,
    "end": 79.03627187627197
  },
  {
    "pitch": 51,
    "velocity": 80,
    "start": 78.84160125588707,
    "end": 79.03627187627197
  },
  {
    "pitch": 73,
    "velocity": 82,
    "start": 78.84160125588707,
    "end": 79.42561311704178
  },
  {
    "pitch": 70,
    "velocity": 95,
    "start": 79.03627187627197,
    "end": 79.23094249665688
  },
  {
    "pitch": 39,
    "velocity": 74,
    "start": 79.03627187627197,
    "end": 79.23094249665688
  },
  {
    "pitch": 51,
    "velocity": 74,
    "start": 79.03627187627197,
    "end": 79.23094249665688
  },
  {
    "pitch": 61,
    "velocity": 78,
    "start": 79.23094249665688,
    "end": 79.42561311704178
  },
  {
    "pitch": 39,
    "velocity": 80,
    "start": 79.23094249665688,
    "end": 79.42561311704178
  },
  {
    "pitch": 51,
    "velocity": 80,
    "start": 79.23094249665688,
    "end": 79.42561311704178
  },
  {
    "pitch": 75,
    "velocity": 75,
    "start": 79.42561311704178,
    "end": 79.62028373742669
  },
  {
    "pitch": 63,
    "velocity": 97,
    "start": 79.42561311704178,
    "end": 79.62028373742669
  },
  {
    "pitch": 44,
    "velocity": 80,
    "start": 79.42561311704178,
    "end": 79.62028373742669
  },
  {
    "pitch": 56,
    "velocity": 80,
    "start": 79.42561311704178,
    "end": 79.62028373742669
  },
  {
    "pitch": 77,
    "velocity": 78,
    "start": 79.62028373742669,
    "end": 79.8149543578116
  },
  {
    "pitch": 61,
    "velocity": 90,
    "start": 79.62028373742669,
    "end": 79.8149543578116
  },
  {
    "pitch": 44,
    "velocity": 77,
    "start": 79.62028373742669,
    "end": 79.8149543578116
  },
  {
    "pitch": 56,
    "velocity": 77,
    "start": 79.62028373742669,
    "end": 79.8149543578116
  },
  {
    "pitch": 66,
    "velocity": 113,
    "start": 79.8149543578116,
    "end": 80.0096249781965
  },
  {
    "pitch": 44,
    "velocity": 76,
    "start": 79.8149543578116,
    "end": 80.0096249781965
  },
  {
    "pitch": 56,
    "velocity": 76,
    "start": 79.8149543578116,
    "end": 80.0096249781965
  },
  {
    "pitch": 75,
    "velocity": 70,
    "start": 79.8149543578116,
    "end": 80.59363683935122
  },
  {
    "pitch": 66,
    "velocity": 102,
    "start": 80.0096249781965,
    "end": 80.20429559858141
  },
  {
    "pitch": 44,
    "velocity": 77,
    "start": 80.0096249781965,
    "end": 80.20429559858141
  },
  {
    "pitch": 56,
    "velocity": 77,
    "start": 80.0096249781965,
    "end": 80.20429559858141
  },
  {
    "pitch": 66,
    "velocity": 98,
    "start": 80.20429559858141,
    "end": 80.39896621896631
  },
  {
    "pitch": 44,
    "velocity": 79,
    "start": 80.20429559858141,
    "end": 80.39896621896631
  },
  {
    "pitch": 56,
    "velocity": 79,
    "start": 80.20429559858141,
    "end": 80.39896621896631
  },
  {
    "pitch": 63,
    "velocity": 88,
    "start": 80.39896621896631,
    "end": 80.59363683935122
  },
  {
    "pitch": 44,
    "velocity": 75,
    "start": 80.39896621896631,
    "end": 80.59363683935122
  },
  {
    "pitch": 56,
    "velocity": 75,
    "start": 80.39896621896631,
    "end": 80.59363683935122
  },
  {
    "pitch": 63,
    "velocity": 92,
    "start": 80.59363683935122,
    "end": 80.78830745973612
  },
  {
    "pitch": 44,
    "velocity": 75,
    "start": 80.59363683935122,
    "end": 80.78830745973612
  },
  {
    "pitch": 56,
    "velocity": 75,
    "start": 80.59363683935122,
    "end": 80.78830745973612
  },
  {
    "pitch": 73,
    "velocity": 70,
    "start": 80.59363683935122,
    "end": 80.98297808012103
  },
  {
    "pitch": 61,
    "velocity": 94,
    "start": 80.78830745973612,
    "end": 80.98297808012103
  },
  {
    "pitch": 46,
    "velocity": 78,
    "start": 80.78830745973612,
    "end": 80.98297808012103
  },
  {
    "pitch": 58,
    "velocity": 78,
    "start": 80.78830745973612,
    "end": 80.98297808012103
  },
  {
    "pitch": 68,
    "velocity": 112,
    "start": 80.98297808012103,
    "end": 81.17764870050594
  },
  {
    "pitch": 37,
    "velocity": 69,
    "start": 80.98297808012103,
    "end": 81.17764870050594
  },
  {
    "pitch": 49,
    "velocity": 69,
    "start": 80.98297808012103,
    "end": 81.17764870050594
  },
  {
    "pitch": 75,
    "velocity": 82,
    "start": 80.98297808012103,
    "end": 81.76166056166065
  },
  {
    "pitch": 68,
    "velocity": 104,
    "start": 81.17764870050594,
    "end": 81.37231932089084
  },
  {
    "pitch": 37,
    "velocity": 77,
    "start": 81.17764870050594,
    "end": 81.37231932089084
  },
  {
    "pitch": 49,
    "velocity": 77,
    "start": 81.17764870050594,
    "end": 81.37231932089084
  },
  {
    "pitch": 68,
    "velocity": 97,
    "start": 81.37231932089084,
    "end": 81.56698994127575
  },
  {
    "pitch": 37,
    "velocity": 77,
    "start": 81.37231932089084,
    "end": 81.56698994127575
  },
  {
    "pitch": 49,
    "velocity": 77,
    "start": 81.37231932089084,
    "end": 81.56698994127575
  },
  {
    "pitch": 68,
    "velocity": 94,
    "start": 81.56698994127575,
    "end": 81.76166056166065
  },
  {
    "pitch": 37,
    "velocity": 80,
    "start": 81.56698994127575,
    "end": 81.76166056166065
  },
  {
    "pitch": 49,
    "velocity": 80,
    "start": 81.56698994127575,
    "end": 81.76166056166065
  },
  {
    "pitch": 77,
    "velocity": 81,
    "start": 81.76166056166065,
    "end": 81.95633118204556
  },
  {
    "pitch": 68,
    "velocity": 101,
    "start": 81.76166056166065,
    "end": 81.95633118204556
  },
  {
    "pitch": 37,
    "velocity": 78,
    "start": 81.76166056166065,
    "end": 81.95633118204556
  },
  {
    "pitch": 49,
    "velocity": 78,
    "start": 81.76166056166065,
    "end": 81.95633118204556
  },
  {
    "pitch": 68,
    "velocity": 93,
    "start": 81.95633118204556,
    "end": 82.15100180243047
  },
  {
    "pitch": 37,
    "velocity": 72,
    "start": 81.95633118204556,
    "end": 82.15100180243047
  },
  {
    "pitch": 49,
    "velocity": 72,
    "start": 81.95633118204556,
    "end": 82.15100180243047
  },
  {
    "pitch": 77,
    "velocity": 79,
    "start": 81.95633118204556,
    "end": 82.54034304320028
  },
  {
    "pitch": 68,
    "velocity": 93,
    "start": 82.15100180243047,
    "end": 82.34567242281537
  },
  {
    "pitch": 37,
    "velocity": 76,
    "start": 82.15100180243047,
    "end": 82.34567242281537
  },
  {
    "pitch": 49,
    "velocity": 76,
    "start": 82.15100180243047,
    "end": 82.34567242281537
  },
  {
    "pitch": 70,
    "velocity": 103,
    "start": 82.34567242281537,
    "end": 82.54034304320028
  },
  {
    "pitch": 37,
    "velocity": 72,
    "start": 82.34567242281537,
    "end": 82.54034304320028
  },
  {
    "pitch": 49,
    "velocity": 72,
    "start": 82.34567242281537,
    "end": 82.54034304320028
  },
  {
    "pitch": 70,
    "velocity": 100,
    "start": 82.54034304320028,
    "end": 82.73501366358518
  },
  {
    "pitch": 37,
    "velocity": 78,
    "start": 82.54034304320028,
    "end": 82.73501366358518
  },
  {
    "pitch": 49,
    "velocity": 78,
    "start": 82.54034304320028,
    "end": 82.73501366358518
  },
  {
    "pitch": 75,
    "velocity": 71,
    "start": 82.54034304320028,
    "end": 83.3190255247399
  },
  {
    "pitch": 70,
    "velocity": 97,
    "start": 82.73501366358518,
    "end": 82.92968428397009
  },
  {
    "pitch": 37,
    "velocity": 76,
    "start": 82.73501366358518,
    "end": 82.92968428397009
  },
  {
    "pitch": 49,
    "velocity": 76,
    "start": 82.73501366358518,
    "end": 82.92968428397009
  },
  {
    "pitch": 70,
    "velocity": 99,
    "start": 82.92968428397009,
    "end": 83.12435490435499
  },
  {
    "pitch": 37,
    "velocity": 73,
    "start": 82.92968428397009,
    "end": 83.12435490435499
  },
  {
    "pitch": 49,
    "velocity": 73,
    "start": 82.92968428397009,
    "end": 83.12435490435499
  },
  {
    "pitch": 70,
    "velocity": 98,
    "start": 83.12435490435499,
    "end": 83.3190255247399
  },
  {
    "pitch": 37,
    "velocity": 74,
    "start": 83.12435490435499,
    "end": 83.3190255247399
  },
  {
    "pitch": 49,
    "velocity": 74,
    "start": 83.12435490435499,
    "end": 83.3190255247399
  },
  {
    "pitch": 73,
    "velocity": 105,
    "start": 83.3190255247399,
    "end": 83.51369614512481
  },
  {
    "pitch": 34,
    "velocity": 74,
    "start": 83.3190255247399,
    "end": 83.51369614512481
  },
  {
    "pitch": 46,
    "velocity": 74,
    "start": 83.3190255247399,
    "end": 83.51369614512481
  },
  {
    "pitch": 77,
    "velocity": 76,
    "start": 83.3190255247399,
    "end": 83.57757244243861
  },
  {
    "pitch": 73,
    "velocity": 100,
    "start": 83.51369614512481,
    "end": 83.70836676550971
  },
  {
    "pitch": 34,
    "velocity": 73,
    "start": 83.51369614512481,
    "end": 83.70836676550971
  },
  {
    "pitch": 46,
    "velocity": 73,
    "start": 83.51369614512481,
    "end": 83.70836676550971
  },
  {
    "pitch": 78,
    "velocity": 81,
    "start": 83.57757244243861,
    "end": 83.8361193601373
  },
  {
    "pitch": 73,
    "velocity": 99,
    "start": 83.70836676550971,
    "end": 83.90303738589462
  },
  {
    "pitch": 34,
    "velocity": 78,
    "start": 83.70836676550971,
    "end": 83.90303738589462
  },
  {
    "pitch": 46,
    "velocity": 78,
    "start": 83.70836676550971,
    "end": 83.90303738589462
  },
  {
    "pitch": 77,
    "velocity": 70,
    "start": 83.8361193601373,
    "end": 84.09770800627952
  },
  {
    "pitch": 73,
    "velocity": 101,
    "start": 83.90303738589462,
    "end": 84.09770800627952
  },
  {
    "pitch": 34,
    "velocity": 76,
    "start": 83.90303738589462,
    "end": 84.09770800627952
  },
  {
    "pitch": 46,
    "velocity": 76,
    "start": 83.90303738589462,
    "end": 84.09770800627952
  },
  {
    "pitch": 70,
    "velocity": 90,
    "start": 84.09770800627952,
    "end": 84.29237862666443
  },
  {
    "pitch": 39,
    "velocity": 84,
    "start": 84.09770800627952,
    "end": 84.29237862666443
  },
  {
    "pitch": 51,
    "velocity": 84,
    "start": 84.09770800627952,
    "end": 84.29237862666443
  },
  {
    "pitch": 75,
    "velocity": 70,
    "start": 84.09770800627952,
    "end": 84.48704924704934
  },
  {
    "pitch": 70,
    "velocity": 92,
    "start": 84.29237862666443,
    "end": 84.48704924704934
  },
  {
    "pitch": 39,
    "velocity": 78,
    "start": 84.29237862666443,
    "end": 84.48704924704934
  },
  {
    "pitch": 51,
    "velocity": 78,
    "start": 84.29237862666443,
    "end": 84.48704924704934
  },
  {
    "pitch": 70,
    "velocity": 99,
    "start": 84.48704924704934,
    "end": 84.68171986743424
  },
  {
    "pitch": 39,
    "velocity": 78,
    "start": 84.48704924704934,
    "end": 84.68171986743424
  },
  {
    "pitch": 51,
    "velocity": 78,
    "start": 84.48704924704934,
    "end": 84.68171986743424
  },
  {
    "pitch": 75,
    "velocity": 74,
    "start": 84.48704924704934,
    "end": 84.87639048781915
  },
  {
    "pitch": 70,
    "velocity": 96,
    "start": 84.68171986743424,
    "end": 84.87639048781915
  },
  {
    "pitch": 39,
    "velocity": 77,
    "start": 84.68171986743424,
    "end": 84.87639048781915
  },
  {
    "pitch": 51,
    "velocity": 77,
    "start": 84.68171986743424,
    "end": 84.87639048781915
  },
  {
    "pitch": 70,
    "velocity": 95,
    "start": 84.87639048781915,
    "end": 85.07106110820405
  },
  {
    "pitch": 39,
    "velocity": 76,
    "start": 84.87639048781915,
    "end": 85.07106110820405
  },
  {
    "pitch": 51,
    "velocity": 76,
    "start": 84.87639048781915,
    "end": 85.07106110820405
  },
  {
    "pitch": 75,
    "velocity": 76,
    "start": 84.87639048781915,
    "end": 85.65507296935877
  },
  {
    "pitch": 70,
    "velocity": 99,
    "start": 85.07106110820405,
    "end": 85.26573172858896
  },
  {
    "pitch": 39,
    "velocity": 77,
    "start": 85.07106110820405,
    "end": 85.26573172858896
  },
  {
    "pitch": 51,
    "velocity": 77,
    "start": 85.07106110820405,
    "end": 85.26573172858896
  },
  {
    "pitch": 70,
    "velocity": 99,
    "start": 85.26573172858896,
    "end": 85.46040234897386
  },
  {
    "pitch": 39,
    "velocity": 75,
    "start": 85.26573172858896,
    "end": 85.46040234897386
  },
  {
    "pitch": 51,
    "velocity": 75,
    "start": 85.26573172858896,
    "end": 85.46040234897386
  },
  {
    "pitch": 61,
    "velocity": 78,
    "start": 85.46040234897386,
    "end": 85.65507296935877
  },
  {
    "pitch": 39,
    "velocity": 79,
    "start": 85.46040234897386,
    "end": 85.65507296935877
  },
  {
    "pitch": 51,
    "velocity": 79,
    "start": 85.46040234897386,
    "end": 85.65507296935877
  },
  {
    "pitch": 63,
    "velocity": 99,
    "start": 85.65507296935877,
    "end": 85.84974358974368
  },
  {
    "pitch": 44,
    "velocity": 78,
    "start": 85.65507296935877,
    "end": 85.84974358974368
  },
  {
    "pitch": 56,
    "velocity": 78,
    "start": 85.65507296935877,
    "end": 85.84974358974368
  },
  {
    "pitch": 73,
    "velocity": 71,
    "start": 85.65507296935877,
    "end": 87.21243793243802
  },
  {
    "pitch": 61,
    "velocity": 92,
    "start": 85.84974358974368,
    "end": 86.04441421012858
  },
  {
    "pitch": 44,
    "velocity": 82,
    "start": 85.84974358974368,
    "end": 86.04441421012858
  },
  {
    "pitch": 56,
    "velocity": 82,
    "start": 85.84974358974368,
    "end": 86.04441421012858
  },
  {
    "pitch": 66,
    "velocity": 111,
    "start": 86.04441421012858,
    "end": 86.23908483051349
  },
  {
    "pitch": 44,
    "velocity": 73,
    "start": 86.04441421012858,
    "end": 86.23908483051349
  },
  {
    "pitch": 56,
    "velocity": 73,
    "start": 86.04441421012858,
    "end": 86.23908483051349
  },
  {
    "pitch": 66,
    "velocity": 100,
    "start": 86.23908483051349,
    "end": 86.43375545089839
  },
  {
    "pitch": 44,
    "velocity": 76,
    "start": 86.23908483051349,
    "end": 86.43375545089839
  },
  {
    "pitch": 56,
    "velocity": 76,
    "start": 86.23908483051349,
    "end": 86.43375545089839
  },
  {
    "pitch": 66,
    "velocity": 99,
    "start": 86.43375545089839,
    "end": 86.6284260712833
  },
  {
    "pitch": 44,
    "velocity": 77,
    "start": 86.43375545089839,
    "end": 86.6284260712833
  },
  {
    "pitch": 56,
    "velocity": 77,
    "start": 86.43375545089839,
    "end": 86.6284260712833
  },
  {
    "pitch": 63,
    "velocity": 91,
    "start": 86.6284260712833,
    "end": 86.82309669166821
  },
  {
    "pitch": 44,
    "velocity": 77,
    "start": 86.6284260712833,
    "end": 86.82309669166821
  },
  {
    "pitch": 56,
    "velocity": 77,
    "start": 86.6284260712833,
    "end": 86.82309669166821
  },
  {
    "pitch": 63,
    "velocity": 95,
    "start": 86.82309669166821,
    "end": 87.01776731205311
  },
  {
    "pitch": 44,
    "velocity": 78,
    "start": 86.82309669166821,
    "end": 87.01776731205311
  },
  {
    "pitch": 56,
    "velocity": 78,
    "start": 86.82309669166821,
    "end": 87.01776731205311
  },
  {
    "pitch": 61,
    "velocity": 87,
    "start": 87.01776731205311,
    "end": 87.21243793243802
  },
  {
    "pitch": 46,
    "velocity": 80,
    "start": 87.01776731205311,
    "end": 87.21243793243802
  },
  {
    "pitch": 58,
    "velocity": 80,
    "start": 87.01776731205311,
    "end": 87.21243793243802
  },
  {
    "pitch": 39,
    "velocity": 88,
    "start": 87.21243793243802,
    "end": 87.40710855282292
  },
  {
    "pitch": 82,
    "velocity": 92,
    "start": 87.21243793243802,
    "end": 87.60177917320783
  },
  {
    "pitch": 51,
    "velocity": 69,
    "start": 87.21243793243802,
    "end": 87.60177917320783
  },
  {
    "pitch": 70,
    "velocity": 119,
    "start": 87.21243793243802,
    "end": 88.76980289551726
  },
  {
    "pitch": 39,
    "velocity": 95,
    "start": 87.40710855282292,
    "end": 87.60177917320783
  },
  {
    "pitch": 39,
    "velocity": 96,
    "start": 87.60177917320783,
    "end": 87.79644979359274
  },
  {
    "pitch": 82,
    "velocity": 78,
    "start": 87.60177917320783,
    "end": 87.99112041397764
  },
  {
    "pitch": 51,
    "velocity": 71,
    "start": 87.60177917320783,
    "end": 87.99112041397764
  },
  {
    "pitch": 39,
    "velocity": 99,
    "start": 87.79644979359274,
    "end": 87.99112041397764
  },
  {
    "pitch": 39,
    "velocity": 98,
    "start": 87.99112041397764,
    "end": 88.18579103436255
  },
  {
    "pitch": 85,
    "velocity": 83,
    "start": 87.99112041397764,
    "end": 88.38046165474745
  },
  {
    "pitch": 51,
    "velocity": 74,
    "start": 87.99112041397764,
    "end": 88.38046165474745
  },
  {
    "pitch": 73,
    "velocity": 127,
    "start": 87.99112041397764,
    "end": 88.76980289551726
  },
  {
    "pitch": 39,
    "velocity": 102,
    "start": 88.18579103436255,
    "end": 88.38046165474745
  },
  {
    "pitch": 39,
    "velocity": 96,
    "start": 88.38046165474745,
    "end": 88.57513227513236
  },
  {
    "pitch": 85,
    "velocity": 74,
    "start": 88.38046165474745,
    "end": 88.76980289551726
  },
  {
    "pitch": 51,
    "velocity": 78,
    "start": 88.38046165474745,
    "end": 88.76980289551726
  },
  {
    "pitch": 39,
    "velocity": 97,
    "start": 88.57513227513236,
    "end": 88.96447351590217
  },
  {
    "pitch": 85,
    "velocity": 78,
    "start": 88.76980289551726,
    "end": 88.96447351590217
  },
  {
    "pitch": 63,
    "velocity": 95,
    "start": 88.76980289551726,
    "end": 88.96447351590217
  },
  {
    "pitch": 51,
    "velocity": 110,
    "start": 88.76980289551726,
    "end": 88.96447351590217
  },
  {
    "pitch": 75,
    "velocity": 108,
    "start": 88.76980289551726,
    "end": 89.02834981321597
  },
  {
    "pitch": 82,
    "velocity": 68,
    "start": 88.96447351590217,
    "end": 89.15914413628708
  },
  {
    "pitch": 61,
    "velocity": 73,
    "start": 88.96447351590217,
    "end": 89.15914413628708
  },
  {
    "pitch": 51,
    "velocity": 99,
    "start": 88.96447351590217,
    "end": 89.15914413628708
  },
  {
    "pitch": 73,
    "velocity": 94,
    "start": 89.02834981321597,
    "end": 89.28689673091466
  },
  {
    "pitch": 82,
    "velocity": 80,
    "start": 89.15914413628708,
    "end": 89.35381475667198
  },
  {
    "pitch": 61,
    "velocity": 74,
    "start": 89.15914413628708,
    "end": 89.35381475667198
  },
  {
    "pitch": 51,
    "velocity": 100,
    "start": 89.15914413628708,
    "end": 89.35381475667198
  },
  {
    "pitch": 73,
    "velocity": 96,
    "start": 89.28689673091466,
    "end": 89.54848537705689
  },
  {
    "pitch": 82,
    "velocity": 77,
    "start": 89.35381475667198,
    "end": 89.54848537705689
  },
  {
    "pitch": 61,
    "velocity": 80,
    "start": 89.35381475667198,
    "end": 89.54848537705689
  },
  {
    "pitch": 51,
    "velocity": 99,
    "start": 89.35381475667198,
    "end": 89.54848537705689
  },
  {
    "pitch": 85,
    "velocity": 84,
    "start": 89.54848537705689,
    "end": 89.74315599744179
  },
  {
    "pitch": 61,
    "velocity": 77,
    "start": 89.54848537705689,
    "end": 89.74315599744179
  },
  {
    "pitch": 51,
    "velocity": 96,
    "start": 89.54848537705689,
    "end": 89.74315599744179
  },
  {
    "pitch": 73,
    "velocity": 96,
    "start": 89.54848537705689,
    "end": 89.80703229475559
  },
  {
    "pitch": 85,
    "velocity": 78,
    "start": 89.74315599744179,
    "end": 89.9378266178267
  },
  {
    "pitch": 61,
    "velocity": 73,
    "start": 89.74315599744179,
    "end": 89.9378266178267
  },
  {
    "pitch": 51,
    "velocity": 98,
    "start": 89.74315599744179,
    "end": 89.9378266178267
  },
  {
    "pitch": 73,
    "velocity": 97,
    "start": 89.80703229475559,
    "end": 90.0655792124543
  },
  {
    "pitch": 85,
    "velocity": 74,
    "start": 89.9378266178267,
    "end": 90.13249723821161
  },
  {
    "pitch": 61,
    "velocity": 76,
    "start": 89.9378266178267,
    "end": 90.13249723821161
  },
  {
    "pitch": 51,
    "velocity": 98,
    "start": 89.9378266178267,
    "end": 90.13249723821161
  },
  {
    "pitch": 75,
    "velocity": 104,
    "start": 90.0655792124543,
    "end": 90.1963735355254
  },
  {
    "pitch": 87,
    "velocity": 82,
    "start": 90.13249723821161,
    "end": 90.32716785859651
  },
  {
    "pitch": 63,
    "velocity": 81,
    "start": 90.13249723821161,
    "end": 90.32716785859651
  },
  {
    "pitch": 51,
    "velocity": 98,
    "start": 90.13249723821161,
    "end": 90.32716785859651
  },
  {
    "pitch": 70,
    "velocity": 89,
    "start": 90.1963735355254,
    "end": 90.52183847898142
  },
  {
    "pitch": 42,
    "velocity": 87,
    "start": 90.32716785859651,
    "end": 90.52183847898142
  },
  {
    "pitch": 82,
    "velocity": 71,
    "start": 90.32716785859651,
    "end": 90.71650909936632
  },
  {
    "pitch": 51,
    "velocity": 65,
    "start": 90.32716785859651,
    "end": 90.71650909936632
  },
  {
    "pitch": 42,
    "velocity": 96,
    "start": 90.52183847898142,
    "end": 90.71650909936632
  },
  {
    "pitch": 75,
    "velocity": 111,
    "start": 90.52183847898142,
    "end": 90.84426169399391
  },
  {
    "pitch": 42,
    "velocity": 98,
    "start": 90.71650909936632,
    "end": 90.91117971975123
  },
  {
    "pitch": 82,
    "velocity": 76,
    "start": 90.71650909936632,
    "end": 91.10585034013613
  },
  {
    "pitch": 51,
    "velocity": 72,
    "start": 90.71650909936632,
    "end": 91.10585034013613
  },
  {
    "pitch": 73,
    "velocity": 93,
    "start": 90.84426169399391,
    "end": 90.97505601706503
  },
  {
    "pitch": 42,
    "velocity": 97,
    "start": 90.91117971975123,
    "end": 91.10585034013613
  },
  {
    "pitch": 73,
    "velocity": 99,
    "start": 90.97505601706503,
    "end": 91.10585034013613
  },
  {
    "pitch": 73,
    "velocity": 100,
    "start": 91.10585034013613,
    "end": 91.30052096052104
  },
  {
    "pitch": 42,
    "velocity": 97,
    "start": 91.10585034013613,
    "end": 91.30052096052104
  },
  {
    "pitch": 85,
    "velocity": 87,
    "start": 91.10585034013613,
    "end": 91.49519158090595
  },
  {
    "pitch": 51,
    "velocity": 74,
    "start": 91.10585034013613,
    "end": 91.49519158090595
  },
  {
    "pitch": 73,
    "velocity": 97,
    "start": 91.30052096052104,
    "end": 91.49519158090595
  },
  {
    "pitch": 42,
    "velocity": 95,
    "start": 91.30052096052104,
    "end": 91.49519158090595
  },
  {
    "pitch": 75,
    "velocity": 99,
    "start": 91.49519158090595,
    "end": 91.68986220129085
  },
  {
    "pitch": 42,
    "velocity": 100,
    "start": 91.49519158090595,
    "end": 91.68986220129085
  },
  {
    "pitch": 85,
    "velocity": 76,
    "start": 91.49519158090595,
    "end": 91.88453282167576
  },
  {
    "pitch": 51,
    "velocity": 80,
    "start": 91.49519158090595,
    "end": 91.88453282167576
  },
  {
    "pitch": 42,
    "velocity": 99,
    "start": 91.68986220129085,
    "end": 92.07920344206066
  },
  {
    "pitch": 70,
    "velocity": 87,
    "start": 91.68986220129085,
    "end": 92.27387406244557
  },
  {
    "pitch": 85,
    "velocity": 77,
    "start": 91.88453282167576,
    "end": 92.07920344206066
  },
  {
    "pitch": 54,
    "velocity": 84,
    "start": 91.88453282167576,
    "end": 92.07920344206066
  },
  {
    "pitch": 49,
    "velocity": 105,
    "start": 91.88453282167576,
    "end": 92.07920344206066
  },
  {
    "pitch": 78,
    "velocity": 65,
    "start": 92.07920344206066,
    "end": 92.27387406244557
  },
  {
    "pitch": 54,
    "velocity": 77,
    "start": 92.07920344206066,
    "end": 92.27387406244557
  },
  {
    "pitch": 49,
    "velocity": 96,
    "start": 92.07920344206066,
    "end": 92.27387406244557
  },
  {
    "pitch": 75,
    "velocity": 98,
    "start": 92.07920344206066,
    "end": 92.40162665707317
  },
  {
    "pitch": 78,
    "velocity": 72,
    "start": 92.27387406244557,
    "end": 92.46854468283048
  },
  {
    "pitch": 54,
    "velocity": 78,
    "start": 92.27387406244557,
    "end": 92.46854468283048
  },
  {
    "pitch": 49,
    "velocity": 95,
    "start": 92.27387406244557,
    "end": 92.46854468283048
  },
  {
    "pitch": 73,
    "velocity": 92,
    "start": 92.40162665707317,
    "end": 92.53242098014427
  },
  {
    "pitch": 78,
    "velocity": 73,
    "start": 92.46854468283048,
    "end": 92.66321530321538
  },
  {
    "pitch": 54,
    "velocity": 81,
    "start": 92.46854468283048,
    "end": 92.66321530321538
  },
  {
    "pitch": 49,
    "velocity": 94,
    "start": 92.46854468283048,
    "end": 92.66321530321538
  },
  {
    "pitch": 73,
    "velocity": 98,
    "start": 92.53242098014427,
    "end": 92.66321530321538
  },
  {
    "pitch": 80,
    "velocity": 84,
    "start": 92.66321530321538,
    "end": 92.85788592360029
  },
  {
    "pitch": 73,
    "velocity": 94,
    "start": 92.66321530321538,
    "end": 92.85788592360029
  },
  {
    "pitch": 54,
    "velocity": 77,
    "start": 92.66321530321538,
    "end": 92.85788592360029
  },
  {
    "pitch": 49,
    "velocity": 97,
    "start": 92.66321530321538,
    "end": 92.85788592360029
  },
  {
    "pitch": 80,
    "velocity": 76,
    "start": 92.85788592360029,
    "end": 93.05255654398519
  },
  {
    "pitch": 73,
    "velocity": 101,
    "start": 92.85788592360029,
    "end": 93.05255654398519
  },
  {
    "pitch": 54,
    "velocity": 73,
    "start": 92.85788592360029,
    "end": 93.05255654398519
  },
  {
    "pitch": 49,
    "velocity": 97,
    "start": 92.85788592360029,
    "end": 93.05255654398519
  },
  {
    "pitch": 80,
    "velocity": 74,
    "start": 93.05255654398519,
    "end": 93.2472271643701
  },
  {
    "pitch": 75,
    "velocity": 101,
    "start": 93.05255654398519,
    "end": 93.2472271643701
  },
  {
    "pitch": 54,
    "velocity": 76,
    "start": 93.05255654398519,
    "end": 93.2472271643701
  },
  {
    "pitch": 49,
    "velocity": 100,
    "start": 93.05255654398519,
    "end": 93.2472271643701
  },
  {
    "pitch": 82,
    "velocity": 81,
    "start": 93.2472271643701,
    "end": 93.441897784755
  },
  {
    "pitch": 51,
    "velocity": 76,
    "start": 93.2472271643701,
    "end": 93.441897784755
  },
  {
    "pitch": 49,
    "velocity": 99,
    "start": 93.2472271643701,
    "end": 93.441897784755
  },
  {
    "pitch": 70,
    "velocity": 82,
    "start": 93.2472271643701,
    "end": 94.99926274783425
  },
  {
    "pitch": 39,
    "velocity": 89,
    "start": 93.441897784755,
    "end": 93.63656840513991
  },
  {
    "pitch": 82,
    "velocity": 82,
    "start": 93.441897784755,
    "end": 93.83123902552482
  },
  {
    "pitch": 51,
    "velocity": 76,
    "start": 93.441897784755,
    "end": 93.83123902552482
  },
  {
    "pitch": 39,
    "velocity": 98,
    "start": 93.63656840513991,
    "end": 93.83123902552482
  },
  {
    "pitch": 39,
    "velocity": 98,
    "start": 93.83123902552482,
    "end": 94.02590964590972
  },
  {
    "pitch": 82,
    "velocity": 79,
    "start": 93.83123902552482,
    "end": 94.22058026629463
  },
  {
    "pitch": 51,
    "velocity": 79,
    "start": 93.83123902552482,
    "end": 94.22058026629463
  },
  {
    "pitch": 39,
    "velocity": 100,
    "start": 94.02590964590972,
    "end": 94.22058026629463
  },
  {
    "pitch": 39,
    "velocity": 98,
    "start": 94.22058026629463,
    "end": 94.41525088667953
  },
  {
    "pitch": 85,
    "velocity": 82,
    "start": 94.22058026629463,
    "end": 94.60992150706444
  },
  {
    "pitch": 51,
    "velocity": 80,
    "start": 94.22058026629463,
    "end": 94.60992150706444
  },
  {
    "pitch": 39,
    "velocity": 97,
    "start": 94.41525088667953,
    "end": 94.60992150706444
  },
  {
    "pitch": 39,
    "velocity": 99,
    "start": 94.60992150706444,
    "end": 94.80459212744935
  },
  {
    "pitch": 85,
    "velocity": 79,
    "start": 94.60992150706444,
    "end": 94.99926274783425
  },
  {
    "pitch": 51,
    "velocity": 71,
    "start": 94.60992150706444,
    "end": 94.99926274783425
  },
  {
    "pitch": 39,
    "velocity": 98,
    "start": 94.80459212744935,
    "end": 95.19393336821916
  },
  {
    "pitch": 85,
    "velocity": 79,
    "start": 94.99926274783425,
    "end": 95.19393336821916
  },
  {
    "pitch": 63,
    "velocity": 95,
    "start": 94.99926274783425,
    "end": 95.19393336821916
  },
  {
    "pitch": 51,
    "velocity": 111,
    "start": 94.99926274783425,
    "end": 95.19393336821916
  },
  {
    "pitch": 68,
    "velocity": 109,
    "start": 94.99926274783425,
    "end": 96.1672864701437
  },
  {
    "pitch": 73,
    "velocity": 109,
    "start": 94.99926274783425,
    "end": 96.1672864701437
  },
  {
    "pitch": 82,
    "velocity": 71,
    "start": 95.19393336821916,
    "end": 95.38860398860406
  },
  {
    "pitch": 61,
    "velocity": 76,
    "start": 95.19393336821916,
    "end": 95.38860398860406
  },
  {
    "pitch": 51,
    "velocity": 102,
    "start": 95.19393336821916,
    "end": 95.38860398860406
  },
  {
    "pitch": 82,
    "velocity": 77,
    "start": 95.38860398860406,
    "end": 95.58327460898897
  },
  {
    "pitch": 61,
    "velocity": 78,
    "start": 95.38860398860406,
    "end": 95.58327460898897
  },
  {
    "pitch": 51,
    "velocity": 92,
    "start": 95.38860398860406,
    "end": 95.58327460898897
  },
  {
    "pitch": 82,
    "velocity": 76,
    "start": 95.58327460898897,
    "end": 95.77794522937387
  },
  {
    "pitch": 61,
    "velocity": 79,
    "start": 95.58327460898897,
    "end": 95.77794522937387
  },
  {
    "pitch": 51,
    "velocity": 97,
    "start": 95.58327460898897,
    "end": 95.77794522937387
  },
  {
    "pitch": 85,
    "velocity": 81,
    "start": 95.77794522937387,
    "end": 95.97261584975878
  },
  {
    "pitch": 61,
    "velocity": 79,
    "start": 95.77794522937387,
    "end": 95.97261584975878
  },
  {
    "pitch": 51,
    "velocity": 99,
    "start": 95.77794522937387,
    "end": 95.97261584975878
  },
  {
    "pitch": 85,
    "velocity": 69,
    "start": 95.97261584975878,
    "end": 96.1672864701437
  },
  {
    "pitch": 61,
    "velocity": 78,
    "start": 95.97261584975878,
    "end": 96.1672864701437
  },
  {
    "pitch": 51,
    "velocity": 97,
    "start": 95.97261584975878,
    "end": 96.1672864701437
  },
  {
    "pitch": 85,
    "velocity": 80,
    "start": 96.1672864701437,
    "end": 96.36195709052859
  },
  {
    "pitch": 61,
    "velocity": 79,
    "start": 96.1672864701437,
    "end": 96.36195709052859
  },
  {
    "pitch": 51,
    "velocity": 95,
    "start": 96.1672864701437,
    "end": 96.36195709052859
  },
  {
    "pitch": 70,
    "velocity": 101,
    "start": 96.1672864701437,
    "end": 96.94596895168331
  },
  {
    "pitch": 75,
    "velocity": 101,
    "start": 96.1672864701437,
    "end": 96.94596895168331
  },
  {
    "pitch": 87,
    "velocity": 82,
    "start": 96.36195709052859,
    "end": 96.5566277109135
  },
  {
    "pitch": 63,
    "velocity": 83,
    "start": 96.36195709052859,
    "end": 96.5566277109135
  },
  {
    "pitch": 51,
    "velocity": 100,
    "start": 96.36195709052859,
    "end": 96.5566277109135
  },
  {
    "pitch": 42,
    "velocity": 90,
    "start": 96.5566277109135,
    "end": 96.7512983312984
  },
  {
    "pitch": 82,
    "velocity": 65,
    "start": 96.5566277109135,
    "end": 96.94596895168331
  },
  {
    "pitch": 51,
    "velocity": 65,
    "start": 96.5566277109135,
    "end": 96.94596895168331
  },
  {
    "pitch": 42,
    "velocity": 97,
    "start": 96.7512983312984,
    "end": 96.94596895168331
  },
  {
    "pitch": 69,
    "velocity": 102,
    "start": 96.89425956814357,
    "end": 96.94596895168331
  },
  {
    "pitch": 42,
    "velocity": 94,
    "start": 96.94596895168331,
    "end": 97.14063957206822
  },
  {
    "pitch": 82,
    "velocity": 70,
    "start": 96.94596895168331,
    "end": 97.33531019245312
  },
  {
    "pitch": 51,
    "velocity": 70,
    "start": 96.94596895168331,
    "end": 97.33531019245312
  },
  {
    "pitch": 66,
    "velocity": 102,
    "start": 96.94596895168331,
    "end": 98.11399267399274
  },
  {
    "pitch": 70,
    "velocity": 102,
    "start": 96.94596895168331,
    "end": 98.11399267399274
  },
  {
    "pitch": 42,
    "velocity": 95,
    "start": 97.14063957206822,
    "end": 97.33531019245312
  },
  {
    "pitch": 42,
    "velocity": 95,
    "start": 97.33531019245312,
    "end": 97.52998081283803
  },
  {
    "pitch": 85,
    "velocity": 79,
    "start": 97.33531019245312,
    "end": 97.72465143322293
  },
  {
    "pitch": 51,
    "velocity": 77,
    "start": 97.33531019245312,
    "end": 97.72465143322293
  },
  {
    "pitch": 42,
    "velocity": 97,
    "start": 97.52998081283803,
    "end": 97.72465143322293
  },
  {
    "pitch": 42,
    "velocity": 99,
    "start": 97.72465143322293,
    "end": 97.91932205360784
  },
  {
    "pitch": 85,
    "velocity": 76,
    "start": 97.72465143322293,
    "end": 98.11399267399274
  },
  {
    "pitch": 51,
    "velocity": 73,
    "start": 97.72465143322293,
    "end": 98.11399267399274
  },
  {
    "pitch": 42,
    "velocity": 99,
    "start": 97.91932205360784,
    "end": 98.30866329437765
  },
  {
    "pitch": 85,
    "velocity": 75,
    "start": 98.11399267399274,
    "end": 98.30866329437765
  },
  {
    "pitch": 54,
    "velocity": 80,
    "start": 98.11399267399274,
    "end": 98.30866329437765
  },
  {
    "pitch": 49,
    "velocity": 103,
    "start": 98.11399267399274,
    "end": 98.30866329437765
  },
  {
    "pitch": 78,
    "velocity": 60,
    "start": 98.30866329437765,
    "end": 98.50333391476256
  },
  {
    "pitch": 54,
    "velocity": 76,
    "start": 98.30866329437765,
    "end": 98.50333391476256
  },
  {
    "pitch": 49,
    "velocity": 98,
    "start": 98.30866329437765,
    "end": 98.50333391476256
  },
  {
    "pitch": 78,
    "velocity": 68,
    "start": 98.50333391476256,
    "end": 98.69800453514746
  },
  {
    "pitch": 54,
    "velocity": 73,
    "start": 98.50333391476256,
    "end": 98.69800453514746
  },
  {
    "pitch": 49,
    "velocity": 98,
    "start": 98.50333391476256,
    "end": 98.69800453514746
  },
  {
    "pitch": 78,
    "velocity": 74,
    "start": 98.69800453514746,
    "end": 98.89267515553237
  },
  {
    "pitch": 54,
    "velocity": 76,
    "start": 98.69800453514746,
    "end": 98.89267515553237
  },
  {
    "pitch": 49,
    "velocity": 99,
    "start": 98.69800453514746,
    "end": 98.89267515553237
  },
  {
    "pitch": 80,
    "velocity": 81,
    "start": 98.89267515553237,
    "end": 99.08734577591727
  },
  {
    "pitch": 54,
    "velocity": 76,
    "start": 98.89267515553237,
    "end": 99.08734577591727
  },
  {
    "pitch": 49,
    "velocity": 97,
    "start": 98.89267515553237,
    "end": 99.08734577591727
  },
  {
    "pitch": 80,
    "velocity": 75,
    "start": 99.08734577591727,
    "end": 99.28201639630218
  },
  {
    "pitch": 54,
    "velocity": 73,
    "start": 99.08734577591727,
    "end": 99.28201639630218
  },
  {
    "pitch": 49,
    "velocity": 99,
    "start": 99.08734577591727,
    "end": 99.28201639630218
  },
  {
    "pitch": 80,
    "velocity": 71,
    "start": 99.28201639630218,
    "end": 99.4766870166871
  },
  {
    "pitch": 54,
    "velocity": 79,
    "start": 99.28201639630218,
    "end": 99.4766870166871
  },
  {
    "pitch": 49,
    "velocity": 95,
    "start": 99.28201639630218,
    "end": 99.4766870166871
  },
  {
    "pitch": 82,
    "velocity": 76,
    "start": 99.4766870166871,
    "end": 99.67135763707199
  },
  {
    "pitch": 51,
    "velocity": 71,
    "start": 99.4766870166871,
    "end": 99.67135763707199
  },
  {
    "pitch": 49,
    "velocity": 99,
    "start": 99.4766870166871,
    "end": 99.67135763707199
  },
  {
    "pitch": 39,
    "velocity": 84,
    "start": 99.67135763707199,
    "end": 99.8660282574569
  },
  {
    "pitch": 82,
    "velocity": 80,
    "start": 99.67135763707199,
    "end": 100.0606988778418
  },
  {
    "pitch": 51,
    "velocity": 73,
    "start": 99.67135763707199,
    "end": 100.0606988778418
  },
  {
    "pitch": 70,
    "velocity": 85,
    "start": 99.67135763707199,
    "end": 101.22872260015124
  },
  {
    "pitch": 39,
    "velocity": 96,
    "start": 99.8660282574569,
    "end": 100.0606988778418
  },
  {
    "pitch": 39,
    "velocity": 100,
    "start": 100.0606988778418,
    "end": 100.25536949822671
  },
  {
    "pitch": 82,
    "velocity": 74,
    "start": 100.0606988778418,
    "end": 100.45004011861161
  },
  {
    "pitch": 51,
    "velocity": 73,
    "start": 100.0606988778418,
    "end": 100.45004011861161
  },
  {
    "pitch": 39,
    "velocity": 99,
    "start": 100.25536949822671,
    "end": 100.45004011861161
  },
  {
    "pitch": 39,
    "velocity": 97,
    "start": 100.45004011861161,
    "end": 100.64471073899652
  },
  {
    "pitch": 85,
    "velocity": 84,
    "start": 100.45004011861161,
    "end": 100.83938135938143
  },
  {
    "pitch": 51,
    "velocity": 73,
    "start": 100.45004011861161,
    "end": 100.83938135938143
  },
  {
    "pitch": 73,
    "velocity": 90,
    "start": 100.45004011861161,
    "end": 101.22872260015124
  },
  {
    "pitch": 39,
    "velocity": 96,
    "start": 100.64471073899652,
    "end": 100.83938135938143
  },
  {
    "pitch": 39,
    "velocity": 102,
    "start": 100.83938135938143,
    "end": 101.03405197976633
  },
  {
    "pitch": 85,
    "velocity": 81,
    "start": 100.83938135938143,
    "end": 101.22872260015124
  },
  {
    "pitch": 51,
    "velocity": 76,
    "start": 100.83938135938143,
    "end": 101.22872260015124
  },
  {
    "pitch": 39,
    "velocity": 98,
    "start": 101.03405197976633,
    "end": 101.42339322053614
  },
  {
    "pitch": 85,
    "velocity": 74,
    "start": 101.22872260015124,
    "end": 101.42339322053614
  },
  {
    "pitch": 63,
    "velocity": 100,
    "start": 101.22872260015124,
    "end": 101.42339322053614
  },
  {
    "pitch": 51,
    "velocity": 110,
    "start": 101.22872260015124,
    "end": 101.42339322053614
  },
  {
    "pitch": 75,
    "velocity": 99,
    "start": 101.22872260015124,
    "end": 101.48726951784994
  },
  {
    "pitch": 82,
    "velocity": 71,
    "start": 101.42339322053614,
    "end": 101.61806384092105
  },
  {
    "pitch": 61,
    "velocity": 71,
    "start": 101.42339322053614,
    "end": 101.61806384092105
  },
  {
    "pitch": 51,
    "velocity": 99,
    "start": 101.42339322053614,
    "end": 101.61806384092105
  },
  {
    "pitch": 73,
    "velocity": 90,
    "start": 101.48726951784994,
    "end": 101.74581643554865
  },
  {
    "pitch": 82,
    "velocity": 78,
    "start": 101.61806384092105,
    "end": 101.81273446130596
  },
  {
    "pitch": 61,
    "velocity": 79,
    "start": 101.61806384092105,
    "end": 101.81273446130596
  },
  {
    "pitch": 51,
    "velocity": 98,
    "start": 101.61806384092105,
    "end": 101.81273446130596
  },
  {
    "pitch": 73,
    "velocity": 99,
    "start": 101.74581643554865,
    "end": 102.00740508169086
  },
  {
    "pitch": 82,
    "velocity": 79,
    "start": 101.81273446130596,
    "end": 102.00740508169086
  },
  {
    "pitch": 61,
    "velocity": 78,
    "start": 101.81273446130596,
    "end": 102.00740508169086
  },
  {
    "pitch": 51,
    "velocity": 96,
    "start": 101.81273446130596,
    "end": 102.00740508169086
  },
  {
    "pitch": 85,
    "velocity": 81,
    "start": 102.00740508169086,
    "end": 102.20207570207577
  },
  {
    "pitch": 61,
    "velocity": 79,
    "start": 102.00740508169086,
    "end": 102.20207570207577
  },
  {
    "pitch": 51,
    "velocity": 98,
    "start": 102.00740508169086,
    "end": 102.20207570207577
  },
  {
    "pitch": 73,
    "velocity": 97,
    "start": 102.00740508169086,
    "end": 102.26595199938957
  },
  {
    "pitch": 85,
    "velocity": 79,
    "start": 102.20207570207577,
    "end": 102.39674632246067
  },
  {
    "pitch": 61,
    "velocity": 72,
    "start": 102.20207570207577,
    "end": 102.39674632246067
  },
  {
    "pitch": 51,
    "velocity": 98,
    "start": 102.20207570207577,
    "end": 102.39674632246067
  },
  {
    "pitch": 73,
    "velocity": 101,
    "start": 102.26595199938957,
    "end": 102.52449891708827
  },
  {
    "pitch": 85,
    "velocity": 73,
    "start": 102.39674632246067,
    "end": 102.59141694284558
  },
  {
    "pitch": 61,
    "velocity": 73,
    "start": 102.39674632246067,
    "end": 102.59141694284558
  },
  {
    "pitch": 51,
    "velocity": 100,
    "start": 102.39674632246067,
    "end": 102.59141694284558
  },
  {
    "pitch": 75,
    "velocity": 103,
    "start": 102.52449891708827,
    "end": 102.65529324015938
  },
  {
    "pitch": 87,
    "velocity": 82,
    "start": 102.59141694284558,
    "end": 102.78608756323048
  },
  {
    "pitch": 63,
    "velocity": 81,
    "start": 102.59141694284558,
    "end": 102.78608756323048
  },
  {
    "pitch": 51,
    "velocity": 96,
    "start": 102.59141694284558,
    "end": 102.78608756323048
  },
  {
    "pitch": 70,
    "velocity": 85,
    "start": 102.65529324015938,
    "end": 102.9807581836154
  },
  {
    "pitch": 42,
    "velocity": 90,
    "start": 102.78608756323048,
    "end": 102.9807581836154
  },
  {
    "pitch": 82,
    "velocity": 67,
    "start": 102.78608756323048,
    "end": 103.1754288040003
  },
  {
    "pitch": 51,
    "velocity": 69,
    "start": 102.78608756323048,
    "end": 103.1754288040003
  },
  {
    "pitch": 42,
    "velocity": 97,
    "start": 102.9807581836154,
    "end": 103.1754288040003
  },
  {
    "pitch": 75,
    "velocity": 108,
    "start": 102.9807581836154,
    "end": 103.30318139862788
  },
  {
    "pitch": 42,
    "velocity": 101,
    "start": 103.1754288040003,
    "end": 103.3700994243852
  },
  {
    "pitch": 82,
    "velocity": 73,
    "start": 103.1754288040003,
    "end": 103.56477004477011
  },
  {
    "pitch": 51,
    "velocity": 73,
    "start": 103.1754288040003,
    "end": 103.56477004477011
  },
  {
    "pitch": 73,
    "velocity": 94,
    "start": 103.30318139862788,
    "end": 103.433975721699
  },
  {
    "pitch": 42,
    "velocity": 100,
    "start": 103.3700994243852,
    "end": 103.56477004477011
  },
  {
    "pitch": 73,
    "velocity": 95,
    "start": 103.433975721699,
    "end": 103.56477004477011
  },
  {
    "pitch": 73,
    "velocity": 100,
    "start": 103.56477004477011,
    "end": 103.75944066515501
  },
  {
    "pitch": 42,
    "velocity": 98,
    "start": 103.56477004477011,
    "end": 103.75944066515501
  },
  {
    "pitch": 85,
    "velocity": 82,
    "start": 103.56477004477011,
    "end": 103.95411128553992
  },
  {
    "pitch": 51,
    "velocity": 73,
    "start": 103.56477004477011,
    "end": 103.95411128553992
  },
  {
    "pitch": 73,
    "velocity": 98,
    "start": 103.75944066515501,
    "end": 103.95411128553992
  },
  {
    "pitch": 42,
    "velocity": 98,
    "start": 103.75944066515501,
    "end": 103.95411128553992
  },
  {
    "pitch": 75,
    "velocity": 100,
    "start": 103.95411128553992,
    "end": 104.14878190592484
  },
  {
    "pitch": 42,
    "velocity": 96,
    "start": 103.95411128553992,
    "end": 104.14878190592484
  },
  {
    "pitch": 85,
    "velocity": 75,
    "start": 103.95411128553992,
    "end": 104.34345252630973
  },
  {
    "pitch": 51,
    "velocity": 71,
    "start": 103.95411128553992,
    "end": 104.34345252630973
  },
  {
    "pitch": 42,
    "velocity": 100,
    "start": 104.14878190592484,
    "end": 104.53812314669464
  },
  {
    "pitch": 70,
    "velocity": 86,
    "start": 104.14878190592484,
    "end": 104.73279376707954
  },
  {
    "pitch": 85,
    "velocity": 73,
    "start": 104.34345252630973,
    "end": 104.53812314669464
  },
  {
    "pitch": 54,
    "velocity": 83,
    "start": 104.34345252630973,
    "end": 104.53812314669464
  },
  {
    "pitch": 49,
    "velocity": 110,
    "start": 104.34345252630973,
    "end": 104.53812314669464
  },
  {
    "pitch": 78,
    "velocity": 63,
    "start": 104.53812314669464,
    "end": 104.73279376707954
  },
  {
    "pitch": 54,
    "velocity": 72,
    "start": 104.53812314669464,
    "end": 104.73279376707954
  },
  {
    "pitch": 49,
    "velocity": 104,
    "start": 104.53812314669464,
    "end": 104.73279376707954
  },
  {
    "pitch": 75,
    "velocity": 97,
    "start": 104.53812314669464,
    "end": 104.86054636170714
  },
  {
    "pitch": 78,
    "velocity": 76,
    "start": 104.73279376707954,
    "end": 104.92746438746445
  },
  {
    "pitch": 54,
    "velocity": 77,
    "start": 104.73279376707954,
    "end": 104.92746438746445
  },
  {
    "pitch": 49,
    "velocity": 97,
    "start": 104.73279376707954,
    "end": 104.92746438746445
  },
  {
    "pitch": 73,
    "velocity": 89,
    "start": 104.86054636170714,
    "end": 104.99134068477825
  },
  {
    "pitch": 78,
    "velocity": 71,
    "start": 104.92746438746445,
    "end": 105.12213500784935
  },
  {
    "pitch": 54,
    "velocity": 74,
    "start": 104.92746438746445,
    "end": 105.12213500784935
  },
  {
    "pitch": 49,
    "velocity": 97,
    "start": 104.92746438746445,
    "end": 105.12213500784935
  },
  {
    "pitch": 73,
    "velocity": 97,
    "start": 104.99134068477825,
    "end": 105.12213500784935
  },
  {
    "pitch": 80,
    "velocity": 77,
    "start": 105.12213500784935,
    "end": 105.31680562823426
  },
  {
    "pitch": 73,
    "velocity": 96,
    "start": 105.12213500784935,
    "end": 105.31680562823426
  },
  {
    "pitch": 54,
    "velocity": 72,
    "start": 105.12213500784935,
    "end": 105.31680562823426
  },
  {
    "pitch": 49,
    "velocity": 95,
    "start": 105.12213500784935,
    "end": 105.31680562823426
  },
  {
    "pitch": 80,
    "velocity": 78,
    "start": 105.31680562823426,
    "end": 105.51147624861918
  },
  {
    "pitch": 73,
    "velocity": 97,
    "start": 105.31680562823426,
    "end": 105.51147624861918
  },
  {
    "pitch": 54,
    "velocity": 79,
    "start": 105.31680562823426,
    "end": 105.51147624861918
  },
  {
    "pitch": 49,
    "velocity": 98,
    "start": 105.31680562823426,
    "end": 105.51147624861918
  },
  {
    "pitch": 80,
    "velocity": 75,
    "start": 105.51147624861918,
    "end": 105.70614686900407
  },
  {
    "pitch": 75,
    "velocity": 102,
    "start": 105.51147624861918,
    "end": 105.70614686900407
  },
  {
    "pitch": 54,
    "velocity": 77,
    "start": 105.51147624861918,
    "end": 105.70614686900407
  },
  {
    "pitch": 49,
    "velocity": 95,
    "start": 105.51147624861918,
    "end": 105.70614686900407
  },
  {
    "pitch": 82,
    "velocity": 83,
    "start": 105.70614686900407,
    "end": 105.90081748938898
  },
  {
    "pitch": 51,
    "velocity": 73,
    "start": 105.70614686900407,
    "end": 105.90081748938898
  },
  {
    "pitch": 49,
    "velocity": 101,
    "start": 105.70614686900407,
    "end": 105.90081748938898
  },
  {
    "pitch": 70,
    "velocity": 85,
    "start": 105.70614686900407,
    "end": 107.45818245246822
  },
  {
    "pitch": 39,
    "velocity": 88,
    "start": 105.90081748938898,
    "end": 106.09548810977388
  },
  {
    "pitch": 82,
    "velocity": 74,
    "start": 105.90081748938898,
    "end": 106.2901587301588
  },
  {
    "pitch": 51,
    "velocity": 76,
    "start": 105.90081748938898,
    "end": 106.2901587301588
  },
  {
    "pitch": 39,
    "velocity": 99,
    "start": 106.09548810977388,
    "end": 106.2901587301588
  },
  {
    "pitch": 39,
    "velocity": 101,
    "start": 106.2901587301588,
    "end": 106.4848293505437
  },
  {
    "pitch": 82,
    "velocity": 81,
    "start": 106.2901587301588,
    "end": 106.6794999709286
  },
  {
    "pitch": 51,
    "velocity": 80,
    "start": 106.2901587301588,
    "end": 106.6794999709286
  },
  {
    "pitch": 39,
    "velocity": 100,
    "start": 106.4848293505437,
    "end": 106.6794999709286
  },
  {
    "pitch": 39,
    "velocity": 100,
    "start": 106.6794999709286,
    "end": 106.87417059131351
  },
  {
    "pitch": 85,
    "velocity": 83,
    "start": 106.6794999709286,
    "end": 107.06884121169841
  },
  {
    "pitch": 51,
    "velocity": 77,
    "start": 106.6794999709286,
    "end": 107.06884121169841
  },
  {
    "pitch": 39,
    "velocity": 97,
    "start": 106.87417059131351,
    "end": 107.06884121169841
  },
  {
    "pitch": 39,
    "velocity": 88,
    "start": 107.06884121169841,
    "end": 107.26351183208332
  },
  {
    "pitch": 85,
    "velocity": 76,
    "start": 107.06884121169841,
    "end": 107.45818245246822
  },
  {
    "pitch": 51,
    "velocity": 77,
    "start": 107.06884121169841,
    "end": 107.45818245246822
  },
  {
    "pitch": 39,
    "velocity": 100,
    "start": 107.26351183208332,
    "end": 107.65285307285313
  },
  {
    "pitch": 85,
    "velocity": 75,
    "start": 107.45818245246822,
    "end": 107.65285307285313
  },
  {
    "pitch": 63,
    "velocity": 96,
    "start": 107.45818245246822,
    "end": 107.65285307285313
  },
  {
    "pitch": 51,
    "velocity": 112,
    "start": 107.45818245246822,
    "end": 107.65285307285313
  },
  {
    "pitch": 68,
    "velocity": 108,
    "start": 107.45818245246822,
    "end": 108.62620617477766
  },
  {
    "pitch": 73,
    "velocity": 108,
    "start": 107.45818245246822,
    "end": 108.62620617477766
  },
  {
    "pitch": 82,
    "velocity": 71,
    "start": 107.65285307285313,
    "end": 107.84752369323805
  },
  {
    "pitch": 61,
    "velocity": 75,
    "start": 107.65285307285313,
    "end": 107.84752369323805
  },
  {
    "pitch": 51,
    "velocity": 97,
    "start": 107.65285307285313,
    "end": 107.84752369323805
  },
  {
    "pitch": 82,
    "velocity": 74,
    "start": 107.84752369323805,
    "end": 108.04219431362294
  },
  {
    "pitch": 61,
    "velocity": 75,
    "start": 107.84752369323805,
    "end": 108.04219431362294
  },
  {
    "pitch": 51,
    "velocity": 97,
    "start": 107.84752369323805,
    "end": 108.04219431362294
  },
  {
    "pitch": 82,
    "velocity": 75,
    "start": 108.04219431362294,
    "end": 108.23686493400785
  },
  {
    "pitch": 61,
    "velocity": 77,
    "start": 108.04219431362294,
    "end": 108.23686493400785
  },
  {
    "pitch": 51,
    "velocity": 99,
    "start": 108.04219431362294,
    "end": 108.23686493400785
  },
  {
    "pitch": 85,
    "velocity": 79,
    "start": 108.23686493400785,
    "end": 108.43153555439275
  },
  {
    "pitch": 61,
    "velocity": 79,
    "start": 108.23686493400785,
    "end": 108.43153555439275
  },
  {
    "pitch": 51,
    "velocity": 95,
    "start": 108.23686493400785,
    "end": 108.43153555439275
  },
  {
    "pitch": 85,
    "velocity": 79,
    "start": 108.43153555439275,
    "end": 108.62620617477766
  },
  {
    "pitch": 61,
    "velocity": 75,
    "start": 108.43153555439275,
    "end": 108.62620617477766
  },
  {
    "pitch": 51,
    "velocity": 99,
    "start": 108.43153555439275,
    "end": 108.62620617477766
  },
  {
    "pitch": 85,
    "velocity": 76,
    "start": 108.62620617477766,
    "end": 108.82087679516258
  },
  {
    "pitch": 61,
    "velocity": 78,
    "start": 108.62620617477766,
    "end": 108.82087679516258
  },
  {
    "pitch": 51,
    "velocity": 102,
    "start": 108.62620617477766,
    "end": 108.82087679516258
  },
  {
    "pitch": 70,
    "velocity": 109,
    "start": 108.62620617477766,
    "end": 109.40488865631728
  },
  {
    "pitch": 75,
    "velocity": 109,
    "start": 108.62620617477766,
    "end": 109.40488865631728
  },
  {
    "pitch": 87,
    "velocity": 79,
    "start": 108.82087679516258,
    "end": 109.01554741554747
  },
  {
    "pitch": 63,
    "velocity": 76,
    "start": 108.82087679516258,
    "end": 109.01554741554747
  },
  {
    "pitch": 51,
    "velocity": 93,
    "start": 108.82087679516258,
    "end": 109.01554741554747
  },
  {
    "pitch": 42,
    "velocity": 88,
    "start": 109.01554741554747,
    "end": 109.21021803593239
  },
  {
    "pitch": 82,
    "velocity": 65,
    "start": 109.01554741554747,
    "end": 109.40488865631728
  },
  {
    "pitch": 51,
    "velocity": 71,
    "start": 109.01554741554747,
    "end": 109.40488865631728
  },
  {
    "pitch": 42,
    "velocity": 97,
    "start": 109.21021803593239,
    "end": 109.40488865631728
  },
  {
    "pitch": 69,
    "velocity": 99,
    "start": 109.35926272966458,
    "end": 109.40488865631728
  },
  {
    "pitch": 42,
    "velocity": 96,
    "start": 109.40488865631728,
    "end": 109.5995592767022
  },
  {
    "pitch": 82,
    "velocity": 75,
    "start": 109.40488865631728,
    "end": 109.79422989708709
  },
  {
    "pitch": 51,
    "velocity": 72,
    "start": 109.40488865631728,
    "end": 109.79422989708709
  },
  {
    "pitch": 66,
    "velocity": 99,
    "start": 109.40488865631728,
    "end": 110.57291237862673
  },
  {
    "pitch": 70,
    "velocity": 99,
    "start": 109.40488865631728,
    "end": 110.57291237862673
  },
  {
    "pitch": 42,
    "velocity": 96,
    "start": 109.5995592767022,
    "end": 109.79422989708709
  },
  {
    "pitch": 42,
    "velocity": 100,
    "start": 109.79422989708709,
    "end": 109.988900517472
  },
  {
    "pitch": 85,
    "velocity": 82,
    "start": 109.79422989708709,
    "end": 110.18357113785692
  },
  {
    "pitch": 51,
    "velocity": 74,
    "start": 109.79422989708709,
    "end": 110.18357113785692
  },
  {
    "pitch": 42,
    "velocity": 98,
    "start": 109.988900517472,
    "end": 110.18357113785692
  },
  {
    "pitch": 42,
    "velocity": 93,
    "start": 110.18357113785692,
    "end": 110.37824175824181
  },
  {
    "pitch": 85,
    "velocity": 80,
    "start": 110.18357113785692,
    "end": 110.57291237862673
  },
  {
    "pitch": 51,
    "velocity": 80,
    "start": 110.18357113785692,
    "end": 110.57291237862673
  },
  {
    "pitch": 42,
    "velocity": 95,
    "start": 110.37824175824181,
    "end": 110.76758299901162
  },
  {
    "pitch": 85,
    "velocity": 74,
    "start": 110.57291237862673,
    "end": 110.76758299901162
  },
  {
    "pitch": 54,
    "velocity": 75,
    "start": 110.57291237862673,
    "end": 110.76758299901162
  },
  {
    "pitch": 49,
    "velocity": 103,
    "start": 110.57291237862673,
    "end": 110.76758299901162
  },
  {
    "pitch": 78,
    "velocity": 61,
    "start": 110.76758299901162,
    "end": 110.96225361939653
  },
  {
    "pitch": 54,
    "velocity": 74,
    "start": 110.76758299901162,
    "end": 110.96225361939653
  },
  {
    "pitch": 49,
    "velocity": 92,
    "start": 110.76758299901162,
    "end": 110.96225361939653
  },
  {
    "pitch": 78,
    "velocity": 69,
    "start": 110.96225361939653,
    "end": 111.15692423978145
  },
  {
    "pitch": 54,
    "velocity": 78,
    "start": 110.96225361939653,
    "end": 111.15692423978145
  },
  {
    "pitch": 49,
    "velocity": 97,
    "start": 110.96225361939653,
    "end": 111.15692423978145
  },
  {
    "pitch": 78,
    "velocity": 76,
    "start": 111.15692423978145,
    "end": 111.35159486016634
  },
  {
    "pitch": 54,
    "velocity": 78,
    "start": 111.15692423978145,
    "end": 111.35159486016634
  },
  {
    "pitch": 49,
    "velocity": 99,
    "start": 111.15692423978145,
    "end": 111.35159486016634
  },
  {
    "pitch": 80,
    "velocity": 81,
    "start": 111.35159486016634,
    "end": 111.54626548055126
  },
  {
    "pitch": 54,
    "velocity": 77,
    "start": 111.35159486016634,
    "end": 111.54626548055126
  },
  {
    "pitch": 49,
    "velocity": 99,
    "start": 111.35159486016634,
    "end": 111.54626548055126
  },
  {
    "pitch": 80,
    "velocity": 74,
    "start": 111.54626548055126,
    "end": 111.74093610093615
  },
  {
    "pitch": 54,
    "velocity": 76,
    "start": 111.54626548055126,
    "end": 111.74093610093615
  },
  {
    "pitch": 49,
    "velocity": 98,
    "start": 111.54626548055126,
    "end": 111.74093610093615
  },
  {
    "pitch": 80,
    "velocity": 78,
    "start": 111.74093610093615,
    "end": 111.93560672132107
  },
  {
    "pitch": 54,
    "velocity": 82,
    "start": 111.74093610093615,
    "end": 111.93560672132107
  },
  {
    "pitch": 49,
    "velocity": 97,
    "start": 111.74093610093615,
    "end": 111.93560672132107
  },
  {
    "pitch": 82,
    "velocity": 80,
    "start": 111.93560672132107,
    "end": 112.13027734170596
  },
  {
    "pitch": 51,
    "velocity": 76,
    "start": 111.93560672132107,
    "end": 112.13027734170596
  },
  {
    "pitch": 49,
    "velocity": 92,
    "start": 111.93560672132107,
    "end": 112.13027734170596
  },
  {
    "pitch": 75,
    "velocity": 83,
    "start": 112.13027734170596,
    "end": 112.32494796209087
  },
  {
    "pitch": 49,
    "velocity": 72,
    "start": 112.13027734170596,
    "end": 112.32494796209087
  },
  {
    "pitch": 85,
    "velocity": 84,
    "start": 112.13027734170596,
    "end": 112.9089598232456
  },
  {
    "pitch": 37,
    "velocity": 66,
    "start": 112.13027734170596,
    "end": 113.68764230478521
  },
  {
    "pitch": 56,
    "velocity": 78,
    "start": 112.32494796209087,
    "end": 112.51961858247579
  },
  {
    "pitch": 49,
    "velocity": 89,
    "start": 112.32494796209087,
    "end": 112.51961858247579
  },
  {
    "pitch": 75,
    "velocity": 96,
    "start": 112.32494796209087,
    "end": 112.9089598232456
  },
  {
    "pitch": 56,
    "velocity": 80,
    "start": 112.51961858247579,
    "end": 112.71428920286068
  },
  {
    "pitch": 49,
    "velocity": 96,
    "start": 112.51961858247579,
    "end": 112.71428920286068
  },
  {
    "pitch": 56,
    "velocity": 79,
    "start": 112.71428920286068,
    "end": 112.9089598232456
  },
  {
    "pitch": 49,
    "velocity": 97,
    "start": 112.71428920286068,
    "end": 112.9089598232456
  },
  {
    "pitch": 56,
    "velocity": 78,
    "start": 112.9089598232456,
    "end": 113.1036304436305
  },
  {
    "pitch": 49,
    "velocity": 99,
    "start": 112.9089598232456,
    "end": 113.1036304436305
  },
  {
    "pitch": 77,
    "velocity": 104,
    "start": 112.9089598232456,
    "end": 113.49297168440032
  },
  {
    "pitch": 85,
    "velocity": 78,
    "start": 112.9089598232456,
    "end": 113.68764230478521
  },
  {
    "pitch": 56,
    "velocity": 75,
    "start": 113.1036304436305,
    "end": 113.2983010640154
  },
  {
    "pitch": 49,
    "velocity": 99,
    "start": 113.1036304436305,
    "end": 113.2983010640154
  },
  {
    "pitch": 56,
    "velocity": 77,
    "start": 113.2983010640154,
    "end": 113.49297168440032
  },
  {
    "pitch": 49,
    "velocity": 97,
    "start": 113.2983010640154,
    "end": 113.49297168440032
  },
  {
    "pitch": 58,
    "velocity": 80,
    "start": 113.49297168440032,
    "end": 113.68764230478521
  },
  {
    "pitch": 49,
    "velocity": 95,
    "start": 113.49297168440032,
    "end": 113.68764230478521
  },
  {
    "pitch": 77,
    "velocity": 100,
    "start": 113.49297168440032,
    "end": 114.07698354555502
  },
  {
    "pitch": 58,
    "velocity": 79,
    "start": 113.68764230478521,
    "end": 113.88231292517013
  },
  {
    "pitch": 49,
    "velocity": 98,
    "start": 113.68764230478521,
    "end": 113.88231292517013
  },
  {
    "pitch": 90,
    "velocity": 86,
    "start": 113.68764230478521,
    "end": 114.46632478632485
  },
  {
    "pitch": 58,
    "velocity": 77,
    "start": 113.88231292517013,
    "end": 114.07698354555502
  },
  {
    "pitch": 49,
    "velocity": 97,
    "start": 113.88231292517013,
    "end": 114.07698354555502
  },
  {
    "pitch": 78,
    "velocity": 102,
    "start": 114.07698354555502,
    "end": 114.27165416593994
  },
  {
    "pitch": 58,
    "velocity": 77,
    "start": 114.07698354555502,
    "end": 114.27165416593994
  },
  {
    "pitch": 49,
    "velocity": 95,
    "start": 114.07698354555502,
    "end": 114.27165416593994
  },
  {
    "pitch": 77,
    "velocity": 92,
    "start": 114.27165416593994,
    "end": 114.46632478632485
  },
  {
    "pitch": 58,
    "velocity": 78,
    "start": 114.27165416593994,
    "end": 114.46632478632485
  },
  {
    "pitch": 49,
    "velocity": 100,
    "start": 114.27165416593994,
    "end": 114.46632478632485
  },
  {
    "pitch": 77,
    "velocity": 96,
    "start": 114.46632478632485,
    "end": 114.66099540670974
  },
  {
    "pitch": 61,
    "velocity": 84,
    "start": 114.46632478632485,
    "end": 114.66099540670974
  },
  {
    "pitch": 46,
    "velocity": 94,
    "start": 114.46632478632485,
    "end": 114.66099540670974
  },
  {
    "pitch": 90,
    "velocity": 75,
    "start": 114.46632478632485,
    "end": 114.85566602709466
  },
  {
    "pitch": 77,
    "velocity": 100,
    "start": 114.66099540670974,
    "end": 114.85566602709466
  },
  {
    "pitch": 61,
    "velocity": 75,
    "start": 114.66099540670974,
    "end": 114.85566602709466
  },
  {
    "pitch": 46,
    "velocity": 100,
    "start": 114.66099540670974,
    "end": 114.85566602709466
  },
  {
    "pitch": 61,
    "velocity": 78,
    "start": 114.85566602709466,
    "end": 115.05033664747955
  },
  {
    "pitch": 46,
    "velocity": 97,
    "start": 114.85566602709466,
    "end": 115.05033664747955
  },
  {
    "pitch": 90,
    "velocity": 77,
    "start": 114.85566602709466,
    "end": 115.24500726786447
  },
  {
    "pitch": 78,
    "velocity": 103,
    "start": 114.85566602709466,
    "end": 115.63434850863428
  },
  {
    "pitch": 61,
    "velocity": 72,
    "start": 115.05033664747955,
    "end": 115.24500726786447
  },
  {
    "pitch": 46,
    "velocity": 98,
    "start": 115.05033664747955,
    "end": 115.24500726786447
  },
  {
    "pitch": 51,
    "velocity": 66,
    "start": 115.24500726786447,
    "end": 115.43967788824936
  },
  {
    "pitch": 90,
    "velocity": 82,
    "start": 115.24500726786447,
    "end": 115.63434850863428
  },
  {
    "pitch": 39,
    "velocity": 62,
    "start": 115.24500726786447,
    "end": 116.80237223094372
  },
  {
    "pitch": 58,
    "velocity": 81,
    "start": 115.43967788824936,
    "end": 115.63434850863428
  },
  {
    "pitch": 51,
    "velocity": 105,
    "start": 115.43967788824936,
    "end": 115.63434850863428
  },
  {
    "pitch": 58,
    "velocity": 77,
    "start": 115.63434850863428,
    "end": 115.82901912901919
  },
  {
    "pitch": 51,
    "velocity": 100,
    "start": 115.63434850863428,
    "end": 115.82901912901919
  },
  {
    "pitch": 87,
    "velocity": 69,
    "start": 115.63434850863428,
    "end": 116.02368974940408
  },
  {
    "pitch": 73,
    "velocity": 84,
    "start": 115.63434850863428,
    "end": 116.218360369789
  },
  {
    "pitch": 58,
    "velocity": 76,
    "start": 115.82901912901919,
    "end": 116.02368974940408
  },
  {
    "pitch": 51,
    "velocity": 98,
    "start": 115.82901912901919,
    "end": 116.02368974940408
  },
  {
    "pitch": 58,
    "velocity": 73,
    "start": 116.02368974940408,
    "end": 116.218360369789
  },
  {
    "pitch": 51,
    "velocity": 96,
    "start": 116.02368974940408,
    "end": 116.218360369789
  },
  {
    "pitch": 87,
    "velocity": 78,
    "start": 116.02368974940408,
    "end": 116.80237223094372
  },
  {
    "pitch": 58,
    "velocity": 76,
    "start": 116.218360369789,
    "end": 116.4130309901739
  },
  {
    "pitch": 51,
    "velocity": 99,
    "start": 116.218360369789,
    "end": 116.4130309901739
  },
  {
    "pitch": 73,
    "velocity": 98,
    "start": 116.218360369789,
    "end": 116.80237223094372
  },
  {
    "pitch": 58,
    "velocity": 79,
    "start": 116.4130309901739,
    "end": 116.6077016105588
  },
  {
    "pitch": 51,
    "velocity": 99,
    "start": 116.4130309901739,
    "end": 116.6077016105588
  },
  {
    "pitch": 49,
    "velocity": 96,
    "start": 116.6077016105588,
    "end": 116.80237223094372
  },
  {
    "pitch": 75,
    "velocity": 101,
    "start": 116.80237223094372,
    "end": 116.99704285132862
  },
  {
    "pitch": 51,
    "velocity": 63,
    "start": 116.80237223094372,
    "end": 116.99704285132862
  },
  {
    "pitch": 44,
    "velocity": 89,
    "start": 116.80237223094372,
    "end": 116.99704285132862
  },
  {
    "pitch": 92,
    "velocity": 88,
    "start": 116.80237223094372,
    "end": 117.19171347171353
  },
  {
    "pitch": 77,
    "velocity": 108,
    "start": 116.99704285132862,
    "end": 117.19171347171353
  },
  {
    "pitch": 49,
    "velocity": 68,
    "start": 116.99704285132862,
    "end": 117.19171347171353
  },
  {
    "pitch": 44,
    "velocity": 99,
    "start": 116.99704285132862,
    "end": 117.19171347171353
  },
  {
    "pitch": 54,
    "velocity": 76,
    "start": 117.19171347171353,
    "end": 117.38638409209842
  },
  {
    "pitch": 44,
    "velocity": 104,
    "start": 117.19171347171353,
    "end": 117.38638409209842
  },
  {
    "pitch": 92,
    "velocity": 78,
    "start": 117.19171347171353,
    "end": 117.58105471248334
  },
  {
    "pitch": 75,
    "velocity": 89,
    "start": 117.19171347171353,
    "end": 117.97039595325315
  },
  {
    "pitch": 54,
    "velocity": 77,
    "start": 117.38638409209842,
    "end": 117.58105471248334
  },
  {
    "pitch": 44,
    "velocity": 102,
    "start": 117.38638409209842,
    "end": 117.58105471248334
  },
  {
    "pitch": 54,
    "velocity": 79,
    "start": 117.58105471248334,
    "end": 117.77572533286823
  },
  {
    "pitch": 44,
    "velocity": 98,
    "start": 117.58105471248334,
    "end": 117.77572533286823
  },
  {
    "pitch": 92,
    "velocity": 78,
    "start": 117.58105471248334,
    "end": 117.97039595325315
  },
  {
    "pitch": 51,
    "velocity": 78,
    "start": 117.77572533286823,
    "end": 117.97039595325315
  },
  {
    "pitch": 44,
    "velocity": 95,
    "start": 117.77572533286823,
    "end": 117.97039595325315
  },
  {
    "pitch": 92,
    "velocity": 79,
    "start": 117.97039595325315,
    "end": 118.16506657363806
  },
  {
    "pitch": 51,
    "velocity": 75,
    "start": 117.97039595325315,
    "end": 118.16506657363806
  },
  {
    "pitch": 44,
    "velocity": 97,
    "start": 117.97039595325315,
    "end": 118.16506657363806
  },
  {
    "pitch": 73,
    "velocity": 91,
    "start": 117.97039595325315,
    "end": 118.35973719402296
  },
  {
    "pitch": 94,
    "velocity": 85,
    "start": 118.16506657363806,
    "end": 118.35973719402296
  },
  {
    "pitch": 49,
    "velocity": 72,
    "start": 118.16506657363806,
    "end": 118.35973719402296
  },
  {
    "pitch": 46,
    "velocity": 98,
    "start": 118.16506657363806,
    "end": 118.35973719402296
  },
  {
    "pitch": 49,
    "velocity": 75,
    "start": 118.35973719402296,
    "end": 118.55440781440787
  },
  {
    "pitch": 85,
    "velocity": 56,
    "start": 118.35973719402296,
    "end": 119.13841967556259
  },
  {
    "pitch": 75,
    "velocity": 106,
    "start": 118.35973719402296,
    "end": 119.13841967556259
  },
  {
    "pitch": 37,
    "velocity": 68,
    "start": 118.35973719402296,
    "end": 119.9171021571022
  },
  {
    "pitch": 56,
    "velocity": 86,
    "start": 118.55440781440787,
    "end": 118.74907843479276
  },
  {
    "pitch": 49,
    "velocity": 88,
    "start": 118.55440781440787,
    "end": 118.74907843479276
  },
  {
    "pitch": 56,
    "velocity": 76,
    "start": 118.74907843479276,
    "end": 118.94374905517768
  },
  {
    "pitch": 49,
    "velocity": 95,
    "start": 118.74907843479276,
    "end": 118.94374905517768
  },
  {
    "pitch": 56,
    "velocity": 72,
    "start": 118.94374905517768,
    "end": 119.13841967556259
  },
  {
    "pitch": 49,
    "velocity": 99,
    "start": 118.94374905517768,
    "end": 119.13841967556259
  },
  {
    "pitch": 77,
    "velocity": 105,
    "start": 119.13841967556259,
    "end": 119.33309029594749
  },
  {
    "pitch": 56,
    "velocity": 77,
    "start": 119.13841967556259,
    "end": 119.33309029594749
  },
  {
    "pitch": 49,
    "velocity": 94,
    "start": 119.13841967556259,
    "end": 119.33309029594749
  },
  {
    "pitch": 85,
    "velocity": 75,
    "start": 119.13841967556259,
    "end": 119.9171021571022
  },
  {
    "pitch": 56,
    "velocity": 75,
    "start": 119.33309029594749,
    "end": 119.5277609163324
  },
  {
    "pitch": 49,
    "velocity": 97,
    "start": 119.33309029594749,
    "end": 119.5277609163324
  },
  {
    "pitch": 77,
    "velocity": 99,
    "start": 119.33309029594749,
    "end": 119.9171021571022
  },
  {
    "pitch": 56,
    "velocity": 74,
    "start": 119.5277609163324,
    "end": 119.7224315367173
  },
  {
    "pitch": 49,
    "velocity": 99,
    "start": 119.5277609163324,
    "end": 119.7224315367173
  },
  {
    "pitch": 58,
    "velocity": 76,
    "start": 119.7224315367173,
    "end": 119.9171021571022
  },
  {
    "pitch": 49,
    "velocity": 96,
    "start": 119.7224315367173,
    "end": 119.9171021571022
  },
  {
    "pitch": 58,
    "velocity": 77,
    "start": 119.9171021571022,
    "end": 120.1117727774871
  },
  {
    "pitch": 49,
    "velocity": 99,
    "start": 119.9171021571022,
    "end": 120.1117727774871
  },
  {
    "pitch": 90,
    "velocity": 89,
    "start": 119.9171021571022,
    "end": 120.69578463864183
  },
  {
    "pitch": 75,
    "velocity": 91,
    "start": 119.9171021571022,
    "end": 120.69578463864183
  },
  {
    "pitch": 58,
    "velocity": 75,
    "start": 120.1117727774871,
    "end": 120.30644339787202
  },
  {
    "pitch": 49,
    "velocity": 98,
    "start": 120.1117727774871,
    "end": 120.30644339787202
  },
  {
    "pitch": 58,
    "velocity": 74,
    "start": 120.30644339787202,
    "end": 120.50111401825693
  },
  {
    "pitch": 49,
    "velocity": 98,
    "start": 120.30644339787202,
    "end": 120.50111401825693
  },
  {
    "pitch": 58,
    "velocity": 83,
    "start": 120.50111401825693,
    "end": 120.69578463864183
  },
  {
    "pitch": 49,
    "velocity": 96,
    "start": 120.50111401825693,
    "end": 120.69578463864183
  },
  {
    "pitch": 61,
    "velocity": 83,
    "start": 120.69578463864183,
    "end": 120.89045525902674
  },
  {
    "pitch": 46,
    "velocity": 96,
    "start": 120.69578463864183,
    "end": 120.89045525902674
  },
  {
    "pitch": 77,
    "velocity": 108,
    "start": 120.69578463864183,
    "end": 120.95433155634053
  },
  {
    "pitch": 90,
    "velocity": 72,
    "start": 120.69578463864183,
    "end": 121.08512587941163
  },
  {
    "pitch": 61,
    "velocity": 72,
    "start": 120.89045525902674,
    "end": 121.08512587941163
  },
  {
    "pitch": 46,
    "velocity": 100,
    "start": 120.89045525902674,
    "end": 121.08512587941163
  },
  {
    "pitch": 78,
    "velocity": 99,
    "start": 120.95433155634053,
    "end": 121.21287847403923
  },
  {
    "pitch": 61,
    "velocity": 79,
    "start": 121.08512587941163,
    "end": 121.27979649979655
  },
  {
    "pitch": 46,
    "velocity": 93,
    "start": 121.08512587941163,
    "end": 121.27979649979655
  },
  {
    "pitch": 90,
    "velocity": 75,
    "start": 121.08512587941163,
    "end": 121.47446712018146
  },
  {
    "pitch": 77,
    "velocity": 93,
    "start": 121.21287847403923,
    "end": 121.47446712018146
  },
  {
    "pitch": 61,
    "velocity": 77,
    "start": 121.27979649979655,
    "end": 121.47446712018146
  },
  {
    "pitch": 46,
    "velocity": 98,
    "start": 121.27979649979655,
    "end": 121.47446712018146
  },
  {
    "pitch": 51,
    "velocity": 71,
    "start": 121.47446712018146,
    "end": 121.66913774056636
  },
  {
    "pitch": 90,
    "velocity": 85,
    "start": 121.47446712018146,
    "end": 121.86380836095127
  },
  {
    "pitch": 75,
    "velocity": 90,
    "start": 121.47446712018146,
    "end": 121.86380836095127
  },
  {
    "pitch": 39,
    "velocity": 67,
    "start": 121.47446712018146,
    "end": 123.0318320832607
  },
  {
    "pitch": 58,
    "velocity": 79,
    "start": 121.66913774056636,
    "end": 121.86380836095127
  },
  {
    "pitch": 51,
    "velocity": 89,
    "start": 121.66913774056636,
    "end": 121.86380836095127
  },
  {
    "pitch": 58,
    "velocity": 78,
    "start": 121.86380836095127,
    "end": 122.05847898133617
  },
  {
    "pitch": 51,
    "velocity": 95,
    "start": 121.86380836095127,
    "end": 122.05847898133617
  },
  {
    "pitch": 87,
    "velocity": 72,
    "start": 121.86380836095127,
    "end": 122.25314960172108
  },
  {
    "pitch": 75,
    "velocity": 95,
    "start": 121.86380836095127,
    "end": 122.25314960172108
  },
  {
    "pitch": 58,
    "velocity": 72,
    "start": 122.05847898133617,
    "end": 122.25314960172108
  },
  {
    "pitch": 51,
    "velocity": 102,
    "start": 122.05847898133617,
    "end": 122.25314960172108
  },
  {
    "pitch": 58,
    "velocity": 77,
    "start": 122.25314960172108,
    "end": 122.44782022210597
  },
  {
    "pitch": 51,
    "velocity": 100,
    "start": 122.25314960172108,
    "end": 122.44782022210597
  },
  {
    "pitch": 87,
    "velocity": 74,
    "start": 122.25314960172108,
    "end": 123.0318320832607
  },
  {
    "pitch": 75,
    "velocity": 100,
    "start": 122.25314960172108,
    "end": 123.0318320832607
  },
  {
    "pitch": 58,
    "velocity": 78,
    "start": 122.44782022210597,
    "end": 122.64249084249089
  },
  {
    "pitch": 51,
    "velocity": 98,
    "start": 122.44782022210597,
    "end": 122.64249084249089
  },
  {
    "pitch": 58,
    "velocity": 74,
    "start": 122.64249084249089,
    "end": 122.8371614628758
  },
  {
    "pitch": 51,
    "velocity": 97,
    "start": 122.64249084249089,
    "end": 122.8371614628758
  },
  {
    "pitch": 49,
    "velocity": 99,
    "start": 122.8371614628758,
    "end": 123.0318320832607
  },
  {
    "pitch": 51,
    "velocity": 67,
    "start": 123.0318320832607,
    "end": 123.22650270364561
  },
  {
    "pitch": 44,
    "velocity": 91,
    "start": 123.0318320832607,
    "end": 123.22650270364561
  },
  {
    "pitch": 92,
    "velocity": 85,
    "start": 123.0318320832607,
    "end": 123.4211733240305
  },
  {
    "pitch": 73,
    "velocity": 91,
    "start": 123.0318320832607,
    "end": 124.58919704633995
  },
  {
    "pitch": 49,
    "velocity": 71,
    "start": 123.22650270364561,
    "end": 123.4211733240305
  },
  {
    "pitch": 44,
    "velocity": 94,
    "start": 123.22650270364561,
    "end": 123.4211733240305
  },
  {
    "pitch": 54,
    "velocity": 79,
    "start": 123.4211733240305,
    "end": 123.61584394441542
  },
  {
    "pitch": 44,
    "velocity": 94,
    "start": 123.4211733240305,
    "end": 123.61584394441542
  },
  {
    "pitch": 92,
    "velocity": 81,
    "start": 123.4211733240305,
    "end": 123.81051456480033
  },
  {
    "pitch": 54,
    "velocity": 73,
    "start": 123.61584394441542,
    "end": 123.81051456480033
  },
  {
    "pitch": 44,
    "velocity": 99,
    "start": 123.61584394441542,
    "end": 123.81051456480033
  },
  {
    "pitch": 54,
    "velocity": 75,
    "start": 123.81051456480033,
    "end": 124.00518518518523
  },
  {
    "pitch": 44,
    "velocity": 96,
    "start": 123.81051456480033,
    "end": 124.00518518518523
  },
  {
    "pitch": 92,
    "velocity": 81,
    "start": 123.81051456480033,
    "end": 124.19985580557014
  },
  {
    "pitch": 51,
    "velocity": 70,
    "start": 124.00518518518523,
    "end": 124.19985580557014
  },
  {
    "pitch": 44,
    "velocity": 98,
    "start": 124.00518518518523,
    "end": 124.19985580557014
  },
  {
    "pitch": 92,
    "velocity": 77,
    "start": 124.19985580557014,
    "end": 124.39452642595504
  },
  {
    "pitch": 51,
    "velocity": 80,
    "start": 124.19985580557014,
    "end": 124.39452642595504
  },
  {
    "pitch": 44,
    "velocity": 102,
    "start": 124.19985580557014,
    "end": 124.39452642595504
  },
  {
    "pitch": 94,
    "velocity": 80,
    "start": 124.39452642595504,
    "end": 124.58919704633995
  },
  {
    "pitch": 49,
    "velocity": 73,
    "start": 124.39452642595504,
    "end": 124.58919704633995
  },
  {
    "pitch": 46,
    "velocity": 98,
    "start": 124.39452642595504,
    "end": 124.58919704633995
  },
  {
    "pitch": 75,
    "velocity": 102,
    "start": 124.58919704633995,
    "end": 124.78386766672484
  },
  {
    "pitch": 49,
    "velocity": 74,
    "start": 124.58919704633995,
    "end": 124.78386766672484
  },
  {
    "pitch": 85,
    "velocity": 66,
    "start": 124.58919704633995,
    "end": 125.36787952787957
  },
  {
    "pitch": 37,
    "velocity": 70,
    "start": 124.58919704633995,
    "end": 126.1465620094192
  },
  {
    "pitch": 56,
    "velocity": 83,
    "start": 124.78386766672484,
    "end": 124.97853828710976
  },
  {
    "pitch": 49,
    "velocity": 87,
    "start": 124.78386766672484,
    "end": 124.97853828710976
  },
  {
    "pitch": 75,
    "velocity": 100,
    "start": 124.78386766672484,
    "end": 125.36787952787957
  },
  {
    "pitch": 56,
    "velocity": 81,
    "start": 124.97853828710976,
    "end": 125.17320890749467
  },
  {
    "pitch": 49,
    "velocity": 95,
    "start": 124.97853828710976,
    "end": 125.17320890749467
  },
  {
    "pitch": 56,
    "velocity": 78,
    "start": 125.17320890749467,
    "end": 125.36787952787957
  },
  {
    "pitch": 49,
    "velocity": 97,
    "start": 125.17320890749467,
    "end": 125.36787952787957
  },
  {
    "pitch": 56,
    "velocity": 79,
    "start": 125.36787952787957,
    "end": 125.56255014826448
  },
  {
    "pitch": 49,
    "velocity": 99,
    "start": 125.36787952787957,
    "end": 125.56255014826448
  },
  {
    "pitch": 77,
    "velocity": 105,
    "start": 125.36787952787957,
    "end": 125.95189138903429
  },
  {
    "pitch": 85,
    "velocity": 70,
    "start": 125.36787952787957,
    "end": 126.1465620094192
  },
  {
    "pitch": 56,
    "velocity": 78,
    "start": 125.56255014826448,
    "end": 125.75722076864938
  },
  {
    "pitch": 49,
    "velocity": 97,
    "start": 125.56255014826448,
    "end": 125.75722076864938
  },
  {
    "pitch": 56,
    "velocity": 80,
    "start": 125.75722076864938,
    "end": 125.95189138903429
  },
  {
    "pitch": 49,
    "velocity": 94,
    "start": 125.75722076864938,
    "end": 125.95189138903429
  },
  {
    "pitch": 58,
    "velocity": 79,
    "start": 125.95189138903429,
    "end": 126.1465620094192
  },
  {
    "pitch": 49,
    "velocity": 96,
    "start": 125.95189138903429,
    "end": 126.1465620094192
  },
  {
    "pitch": 77,
    "velocity": 98,
    "start": 125.95189138903429,
    "end": 126.53590325018901
  },
  {
    "pitch": 58,
    "velocity": 81,
    "start": 126.1465620094192,
    "end": 126.3412326298041
  },
  {
    "pitch": 49,
    "velocity": 97,
    "start": 126.1465620094192,
    "end": 126.3412326298041
  },
  {
    "pitch": 90,
    "velocity": 88,
    "start": 126.1465620094192,
    "end": 126.92524449095882
  },
  {
    "pitch": 58,
    "velocity": 75,
    "start": 126.3412326298041,
    "end": 126.53590325018901
  },
  {
    "pitch": 49,
    "velocity": 102,
    "start": 126.3412326298041,
    "end": 126.53590325018901
  },
  {
    "pitch": 78,
    "velocity": 100,
    "start": 126.53590325018901,
    "end": 126.7305738705739
  },
  {
    "pitch": 58,
    "velocity": 81,
    "start": 126.53590325018901,
    "end": 126.7305738705739
  },
  {
    "pitch": 49,
    "velocity": 100,
    "start": 126.53590325018901,
    "end": 126.7305738705739
  },
  {
    "pitch": 77,
    "velocity": 92,
    "start": 126.7305738705739,
    "end": 126.92524449095882
  },
  {
    "pitch": 58,
    "velocity": 77,
    "start": 126.7305738705739,
    "end": 126.92524449095882
  },
  {
    "pitch": 49,
    "velocity": 94,
    "start": 126.7305738705739,
    "end": 126.92524449095882
  },
  {
    "pitch": 77,
    "velocity": 98,
    "start": 126.92524449095882,
    "end": 127.11991511134372
  },
  {
    "pitch": 61,
    "velocity": 84,
    "start": 126.92524449095882,
    "end": 127.11991511134372
  },
  {
    "pitch": 46,
    "velocity": 97,
    "start": 126.92524449095882,
    "end": 127.11991511134372
  },
  {
    "pitch": 90,
    "velocity": 78,
    "start": 126.92524449095882,
    "end": 127.31458573172863
  },
  {
    "pitch": 77,
    "velocity": 97,
    "start": 127.11991511134372,
    "end": 127.31458573172863
  },
  {
    "pitch": 61,
    "velocity": 71,
    "start": 127.11991511134372,
    "end": 127.31458573172863
  },
  {
    "pitch": 46,
    "velocity": 98,
    "start": 127.11991511134372,
    "end": 127.31458573172863
  },
  {
    "pitch": 61,
    "velocity": 81,
    "start": 127.31458573172863,
    "end": 127.50925635211354
  },
  {
    "pitch": 46,
    "velocity": 92,
    "start": 127.31458573172863,
    "end": 127.50925635211354
  },
  {
    "pitch": 90,
    "velocity": 79,
    "start": 127.31458573172863,
    "end": 127.70392697249844
  },
  {
    "pitch": 78,
    "velocity": 98,
    "start": 127.31458573172863,
    "end": 128.09326821326826
  },
  {
    "pitch": 61,
    "velocity": 76,
    "start": 127.50925635211354,
    "end": 127.70392697249844
  },
  {
    "pitch": 46,
    "velocity": 99,
    "start": 127.50925635211354,
    "end": 127.70392697249844
  },
  {
    "pitch": 51,
    "velocity": 71,
    "start": 127.70392697249844,
    "end": 127.89859759288335
  },
  {
    "pitch": 90,
    "velocity": 76,
    "start": 127.70392697249844,
    "end": 128.09326821326826
  },
  {
    "pitch": 39,
    "velocity": 64,
    "start": 127.70392697249844,
    "end": 129.26129193557767
  },
  {
    "pitch": 58,
    "velocity": 83,
    "start": 127.89859759288335,
    "end": 128.09326821326826
  },
  {
    "pitch": 51,
    "velocity": 88,
    "start": 127.89859759288335,
    "end": 128.09326821326826
  },
  {
    "pitch": 58,
    "velocity": 76,
    "start": 128.09326821326826,
    "end": 128.28793883365316
  },
  {
    "pitch": 51,
    "velocity": 102,
    "start": 128.09326821326826,
    "end": 128.28793883365316
  },
  {
    "pitch": 87,
    "velocity": 73,
    "start": 128.09326821326826,
    "end": 128.48260945403806
  },
  {
    "pitch": 73,
    "velocity": 84,
    "start": 128.09326821326826,
    "end": 128.67728007442298
  },
  {
    "pitch": 58,
    "velocity": 75,
    "start": 128.28793883365316,
    "end": 128.48260945403806
  },
  {
    "pitch": 51,
    "velocity": 98,
    "start": 128.28793883365316,
    "end": 128.48260945403806
  },
  {
    "pitch": 58,
    "velocity": 75,
    "start": 128.48260945403806,
    "end": 128.67728007442298
  },
  {
    "pitch": 51,
    "velocity": 97,
    "start": 128.48260945403806,
    "end": 128.67728007442298
  },
  {
    "pitch": 87,
    "velocity": 74,
    "start": 128.48260945403806,
    "end": 129.26129193557767
  },
  {
    "pitch": 58,
    "velocity": 78,
    "start": 128.67728007442298,
    "end": 128.87195069480788
  },
  {
    "pitch": 51,
    "velocity": 97,
    "start": 128.67728007442298,
    "end": 128.87195069480788
  },
  {
    "pitch": 73,
    "velocity": 96,
    "start": 128.67728007442298,
    "end": 129.26129193557767
  },
  {
    "pitch": 58,
    "velocity": 79,
    "start": 128.87195069480788,
    "end": 129.06662131519278
  },
  {
    "pitch": 51,
    "velocity": 101,
    "start": 128.87195069480788,
    "end": 129.06662131519278
  },
  {
    "pitch": 49,
    "velocity": 92,
    "start": 129.06662131519278,
    "end": 129.26129193557767
  },
  {
    "pitch": 75,
    "velocity": 102,
    "start": 129.26129193557767,
    "end": 129.4559625559626
  },
  {
    "pitch": 51,
    "velocity": 68,
    "start": 129.26129193557767,
    "end": 129.4559625559626
  },
  {
    "pitch": 44,
    "velocity": 92,
    "start": 129.26129193557767,
    "end": 129.4559625559626
  },
  {
    "pitch": 92,
    "velocity": 86,
    "start": 129.26129193557767,
    "end": 129.65063317634753
  },
  {
    "pitch": 77,
    "velocity": 103,
    "start": 129.4559625559626,
    "end": 129.65063317634753
  },
  {
    "pitch": 49,
    "velocity": 76,
    "start": 129.4559625559626,
    "end": 129.65063317634753
  },
  {
    "pitch": 44,
    "velocity": 99,
    "start": 129.4559625559626,
    "end": 129.65063317634753
  },
  {
    "pitch": 54,
    "velocity": 82,
    "start": 129.65063317634753,
    "end": 129.84530379673242
  },
  {
    "pitch": 44,
    "velocity": 101,
    "start": 129.65063317634753,
    "end": 129.84530379673242
  },
  {
    "pitch": 92,
    "velocity": 78,
    "start": 129.65063317634753,
    "end": 130.03997441711732
  },
  {
    "pitch": 75,
    "velocity": 92,
    "start": 129.65063317634753,
    "end": 130.42931565788714
  },
  {
    "pitch": 54,
    "velocity": 76,
    "start": 129.84530379673242,
    "end": 130.03997441711732
  },
  {
    "pitch": 44,
    "velocity": 98,
    "start": 129.84530379673242,
    "end": 130.03997441711732
  },
  {
    "pitch": 54,
    "velocity": 77,
    "start": 130.03997441711732,
    "end": 130.23464503750222
  },
  {
    "pitch": 44,
    "velocity": 98,
    "start": 130.03997441711732,
    "end": 130.23464503750222
  },
  {
    "pitch": 92,
    "velocity": 80,
    "start": 130.03997441711732,
    "end": 130.42931565788714
  },
  {
    "pitch": 51,
    "velocity": 71,
    "start": 130.23464503750222,
    "end": 130.42931565788714
  },
  {
    "pitch": 44,
    "velocity": 100,
    "start": 130.23464503750222,
    "end": 130.42931565788714
  },
  {
    "pitch": 92,
    "velocity": 74,
    "start": 130.42931565788714,
    "end": 130.62398627827204
  },
  {
    "pitch": 51,
    "velocity": 75,
    "start": 130.42931565788714,
    "end": 130.62398627827204
  },
  {
    "pitch": 44,
    "velocity": 96,
    "start": 130.42931565788714,
    "end": 130.62398627827204
  },
  {
    "pitch": 73,
    "velocity": 91,
    "start": 130.42931565788714,
    "end": 130.81865689865694
  },
  {
    "pitch": 94,
    "velocity": 80,
    "start": 130.62398627827204,
    "end": 130.81865689865694
  },
  {
    "pitch": 49,
    "velocity": 75,
    "start": 130.62398627827204,
    "end": 130.81865689865694
  },
  {
    "pitch": 46,
    "velocity": 103,
    "start": 130.62398627827204,
    "end": 130.81865689865694
  },
  {
    "pitch": 49,
    "velocity": 76,
    "start": 130.81865689865694,
    "end": 131.01332751904187
  },
  {
    "pitch": 85,
    "velocity": 62,
    "start": 130.81865689865694,
    "end": 131.59733938019656
  },
  {
    "pitch": 75,
    "velocity": 107,
    "start": 130.81865689865694,
    "end": 131.59733938019656
  },
  {
    "pitch": 37,
    "velocity": 66,
    "start": 130.81865689865694,
    "end": 132.3760218617362
  },
  {
    "pitch": 56,
    "velocity": 80,
    "start": 131.01332751904187,
    "end": 131.20799813942676
  },
  {
    "pitch": 49,
    "velocity": 89,
    "start": 131.01332751904187,
    "end": 131.20799813942676
  },
  {
    "pitch": 56,
    "velocity": 78,
    "start": 131.20799813942676,
    "end": 131.40266875981166
  },
  {
    "pitch": 49,
    "velocity": 99,
    "start": 131.20799813942676,
    "end": 131.40266875981166
  },
  {
    "pitch": 56,
    "velocity": 81,
    "start": 131.40266875981166,
    "end": 131.59733938019656
  },
  {
    "pitch": 49,
    "velocity": 101,
    "start": 131.40266875981166,
    "end": 131.59733938019656
  },
  {
    "pitch": 77,
    "velocity": 103,
    "start": 131.59733938019656,
    "end": 131.79201000058148
  },
  {
    "pitch": 56,
    "velocity": 69,
    "start": 131.59733938019656,
    "end": 131.79201000058148
  },
  {
    "pitch": 49,
    "velocity": 98,
    "start": 131.59733938019656,
    "end": 131.79201000058148
  },
  {
    "pitch": 85,
    "velocity": 69,
    "start": 131.59733938019656,
    "end": 132.3760218617362
  },
  {
    "pitch": 56,
    "velocity": 80,
    "start": 131.79201000058148,
    "end": 131.98668062096638
  },
  {
    "pitch": 49,
    "velocity": 100,
    "start": 131.79201000058148,
    "end": 131.98668062096638
  },
  {
    "pitch": 77,
    "velocity": 101,
    "start": 131.79201000058148,
    "end": 132.3760218617362
  },
  {
    "pitch": 56,
    "velocity": 72,
    "start": 131.98668062096638,
    "end": 132.18135124135128
  },
  {
    "pitch": 49,
    "velocity": 95,
    "start": 131.98668062096638,
    "end": 132.18135124135128
  },
  {
    "pitch": 58,
    "velocity": 78,
    "start": 132.18135124135128,
    "end": 132.3760218617362
  },
  {
    "pitch": 49,
    "velocity": 97,
    "start": 132.18135124135128,
    "end": 132.3760218617362
  },
  {
    "pitch": 58,
    "velocity": 76,
    "start": 132.3760218617362,
    "end": 132.5706924821211
  },
  {
    "pitch": 49,
    "velocity": 99,
    "start": 132.3760218617362,
    "end": 132.5706924821211
  },
  {
    "pitch": 90,
    "velocity": 83,
    "start": 132.3760218617362,
    "end": 133.15470434327582
  },
  {
    "pitch": 75,
    "velocity": 96,
    "start": 132.3760218617362,
    "end": 133.15470434327582
  },
  {
    "pitch": 58,
    "velocity": 77,
    "start": 132.5706924821211,
    "end": 132.765363102506
  },
  {
    "pitch": 49,
    "velocity": 93,
    "start": 132.5706924821211,
    "end": 132.765363102506
  },
  {
    "pitch": 58,
    "velocity": 77,
    "start": 132.765363102506,
    "end": 132.9600337228909
  },
  {
    "pitch": 49,
    "velocity": 97,
    "start": 132.765363102506,
    "end": 132.9600337228909
  },
  {
    "pitch": 58,
    "velocity": 74,
    "start": 132.9600337228909,
    "end": 133.15470434327582
  },
  {
    "pitch": 49,
    "velocity": 99,
    "start": 132.9600337228909,
    "end": 133.15470434327582
  },
  {
    "pitch": 61,
    "velocity": 85,
    "start": 133.15470434327582,
    "end": 133.34937496366072
  },
  {
    "pitch": 46,
    "velocity": 95,
    "start": 133.15470434327582,
    "end": 133.34937496366072
  },
  {
    "pitch": 77,
    "velocity": 105,
    "start": 133.15470434327582,
    "end": 133.41325126097453
  },
  {
    "pitch": 90,
    "velocity": 79,
    "start": 133.15470434327582,
    "end": 133.93338682481544
  },
  {
    "pitch": 61,
    "velocity": 80,
    "start": 133.34937496366072,
    "end": 133.54404558404562
  },
  {
    "pitch": 46,
    "velocity": 100,
    "start": 133.34937496366072,
    "end": 133.54404558404562
  },
  {
    "pitch": 78,
    "velocity": 102,
    "start": 133.41325126097453,
    "end": 133.6717981786732
  },
  {
    "pitch": 61,
    "velocity": 73,
    "start": 133.54404558404562,
    "end": 133.73871620443055
  },
  {
    "pitch": 46,
    "velocity": 104,
    "start": 133.54404558404562,
    "end": 133.73871620443055
  },
  {
    "pitch": 77,
    "velocity": 93,
    "start": 133.6717981786732,
    "end": 133.93338682481544
  },
  {
    "pitch": 61,
    "velocity": 76,
    "start": 133.73871620443055,
    "end": 133.93338682481544
  },
  {
    "pitch": 46,
    "velocity": 95,
    "start": 133.73871620443055,
    "end": 133.93338682481544
  },
  {
    "pitch": 51,
    "velocity": 69,
    "start": 133.93338682481544,
    "end": 134.12805744520034
  },
  {
    "pitch": 90,
    "velocity": 76,
    "start": 133.93338682481544,
    "end": 134.32272806558527
  },
  {
    "pitch": 75,
    "velocity": 94,
    "start": 133.93338682481544,
    "end": 134.32272806558527
  },
  {
    "pitch": 39,
    "velocity": 70,
    "start": 133.93338682481544,
    "end": 135.49075178789468
  },
  {
    "pitch": 58,
    "velocity": 83,
    "start": 134.12805744520034,
    "end": 134.32272806558527
  },
  {
    "pitch": 51,
    "velocity": 90,
    "start": 134.12805744520034,
    "end": 134.32272806558527
  },
  {
    "pitch": 58,
    "velocity": 76,
    "start": 134.32272806558527,
    "end": 134.51739868597016
  },
  {
    "pitch": 51,
    "velocity": 94,
    "start": 134.32272806558527,
    "end": 134.51739868597016
  },
  {
    "pitch": 87,
    "velocity": 73,
    "start": 134.32272806558527,
    "end": 134.71206930635506
  },
  {
    "pitch": 75,
    "velocity": 95,
    "start": 134.32272806558527,
    "end": 134.71206930635506
  },
  {
    "pitch": 58,
    "velocity": 76,
    "start": 134.51739868597016,
    "end": 134.71206930635506
  },
  {
    "pitch": 51,
    "velocity": 104,
    "start": 134.51739868597016,
    "end": 134.71206930635506
  },
  {
    "pitch": 58,
    "velocity": 80,
    "start": 134.71206930635506,
    "end": 134.90673992673996
  },
  {
    "pitch": 51,
    "velocity": 100,
    "start": 134.71206930635506,
    "end": 134.90673992673996
  },
  {
    "pitch": 87,
    "velocity": 74,
    "start": 134.71206930635506,
    "end": 135.49075178789468
  },
  {
    "pitch": 75,
    "velocity": 99,
    "start": 134.71206930635506,
    "end": 135.49075178789468
  },
  {
    "pitch": 58,
    "velocity": 78,
    "start": 134.90673992673996,
    "end": 135.10141054712489
  },
  {
    "pitch": 51,
    "velocity": 99,
    "start": 134.90673992673996,
    "end": 135.10141054712489
  },
  {
    "pitch": 58,
    "velocity": 76,
    "start": 135.10141054712489,
    "end": 135.29608116750978
  },
  {
    "pitch": 51,
    "velocity": 100,
    "start": 135.10141054712489,
    "end": 135.29608116750978
  },
  {
    "pitch": 49,
    "velocity": 98,
    "start": 135.29608116750978,
    "end": 135.49075178789468
  },
  {
    "pitch": 51,
    "velocity": 72,
    "start": 135.49075178789468,
    "end": 135.6854224082796
  },
  {
    "pitch": 44,
    "velocity": 91,
    "start": 135.49075178789468,
    "end": 135.6854224082796
  },
  {
    "pitch": 92,
    "velocity": 89,
    "start": 135.49075178789468,
    "end": 135.8800930286645
  },
  {
    "pitch": 73,
    "velocity": 91,
    "start": 135.49075178789468,
    "end": 137.04811675097395
  },
  {
    "pitch": 49,
    "velocity": 76,
    "start": 135.6854224082796,
    "end": 135.8800930286645
  },
  {
    "pitch": 44,
    "velocity": 96,
    "start": 135.6854224082796,
    "end": 135.8800930286645
  },
  {
    "pitch": 54,
    "velocity": 81,
    "start": 135.8800930286645,
    "end": 136.0747636490494
  },
  {
    "pitch": 44,
    "velocity": 101,
    "start": 135.8800930286645,
    "end": 136.0747636490494
  },
  {
    "pitch": 92,
    "velocity": 77,
    "start": 135.8800930286645,
    "end": 136.2694342694343
  },
  {
    "pitch": 54,
    "velocity": 73,
    "start": 136.0747636490494,
    "end": 136.2694342694343
  },
  {
    "pitch": 44,
    "velocity": 99,
    "start": 136.0747636490494,
    "end": 136.2694342694343
  },
  {
    "pitch": 54,
    "velocity": 73,
    "start": 136.2694342694343,
    "end": 136.46410488981923
  },
  {
    "pitch": 44,
    "velocity": 101,
    "start": 136.2694342694343,
    "end": 136.46410488981923
  },
  {
    "pitch": 92,
    "velocity": 77,
    "start": 136.2694342694343,
    "end": 136.65877551020412
  },
  {
    "pitch": 51,
    "velocity": 74,
    "start": 136.46410488981923,
    "end": 136.65877551020412
  },
  {
    "pitch": 44,
    "velocity": 99,
    "start": 136.46410488981923,
    "end": 136.65877551020412
  },
  {
    "pitch": 92,
    "velocity": 76,
    "start": 136.65877551020412,
    "end": 136.85344613058902
  },
  {
    "pitch": 51,
    "velocity": 79,
    "start": 136.65877551020412,
    "end": 136.85344613058902
  },
  {
    "pitch": 44,
    "velocity": 102,
    "start": 136.65877551020412,
    "end": 136.85344613058902
  },
  {
    "pitch": 94,
    "velocity": 83,
    "start": 136.85344613058902,
    "end": 137.04811675097395
  },
  {
    "pitch": 49,
    "velocity": 71,
    "start": 136.85344613058902,
    "end": 137.04811675097395
  },
  {
    "pitch": 46,
    "velocity": 100,
    "start": 136.85344613058902,
    "end": 137.04811675097395
  },
  {
    "pitch": 75,
    "velocity": 106,
    "start": 137.04811675097395,
    "end": 137.24278737135884
  },
  {
    "pitch": 49,
    "velocity": 74,
    "start": 137.04811675097395,
    "end": 137.24278737135884
  },
  {
    "pitch": 85,
    "velocity": 57,
    "start": 137.04811675097395,
    "end": 137.82679923251357
  },
  {
    "pitch": 37,
    "velocity": 72,
    "start": 137.04811675097395,
    "end": 138.60548171405318
  },
  {
    "pitch": 56,
    "velocity": 81,
    "start": 137.24278737135884,
    "end": 137.43745799174374
  },
  {
    "pitch": 49,
    "velocity": 92,
    "start": 137.24278737135884,
    "end": 137.43745799174374
  },
  {
    "pitch": 75,
    "velocity": 101,
    "start": 137.24278737135884,
    "end": 137.82679923251357
  },
  {
    "pitch": 56,
    "velocity": 78,
    "start": 137.43745799174374,
    "end": 137.63212861212867
  },
  {
    "pitch": 49,
    "velocity": 95,
    "start": 137.43745799174374,
    "end": 137.63212861212867
  },
  {
    "pitch": 56,
    "velocity": 76,
    "start": 137.63212861212867,
    "end": 137.82679923251357
  },
  {
    "pitch": 49,
    "velocity": 96,
    "start": 137.63212861212867,
    "end": 137.82679923251357
  },
  {
    "pitch": 56,
    "velocity": 77,
    "start": 137.82679923251357,
    "end": 138.02146985289846
  },
  {
    "pitch": 49,
    "velocity": 94,
    "start": 137.82679923251357,
    "end": 138.02146985289846
  },
  {
    "pitch": 77,
    "velocity": 104,
    "start": 137.82679923251357,
    "end": 138.4108110936683
  },
  {
    "pitch": 85,
    "velocity": 75,
    "start": 137.82679923251357,
    "end": 138.60548171405318
  },
  {
    "pitch": 56,
    "velocity": 77,
    "start": 138.02146985289846,
    "end": 138.21614047328336
  },
  {
    "pitch": 49,
    "velocity": 97,
    "start": 138.02146985289846,
    "end": 138.21614047328336
  },
  {
    "pitch": 56,
    "velocity": 75,
    "start": 138.21614047328336,
    "end": 138.4108110936683
  },
  {
    "pitch": 49,
    "velocity": 96,
    "start": 138.21614047328336,
    "end": 138.4108110936683
  },
  {
    "pitch": 58,
    "velocity": 82,
    "start": 138.4108110936683,
    "end": 138.60548171405318
  },
  {
    "pitch": 49,
    "velocity": 97,
    "start": 138.4108110936683,
    "end": 138.60548171405318
  },
  {
    "pitch": 77,
    "velocity": 99,
    "start": 138.4108110936683,
    "end": 138.994822954823
  },
  {
    "pitch": 58,
    "velocity": 77,
    "start": 138.60548171405318,
    "end": 138.80015233443808
  },
  {
    "pitch": 49,
    "velocity": 95,
    "start": 138.60548171405318,
    "end": 138.80015233443808
  },
  {
    "pitch": 90,
    "velocity": 89,
    "start": 138.60548171405318,
    "end": 139.3841641955928
  },
  {
    "pitch": 58,
    "velocity": 70,
    "start": 138.80015233443808,
    "end": 138.994822954823
  },
  {
    "pitch": 49,
    "velocity": 105,
    "start": 138.80015233443808,
    "end": 138.994822954823
  },
  {
    "pitch": 78,
    "velocity": 108,
    "start": 138.994822954823,
    "end": 139.1894935752079
  },
  {
    "pitch": 58,
    "velocity": 79,
    "start": 138.994822954823,
    "end": 139.1894935752079
  },
  {
    "pitch": 49,
    "velocity": 97,
    "start": 138.994822954823,
    "end": 139.1894935752079
  },
  {
    "pitch": 77,
    "velocity": 96,
    "start": 139.1894935752079,
    "end": 139.3841641955928
  },
  {
    "pitch": 58,
    "velocity": 74,
    "start": 139.1894935752079,
    "end": 139.3841641955928
  },
  {
    "pitch": 49,
    "velocity": 98,
    "start": 139.1894935752079,
    "end": 139.3841641955928
  },
  {
    "pitch": 77,
    "velocity": 96,
    "start": 139.3841641955928,
    "end": 139.5788348159777
  },
  {
    "pitch": 61,
    "velocity": 87,
    "start": 139.3841641955928,
    "end": 139.5788348159777
  },
  {
    "pitch": 46,
    "velocity": 90,
    "start": 139.3841641955928,
    "end": 139.5788348159777
  },
  {
    "pitch": 90,
    "velocity": 79,
    "start": 139.3841641955928,
    "end": 139.77350543636263
  },
  {
    "pitch": 77,
    "velocity": 99,
    "start": 139.5788348159777,
    "end": 139.77350543636263
  },
  {
    "pitch": 61,
    "velocity": 77,
    "start": 139.5788348159777,
    "end": 139.77350543636263
  },
  {
    "pitch": 46,
    "velocity": 97,
    "start": 139.5788348159777,
    "end": 139.77350543636263
  },
  {
    "pitch": 61,
    "velocity": 79,
    "start": 139.77350543636263,
    "end": 139.96817605674752
  },
  {
    "pitch": 46,
    "velocity": 101,
    "start": 139.77350543636263,
    "end": 139.96817605674752
  },
  {
    "pitch": 90,
    "velocity": 77,
    "start": 139.77350543636263,
    "end": 140.16284667713242
  },
  {
    "pitch": 78,
    "velocity": 100,
    "start": 139.77350543636263,
    "end": 140.55218791790224
  },
  {
    "pitch": 61,
    "velocity": 79,
    "start": 139.96817605674752,
    "end": 140.16284667713242
  },
  {
    "pitch": 46,
    "velocity": 98,
    "start": 139.96817605674752,
    "end": 140.16284667713242
  },
  {
    "pitch": 51,
    "velocity": 66,
    "start": 140.16284667713242,
    "end": 140.35751729751735
  },
  {
    "pitch": 90,
    "velocity": 72,
    "start": 140.16284667713242,
    "end": 140.55218791790224
  },
  {
    "pitch": 39,
    "velocity": 68,
    "start": 140.16284667713242,
    "end": 141.7202116402117
  },
  {
    "pitch": 58,
    "velocity": 84,
    "start": 140.35751729751735,
    "end": 140.55218791790224
  },
  {
    "pitch": 51,
    "velocity": 92,
    "start": 140.35751729751735,
    "end": 140.55218791790224
  },
  {
    "pitch": 58,
    "velocity": 75,
    "start": 140.55218791790224,
    "end": 140.74685853828714
  },
  {
    "pitch": 51,
    "velocity": 98,
    "start": 140.55218791790224,
    "end": 140.74685853828714
  },
  {
    "pitch": 87,
    "velocity": 70,
    "start": 140.55218791790224,
    "end": 140.94152915867204
  },
  {
    "pitch": 73,
    "velocity": 82,
    "start": 140.55218791790224,
    "end": 141.13619977905697
  },
  {
    "pitch": 58,
    "velocity": 79,
    "start": 140.74685853828714,
    "end": 140.94152915867204
  },
  {
    "pitch": 51,
    "velocity": 94,
    "start": 140.74685853828714,
    "end": 140.94152915867204
  },
  {
    "pitch": 58,
    "velocity": 76,
    "start": 140.94152915867204,
    "end": 141.13619977905697
  },
  {
    "pitch": 51,
    "velocity": 96,
    "start": 140.94152915867204,
    "end": 141.13619977905697
  },
  {
    "pitch": 87,
    "velocity": 77,
    "start": 140.94152915867204,
    "end": 141.7202116402117
  },
  {
    "pitch": 58,
    "velocity": 71,
    "start": 141.13619977905697,
    "end": 141.33087039944186
  },
  {
    "pitch": 51,
    "velocity": 98,
    "start": 141.13619977905697,
    "end": 141.33087039944186
  },
  {
    "pitch": 73,
    "velocity": 98,
    "start": 141.13619977905697,
    "end": 141.7202116402117
  },
  {
    "pitch": 58,
    "velocity": 78,
    "start": 141.33087039944186,
    "end": 141.52554101982676
  },
  {
    "pitch": 51,
    "velocity": 95,
    "start": 141.33087039944186,
    "end": 141.52554101982676
  },
  {
    "pitch": 49,
    "velocity": 96,
    "start": 141.52554101982676,
    "end": 141.7202116402117
  },
  {
    "pitch": 75,
    "velocity": 103,
    "start": 141.7202116402117,
    "end": 141.91488226059658
  },
  {
    "pitch": 51,
    "velocity": 67,
    "start": 141.7202116402117,
    "end": 141.91488226059658
  },
  {
    "pitch": 44,
    "velocity": 90,
    "start": 141.7202116402117,
    "end": 141.91488226059658
  },
  {
    "pitch": 92,
    "velocity": 89,
    "start": 141.7202116402117,
    "end": 142.10955288098148
  },
  {
    "pitch": 77,
    "velocity": 109,
    "start": 141.91488226059658,
    "end": 142.10955288098148
  },
  {
    "pitch": 49,
    "velocity": 73,
    "start": 141.91488226059658,
    "end": 142.10955288098148
  },
  {
    "pitch": 44,
    "velocity": 97,
    "start": 141.91488226059658,
    "end": 142.10955288098148
  },
  {
    "pitch": 54,
    "velocity": 81,
    "start": 142.10955288098148,
    "end": 142.3042235013664
  },
  {
    "pitch": 44,
    "velocity": 96,
    "start": 142.10955288098148,
    "end": 142.3042235013664
  },
  {
    "pitch": 92,
    "velocity": 76,
    "start": 142.10955288098148,
    "end": 142.4988941217513
  },
  {
    "pitch": 75,
    "velocity": 98,
    "start": 142.10955288098148,
    "end": 142.8882353625211
  },
  {
    "pitch": 54,
    "velocity": 75,
    "start": 142.3042235013664,
    "end": 142.4988941217513
  },
  {
    "pitch": 44,
    "velocity": 93,
    "start": 142.3042235013664,
    "end": 142.4988941217513
  },
  {
    "pitch": 54,
    "velocity": 76,
    "start": 142.4988941217513,
    "end": 142.6935647421362
  },
  {
    "pitch": 44,
    "velocity": 99,
    "start": 142.4988941217513,
    "end": 142.6935647421362
  },
  {
    "pitch": 92,
    "velocity": 76,
    "start": 142.4988941217513,
    "end": 142.8882353625211
  },
  {
    "pitch": 51,
    "velocity": 73,
    "start": 142.6935647421362,
    "end": 142.8882353625211
  },
  {
    "pitch": 44,
    "velocity": 102,
    "start": 142.6935647421362,
    "end": 142.8882353625211
  },
  {
    "pitch": 92,
    "velocity": 83,
    "start": 142.8882353625211,
    "end": 143.08290598290603
  },
  {
    "pitch": 51,
    "velocity": 78,
    "start": 142.8882353625211,
    "end": 143.08290598290603
  },
  {
    "pitch": 44,
    "velocity": 97,
    "start": 142.8882353625211,
    "end": 143.08290598290603
  },
  {
    "pitch": 73,
    "velocity": 91,
    "start": 142.8882353625211,
    "end": 143.27757660329092
  },
  {
    "pitch": 94,
    "velocity": 82,
    "start": 143.08290598290603,
    "end": 143.27757660329092
  },
  {
    "pitch": 49,
    "velocity": 74,
    "start": 143.08290598290603,
    "end": 143.27757660329092
  },
  {
    "pitch": 46,
    "velocity": 103,
    "start": 143.08290598290603,
    "end": 143.27757660329092
  },
  {
    "pitch": 49,
    "velocity": 76,
    "start": 143.27757660329092,
    "end": 143.47224722367582
  },
  {
    "pitch": 85,
    "velocity": 61,
    "start": 143.27757660329092,
    "end": 144.05625908483054
  },
  {
    "pitch": 75,
    "velocity": 99,
    "start": 143.27757660329092,
    "end": 144.05625908483054
  },
  {
    "pitch": 37,
    "velocity": 69,
    "start": 143.27757660329092,
    "end": 144.83494156637016
  },
  {
    "pitch": 56,
    "velocity": 76,
    "start": 143.47224722367582,
    "end": 143.66691784406075
  },
  {
    "pitch": 49,
    "velocity": 89,
    "start": 143.47224722367582,
    "end": 143.66691784406075
  },
  {
    "pitch": 56,
    "velocity": 76,
    "start": 143.66691784406075,
    "end": 143.86158846444565
  },
  {
    "pitch": 49,
    "velocity": 98,
    "start": 143.66691784406075,
    "end": 143.86158846444565
  },
  {
    "pitch": 56,
    "velocity": 77,
    "start": 143.86158846444565,
    "end": 144.05625908483054
  },
  {
    "pitch": 49,
    "velocity": 96,
    "start": 143.86158846444565,
    "end": 144.05625908483054
  },
  {
    "pitch": 77,
    "velocity": 105,
    "start": 144.05625908483054,
    "end": 144.25092970521544
  },
  {
    "pitch": 56,
    "velocity": 80,
    "start": 144.05625908483054,
    "end": 144.25092970521544
  },
  {
    "pitch": 49,
    "velocity": 103,
    "start": 144.05625908483054,
    "end": 144.25092970521544
  },
  {
    "pitch": 85,
    "velocity": 73,
    "start": 144.05625908483054,
    "end": 144.83494156637016
  },
  {
    "pitch": 56,
    "velocity": 77,
    "start": 144.25092970521544,
    "end": 144.44560032560037
  },
  {
    "pitch": 49,
    "velocity": 97,
    "start": 144.25092970521544,
    "end": 144.44560032560037
  },
  {
    "pitch": 77,
    "velocity": 97,
    "start": 144.25092970521544,
    "end": 144.83494156637016
  },
  {
    "pitch": 56,
    "velocity": 75,
    "start": 144.44560032560037,
    "end": 144.64027094598526
  },
  {
    "pitch": 49,
    "velocity": 97,
    "start": 144.44560032560037,
    "end": 144.64027094598526
  },
  {
    "pitch": 58,
    "velocity": 79,
    "start": 144.64027094598526,
    "end": 144.83494156637016
  },
  {
    "pitch": 49,
    "velocity": 99,
    "start": 144.64027094598526,
    "end": 144.83494156637016
  },
  {
    "pitch": 58,
    "velocity": 77,
    "start": 144.83494156637016,
    "end": 145.0296121867551
  },
  {
    "pitch": 49,
    "velocity": 97,
    "start": 144.83494156637016,
    "end": 145.0296121867551
  },
  {
    "pitch": 90,
    "velocity": 87,
    "start": 144.83494156637016,
    "end": 145.61362404790978
  },
  {
    "pitch": 75,
    "velocity": 91,
    "start": 144.83494156637016,
    "end": 145.61362404790978
  },
  {
    "pitch": 58,
    "velocity": 77,
    "start": 145.0296121867551,
    "end": 145.22428280713999
  },
  {
    "pitch": 49,
    "velocity": 99,
    "start": 145.0296121867551,
    "end": 145.22428280713999
  },
  {
    "pitch": 58,
    "velocity": 77,
    "start": 145.22428280713999,
    "end": 145.41895342752488
  },
  {
    "pitch": 49,
    "velocity": 100,
    "start": 145.22428280713999,
    "end": 145.41895342752488
  },
  {
    "pitch": 58,
    "velocity": 71,
    "start": 145.41895342752488,
    "end": 145.61362404790978
  },
  {
    "pitch": 49,
    "velocity": 97,
    "start": 145.41895342752488,
    "end": 145.61362404790978
  },
  {
    "pitch": 61,
    "velocity": 87,
    "start": 145.61362404790978,
    "end": 145.8082946682947
  },
  {
    "pitch": 46,
    "velocity": 98,
    "start": 145.61362404790978,
    "end": 145.8082946682947
  },
  {
    "pitch": 77,
    "velocity": 100,
    "start": 145.61362404790978,
    "end": 145.87217096560852
  },
  {
    "pitch": 90,
    "velocity": 78,
    "start": 145.61362404790978,
    "end": 146.0029652886796
  },
  {
    "pitch": 61,
    "velocity": 75,
    "start": 145.8082946682947,
    "end": 146.0029652886796
  },
  {
    "pitch": 46,
    "velocity": 99,
    "start": 145.8082946682947,
    "end": 146.0029652886796
  },
  {
    "pitch": 78,
    "velocity": 106,
    "start": 145.87217096560852,
    "end": 146.1307178833072
  },
  {
    "pitch": 61,
    "velocity": 81,
    "start": 146.0029652886796,
    "end": 146.1976359090645
  },
  {
    "pitch": 46,
    "velocity": 99,
    "start": 146.0029652886796,
    "end": 146.1976359090645
  },
  {
    "pitch": 90,
    "velocity": 75,
    "start": 146.0029652886796,
    "end": 146.39230652944943
  },
  {
    "pitch": 77,
    "velocity": 94,
    "start": 146.1307178833072,
    "end": 146.39230652944943
  },
  {
    "pitch": 61,
    "velocity": 73,
    "start": 146.1976359090645,
    "end": 146.39230652944943
  },
  {
    "pitch": 46,
    "velocity": 99,
    "start": 146.1976359090645,
    "end": 146.39230652944943
  },
  {
    "pitch": 51,
    "velocity": 62,
    "start": 146.39230652944943,
    "end": 146.58697714983433
  },
  {
    "pitch": 90,
    "velocity": 75,
    "start": 146.39230652944943,
    "end": 146.78164777021922
  },
  {
    "pitch": 75,
    "velocity": 90,
    "start": 146.39230652944943,
    "end": 146.78164777021922
  },
  {
    "pitch": 39,
    "velocity": 69,
    "start": 146.39230652944943,
    "end": 147.94967149252867
  },
  {
    "pitch": 58,
    "velocity": 83,
    "start": 146.58697714983433,
    "end": 146.78164777021922
  },
  {
    "pitch": 51,
    "velocity": 90,
    "start": 146.58697714983433,
    "end": 146.78164777021922
  },
  {
    "pitch": 58,
    "velocity": 77,
    "start": 146.78164777021922,
    "end": 146.97631839060415
  },
  {
    "pitch": 51,
    "velocity": 97,
    "start": 146.78164777021922,
    "end": 146.97631839060415
  },
  {
    "pitch": 87,
    "velocity": 76,
    "start": 146.78164777021922,
    "end": 147.17098901098905
  },
  {
    "pitch": 75,
    "velocity": 102,
    "start": 146.78164777021922,
    "end": 147.17098901098905
  },
  {
    "pitch": 58,
    "velocity": 76,
    "start": 146.97631839060415,
    "end": 147.17098901098905
  },
  {
    "pitch": 51,
    "velocity": 98,
    "start": 146.97631839060415,
    "end": 147.17098901098905
  },
  {
    "pitch": 58,
    "velocity": 71,
    "start": 147.17098901098905,
    "end": 147.36565963137394
  },
  {
    "pitch": 51,
    "velocity": 101,
    "start": 147.17098901098905,
    "end": 147.36565963137394
  },
  {
    "pitch": 87,
    "velocity": 75,
    "start": 147.17098901098905,
    "end": 147.94967149252867
  },
  {
    "pitch": 75,
    "velocity": 94,
    "start": 147.17098901098905,
    "end": 147.94967149252867
  },
  {
    "pitch": 58,
    "velocity": 77,
    "start": 147.36565963137394,
    "end": 147.56033025175884
  },
  {
    "pitch": 51,
    "velocity": 99,
    "start": 147.36565963137394,
    "end": 147.56033025175884
  },
  {
    "pitch": 58,
    "velocity": 73,
    "start": 147.56033025175884,
    "end": 147.75500087214377
  },
  {
    "pitch": 51,
    "velocity": 100,
    "start": 147.56033025175884,
    "end": 147.75500087214377
  },
  {
    "pitch": 49,
    "velocity": 95,
    "start": 147.75500087214377,
    "end": 147.94967149252867
  },
  {
    "pitch": 51,
    "velocity": 75,
    "start": 147.94967149252867,
    "end": 148.14434211291356
  },
  {
    "pitch": 44,
    "velocity": 91,
    "start": 147.94967149252867,
    "end": 148.14434211291356
  },
  {
    "pitch": 92,
    "velocity": 84,
    "start": 147.94967149252867,
    "end": 148.3390127332985
  },
  {
    "pitch": 73,
    "velocity": 86,
    "start": 147.94967149252867,
    "end": 149.5070364556079
  },
  {
    "pitch": 49,
    "velocity": 72,
    "start": 148.14434211291356,
    "end": 148.3390127332985
  },
  {
    "pitch": 44,
    "velocity": 98,
    "start": 148.14434211291356,
    "end": 148.3390127332985
  },
  {
    "pitch": 54,
    "velocity": 82,
    "start": 148.3390127332985,
    "end": 148.5336833536834
  },
  {
    "pitch": 44,
    "velocity": 96,
    "start": 148.3390127332985,
    "end": 148.5336833536834
  },
  {
    "pitch": 92,
    "velocity": 78,
    "start": 148.3390127332985,
    "end": 148.72835397406828
  },
  {
    "pitch": 54,
    "velocity": 75,
    "start": 148.5336833536834,
    "end": 148.72835397406828
  },
  {
    "pitch": 44,
    "velocity": 102,
    "start": 148.5336833536834,
    "end": 148.72835397406828
  },
  {
    "pitch": 54,
    "velocity": 78,
    "start": 148.72835397406828,
    "end": 148.92302459445318
  },
  {
    "pitch": 44,
    "velocity": 99,
    "start": 148.72835397406828,
    "end": 148.92302459445318
  },
  {
    "pitch": 92,
    "velocity": 76,
    "start": 148.72835397406828,
    "end": 149.1176952148381
  },
  {
    "pitch": 51,
    "velocity": 76,
    "start": 148.92302459445318,
    "end": 149.1176952148381
  },
  {
    "pitch": 44,
    "velocity": 98,
    "start": 148.92302459445318,
    "end": 149.1176952148381
  },
  {
    "pitch": 92,
    "velocity": 71,
    "start": 149.1176952148381,
    "end": 149.312365835223
  },
  {
    "pitch": 51,
    "velocity": 73,
    "start": 149.1176952148381,
    "end": 149.312365835223
  },
  {
    "pitch": 44,
    "velocity": 98,
    "start": 149.1176952148381,
    "end": 149.312365835223
  },
  {
    "pitch": 94,
    "velocity": 82,
    "start": 149.312365835223,
    "end": 149.5070364556079
  },
  {
    "pitch": 49,
    "velocity": 72,
    "start": 149.312365835223,
    "end": 149.5070364556079
  },
  {
    "pitch": 46,
    "velocity": 99,
    "start": 149.312365835223,
    "end": 149.5070364556079
  },
  {
    "pitch": 75,
    "velocity": 102,
    "start": 149.5070364556079,
    "end": 149.70170707599283
  },
  {
    "pitch": 49,
    "velocity": 75,
    "start": 149.5070364556079,
    "end": 149.70170707599283
  },
  {
    "pitch": 85,
    "velocity": 61,
    "start": 149.5070364556079,
    "end": 150.28571893714752
  },
  {
    "pitch": 37,
    "velocity": 70,
    "start": 149.5070364556079,
    "end": 151.06440141868717
  },
  {
    "pitch": 56,
    "velocity": 82,
    "start": 149.70170707599283,
    "end": 149.89637769637773
  },
  {
    "pitch": 49,
    "velocity": 86,
    "start": 149.70170707599283,
    "end": 149.89637769637773
  },
  {
    "pitch": 75,
    "velocity": 102,
    "start": 149.70170707599283,
    "end": 150.28571893714752
  },
  {
    "pitch": 56,
    "velocity": 79,
    "start": 149.89637769637773,
    "end": 150.09104831676262
  },
  {
    "pitch": 49,
    "velocity": 90,
    "start": 149.89637769637773,
    "end": 150.09104831676262
  },
  {
    "pitch": 56,
    "velocity": 78,
    "start": 150.09104831676262,
    "end": 150.28571893714752
  },
  {
    "pitch": 49,
    "velocity": 97,
    "start": 150.09104831676262,
    "end": 150.28571893714752
  },
  {
    "pitch": 56,
    "velocity": 78,
    "start": 150.28571893714752,
    "end": 150.48038955753245
  },
  {
    "pitch": 49,
    "velocity": 101,
    "start": 150.28571893714752,
    "end": 150.48038955753245
  },
  {
    "pitch": 77,
    "velocity": 106,
    "start": 150.28571893714752,
    "end": 150.86973079830224
  },
  {
    "pitch": 85,
    "velocity": 72,
    "start": 150.28571893714752,
    "end": 151.06440141868717
  },
  {
    "pitch": 56,
    "velocity": 82,
    "start": 150.48038955753245,
    "end": 150.67506017791735
  },
  {
    "pitch": 49,
    "velocity": 96,
    "start": 150.48038955753245,
    "end": 150.67506017791735
  },
  {
    "pitch": 56,
    "velocity": 75,
    "start": 150.67506017791735,
    "end": 150.86973079830224
  },
  {
    "pitch": 49,
    "velocity": 99,
    "start": 150.67506017791735,
    "end": 150.86973079830224
  },
  {
    "pitch": 58,
    "velocity": 74,
    "start": 150.86973079830224,
    "end": 151.06440141868717
  },
  {
    "pitch": 49,
    "velocity": 96,
    "start": 150.86973079830224,
    "end": 151.06440141868717
  },
  {
    "pitch": 77,
    "velocity": 98,
    "start": 150.86973079830224,
    "end": 151.45374265945696
  },
  {
    "pitch": 58,
    "velocity": 75,
    "start": 151.06440141868717,
    "end": 151.25907203907207
  },
  {
    "pitch": 49,
    "velocity": 99,
    "start": 151.06440141868717,
    "end": 151.25907203907207
  },
  {
    "pitch": 90,
    "velocity": 87,
    "start": 151.06440141868717,
    "end": 151.8430839002268
  },
  {
    "pitch": 58,
    "velocity": 74,
    "start": 151.25907203907207,
    "end": 151.45374265945696
  },
  {
    "pitch": 49,
    "velocity": 107,
    "start": 151.25907203907207,
    "end": 151.45374265945696
  },
  {
    "pitch": 78,
    "velocity": 100,
    "start": 151.45374265945696,
    "end": 151.6484132798419
  },
  {
    "pitch": 58,
    "velocity": 74,
    "start": 151.45374265945696,
    "end": 151.6484132798419
  },
  {
    "pitch": 49,
    "velocity": 101,
    "start": 151.45374265945696,
    "end": 151.6484132798419
  },
  {
    "pitch": 77,
    "velocity": 96,
    "start": 151.6484132798419,
    "end": 151.8430839002268
  },
  {
    "pitch": 58,
    "velocity": 76,
    "start": 151.6484132798419,
    "end": 151.8430839002268
  },
  {
    "pitch": 49,
    "velocity": 98,
    "start": 151.6484132798419,
    "end": 151.8430839002268
  },
  {
    "pitch": 77,
    "velocity": 99,
    "start": 151.8430839002268,
    "end": 152.03775452061168
  },
  {
    "pitch": 61,
    "velocity": 82,
    "start": 151.8430839002268,
    "end": 152.03775452061168
  },
  {
    "pitch": 46,
    "velocity": 93,
    "start": 151.8430839002268,
    "end": 152.03775452061168
  },
  {
    "pitch": 90,
    "velocity": 77,
    "start": 151.8430839002268,
    "end": 152.23242514099658
  },
  {
    "pitch": 77,
    "velocity": 98,
    "start": 152.03775452061168,
    "end": 152.23242514099658
  },
  {
    "pitch": 61,
    "velocity": 78,
    "start": 152.03775452061168,
    "end": 152.23242514099658
  },
  {
    "pitch": 46,
    "velocity": 100,
    "start": 152.03775452061168,
    "end": 152.23242514099658
  },
  {
    "pitch": 61,
    "velocity": 71,
    "start": 152.23242514099658,
    "end": 152.4270957613815
  },
  {
    "pitch": 46,
    "velocity": 101,
    "start": 152.23242514099658,
    "end": 152.4270957613815
  },
  {
    "pitch": 90,
    "velocity": 80,
    "start": 152.23242514099658,
    "end": 152.6217663817664
  },
  {
    "pitch": 78,
    "velocity": 104,
    "start": 152.23242514099658,
    "end": 153.01110762253623
  },
  {
    "pitch": 61,
    "velocity": 76,
    "start": 152.4270957613815,
    "end": 152.6217663817664
  },
  {
    "pitch": 46,
    "velocity": 103,
    "start": 152.4270957613815,
    "end": 152.6217663817664
  },
  {
    "pitch": 51,
    "velocity": 70,
    "start": 152.6217663817664,
    "end": 152.8164370021513
  },
  {
    "pitch": 90,
    "velocity": 73,
    "start": 152.6217663817664,
    "end": 153.01110762253623
  },
  {
    "pitch": 39,
    "velocity": 67,
    "start": 152.6217663817664,
    "end": 154.17913134484564
  },
  {
    "pitch": 58,
    "velocity": 84,
    "start": 152.8164370021513,
    "end": 153.01110762253623
  },
  {
    "pitch": 51,
    "velocity": 89,
    "start": 152.8164370021513,
    "end": 153.01110762253623
  },
  {
    "pitch": 58,
    "velocity": 77,
    "start": 153.01110762253623,
    "end": 153.20577824292113
  },
  {
    "pitch": 51,
    "velocity": 99,
    "start": 153.01110762253623,
    "end": 153.20577824292113
  },
  {
    "pitch": 87,
    "velocity": 69,
    "start": 153.01110762253623,
    "end": 153.40044886330602
  },
  {
    "pitch": 73,
    "velocity": 85,
    "start": 153.01110762253623,
    "end": 153.59511948369092
  },
  {
    "pitch": 58,
    "velocity": 75,
    "start": 153.20577824292113,
    "end": 153.40044886330602
  },
  {
    "pitch": 51,
    "velocity": 98,
    "start": 153.20577824292113,
    "end": 153.40044886330602
  },
  {
    "pitch": 58,
    "velocity": 77,
    "start": 153.40044886330602,
    "end": 153.59511948369092
  },
  {
    "pitch": 51,
    "velocity": 97,
    "start": 153.40044886330602,
    "end": 153.59511948369092
  },
  {
    "pitch": 87,
    "velocity": 70,
    "start": 153.40044886330602,
    "end": 154.17913134484564
  },
  {
    "pitch": 58,
    "velocity": 74,
    "start": 153.59511948369092,
    "end": 153.78979010407585
  },
  {
    "pitch": 51,
    "velocity": 95,
    "start": 153.59511948369092,
    "end": 153.78979010407585
  },
  {
    "pitch": 73,
    "velocity": 89,
    "start": 153.59511948369092,
    "end": 154.17913134484564
  },
  {
    "pitch": 58,
    "velocity": 77,
    "start": 153.78979010407585,
    "end": 153.98446072446075
  },
  {
    "pitch": 51,
    "velocity": 94,
    "start": 153.78979010407585,
    "end": 153.98446072446075
  },
  {
    "pitch": 49,
    "velocity": 96,
    "start": 153.98446072446075,
    "end": 154.17913134484564
  },
  {
    "pitch": 75,
    "velocity": 101,
    "start": 154.17913134484564,
    "end": 154.37380196523057
  },
  {
    "pitch": 51,
    "velocity": 69,
    "start": 154.17913134484564,
    "end": 154.37380196523057
  },
  {
    "pitch": 44,
    "velocity": 95,
    "start": 154.17913134484564,
    "end": 154.37380196523057
  },
  {
    "pitch": 92,
    "velocity": 82,
    "start": 154.17913134484564,
    "end": 154.56847258561547
  },
  {
    "pitch": 77,
    "velocity": 104,
    "start": 154.37380196523057,
    "end": 154.56847258561547
  },
  {
    "pitch": 49,
    "velocity": 73,
    "start": 154.37380196523057,
    "end": 154.56847258561547
  },
  {
    "pitch": 44,
    "velocity": 101,
    "start": 154.37380196523057,
    "end": 154.56847258561547
  },
  {
    "pitch": 54,
    "velocity": 84,
    "start": 154.56847258561547,
    "end": 154.76314320600036
  },
  {
    "pitch": 44,
    "velocity": 95,
    "start": 154.56847258561547,
    "end": 154.76314320600036
  },
  {
    "pitch": 92,
    "velocity": 78,
    "start": 154.56847258561547,
    "end": 154.95781382638526
  },
  {
    "pitch": 75,
    "velocity": 91,
    "start": 154.56847258561547,
    "end": 155.3471550671551
  },
  {
    "pitch": 54,
    "velocity": 83,
    "start": 154.76314320600036,
    "end": 154.95781382638526
  },
  {
    "pitch": 44,
    "velocity": 101,
    "start": 154.76314320600036,
    "end": 154.95781382638526
  },
  {
    "pitch": 54,
    "velocity": 75,
    "start": 154.95781382638526,
    "end": 155.1524844467702
  },
  {
    "pitch": 44,
    "velocity": 100,
    "start": 154.95781382638526,
    "end": 155.1524844467702
  },
  {
    "pitch": 92,
    "velocity": 75,
    "start": 154.95781382638526,
    "end": 155.3471550671551
  },
  {
    "pitch": 51,
    "velocity": 76,
    "start": 155.1524844467702,
    "end": 155.3471550671551
  },
  {
    "pitch": 44,
    "velocity": 100,
    "start": 155.1524844467702,
    "end": 155.3471550671551
  },
  {
    "pitch": 92,
    "velocity": 75,
    "start": 155.3471550671551,
    "end": 155.54182568753998
  },
  {
    "pitch": 51,
    "velocity": 76,
    "start": 155.3471550671551,
    "end": 155.54182568753998
  },
  {
    "pitch": 44,
    "velocity": 95,
    "start": 155.3471550671551,
    "end": 155.54182568753998
  },
  {
    "pitch": 73,
    "velocity": 92,
    "start": 155.3471550671551,
    "end": 155.7364963079249
  },
  {
    "pitch": 94,
    "velocity": 78,
    "start": 155.54182568753998,
    "end": 155.7364963079249
  },
  {
    "pitch": 49,
    "velocity": 69,
    "start": 155.54182568753998,
    "end": 155.7364963079249
  },
  {
    "pitch": 46,
    "velocity": 101,
    "start": 155.54182568753998,
    "end": 155.7364963079249
  },
  {
    "pitch": 49,
    "velocity": 75,
    "start": 155.7364963079249,
    "end": 155.9311669283098
  },
  {
    "pitch": 85,
    "velocity": 60,
    "start": 155.7364963079249,
    "end": 156.51517878946453
  },
  {
    "pitch": 75,
    "velocity": 104,
    "start": 155.7364963079249,
    "end": 156.51517878946453
  },
  {
    "pitch": 37,
    "velocity": 71,
    "start": 155.7364963079249,
    "end": 157.29386127100415
  },
  {
    "pitch": 56,
    "velocity": 78,
    "start": 155.9311669283098,
    "end": 156.1258375486947
  },
  {
    "pitch": 49,
    "velocity": 84,
    "start": 155.9311669283098,
    "end": 156.1258375486947
  },
  {
    "pitch": 56,
    "velocity": 78,
    "start": 156.1258375486947,
    "end": 156.32050816907963
  },
  {
    "pitch": 49,
    "velocity": 97,
    "start": 156.1258375486947,
    "end": 156.32050816907963
  },
  {
    "pitch": 56,
    "velocity": 77,
    "start": 156.32050816907963,
    "end": 156.51517878946453
  },
  {
    "pitch": 49,
    "velocity": 97,
    "start": 156.32050816907963,
    "end": 156.51517878946453
  },
  {
    "pitch": 77,
    "velocity": 106,
    "start": 156.51517878946453,
    "end": 156.70984940984943
  },
  {
    "pitch": 56,
    "velocity": 77,
    "start": 156.51517878946453,
    "end": 156.70984940984943
  },
  {
    "pitch": 49,
    "velocity": 102,
    "start": 156.51517878946453,
    "end": 156.70984940984943
  },
  {
    "pitch": 85,
    "velocity": 77,
    "start": 156.51517878946453,
    "end": 157.29386127100415
  },
  {
    "pitch": 56,
    "velocity": 78,
    "start": 156.70984940984943,
    "end": 156.90452003023432
  },
  {
    "pitch": 49,
    "velocity": 100,
    "start": 156.70984940984943,
    "end": 156.90452003023432
  },
  {
    "pitch": 77,
    "velocity": 100,
    "start": 156.70984940984943,
    "end": 157.29386127100415
  },
  {
    "pitch": 56,
    "velocity": 74,
    "start": 156.90452003023432,
    "end": 157.09919065061925
  },
  {
    "pitch": 49,
    "velocity": 99,
    "start": 156.90452003023432,
    "end": 157.09919065061925
  },
  {
    "pitch": 58,
    "velocity": 81,
    "start": 157.09919065061925,
    "end": 157.29386127100415
  },
  {
    "pitch": 49,
    "velocity": 97,
    "start": 157.09919065061925,
    "end": 157.29386127100415
  },
  {
    "pitch": 58,
    "velocity": 75,
    "start": 157.29386127100415,
    "end": 157.48853189138904
  },
  {
    "pitch": 49,
    "velocity": 101,
    "start": 157.29386127100415,
    "end": 157.48853189138904
  },
  {
    "pitch": 90,
    "velocity": 85,
    "start": 157.29386127100415,
    "end": 158.07254375254377
  },
  {
    "pitch": 75,
    "velocity": 91,
    "start": 157.29386127100415,
    "end": 158.07254375254377
  },
  {
    "pitch": 58,
    "velocity": 76,
    "start": 157.48853189138904,
    "end": 157.68320251177397
  },
  {
    "pitch": 49,
    "velocity": 100,
    "start": 157.48853189138904,
    "end": 157.68320251177397
  },
  {
    "pitch": 58,
    "velocity": 75,
    "start": 157.68320251177397,
    "end": 157.87787313215887
  },
  {
    "pitch": 49,
    "velocity": 96,
    "start": 157.68320251177397,
    "end": 157.87787313215887
  },
  {
    "pitch": 58,
    "velocity": 81,
    "start": 157.87787313215887,
    "end": 158.07254375254377
  },
  {
    "pitch": 49,
    "velocity": 94,
    "start": 157.87787313215887,
    "end": 158.07254375254377
  },
  {
    "pitch": 61,
    "velocity": 85,
    "start": 158.07254375254377,
    "end": 158.26721437292866
  },
  {
    "pitch": 46,
    "velocity": 100,
    "start": 158.07254375254377,
    "end": 158.26721437292866
  },
  {
    "pitch": 77,
    "velocity": 101,
    "start": 158.07254375254377,
    "end": 158.33109067024247
  },
  {
    "pitch": 90,
    "velocity": 78,
    "start": 158.07254375254377,
    "end": 158.4618849933136
  },
  {
    "pitch": 61,
    "velocity": 79,
    "start": 158.26721437292866,
    "end": 158.4618849933136
  },
  {
    "pitch": 46,
    "velocity": 101,
    "start": 158.26721437292866,
    "end": 158.4618849933136
  },
  {
    "pitch": 78,
    "velocity": 103,
    "start": 158.33109067024247,
    "end": 158.58963758794118
  },
  {
    "pitch": 61,
    "velocity": 74,
    "start": 158.4618849933136,
    "end": 158.6565556136985
  },
  {
    "pitch": 46,
    "velocity": 96,
    "start": 158.4618849933136,
    "end": 158.6565556136985
  },
  {
    "pitch": 90,
    "velocity": 79,
    "start": 158.4618849933136,
    "end": 158.85122623408338
  },
  {
    "pitch": 77,
    "velocity": 96,
    "start": 158.58963758794118,
    "end": 158.85122623408338
  },
  {
    "pitch": 61,
    "velocity": 77,
    "start": 158.6565556136985,
    "end": 158.85122623408338
  },
  {
    "pitch": 46,
    "velocity": 98,
    "start": 158.6565556136985,
    "end": 158.85122623408338
  },
  {
    "pitch": 51,
    "velocity": 68,
    "start": 158.85122623408338,
    "end": 159.0458968544683
  },
  {
    "pitch": 90,
    "velocity": 76,
    "start": 158.85122623408338,
    "end": 159.2405674748532
  },
  {
    "pitch": 75,
    "velocity": 92,
    "start": 158.85122623408338,
    "end": 159.2405674748532
  },
  {
    "pitch": 39,
    "velocity": 72,
    "start": 158.85122623408338,
    "end": 160.40859119716265
  },
  {
    "pitch": 58,
    "velocity": 81,
    "start": 159.0458968544683,
    "end": 159.2405674748532
  },
  {
    "pitch": 51,
    "velocity": 86,
    "start": 159.0458968544683,
    "end": 159.2405674748532
  },
  {
    "pitch": 58,
    "velocity": 83,
    "start": 159.2405674748532,
    "end": 159.4352380952381
  },
  {
    "pitch": 51,
    "velocity": 94,
    "start": 159.2405674748532,
    "end": 159.4352380952381
  },
  {
    "pitch": 87,
    "velocity": 70,
    "start": 159.2405674748532,
    "end": 159.629908715623
  },
  {
    "pitch": 75,
    "velocity": 94,
    "start": 159.2405674748532,
    "end": 159.629908715623
  },
  {
    "pitch": 58,
    "velocity": 76,
    "start": 159.4352380952381,
    "end": 159.629908715623
  },
  {
    "pitch": 51,
    "velocity": 97,
    "start": 159.4352380952381,
    "end": 159.629908715623
  },
  {
    "pitch": 58,
    "velocity": 75,
    "start": 159.629908715623,
    "end": 159.82457933600793
  },
  {
    "pitch": 51,
    "velocity": 96,
    "start": 159.629908715623,
    "end": 159.82457933600793
  },
  {
    "pitch": 87,
    "velocity": 76,
    "start": 159.629908715623,
    "end": 160.40859119716265
  },
  {
    "pitch": 75,
    "velocity": 98,
    "start": 159.629908715623,
    "end": 160.40859119716265
  },
  {
    "pitch": 58,
    "velocity": 75,
    "start": 159.82457933600793,
    "end": 160.01924995639283
  },
  {
    "pitch": 51,
    "velocity": 101,
    "start": 159.82457933600793,
    "end": 160.01924995639283
  },
  {
    "pitch": 58,
    "velocity": 80,
    "start": 160.01924995639283,
    "end": 160.21392057677772
  },
  {
    "pitch": 51,
    "velocity": 97,
    "start": 160.01924995639283,
    "end": 160.21392057677772
  },
  {
    "pitch": 49,
    "velocity": 95,
    "start": 160.21392057677772,
    "end": 160.40859119716265
  },
  {
    "pitch": 51,
    "velocity": 66,
    "start": 160.40859119716265,
    "end": 160.60326181754755
  },
  {
    "pitch": 44,
    "velocity": 90,
    "start": 160.40859119716265,
    "end": 160.60326181754755
  },
  {
    "pitch": 92,
    "velocity": 86,
    "start": 160.40859119716265,
    "end": 160.79793243793245
  },
  {
    "pitch": 73,
    "velocity": 94,
    "start": 160.40859119716265,
    "end": 161.9659561602419
  },
  {
    "pitch": 49,
    "velocity": 73,
    "start": 160.60326181754755,
    "end": 160.79793243793245
  },
  {
    "pitch": 44,
    "velocity": 95,
    "start": 160.60326181754755,
    "end": 160.79793243793245
  },
  {
    "pitch": 54,
    "velocity": 82,
    "start": 160.79793243793245,
    "end": 160.99260305831737
  },
  {
    "pitch": 44,
    "velocity": 103,
    "start": 160.79793243793245,
    "end": 160.99260305831737
  },
  {
    "pitch": 92,
    "velocity": 78,
    "start": 160.79793243793245,
    "end": 161.18727367870227
  },
  {
    "pitch": 54,
    "velocity": 81,
    "start": 160.99260305831737,
    "end": 161.18727367870227
  },
  {
    "pitch": 44,
    "velocity": 99,
    "start": 160.99260305831737,
    "end": 161.18727367870227
  },
  {
    "pitch": 54,
    "velocity": 75,
    "start": 161.18727367870227,
    "end": 161.38194429908717
  },
  {
    "pitch": 44,
    "velocity": 92,
    "start": 161.18727367870227,
    "end": 161.38194429908717
  },
  {
    "pitch": 92,
    "velocity": 79,
    "start": 161.18727367870227,
    "end": 161.57661491947206
  },
  {
    "pitch": 51,
    "velocity": 79,
    "start": 161.38194429908717,
    "end": 161.57661491947206
  },
  {
    "pitch": 44,
    "velocity": 94,
    "start": 161.38194429908717,
    "end": 161.57661491947206
  },
  {
    "pitch": 92,
    "velocity": 79,
    "start": 161.57661491947206,
    "end": 161.771285539857
  },
  {
    "pitch": 51,
    "velocity": 76,
    "start": 161.57661491947206,
    "end": 161.771285539857
  },
  {
    "pitch": 44,
    "velocity": 97,
    "start": 161.57661491947206,
    "end": 161.771285539857
  },
  {
    "pitch": 94,
    "velocity": 82,
    "start": 161.771285539857,
    "end": 161.9659561602419
  },
  {
    "pitch": 49,
    "velocity": 70,
    "start": 161.771285539857,
    "end": 161.9659561602419
  },
  {
    "pitch": 46,
    "velocity": 97,
    "start": 161.771285539857,
    "end": 161.9659561602419
  },
  {
    "pitch": 39,
    "velocity": 71,
    "start": 161.9659561602419,
    "end": 162.16062678062679
  },
  {
    "pitch": 49,
    "velocity": 71,
    "start": 161.9659561602419,
    "end": 162.16062678062679
  },
  {
    "pitch": 82,
    "velocity": 52,
    "start": 161.9659561602419,
    "end": 162.3552974010117
  },
  {
    "pitch": 70,
    "velocity": 91,
    "start": 161.9659561602419,
    "end": 163.52332112332113
  },
  {
    "pitch": 39,
    "velocity": 64,
    "start": 162.16062678062679,
    "end": 162.3552974010117
  },
  {
    "pitch": 39,
    "velocity": 77,
    "start": 162.3552974010117,
    "end": 162.5499680213966
  },
  {
    "pitch": 82,
    "velocity": 72,
    "start": 162.3552974010117,
    "end": 162.7446386417815
  },
  {
    "pitch": 39,
    "velocity": 77,
    "start": 162.5499680213966,
    "end": 162.7446386417815
  },
  {
    "pitch": 39,
    "velocity": 72,
    "start": 162.7446386417815,
    "end": 162.9393092621664
  },
  {
    "pitch": 85,
    "velocity": 82,
    "start": 162.7446386417815,
    "end": 163.13397988255133
  },
  {
    "pitch": 73,
    "velocity": 102,
    "start": 162.7446386417815,
    "end": 163.52332112332113
  },
  {
    "pitch": 39,
    "velocity": 77,
    "start": 162.9393092621664,
    "end": 163.13397988255133
  },
  {
    "pitch": 39,
    "velocity": 69,
    "start": 163.13397988255133,
    "end": 163.32865050293623
  },
  {
    "pitch": 85,
    "velocity": 78,
    "start": 163.13397988255133,
    "end": 163.52332112332113
  },
  {
    "pitch": 39,
    "velocity": 77,
    "start": 163.32865050293623,
    "end": 163.71799174370605
  },
  {
    "pitch": 85,
    "velocity": 77,
    "start": 163.52332112332113,
    "end": 163.71799174370605
  },
  {
    "pitch": 51,
    "velocity": 89,
    "start": 163.52332112332113,
    "end": 163.71799174370605
  },
  {
    "pitch": 75,
    "velocity": 103,
    "start": 163.52332112332113,
    "end": 163.78186804101986
  },
  {
    "pitch": 82,
    "velocity": 71,
    "start": 163.71799174370605,
    "end": 163.91266236409095
  },
  {
    "pitch": 51,
    "velocity": 80,
    "start": 163.71799174370605,
    "end": 163.91266236409095
  },
  {
    "pitch": 73,
    "velocity": 91,
    "start": 163.78186804101986,
    "end": 164.04041495871854
  },
  {
    "pitch": 82,
    "velocity": 77,
    "start": 163.91266236409095,
    "end": 164.10733298447585
  },
  {
    "pitch": 51,
    "velocity": 80,
    "start": 163.91266236409095,
    "end": 164.10733298447585
  },
  {
    "pitch": 73,
    "velocity": 100,
    "start": 164.04041495871854,
    "end": 164.30200360486074
  },
  {
    "pitch": 82,
    "velocity": 80,
    "start": 164.10733298447585,
    "end": 164.30200360486074
  },
  {
    "pitch": 51,
    "velocity": 75,
    "start": 164.10733298447585,
    "end": 164.30200360486074
  },
  {
    "pitch": 85,
    "velocity": 87,
    "start": 164.30200360486074,
    "end": 164.49667422524567
  },
  {
    "pitch": 51,
    "velocity": 76,
    "start": 164.30200360486074,
    "end": 164.49667422524567
  },
  {
    "pitch": 73,
    "velocity": 102,
    "start": 164.30200360486074,
    "end": 164.56055052255948
  },
  {
    "pitch": 85,
    "velocity": 82,
    "start": 164.49667422524567,
    "end": 164.69134484563057
  },
  {
    "pitch": 51,
    "velocity": 75,
    "start": 164.49667422524567,
    "end": 164.69134484563057
  },
  {
    "pitch": 73,
    "velocity": 97,
    "start": 164.56055052255948,
    "end": 164.81909744025816
  },
  {
    "pitch": 85,
    "velocity": 77,
    "start": 164.69134484563057,
    "end": 164.88601546601546
  },
  {
    "pitch": 51,
    "velocity": 76,
    "start": 164.69134484563057,
    "end": 164.88601546601546
  },
  {
    "pitch": 75,
    "velocity": 103,
    "start": 164.81909744025816,
    "end": 164.94989176332928
  },
  {
    "pitch": 87,
    "velocity": 78,
    "start": 164.88601546601546,
    "end": 165.0806860864004
  },
  {
    "pitch": 51,
    "velocity": 78,
    "start": 164.88601546601546,
    "end": 165.2753567067853
  },
  {
    "pitch": 70,
    "velocity": 85,
    "start": 164.94989176332928,
    "end": 165.2753567067853
  },
  {
    "pitch": 42,
    "velocity": 106,
    "start": 165.0806860864004,
    "end": 165.2753567067853
  },
  {
    "pitch": 82,
    "velocity": 67,
    "start": 165.0806860864004,
    "end": 165.4700273271702
  },
  {
    "pitch": 42,
    "velocity": 90,
    "start": 165.2753567067853,
    "end": 165.4700273271702
  },
  {
    "pitch": 75,
    "velocity": 106,
    "start": 165.2753567067853,
    "end": 165.59777992179778
  },
  {
    "pitch": 42,
    "velocity": 98,
    "start": 165.4700273271702,
    "end": 165.6646979475551
  },
  {
    "pitch": 82,
    "velocity": 78,
    "start": 165.4700273271702,
    "end": 165.85936856794
  },
  {
    "pitch": 73,
    "velocity": 93,
    "start": 165.59777992179778,
    "end": 165.7285742448689
  },
  {
    "pitch": 42,
    "velocity": 103,
    "start": 165.6646979475551,
    "end": 165.85936856794
  },
  {
    "pitch": 73,
    "velocity": 96,
    "start": 165.7285742448689,
    "end": 165.85936856794
  },
  {
    "pitch": 85,
    "velocity": 84,
    "start": 165.85936856794,
    "end": 166.0540391883249
  },
  {
    "pitch": 73,
    "velocity": 97,
    "start": 165.85936856794,
    "end": 166.0540391883249
  },
  {
    "pitch": 42,
    "velocity": 102,
    "start": 165.85936856794,
    "end": 166.0540391883249
  },
  {
    "pitch": 85,
    "velocity": 78,
    "start": 166.0540391883249,
    "end": 166.2487098087098
  },
  {
    "pitch": 73,
    "velocity": 101,
    "start": 166.0540391883249,
    "end": 166.2487098087098
  },
  {
    "pitch": 42,
    "velocity": 101,
    "start": 166.0540391883249,
    "end": 166.2487098087098
  },
  {
    "pitch": 85,
    "velocity": 80,
    "start": 166.2487098087098,
    "end": 166.44338042909473
  },
  {
    "pitch": 75,
    "velocity": 107,
    "start": 166.2487098087098,
    "end": 166.44338042909473
  },
  {
    "pitch": 42,
    "velocity": 98,
    "start": 166.2487098087098,
    "end": 166.44338042909473
  },
  {
    "pitch": 85,
    "velocity": 77,
    "start": 166.44338042909473,
    "end": 166.63805104947963
  },
  {
    "pitch": 42,
    "velocity": 96,
    "start": 166.44338042909473,
    "end": 166.83272166986453
  },
  {
    "pitch": 70,
    "velocity": 86,
    "start": 166.44338042909473,
    "end": 167.02739229024945
  },
  {
    "pitch": 85,
    "velocity": 74,
    "start": 166.63805104947963,
    "end": 166.83272166986453
  },
  {
    "pitch": 49,
    "velocity": 104,
    "start": 166.63805104947963,
    "end": 166.83272166986453
  },
  {
    "pitch": 78,
    "velocity": 65,
    "start": 166.83272166986453,
    "end": 167.02739229024945
  },
  {
    "pitch": 54,
    "velocity": 64,
    "start": 166.83272166986453,
    "end": 167.02739229024945
  },
  {
    "pitch": 49,
    "velocity": 101,
    "start": 166.83272166986453,
    "end": 167.02739229024945
  },
  {
    "pitch": 75,
    "velocity": 97,
    "start": 166.83272166986453,
    "end": 167.15514488487702
  },
  {
    "pitch": 78,
    "velocity": 73,
    "start": 167.02739229024945,
    "end": 167.22206291063435
  },
  {
    "pitch": 54,
    "velocity": 72,
    "start": 167.02739229024945,
    "end": 167.22206291063435
  },
  {
    "pitch": 49,
    "velocity": 95,
    "start": 167.02739229024945,
    "end": 167.22206291063435
  },
  {
    "pitch": 73,
    "velocity": 88,
    "start": 167.15514488487702,
    "end": 167.28593920794816
  },
  {
    "pitch": 78,
    "velocity": 74,
    "start": 167.22206291063435,
    "end": 167.41673353101925
  },
  {
    "pitch": 54,
    "velocity": 75,
    "start": 167.22206291063435,
    "end": 167.41673353101925
  },
  {
    "pitch": 49,
    "velocity": 96,
    "start": 167.22206291063435,
    "end": 167.41673353101925
  },
  {
    "pitch": 73,
    "velocity": 96,
    "start": 167.28593920794816,
    "end": 167.41673353101925
  },
  {
    "pitch": 80,
    "velocity": 81,
    "start": 167.41673353101925,
    "end": 167.61140415140414
  },
  {
    "pitch": 73,
    "velocity": 98,
    "start": 167.41673353101925,
    "end": 167.61140415140414
  },
  {
    "pitch": 54,
    "velocity": 76,
    "start": 167.41673353101925,
    "end": 167.61140415140414
  },
  {
    "pitch": 49,
    "velocity": 98,
    "start": 167.41673353101925,
    "end": 167.61140415140414
  },
  {
    "pitch": 80,
    "velocity": 75,
    "start": 167.61140415140414,
    "end": 167.80607477178907
  },
  {
    "pitch": 73,
    "velocity": 97,
    "start": 167.61140415140414,
    "end": 167.80607477178907
  },
  {
    "pitch": 54,
    "velocity": 79,
    "start": 167.61140415140414,
    "end": 167.80607477178907
  },
  {
    "pitch": 49,
    "velocity": 95,
    "start": 167.61140415140414,
    "end": 167.80607477178907
  },
  {
    "pitch": 80,
    "velocity": 77,
    "start": 167.80607477178907,
    "end": 168.00074539217397
  },
  {
    "pitch": 75,
    "velocity": 104,
    "start": 167.80607477178907,
    "end": 168.00074539217397
  },
  {
    "pitch": 54,
    "velocity": 77,
    "start": 167.80607477178907,
    "end": 168.00074539217397
  },
  {
    "pitch": 49,
    "velocity": 99,
    "start": 167.80607477178907,
    "end": 168.00074539217397
  },
  {
    "pitch": 82,
    "velocity": 82,
    "start": 168.00074539217397,
    "end": 168.19541601255887
  },
  {
    "pitch": 51,
    "velocity": 70,
    "start": 168.00074539217397,
    "end": 168.19541601255887
  },
  {
    "pitch": 49,
    "velocity": 97,
    "start": 168.00074539217397,
    "end": 168.19541601255887
  },
  {
    "pitch": 70,
    "velocity": 82,
    "start": 168.00074539217397,
    "end": 169.75278097563813
  },
  {
    "pitch": 39,
    "velocity": 84,
    "start": 168.19541601255887,
    "end": 168.3900866329438
  },
  {
    "pitch": 82,
    "velocity": 76,
    "start": 168.19541601255887,
    "end": 168.5847572533287
  },
  {
    "pitch": 51,
    "velocity": 78,
    "start": 168.19541601255887,
    "end": 168.5847572533287
  },
  {
    "pitch": 39,
    "velocity": 99,
    "start": 168.3900866329438,
    "end": 168.5847572533287
  },
  {
    "pitch": 39,
    "velocity": 98,
    "start": 168.5847572533287,
    "end": 168.7794278737136
  },
  {
    "pitch": 82,
    "velocity": 76,
    "start": 168.5847572533287,
    "end": 168.9740984940985
  },
  {
    "pitch": 51,
    "velocity": 80,
    "start": 168.5847572533287,
    "end": 168.9740984940985
  },
  {
    "pitch": 39,
    "velocity": 97,
    "start": 168.7794278737136,
    "end": 168.9740984940985
  },
  {
    "pitch": 39,
    "velocity": 98,
    "start": 168.9740984940985,
    "end": 169.1687691144834
  },
  {
    "pitch": 85,
    "velocity": 78,
    "start": 168.9740984940985,
    "end": 169.3634397348683
  },
  {
    "pitch": 51,
    "velocity": 75,
    "start": 168.9740984940985,
    "end": 169.3634397348683
  },
  {
    "pitch": 39,
    "velocity": 98,
    "start": 169.1687691144834,
    "end": 169.3634397348683
  },
  {
    "pitch": 39,
    "velocity": 98,
    "start": 169.3634397348683,
    "end": 169.5581103552532
  },
  {
    "pitch": 85,
    "velocity": 80,
    "start": 169.3634397348683,
    "end": 169.75278097563813
  },
  {
    "pitch": 51,
    "velocity": 75,
    "start": 169.3634397348683,
    "end": 169.75278097563813
  },
  {
    "pitch": 39,
    "velocity": 102,
    "start": 169.5581103552532,
    "end": 169.94745159602303
  },
  {
    "pitch": 85,
    "velocity": 77,
    "start": 169.75278097563813,
    "end": 169.94745159602303
  },
  {
    "pitch": 63,
    "velocity": 99,
    "start": 169.75278097563813,
    "end": 169.94745159602303
  },
  {
    "pitch": 51,
    "velocity": 120,
    "start": 169.75278097563813,
    "end": 169.94745159602303
  },
  {
    "pitch": 68,
    "velocity": 103,
    "start": 169.75278097563813,
    "end": 170.92080469794755
  },
  {
    "pitch": 73,
    "velocity": 103,
    "start": 169.75278097563813,
    "end": 170.92080469794755
  },
  {
    "pitch": 82,
    "velocity": 70,
    "start": 169.94745159602303,
    "end": 170.14212221640793
  },
  {
    "pitch": 61,
    "velocity": 76,
    "start": 169.94745159602303,
    "end": 170.14212221640793
  },
  {
    "pitch": 51,
    "velocity": 102,
    "start": 169.94745159602303,
    "end": 170.14212221640793
  },
  {
    "pitch": 82,
    "velocity": 73,
    "start": 170.14212221640793,
    "end": 170.33679283679285
  },
  {
    "pitch": 61,
    "velocity": 79,
    "start": 170.14212221640793,
    "end": 170.33679283679285
  },
  {
    "pitch": 51,
    "velocity": 94,
    "start": 170.14212221640793,
    "end": 170.33679283679285
  },
  {
    "pitch": 82,
    "velocity": 80,
    "start": 170.33679283679285,
    "end": 170.53146345717775
  },
  {
    "pitch": 61,
    "velocity": 79,
    "start": 170.33679283679285,
    "end": 170.53146345717775
  },
  {
    "pitch": 51,
    "velocity": 95,
    "start": 170.33679283679285,
    "end": 170.53146345717775
  },
  {
    "pitch": 85,
    "velocity": 82,
    "start": 170.53146345717775,
    "end": 170.72613407756265
  },
  {
    "pitch": 61,
    "velocity": 79,
    "start": 170.53146345717775,
    "end": 170.72613407756265
  },
  {
    "pitch": 51,
    "velocity": 98,
    "start": 170.53146345717775,
    "end": 170.72613407756265
  },
  {
    "pitch": 85,
    "velocity": 80,
    "start": 170.72613407756265,
    "end": 170.92080469794755
  },
  {
    "pitch": 61,
    "velocity": 76,
    "start": 170.72613407756265,
    "end": 170.92080469794755
  },
  {
    "pitch": 51,
    "velocity": 98,
    "start": 170.72613407756265,
    "end": 170.92080469794755
  },
  {
    "pitch": 85,
    "velocity": 78,
    "start": 170.92080469794755,
    "end": 171.11547531833247
  },
  {
    "pitch": 61,
    "velocity": 72,
    "start": 170.92080469794755,
    "end": 171.11547531833247
  },
  {
    "pitch": 51,
    "velocity": 97,
    "start": 170.92080469794755,
    "end": 171.11547531833247
  },
  {
    "pitch": 70,
    "velocity": 104,
    "start": 170.92080469794755,
    "end": 171.6994871794872
  },
  {
    "pitch": 75,
    "velocity": 104,
    "start": 170.92080469794755,
    "end": 171.6994871794872
  },
  {
    "pitch": 87,
    "velocity": 82,
    "start": 171.11547531833247,
    "end": 171.31014593871737
  },
  {
    "pitch": 63,
    "velocity": 85,
    "start": 171.11547531833247,
    "end": 171.31014593871737
  },
  {
    "pitch": 51,
    "velocity": 92,
    "start": 171.11547531833247,
    "end": 171.31014593871737
  },
  {
    "pitch": 42,
    "velocity": 84,
    "start": 171.31014593871737,
    "end": 171.50481655910227
  },
  {
    "pitch": 82,
    "velocity": 66,
    "start": 171.31014593871737,
    "end": 171.6994871794872
  },
  {
    "pitch": 51,
    "velocity": 68,
    "start": 171.31014593871737,
    "end": 171.6994871794872
  },
  {
    "pitch": 42,
    "velocity": 98,
    "start": 171.50481655910227,
    "end": 171.6994871794872
  },
  {
    "pitch": 69,
    "velocity": 97,
    "start": 171.65386125283447,
    "end": 171.6994871794872
  },
  {
    "pitch": 42,
    "velocity": 98,
    "start": 171.6994871794872,
    "end": 171.8941577998721
  },
  {
    "pitch": 82,
    "velocity": 74,
    "start": 171.6994871794872,
    "end": 172.088828420257
  },
  {
    "pitch": 51,
    "velocity": 72,
    "start": 171.6994871794872,
    "end": 172.088828420257
  },
  {
    "pitch": 66,
    "velocity": 97,
    "start": 171.6994871794872,
    "end": 172.8675109017966
  },
  {
    "pitch": 70,
    "velocity": 97,
    "start": 171.6994871794872,
    "end": 172.8675109017966
  },
  {
    "pitch": 42,
    "velocity": 105,
    "start": 171.8941577998721,
    "end": 172.088828420257
  },
  {
    "pitch": 85,
    "velocity": 84,
    "start": 172.088828420257,
    "end": 172.28349904064189
  },
  {
    "pitch": 42,
    "velocity": 97,
    "start": 172.088828420257,
    "end": 172.28349904064189
  },
  {
    "pitch": 51,
    "velocity": 80,
    "start": 172.088828420257,
    "end": 172.4781696610268
  },
  {
    "pitch": 85,
    "velocity": 75,
    "start": 172.28349904064189,
    "end": 172.4781696610268
  },
  {
    "pitch": 42,
    "velocity": 98,
    "start": 172.28349904064189,
    "end": 172.4781696610268
  },
  {
    "pitch": 85,
    "velocity": 75,
    "start": 172.4781696610268,
    "end": 172.6728402814117
  },
  {
    "pitch": 42,
    "velocity": 98,
    "start": 172.4781696610268,
    "end": 172.6728402814117
  },
  {
    "pitch": 51,
    "velocity": 79,
    "start": 172.4781696610268,
    "end": 172.8675109017966
  },
  {
    "pitch": 85,
    "velocity": 73,
    "start": 172.6728402814117,
    "end": 172.8675109017966
  },
  {
    "pitch": 42,
    "velocity": 97,
    "start": 172.6728402814117,
    "end": 173.06218152218153
  },
  {
    "pitch": 85,
    "velocity": 83,
    "start": 172.8675109017966,
    "end": 173.06218152218153
  },
  {
    "pitch": 54,
    "velocity": 76,
    "start": 172.8675109017966,
    "end": 173.06218152218153
  },
  {
    "pitch": 49,
    "velocity": 106,
    "start": 172.8675109017966,
    "end": 173.06218152218153
  },
  {
    "pitch": 78,
    "velocity": 65,
    "start": 173.06218152218153,
    "end": 173.25685214256643
  },
  {
    "pitch": 54,
    "velocity": 78,
    "start": 173.06218152218153,
    "end": 173.25685214256643
  },
  {
    "pitch": 49,
    "velocity": 102,
    "start": 173.06218152218153,
    "end": 173.25685214256643
  },
  {
    "pitch": 78,
    "velocity": 77,
    "start": 173.25685214256643,
    "end": 173.45152276295133
  },
  {
    "pitch": 54,
    "velocity": 76,
    "start": 173.25685214256643,
    "end": 173.45152276295133
  },
  {
    "pitch": 49,
    "velocity": 96,
    "start": 173.25685214256643,
    "end": 173.45152276295133
  },
  {
    "pitch": 78,
    "velocity": 76,
    "start": 173.45152276295133,
    "end": 173.64619338333625
  },
  {
    "pitch": 54,
    "velocity": 79,
    "start": 173.45152276295133,
    "end": 173.64619338333625
  },
  {
    "pitch": 49,
    "velocity": 102,
    "start": 173.45152276295133,
    "end": 173.64619338333625
  },
  {
    "pitch": 80,
    "velocity": 82,
    "start": 173.64619338333625,
    "end": 173.84086400372115
  },
  {
    "pitch": 54,
    "velocity": 73,
    "start": 173.64619338333625,
    "end": 173.84086400372115
  },
  {
    "pitch": 49,
    "velocity": 96,
    "start": 173.64619338333625,
    "end": 173.84086400372115
  },
  {
    "pitch": 80,
    "velocity": 76,
    "start": 173.84086400372115,
    "end": 174.03553462410605
  },
  {
    "pitch": 54,
    "velocity": 77,
    "start": 173.84086400372115,
    "end": 174.03553462410605
  },
  {
    "pitch": 49,
    "velocity": 92,
    "start": 173.84086400372115,
    "end": 174.03553462410605
  },
  {
    "pitch": 80,
    "velocity": 73,
    "start": 174.03553462410605,
    "end": 174.23020524449095
  },
  {
    "pitch": 54,
    "velocity": 75,
    "start": 174.03553462410605,
    "end": 174.23020524449095
  },
  {
    "pitch": 49,
    "velocity": 96,
    "start": 174.03553462410605,
    "end": 174.23020524449095
  },
  {
    "pitch": 82,
    "velocity": 83,
    "start": 174.23020524449095,
    "end": 174.42487586487587
  },
  {
    "pitch": 51,
    "velocity": 74,
    "start": 174.23020524449095,
    "end": 174.42487586487587
  },
  {
    "pitch": 49,
    "velocity": 97,
    "start": 174.23020524449095,
    "end": 174.42487586487587
  },
  {
    "pitch": 39,
    "velocity": 87,
    "start": 174.42487586487587,
    "end": 174.61954648526077
  },
  {
    "pitch": 82,
    "velocity": 76,
    "start": 174.42487586487587,
    "end": 174.81421710564567
  },
  {
    "pitch": 51,
    "velocity": 78,
    "start": 174.42487586487587,
    "end": 174.81421710564567
  },
  {
    "pitch": 70,
    "velocity": 85,
    "start": 174.42487586487587,
    "end": 175.9822408279551
  },
  {
    "pitch": 39,
    "velocity": 97,
    "start": 174.61954648526077,
    "end": 174.81421710564567
  },
  {
    "pitch": 39,
    "velocity": 98,
    "start": 174.81421710564567,
    "end": 175.0088877260306
  },
  {
    "pitch": 82,
    "velocity": 78,
    "start": 174.81421710564567,
    "end": 175.2035583464155
  },
  {
    "pitch": 51,
    "velocity": 71,
    "start": 174.81421710564567,
    "end": 175.2035583464155
  },
  {
    "pitch": 39,
    "velocity": 99,
    "start": 175.0088877260306,
    "end": 175.2035583464155
  },
  {
    "pitch": 39,
    "velocity": 98,
    "start": 175.2035583464155,
    "end": 175.3982289668004
  },
  {
    "pitch": 85,
    "velocity": 85,
    "start": 175.2035583464155,
    "end": 175.5928995871853
  },
  {
    "pitch": 51,
    "velocity": 78,
    "start": 175.2035583464155,
    "end": 175.5928995871853
  },
  {
    "pitch": 73,
    "velocity": 91,
    "start": 175.2035583464155,
    "end": 175.9822408279551
  },
  {
    "pitch": 39,
    "velocity": 97,
    "start": 175.3982289668004,
    "end": 175.5928995871853
  },
  {
    "pitch": 39,
    "velocity": 96,
    "start": 175.5928995871853,
    "end": 175.7875702075702
  },
  {
    "pitch": 85,
    "velocity": 79,
    "start": 175.5928995871853,
    "end": 175.9822408279551
  },
  {
    "pitch": 51,
    "velocity": 81,
    "start": 175.5928995871853,
    "end": 175.9822408279551
  },
  {
    "pitch": 39,
    "velocity": 98,
    "start": 175.7875702075702,
    "end": 176.17691144834
  },
  {
    "pitch": 85,
    "velocity": 76,
    "start": 175.9822408279551,
    "end": 176.17691144834
  },
  {
    "pitch": 63,
    "velocity": 96,
    "start": 175.9822408279551,
    "end": 176.17691144834
  },
  {
    "pitch": 51,
    "velocity": 112,
    "start": 175.9822408279551,
    "end": 176.17691144834
  },
  {
    "pitch": 75,
    "velocity": 107,
    "start": 175.9822408279551,
    "end": 176.24078774565382
  },
  {
    "pitch": 82,
    "velocity": 73,
    "start": 176.17691144834,
    "end": 176.37158206872493
  },
  {
    "pitch": 61,
    "velocity": 73,
    "start": 176.17691144834,
    "end": 176.37158206872493
  },
  {
    "pitch": 51,
    "velocity": 99,
    "start": 176.17691144834,
    "end": 176.37158206872493
  },
  {
    "pitch": 73,
    "velocity": 90,
    "start": 176.24078774565382,
    "end": 176.4993346633525
  },
  {
    "pitch": 82,
    "velocity": 76,
    "start": 176.37158206872493,
    "end": 176.56625268910983
  },
  {
    "pitch": 61,
    "velocity": 76,
    "start": 176.37158206872493,
    "end": 176.56625268910983
  },
  {
    "pitch": 51,
    "velocity": 94,
    "start": 176.37158206872493,
    "end": 176.56625268910983
  },
  {
    "pitch": 73,
    "velocity": 94,
    "start": 176.4993346633525,
    "end": 176.76092330949473
  },
  {
    "pitch": 82,
    "velocity": 73,
    "start": 176.56625268910983,
    "end": 176.76092330949473
  },
  {
    "pitch": 61,
    "velocity": 74,
    "start": 176.56625268910983,
    "end": 176.76092330949473
  },
  {
    "pitch": 51,
    "velocity": 98,
    "start": 176.56625268910983,
    "end": 176.76092330949473
  },
  {
    "pitch": 85,
    "velocity": 81,
    "start": 176.76092330949473,
    "end": 176.95559392987963
  },
  {
    "pitch": 61,
    "velocity": 75,
    "start": 176.76092330949473,
    "end": 176.95559392987963
  },
  {
    "pitch": 51,
    "velocity": 96,
    "start": 176.76092330949473,
    "end": 176.95559392987963
  },
  {
    "pitch": 73,
    "velocity": 100,
    "start": 176.76092330949473,
    "end": 177.01947022719344
  },
  {
    "pitch": 85,
    "velocity": 78,
    "start": 176.95559392987963,
    "end": 177.15026455026455
  },
  {
    "pitch": 61,
    "velocity": 75,
    "start": 176.95559392987963,
    "end": 177.15026455026455
  },
  {
    "pitch": 51,
    "velocity": 99,
    "start": 176.95559392987963,
    "end": 177.15026455026455
  },
  {
    "pitch": 73,
    "velocity": 100,
    "start": 177.01947022719344,
    "end": 177.27801714489215
  },
  {
    "pitch": 85,
    "velocity": 77,
    "start": 177.15026455026455,
    "end": 177.34493517064945
  },
  {
    "pitch": 61,
    "velocity": 75,
    "start": 177.15026455026455,
    "end": 177.34493517064945
  },
  {
    "pitch": 51,
    "velocity": 99,
    "start": 177.15026455026455,
    "end": 177.34493517064945
  },
  {
    "pitch": 75,
    "velocity": 100,
    "start": 177.27801714489215,
    "end": 177.40881146796326
  },
  {
    "pitch": 87,
    "velocity": 85,
    "start": 177.34493517064945,
    "end": 177.53960579103435
  },
  {
    "pitch": 63,
    "velocity": 78,
    "start": 177.34493517064945,
    "end": 177.53960579103435
  },
  {
    "pitch": 51,
    "velocity": 100,
    "start": 177.34493517064945,
    "end": 177.53960579103435
  },
  {
    "pitch": 70,
    "velocity": 86,
    "start": 177.40881146796326,
    "end": 177.73427641141927
  },
  {
    "pitch": 42,
    "velocity": 91,
    "start": 177.53960579103435,
    "end": 177.73427641141927
  },
  {
    "pitch": 82,
    "velocity": 67,
    "start": 177.53960579103435,
    "end": 177.92894703180417
  },
  {
    "pitch": 51,
    "velocity": 66,
    "start": 177.53960579103435,
    "end": 177.92894703180417
  },
  {
    "pitch": 42,
    "velocity": 97,
    "start": 177.73427641141927,
    "end": 177.92894703180417
  },
  {
    "pitch": 75,
    "velocity": 113,
    "start": 177.73427641141927,
    "end": 178.05669962643177
  },
  {
    "pitch": 42,
    "velocity": 102,
    "start": 177.92894703180417,
    "end": 178.12361765218907
  },
  {
    "pitch": 82,
    "velocity": 75,
    "start": 177.92894703180417,
    "end": 178.318288272574
  },
  {
    "pitch": 51,
    "velocity": 78,
    "start": 177.92894703180417,
    "end": 178.318288272574
  },
  {
    "pitch": 73,
    "velocity": 93,
    "start": 178.05669962643177,
    "end": 178.18749394950288
  },
  {
    "pitch": 42,
    "velocity": 99,
    "start": 178.12361765218907,
    "end": 178.318288272574
  },
  {
    "pitch": 73,
    "velocity": 96,
    "start": 178.18749394950288,
    "end": 178.318288272574
  },
  {
    "pitch": 85,
    "velocity": 79,
    "start": 178.318288272574,
    "end": 178.5129588929589
  },
  {
    "pitch": 73,
    "velocity": 95,
    "start": 178.318288272574,
    "end": 178.5129588929589
  },
  {
    "pitch": 42,
    "velocity": 94,
    "start": 178.318288272574,
    "end": 178.5129588929589
  },
  {
    "pitch": 51,
    "velocity": 73,
    "start": 178.318288272574,
    "end": 178.7076295133438
  },
  {
    "pitch": 85,
    "velocity": 77,
    "start": 178.5129588929589,
    "end": 178.7076295133438
  },
  {
    "pitch": 73,
    "velocity": 98,
    "start": 178.5129588929589,
    "end": 178.7076295133438
  },
  {
    "pitch": 42,
    "velocity": 101,
    "start": 178.5129588929589,
    "end": 178.7076295133438
  },
  {
    "pitch": 85,
    "velocity": 77,
    "start": 178.7076295133438,
    "end": 178.9023001337287
  },
  {
    "pitch": 75,
    "velocity": 102,
    "start": 178.7076295133438,
    "end": 178.9023001337287
  },
  {
    "pitch": 42,
    "velocity": 98,
    "start": 178.7076295133438,
    "end": 178.9023001337287
  },
  {
    "pitch": 51,
    "velocity": 77,
    "start": 178.7076295133438,
    "end": 179.0969707541136
  },
  {
    "pitch": 85,
    "velocity": 73,
    "start": 178.9023001337287,
    "end": 179.0969707541136
  },
  {
    "pitch": 42,
    "velocity": 96,
    "start": 178.9023001337287,
    "end": 179.2916413744985
  },
  {
    "pitch": 70,
    "velocity": 85,
    "start": 178.9023001337287,
    "end": 179.4863119948834
  },
  {
    "pitch": 85,
    "velocity": 80,
    "start": 179.0969707541136,
    "end": 179.2916413744985
  },
  {
    "pitch": 54,
    "velocity": 79,
    "start": 179.0969707541136,
    "end": 179.2916413744985
  },
  {
    "pitch": 49,
    "velocity": 110,
    "start": 179.0969707541136,
    "end": 179.2916413744985
  },
  {
    "pitch": 78,
    "velocity": 63,
    "start": 179.2916413744985,
    "end": 179.4863119948834
  },
  {
    "pitch": 54,
    "velocity": 75,
    "start": 179.2916413744985,
    "end": 179.4863119948834
  },
  {
    "pitch": 49,
    "velocity": 102,
    "start": 179.2916413744985,
    "end": 179.4863119948834
  },
  {
    "pitch": 75,
    "velocity": 101,
    "start": 179.2916413744985,
    "end": 179.614064589511
  },
  {
    "pitch": 78,
    "velocity": 74,
    "start": 179.4863119948834,
    "end": 179.68098261526833
  },
  {
    "pitch": 54,
    "velocity": 72,
    "start": 179.4863119948834,
    "end": 179.68098261526833
  },
  {
    "pitch": 49,
    "velocity": 98,
    "start": 179.4863119948834,
    "end": 179.68098261526833
  },
  {
    "pitch": 73,
    "velocity": 94,
    "start": 179.614064589511,
    "end": 179.74485891258212
  },
  {
    "pitch": 78,
    "velocity": 74,
    "start": 179.68098261526833,
    "end": 179.87565323565323
  },
  {
    "pitch": 54,
    "velocity": 75,
    "start": 179.68098261526833,
    "end": 179.87565323565323
  },
  {
    "pitch": 49,
    "velocity": 95,
    "start": 179.68098261526833,
    "end": 179.87565323565323
  },
  {
    "pitch": 73,
    "velocity": 97,
    "start": 179.74485891258212,
    "end": 179.87565323565323
  },
  {
    "pitch": 80,
    "velocity": 81,
    "start": 179.87565323565323,
    "end": 180.07032385603813
  },
  {
    "pitch": 73,
    "velocity": 101,
    "start": 179.87565323565323,
    "end": 180.07032385603813
  },
  {
    "pitch": 54,
    "velocity": 76,
    "start": 179.87565323565323,
    "end": 180.07032385603813
  },
  {
    "pitch": 49,
    "velocity": 98,
    "start": 179.87565323565323,
    "end": 180.07032385603813
  },
  {
    "pitch": 80,
    "velocity": 80,
    "start": 180.07032385603813,
    "end": 180.26499447642303
  },
  {
    "pitch": 73,
    "velocity": 92,
    "start": 180.07032385603813,
    "end": 180.26499447642303
  },
  {
    "pitch": 54,
    "velocity": 77,
    "start": 180.07032385603813,
    "end": 180.26499447642303
  },
  {
    "pitch": 49,
    "velocity": 99,
    "start": 180.07032385603813,
    "end": 180.26499447642303
  },
  {
    "pitch": 80,
    "velocity": 74,
    "start": 180.26499447642303,
    "end": 180.45966509680795
  },
  {
    "pitch": 75,
    "velocity": 103,
    "start": 180.26499447642303,
    "end": 180.45966509680795
  },
  {
    "pitch": 54,
    "velocity": 77,
    "start": 180.26499447642303,
    "end": 180.45966509680795
  },
  {
    "pitch": 49,
    "velocity": 99,
    "start": 180.26499447642303,
    "end": 180.45966509680795
  },
  {
    "pitch": 82,
    "velocity": 84,
    "start": 180.45966509680795,
    "end": 180.65433571719285
  },
  {
    "pitch": 51,
    "velocity": 71,
    "start": 180.45966509680795,
    "end": 180.65433571719285
  },
  {
    "pitch": 49,
    "velocity": 101,
    "start": 180.45966509680795,
    "end": 180.65433571719285
  },
  {
    "pitch": 70,
    "velocity": 90,
    "start": 180.45966509680795,
    "end": 182.2117006802721
  },
  {
    "pitch": 39,
    "velocity": 88,
    "start": 180.65433571719285,
    "end": 180.84900633757775
  },
  {
    "pitch": 82,
    "velocity": 78,
    "start": 180.65433571719285,
    "end": 181.04367695796267
  },
  {
    "pitch": 51,
    "velocity": 75,
    "start": 180.65433571719285,
    "end": 181.04367695796267
  },
  {
    "pitch": 39,
    "velocity": 94,
    "start": 180.84900633757775,
    "end": 181.04367695796267
  },
  {
    "pitch": 39,
    "velocity": 97,
    "start": 181.04367695796267,
    "end": 181.23834757834757
  },
  {
    "pitch": 82,
    "velocity": 79,
    "start": 181.04367695796267,
    "end": 181.43301819873247
  },
  {
    "pitch": 51,
    "velocity": 79,
    "start": 181.04367695796267,
    "end": 181.43301819873247
  },
  {
    "pitch": 39,
    "velocity": 101,
    "start": 181.23834757834757,
    "end": 181.43301819873247
  },
  {
    "pitch": 39,
    "velocity": 101,
    "start": 181.43301819873247,
    "end": 181.62768881911737
  },
  {
    "pitch": 85,
    "velocity": 83,
    "start": 181.43301819873247,
    "end": 181.8223594395023
  },
  {
    "pitch": 51,
    "velocity": 77,
    "start": 181.43301819873247,
    "end": 181.8223594395023
  },
  {
    "pitch": 39,
    "velocity": 97,
    "start": 181.62768881911737,
    "end": 181.8223594395023
  },
  {
    "pitch": 39,
    "velocity": 103,
    "start": 181.8223594395023,
    "end": 182.0170300598872
  },
  {
    "pitch": 85,
    "velocity": 76,
    "start": 181.8223594395023,
    "end": 182.2117006802721
  },
  {
    "pitch": 51,
    "velocity": 78,
    "start": 181.8223594395023,
    "end": 182.2117006802721
  },
  {
    "pitch": 39,
    "velocity": 97,
    "start": 182.0170300598872,
    "end": 182.406371300657
  },
  {
    "pitch": 85,
    "velocity": 84,
    "start": 182.2117006802721,
    "end": 182.406371300657
  },
  {
    "pitch": 63,
    "velocity": 97,
    "start": 182.2117006802721,
    "end": 182.406371300657
  },
  {
    "pitch": 51,
    "velocity": 109,
    "start": 182.2117006802721,
    "end": 182.406371300657
  },
  {
    "pitch": 68,
    "velocity": 106,
    "start": 182.2117006802721,
    "end": 183.37972440258153
  },
  {
    "pitch": 73,
    "velocity": 106,
    "start": 182.2117006802721,
    "end": 183.37972440258153
  },
  {
    "pitch": 82,
    "velocity": 68,
    "start": 182.406371300657,
    "end": 182.6010419210419
  },
  {
    "pitch": 61,
    "velocity": 71,
    "start": 182.406371300657,
    "end": 182.6010419210419
  },
  {
    "pitch": 51,
    "velocity": 102,
    "start": 182.406371300657,
    "end": 182.6010419210419
  },
  {
    "pitch": 82,
    "velocity": 75,
    "start": 182.6010419210419,
    "end": 182.7957125414268
  },
  {
    "pitch": 61,
    "velocity": 75,
    "start": 182.6010419210419,
    "end": 182.7957125414268
  },
  {
    "pitch": 51,
    "velocity": 95,
    "start": 182.6010419210419,
    "end": 182.7957125414268
  },
  {
    "pitch": 82,
    "velocity": 77,
    "start": 182.7957125414268,
    "end": 182.99038316181174
  },
  {
    "pitch": 61,
    "velocity": 78,
    "start": 182.7957125414268,
    "end": 182.99038316181174
  },
  {
    "pitch": 51,
    "velocity": 101,
    "start": 182.7957125414268,
    "end": 182.99038316181174
  },
  {
    "pitch": 85,
    "velocity": 82,
    "start": 182.99038316181174,
    "end": 183.18505378219663
  },
  {
    "pitch": 61,
    "velocity": 73,
    "start": 182.99038316181174,
    "end": 183.18505378219663
  },
  {
    "pitch": 51,
    "velocity": 100,
    "start": 182.99038316181174,
    "end": 183.18505378219663
  },
  {
    "pitch": 85,
    "velocity": 78,
    "start": 183.18505378219663,
    "end": 183.37972440258153
  },
  {
    "pitch": 61,
    "velocity": 79,
    "start": 183.18505378219663,
    "end": 183.37972440258153
  },
  {
    "pitch": 51,
    "velocity": 99,
    "start": 183.18505378219663,
    "end": 183.37972440258153
  },
  {
    "pitch": 85,
    "velocity": 76,
    "start": 183.37972440258153,
    "end": 183.57439502296643
  },
  {
    "pitch": 61,
    "velocity": 81,
    "start": 183.37972440258153,
    "end": 183.57439502296643
  },
  {
    "pitch": 51,
    "velocity": 100,
    "start": 183.37972440258153,
    "end": 183.57439502296643
  },
  {
    "pitch": 70,
    "velocity": 107,
    "start": 183.37972440258153,
    "end": 184.15840688412115
  },
  {
    "pitch": 75,
    "velocity": 107,
    "start": 183.37972440258153,
    "end": 184.15840688412115
  },
  {
    "pitch": 87,
    "velocity": 80,
    "start": 183.57439502296643,
    "end": 183.76906564335135
  },
  {
    "pitch": 63,
    "velocity": 78,
    "start": 183.57439502296643,
    "end": 183.76906564335135
  },
  {
    "pitch": 51,
    "velocity": 100,
    "start": 183.57439502296643,
    "end": 183.76906564335135
  },
  {
    "pitch": 42,
    "velocity": 87,
    "start": 183.76906564335135,
    "end": 183.96373626373625
  },
  {
    "pitch": 82,
    "velocity": 63,
    "start": 183.76906564335135,
    "end": 184.15840688412115
  },
  {
    "pitch": 51,
    "velocity": 61,
    "start": 183.76906564335135,
    "end": 184.15840688412115
  },
  {
    "pitch": 42,
    "velocity": 95,
    "start": 183.96373626373625,
    "end": 184.15840688412115
  },
  {
    "pitch": 69,
    "velocity": 96,
    "start": 184.11278095746843,
    "end": 184.15840688412115
  },
  {
    "pitch": 42,
    "velocity": 95,
    "start": 184.15840688412115,
    "end": 184.35307750450608
  },
  {
    "pitch": 82,
    "velocity": 72,
    "start": 184.15840688412115,
    "end": 184.54774812489097
  },
  {
    "pitch": 51,
    "velocity": 75,
    "start": 184.15840688412115,
    "end": 184.54774812489097
  },
  {
    "pitch": 66,
    "velocity": 96,
    "start": 184.15840688412115,
    "end": 185.3264306064306
  },
  {
    "pitch": 70,
    "velocity": 96,
    "start": 184.15840688412115,
    "end": 185.3264306064306
  },
  {
    "pitch": 42,
    "velocity": 96,
    "start": 184.35307750450608,
    "end": 184.54774812489097
  },
  {
    "pitch": 42,
    "velocity": 103,
    "start": 184.54774812489097,
    "end": 184.74241874527587
  },
  {
    "pitch": 85,
    "velocity": 83,
    "start": 184.54774812489097,
    "end": 184.93708936566077
  },
  {
    "pitch": 51,
    "velocity": 79,
    "start": 184.54774812489097,
    "end": 184.93708936566077
  },
  {
    "pitch": 42,
    "velocity": 95,
    "start": 184.74241874527587,
    "end": 184.93708936566077
  },
  {
    "pitch": 42,
    "velocity": 95,
    "start": 184.93708936566077,
    "end": 185.1317599860457
  },
  {
    "pitch": 85,
    "velocity": 75,
    "start": 184.93708936566077,
    "end": 185.3264306064306
  },
  {
    "pitch": 51,
    "velocity": 77,
    "start": 184.93708936566077,
    "end": 185.3264306064306
  },
  {
    "pitch": 42,
    "velocity": 97,
    "start": 185.1317599860457,
    "end": 185.5211012268155
  },
  {
    "pitch": 85,
    "velocity": 78,
    "start": 185.3264306064306,
    "end": 185.5211012268155
  },
  {
    "pitch": 54,
    "velocity": 84,
    "start": 185.3264306064306,
    "end": 185.5211012268155
  },
  {
    "pitch": 49,
    "velocity": 106,
    "start": 185.3264306064306,
    "end": 185.5211012268155
  },
  {
    "pitch": 78,
    "velocity": 60,
    "start": 185.5211012268155,
    "end": 185.71577184720041
  },
  {
    "pitch": 54,
    "velocity": 74,
    "start": 185.5211012268155,
    "end": 185.71577184720041
  },
  {
    "pitch": 49,
    "velocity": 94,
    "start": 185.5211012268155,
    "end": 185.71577184720041
  },
  {
    "pitch": 78,
    "velocity": 74,
    "start": 185.71577184720041,
    "end": 185.9104424675853
  },
  {
    "pitch": 54,
    "velocity": 77,
    "start": 185.71577184720041,
    "end": 185.9104424675853
  },
  {
    "pitch": 49,
    "velocity": 99,
    "start": 185.71577184720041,
    "end": 185.9104424675853
  },
  {
    "pitch": 78,
    "velocity": 78,
    "start": 185.9104424675853,
    "end": 186.1051130879702
  },
  {
    "pitch": 54,
    "velocity": 82,
    "start": 185.9104424675853,
    "end": 186.1051130879702
  },
  {
    "pitch": 49,
    "velocity": 98,
    "start": 185.9104424675853,
    "end": 186.1051130879702
  },
  {
    "pitch": 80,
    "velocity": 81,
    "start": 186.1051130879702,
    "end": 186.2997837083551
  },
  {
    "pitch": 54,
    "velocity": 75,
    "start": 186.1051130879702,
    "end": 186.2997837083551
  },
  {
    "pitch": 49,
    "velocity": 98,
    "start": 186.1051130879702,
    "end": 186.2997837083551
  },
  {
    "pitch": 80,
    "velocity": 76,
    "start": 186.2997837083551,
    "end": 186.49445432874003
  },
  {
    "pitch": 54,
    "velocity": 76,
    "start": 186.2997837083551,
    "end": 186.49445432874003
  },
  {
    "pitch": 49,
    "velocity": 94,
    "start": 186.2997837083551,
    "end": 186.49445432874003
  },
  {
    "pitch": 80,
    "velocity": 75,
    "start": 186.49445432874003,
    "end": 186.68912494912493
  },
  {
    "pitch": 54,
    "velocity": 74,
    "start": 186.49445432874003,
    "end": 186.68912494912493
  },
  {
    "pitch": 49,
    "velocity": 97,
    "start": 186.49445432874003,
    "end": 186.68912494912493
  },
  {
    "pitch": 82,
    "velocity": 77,
    "start": 186.68912494912493,
    "end": 186.88379556950983
  },
  {
    "pitch": 51,
    "velocity": 70,
    "start": 186.68912494912493,
    "end": 186.88379556950983
  },
  {
    "pitch": 49,
    "velocity": 96,
    "start": 186.68912494912493,
    "end": 186.88379556950983
  },
  {
    "pitch": 39,
    "velocity": 87,
    "start": 186.88379556950983,
    "end": 187.07846618989475
  },
  {
    "pitch": 82,
    "velocity": 77,
    "start": 186.88379556950983,
    "end": 187.27313681027965
  },
  {
    "pitch": 51,
    "velocity": 83,
    "start": 186.88379556950983,
    "end": 187.27313681027965
  },
  {
    "pitch": 70,
    "velocity": 87,
    "start": 186.88379556950983,
    "end": 188.4411605325891
  },
  {
    "pitch": 39,
    "velocity": 98,
    "start": 187.07846618989475,
    "end": 187.27313681027965
  },
  {
    "pitch": 39,
    "velocity": 99,
    "start": 187.27313681027965,
    "end": 187.46780743066455
  },
  {
    "pitch": 82,
    "velocity": 76,
    "start": 187.27313681027965,
    "end": 187.66247805104948
  },
  {
    "pitch": 51,
    "velocity": 80,
    "start": 187.27313681027965,
    "end": 187.66247805104948
  },
  {
    "pitch": 39,
    "velocity": 96,
    "start": 187.46780743066455,
    "end": 187.66247805104948
  },
  {
    "pitch": 39,
    "velocity": 95,
    "start": 187.66247805104948,
    "end": 187.85714867143437
  },
  {
    "pitch": 85,
    "velocity": 82,
    "start": 187.66247805104948,
    "end": 188.05181929181927
  },
  {
    "pitch": 51,
    "velocity": 78,
    "start": 187.66247805104948,
    "end": 188.05181929181927
  },
  {
    "pitch": 73,
    "velocity": 89,
    "start": 187.66247805104948,
    "end": 188.4411605325891
  },
  {
    "pitch": 39,
    "velocity": 100,
    "start": 187.85714867143437,
    "end": 188.05181929181927
  },
  {
    "pitch": 39,
    "velocity": 95,
    "start": 188.05181929181927,
    "end": 188.24648991220417
  },
  {
    "pitch": 85,
    "velocity": 80,
    "start": 188.05181929181927,
    "end": 188.4411605325891
  },
  {
    "pitch": 51,
    "velocity": 78,
    "start": 188.05181929181927,
    "end": 188.4411605325891
  },
  {
    "pitch": 39,
    "velocity": 95,
    "start": 188.24648991220417,
    "end": 188.635831152974
  },
  {
    "pitch": 85,
    "velocity": 79,
    "start": 188.4411605325891,
    "end": 188.635831152974
  },
  {
    "pitch": 63,
    "velocity": 98,
    "start": 188.4411605325891,
    "end": 188.635831152974
  },
  {
    "pitch": 51,
    "velocity": 103,
    "start": 188.4411605325891,
    "end": 188.635831152974
  },
  {
    "pitch": 75,
    "velocity": 105,
    "start": 188.4411605325891,
    "end": 188.6997074502878
  },
  {
    "pitch": 82,
    "velocity": 71,
    "start": 188.635831152974,
    "end": 188.8305017733589
  },
  {
    "pitch": 61,
    "velocity": 76,
    "start": 188.635831152974,
    "end": 188.8305017733589
  },
  {
    "pitch": 51,
    "velocity": 97,
    "start": 188.635831152974,
    "end": 188.8305017733589
  },
  {
    "pitch": 73,
    "velocity": 90,
    "start": 188.6997074502878,
    "end": 188.95825436798648
  },
  {
    "pitch": 82,
    "velocity": 71,
    "start": 188.8305017733589,
    "end": 189.02517239374382
  },
  {
    "pitch": 61,
    "velocity": 78,
    "start": 188.8305017733589,
    "end": 189.02517239374382
  },
  {
    "pitch": 51,
    "velocity": 102,
    "start": 188.8305017733589,
    "end": 189.02517239374382
  },
  {
    "pitch": 73,
    "velocity": 96,
    "start": 188.95825436798648,
    "end": 189.2198430141287
  },
  {
    "pitch": 82,
    "velocity": 74,
    "start": 189.02517239374382,
    "end": 189.2198430141287
  },
  {
    "pitch": 61,
    "velocity": 79,
    "start": 189.02517239374382,
    "end": 189.2198430141287
  },
  {
    "pitch": 51,
    "velocity": 97,
    "start": 189.02517239374382,
    "end": 189.2198430141287
  },
  {
    "pitch": 85,
    "velocity": 81,
    "start": 189.2198430141287,
    "end": 189.4145136345136
  },
  {
    "pitch": 61,
    "velocity": 76,
    "start": 189.2198430141287,
    "end": 189.4145136345136
  },
  {
    "pitch": 51,
    "velocity": 96,
    "start": 189.2198430141287,
    "end": 189.4145136345136
  },
  {
    "pitch": 73,
    "velocity": 94,
    "start": 189.2198430141287,
    "end": 189.47838993182742
  },
  {
    "pitch": 85,
    "velocity": 76,
    "start": 189.4145136345136,
    "end": 189.6091842548985
  },
  {
    "pitch": 61,
    "velocity": 76,
    "start": 189.4145136345136,
    "end": 189.6091842548985
  },
  {
    "pitch": 51,
    "velocity": 100,
    "start": 189.4145136345136,
    "end": 189.6091842548985
  },
  {
    "pitch": 73,
    "velocity": 101,
    "start": 189.47838993182742,
    "end": 189.7369368495261
  },
  {
    "pitch": 85,
    "velocity": 79,
    "start": 189.6091842548985,
    "end": 189.80385487528343
  },
  {
    "pitch": 61,
    "velocity": 80,
    "start": 189.6091842548985,
    "end": 189.80385487528343
  },
  {
    "pitch": 51,
    "velocity": 100,
    "start": 189.6091842548985,
    "end": 189.80385487528343
  },
  {
    "pitch": 75,
    "velocity": 102,
    "start": 189.7369368495261,
    "end": 189.86773117259725
  },
  {
    "pitch": 87,
    "velocity": 80,
    "start": 189.80385487528343,
    "end": 189.99852549566833
  },
  {
    "pitch": 63,
    "velocity": 82,
    "start": 189.80385487528343,
    "end": 189.99852549566833
  },
  {
    "pitch": 51,
    "velocity": 99,
    "start": 189.80385487528343,
    "end": 189.99852549566833
  },
  {
    "pitch": 70,
    "velocity": 81,
    "start": 189.86773117259725,
    "end": 190.19319611605323
  },
  {
    "pitch": 42,
    "velocity": 90,
    "start": 189.99852549566833,
    "end": 190.19319611605323
  },
  {
    "pitch": 82,
    "velocity": 68,
    "start": 189.99852549566833,
    "end": 190.38786673643816
  },
  {
    "pitch": 51,
    "velocity": 65,
    "start": 189.99852549566833,
    "end": 190.38786673643816
  },
  {
    "pitch": 42,
    "velocity": 96,
    "start": 190.19319611605323,
    "end": 190.38786673643816
  },
  {
    "pitch": 75,
    "velocity": 107,
    "start": 190.19319611605323,
    "end": 190.51561933106572
  },
  {
    "pitch": 42,
    "velocity": 99,
    "start": 190.38786673643816,
    "end": 190.58253735682305
  },
  {
    "pitch": 82,
    "velocity": 72,
    "start": 190.38786673643816,
    "end": 190.77720797720795
  },
  {
    "pitch": 51,
    "velocity": 72,
    "start": 190.38786673643816,
    "end": 190.77720797720795
  },
  {
    "pitch": 73,
    "velocity": 91,
    "start": 190.51561933106572,
    "end": 190.64641365413686
  },
  {
    "pitch": 42,
    "velocity": 98,
    "start": 190.58253735682305,
    "end": 190.77720797720795
  },
  {
    "pitch": 73,
    "velocity": 97,
    "start": 190.64641365413686,
    "end": 190.77720797720795
  },
  {
    "pitch": 73,
    "velocity": 98,
    "start": 190.77720797720795,
    "end": 190.97187859759285
  },
  {
    "pitch": 42,
    "velocity": 101,
    "start": 190.77720797720795,
    "end": 190.97187859759285
  },
  {
    "pitch": 85,
    "velocity": 80,
    "start": 190.77720797720795,
    "end": 191.16654921797777
  },
  {
    "pitch": 51,
    "velocity": 79,
    "start": 190.77720797720795,
    "end": 191.16654921797777
  },
  {
    "pitch": 73,
    "velocity": 99,
    "start": 190.97187859759285,
    "end": 191.16654921797777
  },
  {
    "pitch": 42,
    "velocity": 96,
    "start": 190.97187859759285,
    "end": 191.16654921797777
  },
  {
    "pitch": 75,
    "velocity": 103,
    "start": 191.16654921797777,
    "end": 191.36121983836267
  },
  {
    "pitch": 42,
    "velocity": 96,
    "start": 191.16654921797777,
    "end": 191.36121983836267
  },
  {
    "pitch": 85,
    "velocity": 73,
    "start": 191.16654921797777,
    "end": 191.55589045874757
  },
  {
    "pitch": 51,
    "velocity": 72,
    "start": 191.16654921797777,
    "end": 191.55589045874757
  },
  {
    "pitch": 42,
    "velocity": 95,
    "start": 191.36121983836267,
    "end": 191.7505610791325
  },
  {
    "pitch": 70,
    "velocity": 87,
    "start": 191.36121983836267,
    "end": 191.9452316995174
  },
  {
    "pitch": 85,
    "velocity": 75,
    "start": 191.55589045874757,
    "end": 191.7505610791325
  },
  {
    "pitch": 54,
    "velocity": 80,
    "start": 191.55589045874757,
    "end": 191.7505610791325
  },
  {
    "pitch": 49,
    "velocity": 109,
    "start": 191.55589045874757,
    "end": 191.7505610791325
  },
  {
    "pitch": 78,
    "velocity": 63,
    "start": 191.7505610791325,
    "end": 191.9452316995174
  },
  {
    "pitch": 54,
    "velocity": 74,
    "start": 191.7505610791325,
    "end": 191.9452316995174
  },
  {
    "pitch": 49,
    "velocity": 102,
    "start": 191.7505610791325,
    "end": 191.9452316995174
  },
  {
    "pitch": 75,
    "velocity": 98,
    "start": 191.7505610791325,
    "end": 192.072984294145
  },
  {
    "pitch": 78,
    "velocity": 72,
    "start": 191.9452316995174,
    "end": 192.1399023199023
  },
  {
    "pitch": 54,
    "velocity": 77,
    "start": 191.9452316995174,
    "end": 192.1399023199023
  },
  {
    "pitch": 49,
    "velocity": 97,
    "start": 191.9452316995174,
    "end": 192.1399023199023
  },
  {
    "pitch": 73,
    "velocity": 93,
    "start": 192.072984294145,
    "end": 192.2037786172161
  },
  {
    "pitch": 78,
    "velocity": 79,
    "start": 192.1399023199023,
    "end": 192.33457294028722
  },
  {
    "pitch": 54,
    "velocity": 74,
    "start": 192.1399023199023,
    "end": 192.33457294028722
  },
  {
    "pitch": 49,
    "velocity": 102,
    "start": 192.1399023199023,
    "end": 192.33457294028722
  },
  {
    "pitch": 73,
    "velocity": 97,
    "start": 192.2037786172161,
    "end": 192.33457294028722
  },
  {
    "pitch": 80,
    "velocity": 80,
    "start": 192.33457294028722,
    "end": 192.5292435606721
  },
  {
    "pitch": 73,
    "velocity": 96,
    "start": 192.33457294028722,
    "end": 192.5292435606721
  },
  {
    "pitch": 54,
    "velocity": 78,
    "start": 192.33457294028722,
    "end": 192.5292435606721
  },
  {
    "pitch": 49,
    "velocity": 97,
    "start": 192.33457294028722,
    "end": 192.5292435606721
  },
  {
    "pitch": 80,
    "velocity": 72,
    "start": 192.5292435606721,
    "end": 192.723914181057
  },
  {
    "pitch": 73,
    "velocity": 96,
    "start": 192.5292435606721,
    "end": 192.723914181057
  },
  {
    "pitch": 54,
    "velocity": 74,
    "start": 192.5292435606721,
    "end": 192.723914181057
  },
  {
    "pitch": 49,
    "velocity": 96,
    "start": 192.5292435606721,
    "end": 192.723914181057
  },
  {
    "pitch": 80,
    "velocity": 75,
    "start": 192.723914181057,
    "end": 192.9185848014419
  },
  {
    "pitch": 75,
    "velocity": 100,
    "start": 192.723914181057,
    "end": 192.9185848014419
  },
  {
    "pitch": 54,
    "velocity": 80,
    "start": 192.723914181057,
    "end": 192.9185848014419
  },
  {
    "pitch": 49,
    "velocity": 95,
    "start": 192.723914181057,
    "end": 192.9185848014419
  },
  {
    "pitch": 82,
    "velocity": 82,
    "start": 192.9185848014419,
    "end": 193.11325542182684
  },
  {
    "pitch": 51,
    "velocity": 71,
    "start": 192.9185848014419,
    "end": 193.11325542182684
  },
  {
    "pitch": 49,
    "velocity": 98,
    "start": 192.9185848014419,
    "end": 193.11325542182684
  },
  {
    "pitch": 70,
    "velocity": 88,
    "start": 192.9185848014419,
    "end": 194.67062038490607
  },
  {
    "pitch": 39,
    "velocity": 86,
    "start": 193.11325542182684,
    "end": 193.30792604221173
  },
  {
    "pitch": 82,
    "velocity": 77,
    "start": 193.11325542182684,
    "end": 193.50259666259663
  },
  {
    "pitch": 51,
    "velocity": 80,
    "start": 193.11325542182684,
    "end": 193.50259666259663
  },
  {
    "pitch": 39,
    "velocity": 99,
    "start": 193.30792604221173,
    "end": 193.50259666259663
  },
  {
    "pitch": 39,
    "velocity": 96,
    "start": 193.50259666259663,
    "end": 193.69726728298156
  },
  {
    "pitch": 82,
    "velocity": 73,
    "start": 193.50259666259663,
    "end": 193.89193790336645
  },
  {
    "pitch": 51,
    "velocity": 76,
    "start": 193.50259666259663,
    "end": 193.89193790336645
  },
  {
    "pitch": 39,
    "velocity": 94,
    "start": 193.69726728298156,
    "end": 193.89193790336645
  },
  {
    "pitch": 39,
    "velocity": 101,
    "start": 193.89193790336645,
    "end": 194.08660852375135
  },
  {
    "pitch": 85,
    "velocity": 86,
    "start": 193.89193790336645,
    "end": 194.28127914413625
  },
  {
    "pitch": 51,
    "velocity": 71,
    "start": 193.89193790336645,
    "end": 194.28127914413625
  },
  {
    "pitch": 39,
    "velocity": 95,
    "start": 194.08660852375135,
    "end": 194.28127914413625
  },
  {
    "pitch": 39,
    "velocity": 96,
    "start": 194.28127914413625,
    "end": 194.47594976452118
  },
  {
    "pitch": 85,
    "velocity": 80,
    "start": 194.28127914413625,
    "end": 194.67062038490607
  },
  {
    "pitch": 51,
    "velocity": 80,
    "start": 194.28127914413625,
    "end": 194.67062038490607
  },
  {
    "pitch": 39,
    "velocity": 98,
    "start": 194.47594976452118,
    "end": 194.86529100529097
  },
  {
    "pitch": 85,
    "velocity": 73,
    "start": 194.67062038490607,
    "end": 194.86529100529097
  },
  {
    "pitch": 63,
    "velocity": 96,
    "start": 194.67062038490607,
    "end": 194.86529100529097
  },
  {
    "pitch": 51,
    "velocity": 113,
    "start": 194.67062038490607,
    "end": 194.86529100529097
  },
  {
    "pitch": 68,
    "velocity": 109,
    "start": 194.67062038490607,
    "end": 195.83864410721552
  },
  {
    "pitch": 73,
    "velocity": 109,
    "start": 194.67062038490607,
    "end": 195.83864410721552
  },
  {
    "pitch": 82,
    "velocity": 73,
    "start": 194.86529100529097,
    "end": 195.0599616256759
  },
  {
    "pitch": 61,
    "velocity": 76,
    "start": 194.86529100529097,
    "end": 195.0599616256759
  },
  {
    "pitch": 51,
    "velocity": 99,
    "start": 194.86529100529097,
    "end": 195.0599616256759
  },
  {
    "pitch": 82,
    "velocity": 77,
    "start": 195.0599616256759,
    "end": 195.2546322460608
  },
  {
    "pitch": 61,
    "velocity": 80,
    "start": 195.0599616256759,
    "end": 195.2546322460608
  },
  {
    "pitch": 51,
    "velocity": 95,
    "start": 195.0599616256759,
    "end": 195.2546322460608
  },
  {
    "pitch": 82,
    "velocity": 74,
    "start": 195.2546322460608,
    "end": 195.4493028664457
  },
  {
    "pitch": 61,
    "velocity": 77,
    "start": 195.2546322460608,
    "end": 195.4493028664457
  },
  {
    "pitch": 51,
    "velocity": 99,
    "start": 195.2546322460608,
    "end": 195.4493028664457
  },
  {
    "pitch": 85,
    "velocity": 81,
    "start": 195.4493028664457,
    "end": 195.64397348683062
  },
  {
    "pitch": 61,
    "velocity": 78,
    "start": 195.4493028664457,
    "end": 195.64397348683062
  },
  {
    "pitch": 51,
    "velocity": 99,
    "start": 195.4493028664457,
    "end": 195.64397348683062
  },
  {
    "pitch": 85,
    "velocity": 80,
    "start": 195.64397348683062,
    "end": 195.83864410721552
  },
  {
    "pitch": 61,
    "velocity": 76,
    "start": 195.64397348683062,
    "end": 195.83864410721552
  },
  {
    "pitch": 51,
    "velocity": 96,
    "start": 195.64397348683062,
    "end": 195.83864410721552
  },
  {
    "pitch": 85,
    "velocity": 77,
    "start": 195.83864410721552,
    "end": 196.0333147276004
  },
  {
    "pitch": 61,
    "velocity": 75,
    "start": 195.83864410721552,
    "end": 196.0333147276004
  },
  {
    "pitch": 51,
    "velocity": 97,
    "start": 195.83864410721552,
    "end": 196.0333147276004
  },
  {
    "pitch": 70,
    "velocity": 109,
    "start": 195.83864410721552,
    "end": 196.61732658875513
  },
  {
    "pitch": 75,
    "velocity": 109,
    "start": 195.83864410721552,
    "end": 196.61732658875513
  },
  {
    "pitch": 87,
    "velocity": 74,
    "start": 196.0333147276004,
    "end": 196.2279853479853
  },
  {
    "pitch": 63,
    "velocity": 80,
    "start": 196.0333147276004,
    "end": 196.2279853479853
  },
  {
    "pitch": 51,
    "velocity": 97,
    "start": 196.0333147276004,
    "end": 196.2279853479853
  },
  {
    "pitch": 42,
    "velocity": 83,
    "start": 196.2279853479853,
    "end": 196.42265596837024
  },
  {
    "pitch": 82,
    "velocity": 68,
    "start": 196.2279853479853,
    "end": 196.61732658875513
  },
  {
    "pitch": 51,
    "velocity": 67,
    "start": 196.2279853479853,
    "end": 196.61732658875513
  },
  {
    "pitch": 42,
    "velocity": 94,
    "start": 196.42265596837024,
    "end": 196.61732658875513
  },
  {
    "pitch": 69,
    "velocity": 102,
    "start": 196.57170066210242,
    "end": 196.61732658875513
  },
  {
    "pitch": 42,
    "velocity": 96,
    "start": 196.61732658875513,
    "end": 196.81199720914003
  },
  {
    "pitch": 82,
    "velocity": 74,
    "start": 196.61732658875513,
    "end": 197.00666782952496
  },
  {
    "pitch": 51,
    "velocity": 77,
    "start": 196.61732658875513,
    "end": 197.00666782952496
  },
  {
    "pitch": 66,
    "velocity": 102,
    "start": 196.61732658875513,
    "end": 197.78535031106458
  },
  {
    "pitch": 70,
    "velocity": 102,
    "start": 196.61732658875513,
    "end": 197.78535031106458
  },
  {
    "pitch": 42,
    "velocity": 100,
    "start": 196.81199720914003,
    "end": 197.00666782952496
  },
  {
    "pitch": 85,
    "velocity": 83,
    "start": 197.00666782952496,
    "end": 197.20133844990985
  },
  {
    "pitch": 42,
    "velocity": 95,
    "start": 197.00666782952496,
    "end": 197.20133844990985
  },
  {
    "pitch": 51,
    "velocity": 75,
    "start": 197.00666782952496,
    "end": 197.39600907029475
  },
  {
    "pitch": 85,
    "velocity": 76,
    "start": 197.20133844990985,
    "end": 197.39600907029475
  },
  {
    "pitch": 42,
    "velocity": 101,
    "start": 197.20133844990985,
    "end": 197.39600907029475
  },
  {
    "pitch": 85,
    "velocity": 78,
    "start": 197.39600907029475,
    "end": 197.59067969067965
  },
  {
    "pitch": 42,
    "velocity": 99,
    "start": 197.39600907029475,
    "end": 197.59067969067965
  },
  {
    "pitch": 51,
    "velocity": 78,
    "start": 197.39600907029475,
    "end": 197.78535031106458
  },
  {
    "pitch": 85,
    "velocity": 75,
    "start": 197.59067969067965,
    "end": 197.78535031106458
  },
  {
    "pitch": 42,
    "velocity": 99,
    "start": 197.59067969067965,
    "end": 197.98002093144947
  },
  {
    "pitch": 85,
    "velocity": 76,
    "start": 197.78535031106458,
    "end": 197.98002093144947
  },
  {
    "pitch": 54,
    "velocity": 79,
    "start": 197.78535031106458,
    "end": 197.98002093144947
  },
  {
    "pitch": 49,
    "velocity": 108,
    "start": 197.78535031106458,
    "end": 197.98002093144947
  },
  {
    "pitch": 78,
    "velocity": 65,
    "start": 197.98002093144947,
    "end": 198.17469155183437
  },
  {
    "pitch": 54,
    "velocity": 70,
    "start": 197.98002093144947,
    "end": 198.17469155183437
  },
  {
    "pitch": 49,
    "velocity": 97,
    "start": 197.98002093144947,
    "end": 198.17469155183437
  },
  {
    "pitch": 78,
    "velocity": 74,
    "start": 198.17469155183437,
    "end": 198.3693621722193
  },
  {
    "pitch": 54,
    "velocity": 75,
    "start": 198.17469155183437,
    "end": 198.3693621722193
  },
  {
    "pitch": 49,
    "velocity": 98,
    "start": 198.17469155183437,
    "end": 198.3693621722193
  },
  {
    "pitch": 78,
    "velocity": 78,
    "start": 198.3693621722193,
    "end": 198.5640327926042
  },
  {
    "pitch": 54,
    "velocity": 80,
    "start": 198.3693621722193,
    "end": 198.5640327926042
  },
  {
    "pitch": 49,
    "velocity": 98,
    "start": 198.3693621722193,
    "end": 198.5640327926042
  },
  {
    "pitch": 80,
    "velocity": 81,
    "start": 198.5640327926042,
    "end": 198.7587034129891
  },
  {
    "pitch": 54,
    "velocity": 71,
    "start": 198.5640327926042,
    "end": 198.7587034129891
  },
  {
    "pitch": 49,
    "velocity": 100,
    "start": 198.5640327926042,
    "end": 198.7587034129891
  },
  {
    "pitch": 80,
    "velocity": 72,
    "start": 198.7587034129891,
    "end": 198.953374033374
  },
  {
    "pitch": 54,
    "velocity": 78,
    "start": 198.7587034129891,
    "end": 198.953374033374
  },
  {
    "pitch": 49,
    "velocity": 98,
    "start": 198.7587034129891,
    "end": 198.953374033374
  },
  {
    "pitch": 80,
    "velocity": 75,
    "start": 198.953374033374,
    "end": 199.14804465375892
  },
  {
    "pitch": 54,
    "velocity": 77,
    "start": 198.953374033374,
    "end": 199.14804465375892
  },
  {
    "pitch": 49,
    "velocity": 98,
    "start": 198.953374033374,
    "end": 199.14804465375892
  },
  {
    "pitch": 82,
    "velocity": 83,
    "start": 199.14804465375892,
    "end": 199.3427152741438
  },
  {
    "pitch": 51,
    "velocity": 70,
    "start": 199.14804465375892,
    "end": 199.3427152741438
  },
  {
    "pitch": 49,
    "velocity": 94,
    "start": 199.14804465375892,
    "end": 199.3427152741438
  },
  {
    "pitch": 39,
    "velocity": 84,
    "start": 199.3427152741438,
    "end": 199.5373858945287
  },
  {
    "pitch": 82,
    "velocity": 75,
    "start": 199.3427152741438,
    "end": 199.73205651491364
  },
  {
    "pitch": 51,
    "velocity": 80,
    "start": 199.3427152741438,
    "end": 199.73205651491364
  },
  {
    "pitch": 70,
    "velocity": 89,
    "start": 199.3427152741438,
    "end": 200.90008023722305
  },
  {
    "pitch": 39,
    "velocity": 94,
    "start": 199.5373858945287,
    "end": 199.73205651491364
  },
  {
    "pitch": 39,
    "velocity": 97,
    "start": 199.73205651491364,
    "end": 199.92672713529853
  },
  {
    "pitch": 82,
    "velocity": 78,
    "start": 199.73205651491364,
    "end": 200.12139775568343
  },
  {
    "pitch": 51,
    "velocity": 79,
    "start": 199.73205651491364,
    "end": 200.12139775568343
  },
  {
    "pitch": 39,
    "velocity": 97,
    "start": 199.92672713529853,
    "end": 200.12139775568343
  },
  {
    "pitch": 39,
    "velocity": 97,
    "start": 200.12139775568343,
    "end": 200.31606837606836
  },
  {
    "pitch": 85,
    "velocity": 82,
    "start": 200.12139775568343,
    "end": 200.51073899645326
  },
  {
    "pitch": 51,
    "velocity": 78,
    "start": 200.12139775568343,
    "end": 200.51073899645326
  },
  {
    "pitch": 73,
    "velocity": 95,
    "start": 200.12139775568343,
    "end": 200.90008023722305
  },
  {
    "pitch": 39,
    "velocity": 99,
    "start": 200.31606837606836,
    "end": 200.51073899645326
  },
  {
    "pitch": 39,
    "velocity": 93,
    "start": 200.51073899645326,
    "end": 200.70540961683815
  },
  {
    "pitch": 85,
    "velocity": 75,
    "start": 200.51073899645326,
    "end": 200.90008023722305
  },
  {
    "pitch": 51,
    "velocity": 73,
    "start": 200.51073899645326,
    "end": 200.90008023722305
  },
  {
    "pitch": 39,
    "velocity": 97,
    "start": 200.70540961683815,
    "end": 201.09475085760798
  },
  {
    "pitch": 85,
    "velocity": 75,
    "start": 200.90008023722305,
    "end": 201.09475085760798
  },
  {
    "pitch": 63,
    "velocity": 101,
    "start": 200.90008023722305,
    "end": 201.09475085760798
  },
  {
    "pitch": 51,
    "velocity": 109,
    "start": 200.90008023722305,
    "end": 201.09475085760798
  },
  {
    "pitch": 75,
    "velocity": 101,
    "start": 200.90008023722305,
    "end": 201.1586271549218
  },
  {
    "pitch": 82,
    "velocity": 67,
    "start": 201.09475085760798,
    "end": 201.28942147799287
  },
  {
    "pitch": 61,
    "velocity": 73,
    "start": 201.09475085760798,
    "end": 201.28942147799287
  },
  {
    "pitch": 51,
    "velocity": 103,
    "start": 201.09475085760798,
    "end": 201.28942147799287
  },
  {
    "pitch": 73,
    "velocity": 95,
    "start": 201.1586271549218,
    "end": 201.41717407262047
  },
  {
    "pitch": 82,
    "velocity": 75,
    "start": 201.28942147799287,
    "end": 201.48409209837777
  },
  {
    "pitch": 61,
    "velocity": 78,
    "start": 201.28942147799287,
    "end": 201.48409209837777
  },
  {
    "pitch": 51,
    "velocity": 100,
    "start": 201.28942147799287,
    "end": 201.48409209837777
  },
  {
    "pitch": 73,
    "velocity": 99,
    "start": 201.41717407262047,
    "end": 201.6787627187627
  },
  {
    "pitch": 82,
    "velocity": 74,
    "start": 201.48409209837777,
    "end": 201.6787627187627
  },
  {
    "pitch": 61,
    "velocity": 74,
    "start": 201.48409209837777,
    "end": 201.6787627187627
  },
  {
    "pitch": 51,
    "velocity": 99,
    "start": 201.48409209837777,
    "end": 201.6787627187627
  },
  {
    "pitch": 85,
    "velocity": 83,
    "start": 201.6787627187627,
    "end": 201.8734333391476
  },
  {
    "pitch": 61,
    "velocity": 79,
    "start": 201.6787627187627,
    "end": 201.8734333391476
  },
  {
    "pitch": 51,
    "velocity": 94,
    "start": 201.6787627187627,
    "end": 201.8734333391476
  },
  {
    "pitch": 73,
    "velocity": 93,
    "start": 201.6787627187627,
    "end": 201.9373096364614
  },
  {
    "pitch": 85,
    "velocity": 77,
    "start": 201.8734333391476,
    "end": 202.0681039595325
  },
  {
    "pitch": 61,
    "velocity": 77,
    "start": 201.8734333391476,
    "end": 202.0681039595325
  },
  {
    "pitch": 51,
    "velocity": 96,
    "start": 201.8734333391476,
    "end": 202.0681039595325
  },
  {
    "pitch": 73,
    "velocity": 98,
    "start": 201.9373096364614,
    "end": 202.1958565541601
  },
  {
    "pitch": 85,
    "velocity": 72,
    "start": 202.0681039595325,
    "end": 202.2627745799174
  },
  {
    "pitch": 61,
    "velocity": 74,
    "start": 202.0681039595325,
    "end": 202.2627745799174
  },
  {
    "pitch": 51,
    "velocity": 96,
    "start": 202.0681039595325,
    "end": 202.2627745799174
  },
  {
    "pitch": 75,
    "velocity": 100,
    "start": 202.1958565541601,
    "end": 202.3266508772312
  },
  {
    "pitch": 87,
    "velocity": 79,
    "start": 202.2627745799174,
    "end": 202.45744520030232
  },
  {
    "pitch": 63,
    "velocity": 78,
    "start": 202.2627745799174,
    "end": 202.45744520030232
  },
  {
    "pitch": 51,
    "velocity": 103,
    "start": 202.2627745799174,
    "end": 202.45744520030232
  },
  {
    "pitch": 70,
    "velocity": 87,
    "start": 202.3266508772312,
    "end": 202.65211582068721
  },
  {
    "pitch": 42,
    "velocity": 86,
    "start": 202.45744520030232,
    "end": 202.65211582068721
  },
  {
    "pitch": 82,
    "velocity": 72,
    "start": 202.45744520030232,
    "end": 202.8467864410721
  },
  {
    "pitch": 51,
    "velocity": 68,
    "start": 202.45744520030232,
    "end": 202.8467864410721
  },
  {
    "pitch": 42,
    "velocity": 99,
    "start": 202.65211582068721,
    "end": 202.8467864410721
  },
  {
    "pitch": 75,
    "velocity": 111,
    "start": 202.65211582068721,
    "end": 202.9745390356997
  },
  {
    "pitch": 42,
    "velocity": 97,
    "start": 202.8467864410721,
    "end": 203.04145706145704
  },
  {
    "pitch": 82,
    "velocity": 72,
    "start": 202.8467864410721,
    "end": 203.23612768184194
  },
  {
    "pitch": 51,
    "velocity": 70,
    "start": 202.8467864410721,
    "end": 203.23612768184194
  },
  {
    "pitch": 73,
    "velocity": 93,
    "start": 202.9745390356997,
    "end": 203.10533335877085
  },
  {
    "pitch": 42,
    "velocity": 97,
    "start": 203.04145706145704,
    "end": 203.23612768184194
  },
  {
    "pitch": 73,
    "velocity": 97,
    "start": 203.10533335877085,
    "end": 203.23612768184194
  },
  {
    "pitch": 85,
    "velocity": 84,
    "start": 203.23612768184194,
    "end": 203.43079830222683
  },
  {
    "pitch": 73,
    "velocity": 98,
    "start": 203.23612768184194,
    "end": 203.43079830222683
  },
  {
    "pitch": 42,
    "velocity": 96,
    "start": 203.23612768184194,
    "end": 203.43079830222683
  },
  {
    "pitch": 51,
    "velocity": 75,
    "start": 203.23612768184194,
    "end": 203.62546892261173
  },
  {
    "pitch": 85,
    "velocity": 73,
    "start": 203.43079830222683,
    "end": 203.62546892261173
  },
  {
    "pitch": 73,
    "velocity": 97,
    "start": 203.43079830222683,
    "end": 203.62546892261173
  },
  {
    "pitch": 42,
    "velocity": 95,
    "start": 203.43079830222683,
    "end": 203.62546892261173
  },
  {
    "pitch": 85,
    "velocity": 73,
    "start": 203.62546892261173,
    "end": 203.82013954299666
  },
  {
    "pitch": 75,
    "velocity": 100,
    "start": 203.62546892261173,
    "end": 203.82013954299666
  },
  {
    "pitch": 42,
    "velocity": 94,
    "start": 203.62546892261173,
    "end": 203.82013954299666
  },
  {
    "pitch": 51,
    "velocity": 75,
    "start": 203.62546892261173,
    "end": 204.01481016338155
  },
  {
    "pitch": 85,
    "velocity": 77,
    "start": 203.82013954299666,
    "end": 204.01481016338155
  },
  {
    "pitch": 42,
    "velocity": 97,
    "start": 203.82013954299666,
    "end": 204.20948078376645
  },
  {
    "pitch": 70,
    "velocity": 86,
    "start": 203.82013954299666,
    "end": 204.40415140415138
  },
  {
    "pitch": 85,
    "velocity": 76,
    "start": 204.01481016338155,
    "end": 204.20948078376645
  },
  {
    "pitch": 54,
    "velocity": 79,
    "start": 204.01481016338155,
    "end": 204.20948078376645
  },
  {
    "pitch": 49,
    "velocity": 108,
    "start": 204.01481016338155,
    "end": 204.20948078376645
  },
  {
    "pitch": 78,
    "velocity": 60,
    "start": 204.20948078376645,
    "end": 204.40415140415138
  },
  {
    "pitch": 54,
    "velocity": 82,
    "start": 204.20948078376645,
    "end": 204.40415140415138
  },
  {
    "pitch": 49,
    "velocity": 102,
    "start": 204.20948078376645,
    "end": 204.40415140415138
  },
  {
    "pitch": 75,
    "velocity": 100,
    "start": 204.20948078376645,
    "end": 204.53190399877894
  },
  {
    "pitch": 78,
    "velocity": 78,
    "start": 204.40415140415138,
    "end": 204.59882202453628
  },
  {
    "pitch": 54,
    "velocity": 79,
    "start": 204.40415140415138,
    "end": 204.59882202453628
  },
  {
    "pitch": 49,
    "velocity": 96,
    "start": 204.40415140415138,
    "end": 204.59882202453628
  },
  {
    "pitch": 73,
    "velocity": 93,
    "start": 204.53190399877894,
    "end": 204.6626983218501
  },
  {
    "pitch": 78,
    "velocity": 73,
    "start": 204.59882202453628,
    "end": 204.79349264492117
  },
  {
    "pitch": 54,
    "velocity": 76,
    "start": 204.59882202453628,
    "end": 204.79349264492117
  },
  {
    "pitch": 49,
    "velocity": 97,
    "start": 204.59882202453628,
    "end": 204.79349264492117
  },
  {
    "pitch": 73,
    "velocity": 96,
    "start": 204.6626983218501,
    "end": 204.79349264492117
  },
  {
    "pitch": 80,
    "velocity": 80,
    "start": 204.79349264492117,
    "end": 204.9881632653061
  },
  {
    "pitch": 73,
    "velocity": 98,
    "start": 204.79349264492117,
    "end": 204.9881632653061
  },
  {
    "pitch": 54,
    "velocity": 75,
    "start": 204.79349264492117,
    "end": 204.9881632653061
  },
  {
    "pitch": 49,
    "velocity": 95,
    "start": 204.79349264492117,
    "end": 204.9881632653061
  },
  {
    "pitch": 80,
    "velocity": 75,
    "start": 204.9881632653061,
    "end": 205.182833885691
  },
  {
    "pitch": 73,
    "velocity": 99,
    "start": 204.9881632653061,
    "end": 205.182833885691
  },
  {
    "pitch": 54,
    "velocity": 78,
    "start": 204.9881632653061,
    "end": 205.182833885691
  },
  {
    "pitch": 49,
    "velocity": 100,
    "start": 204.9881632653061,
    "end": 205.182833885691
  },
  {
    "pitch": 80,
    "velocity": 69,
    "start": 205.182833885691,
    "end": 205.3775045060759
  },
  {
    "pitch": 75,
    "velocity": 105,
    "start": 205.182833885691,
    "end": 205.3775045060759
  },
  {
    "pitch": 54,
    "velocity": 77,
    "start": 205.182833885691,
    "end": 205.3775045060759
  },
  {
    "pitch": 49,
    "velocity": 99,
    "start": 205.182833885691,
    "end": 205.3775045060759
  },
  {
    "pitch": 82,
    "velocity": 78,
    "start": 205.3775045060759,
    "end": 205.5721751264608
  },
  {
    "pitch": 51,
    "velocity": 69,
    "start": 205.3775045060759,
    "end": 205.5721751264608
  },
  {
    "pitch": 49,
    "velocity": 99,
    "start": 205.3775045060759,
    "end": 205.5721751264608
  },
  {
    "pitch": 70,
    "velocity": 86,
    "start": 205.3775045060759,
    "end": 207.12954008954006
  },
  {
    "pitch": 39,
    "velocity": 87,
    "start": 205.5721751264608,
    "end": 205.76684574684572
  },
  {
    "pitch": 82,
    "velocity": 77,
    "start": 205.5721751264608,
    "end": 205.96151636723062
  },
  {
    "pitch": 51,
    "velocity": 78,
    "start": 205.5721751264608,
    "end": 205.96151636723062
  },
  {
    "pitch": 39,
    "velocity": 95,
    "start": 205.76684574684572,
    "end": 205.96151636723062
  },
  {
    "pitch": 39,
    "velocity": 102,
    "start": 205.96151636723062,
    "end": 206.1561869876155
  },
  {
    "pitch": 82,
    "velocity": 77,
    "start": 205.96151636723062,
    "end": 206.35085760800044
  },
  {
    "pitch": 51,
    "velocity": 76,
    "start": 205.96151636723062,
    "end": 206.35085760800044
  },
  {
    "pitch": 39,
    "velocity": 95,
    "start": 206.1561869876155,
    "end": 206.35085760800044
  },
  {
    "pitch": 39,
    "velocity": 99,
    "start": 206.35085760800044,
    "end": 206.54552822838534
  },
  {
    "pitch": 85,
    "velocity": 80,
    "start": 206.35085760800044,
    "end": 206.74019884877023
  },
  {
    "pitch": 51,
    "velocity": 77,
    "start": 206.35085760800044,
    "end": 206.74019884877023
  },
  {
    "pitch": 39,
    "velocity": 102,
    "start": 206.54552822838534,
    "end": 206.74019884877023
  },
  {
    "pitch": 39,
    "velocity": 98,
    "start": 206.74019884877023,
    "end": 206.93486946915513
  },
  {
    "pitch": 85,
    "velocity": 78,
    "start": 206.74019884877023,
    "end": 207.12954008954006
  },
  {
    "pitch": 51,
    "velocity": 76,
    "start": 206.74019884877023,
    "end": 207.12954008954006
  },
  {
    "pitch": 39,
    "velocity": 98,
    "start": 206.93486946915513,
    "end": 207.32421070992496
  },
  {
    "pitch": 85,
    "velocity": 80,
    "start": 207.12954008954006,
    "end": 207.32421070992496
  },
  {
    "pitch": 63,
    "velocity": 99,
    "start": 207.12954008954006,
    "end": 207.32421070992496
  },
  {
    "pitch": 51,
    "velocity": 110,
    "start": 207.12954008954006,
    "end": 207.32421070992496
  },
  {
    "pitch": 68,
    "velocity": 106,
    "start": 207.12954008954006,
    "end": 208.29756381184947
  },
  {
    "pitch": 73,
    "velocity": 106,
    "start": 207.12954008954006,
    "end": 208.29756381184947
  },
  {
    "pitch": 82,
    "velocity": 69,
    "start": 207.32421070992496,
    "end": 207.51888133030985
  },
  {
    "pitch": 61,
    "velocity": 76,
    "start": 207.32421070992496,
    "end": 207.51888133030985
  },
  {
    "pitch": 51,
    "velocity": 101,
    "start": 207.32421070992496,
    "end": 207.51888133030985
  },
  {
    "pitch": 82,
    "velocity": 73,
    "start": 207.51888133030985,
    "end": 207.71355195069478
  },
  {
    "pitch": 61,
    "velocity": 74,
    "start": 207.51888133030985,
    "end": 207.71355195069478
  },
  {
    "pitch": 51,
    "velocity": 92,
    "start": 207.51888133030985,
    "end": 207.71355195069478
  },
  {
    "pitch": 82,
    "velocity": 75,
    "start": 207.71355195069478,
    "end": 207.90822257107968
  },
  {
    "pitch": 61,
    "velocity": 73,
    "start": 207.71355195069478,
    "end": 207.90822257107968
  },
  {
    "pitch": 51,
    "velocity": 101,
    "start": 207.71355195069478,
    "end": 207.90822257107968
  },
  {
    "pitch": 85,
    "velocity": 81,
    "start": 207.90822257107968,
    "end": 208.10289319146457
  },
  {
    "pitch": 61,
    "velocity": 71,
    "start": 207.90822257107968,
    "end": 208.10289319146457
  },
  {
    "pitch": 51,
    "velocity": 96,
    "start": 207.90822257107968,
    "end": 208.10289319146457
  },
  {
    "pitch": 85,
    "velocity": 79,
    "start": 208.10289319146457,
    "end": 208.29756381184947
  },
  {
    "pitch": 61,
    "velocity": 73,
    "start": 208.10289319146457,
    "end": 208.29756381184947
  },
  {
    "pitch": 51,
    "velocity": 97,
    "start": 208.10289319146457,
    "end": 208.29756381184947
  },
  {
    "pitch": 85,
    "velocity": 81,
    "start": 208.29756381184947,
    "end": 208.4922344322344
  },
  {
    "pitch": 61,
    "velocity": 70,
    "start": 208.29756381184947,
    "end": 208.4922344322344
  },
  {
    "pitch": 51,
    "velocity": 98,
    "start": 208.29756381184947,
    "end": 208.4922344322344
  },
  {
    "pitch": 70,
    "velocity": 104,
    "start": 208.29756381184947,
    "end": 209.07624629338912
  },
  {
    "pitch": 75,
    "velocity": 104,
    "start": 208.29756381184947,
    "end": 209.07624629338912
  },
  {
    "pitch": 87,
    "velocity": 78,
    "start": 208.4922344322344,
    "end": 208.6869050526193
  },
  {
    "pitch": 63,
    "velocity": 78,
    "start": 208.4922344322344,
    "end": 208.6869050526193
  },
  {
    "pitch": 51,
    "velocity": 96,
    "start": 208.4922344322344,
    "end": 208.6869050526193
  },
  {
    "pitch": 42,
    "velocity": 89,
    "start": 208.6869050526193,
    "end": 208.8815756730042
  },
  {
    "pitch": 82,
    "velocity": 63,
    "start": 208.6869050526193,
    "end": 209.07624629338912
  },
  {
    "pitch": 51,
    "velocity": 69,
    "start": 208.6869050526193,
    "end": 209.07624629338912
  },
  {
    "pitch": 42,
    "velocity": 94,
    "start": 208.8815756730042,
    "end": 209.07624629338912
  },
  {
    "pitch": 69,
    "velocity": 99,
    "start": 209.0306203667364,
    "end": 209.07624629338912
  },
  {
    "pitch": 42,
    "velocity": 97,
    "start": 209.07624629338912,
    "end": 209.27091691377402
  },
  {
    "pitch": 82,
    "velocity": 76,
    "start": 209.07624629338912,
    "end": 209.4655875341589
  },
  {
    "pitch": 51,
    "velocity": 72,
    "start": 209.07624629338912,
    "end": 209.4655875341589
  },
  {
    "pitch": 66,
    "velocity": 99,
    "start": 209.07624629338912,
    "end": 210.24427001569853
  },
  {
    "pitch": 70,
    "velocity": 99,
    "start": 209.07624629338912,
    "end": 210.24427001569853
  },
  {
    "pitch": 42,
    "velocity": 97,
    "start": 209.27091691377402,
    "end": 209.4655875341589
  },
  {
    "pitch": 42,
    "velocity": 97,
    "start": 209.4655875341589,
    "end": 209.66025815454384
  },
  {
    "pitch": 85,
    "velocity": 87,
    "start": 209.4655875341589,
    "end": 209.85492877492874
  },
  {
    "pitch": 51,
    "velocity": 72,
    "start": 209.4655875341589,
    "end": 209.85492877492874
  },
  {
    "pitch": 42,
    "velocity": 97,
    "start": 209.66025815454384,
    "end": 209.85492877492874
  },
  {
    "pitch": 42,
    "velocity": 97,
    "start": 209.85492877492874,
    "end": 210.04959939531363
  },
  {
    "pitch": 85,
    "velocity": 81,
    "start": 209.85492877492874,
    "end": 210.24427001569853
  },
  {
    "pitch": 51,
    "velocity": 75,
    "start": 209.85492877492874,
    "end": 210.24427001569853
  },
  {
    "pitch": 42,
    "velocity": 98,
    "start": 210.04959939531363,
    "end": 210.43894063608346
  },
  {
    "pitch": 85,
    "velocity": 76,
    "start": 210.24427001569853,
    "end": 210.43894063608346
  },
  {
    "pitch": 54,
    "velocity": 81,
    "start": 210.24427001569853,
    "end": 210.43894063608346
  },
  {
    "pitch": 49,
    "velocity": 106,
    "start": 210.24427001569853,
    "end": 210.43894063608346
  },
  {
    "pitch": 78,
    "velocity": 65,
    "start": 210.43894063608346,
    "end": 210.63361125646836
  },
  {
    "pitch": 54,
    "velocity": 73,
    "start": 210.43894063608346,
    "end": 210.63361125646836
  },
  {
    "pitch": 49,
    "velocity": 97,
    "start": 210.43894063608346,
    "end": 210.63361125646836
  },
  {
    "pitch": 78,
    "velocity": 70,
    "start": 210.63361125646836,
    "end": 210.82828187685325
  },
  {
    "pitch": 54,
    "velocity": 75,
    "start": 210.63361125646836,
    "end": 210.82828187685325
  },
  {
    "pitch": 49,
    "velocity": 100,
    "start": 210.63361125646836,
    "end": 210.82828187685325
  },
  {
    "pitch": 78,
    "velocity": 76,
    "start": 210.82828187685325,
    "end": 211.02295249723818
  },
  {
    "pitch": 54,
    "velocity": 75,
    "start": 210.82828187685325,
    "end": 211.02295249723818
  },
  {
    "pitch": 49,
    "velocity": 92,
    "start": 210.82828187685325,
    "end": 211.02295249723818
  },
  {
    "pitch": 80,
    "velocity": 83,
    "start": 211.02295249723818,
    "end": 211.21762311762308
  },
  {
    "pitch": 54,
    "velocity": 76,
    "start": 211.02295249723818,
    "end": 211.21762311762308
  },
  {
    "pitch": 49,
    "velocity": 98,
    "start": 211.02295249723818,
    "end": 211.21762311762308
  },
  {
    "pitch": 80,
    "velocity": 77,
    "start": 211.21762311762308,
    "end": 211.41229373800797
  },
  {
    "pitch": 54,
    "velocity": 75,
    "start": 211.21762311762308,
    "end": 211.41229373800797
  },
  {
    "pitch": 49,
    "velocity": 103,
    "start": 211.21762311762308,
    "end": 211.41229373800797
  },
  {
    "pitch": 80,
    "velocity": 74,
    "start": 211.41229373800797,
    "end": 211.60696435839287
  },
  {
    "pitch": 54,
    "velocity": 77,
    "start": 211.41229373800797,
    "end": 211.60696435839287
  },
  {
    "pitch": 49,
    "velocity": 99,
    "start": 211.41229373800797,
    "end": 211.60696435839287
  },
  {
    "pitch": 82,
    "velocity": 80,
    "start": 211.60696435839287,
    "end": 211.8016349787778
  },
  {
    "pitch": 51,
    "velocity": 71,
    "start": 211.60696435839287,
    "end": 211.8016349787778
  },
  {
    "pitch": 49,
    "velocity": 98,
    "start": 211.60696435839287,
    "end": 211.8016349787778
  },
  {
    "pitch": 39,
    "velocity": 65,
    "start": 211.8016349787778,
    "end": 211.9963055991627
  },
  {
    "pitch": 82,
    "velocity": 80,
    "start": 211.8016349787778,
    "end": 212.1909762195476
  },
  {
    "pitch": 63,
    "velocity": 90,
    "start": 211.8016349787778,
    "end": 212.1909762195476
  },
  {
    "pitch": 39,
    "velocity": 75,
    "start": 211.9963055991627,
    "end": 212.1909762195476
  },
  {
    "pitch": 39,
    "velocity": 73,
    "start": 212.1909762195476,
    "end": 212.38564683993252
  },
  {
    "pitch": 82,
    "velocity": 78,
    "start": 212.1909762195476,
    "end": 212.58031746031742
  },
  {
    "pitch": 63,
    "velocity": 84,
    "start": 212.1909762195476,
    "end": 212.58031746031742
  },
  {
    "pitch": 39,
    "velocity": 75,
    "start": 212.38564683993252,
    "end": 212.58031746031742
  },
  {
    "pitch": 39,
    "velocity": 77,
    "start": 212.58031746031742,
    "end": 212.77498808070231
  },
  {
    "pitch": 85,
    "velocity": 82,
    "start": 212.58031746031742,
    "end": 212.9696587010872
  },
  {
    "pitch": 63,
    "velocity": 82,
    "start": 212.58031746031742,
    "end": 212.9696587010872
  },
  {
    "pitch": 39,
    "velocity": 74,
    "start": 212.77498808070231,
    "end": 212.9696587010872
  },
  {
    "pitch": 39,
    "velocity": 77,
    "start": 212.9696587010872,
    "end": 213.16432932147214
  },
  {
    "pitch": 85,
    "velocity": 70,
    "start": 212.9696587010872,
    "end": 213.35899994185704
  },
  {
    "pitch": 63,
    "velocity": 83,
    "start": 212.9696587010872,
    "end": 213.35899994185704
  },
  {
    "pitch": 39,
    "velocity": 74,
    "start": 213.16432932147214,
    "end": 213.55367056224193
  },
  {
    "pitch": 85,
    "velocity": 80,
    "start": 213.35899994185704,
    "end": 213.55367056224193
  },
  {
    "pitch": 63,
    "velocity": 85,
    "start": 213.35899994185704,
    "end": 213.55367056224193
  },
  {
    "pitch": 51,
    "velocity": 83,
    "start": 213.35899994185704,
    "end": 213.55367056224193
  },
  {
    "pitch": 82,
    "velocity": 68,
    "start": 213.55367056224193,
    "end": 213.74834118262686
  },
  {
    "pitch": 61,
    "velocity": 75,
    "start": 213.55367056224193,
    "end": 213.74834118262686
  },
  {
    "pitch": 51,
    "velocity": 78,
    "start": 213.55367056224193,
    "end": 213.74834118262686
  },
  {
    "pitch": 82,
    "velocity": 76,
    "start": 213.74834118262686,
    "end": 213.94301180301176
  },
  {
    "pitch": 61,
    "velocity": 83,
    "start": 213.74834118262686,
    "end": 213.94301180301176
  },
  {
    "pitch": 51,
    "velocity": 75,
    "start": 213.74834118262686,
    "end": 213.94301180301176
  },
  {
    "pitch": 82,
    "velocity": 75,
    "start": 213.94301180301176,
    "end": 214.13768242339665
  },
  {
    "pitch": 61,
    "velocity": 79,
    "start": 213.94301180301176,
    "end": 214.13768242339665
  },
  {
    "pitch": 51,
    "velocity": 75,
    "start": 213.94301180301176,
    "end": 214.13768242339665
  },
  {
    "pitch": 85,
    "velocity": 78,
    "start": 214.13768242339665,
    "end": 214.33235304378158
  },
  {
    "pitch": 61,
    "velocity": 87,
    "start": 214.13768242339665,
    "end": 214.33235304378158
  },
  {
    "pitch": 51,
    "velocity": 72,
    "start": 214.13768242339665,
    "end": 214.33235304378158
  },
  {
    "pitch": 85,
    "velocity": 76,
    "start": 214.33235304378158,
    "end": 214.52702366416648
  },
  {
    "pitch": 61,
    "velocity": 81,
    "start": 214.33235304378158,
    "end": 214.52702366416648
  },
  {
    "pitch": 51,
    "velocity": 72,
    "start": 214.33235304378158,
    "end": 214.52702366416648
  },
  {
    "pitch": 85,
    "velocity": 81,
    "start": 214.52702366416648,
    "end": 214.72169428455138
  },
  {
    "pitch": 61,
    "velocity": 86,
    "start": 214.52702366416648,
    "end": 214.72169428455138
  },
  {
    "pitch": 51,
    "velocity": 77,
    "start": 214.52702366416648,
    "end": 214.72169428455138
  },
  {
    "pitch": 87,
    "velocity": 82,
    "start": 214.72169428455138,
    "end": 214.91636490493627
  },
  {
    "pitch": 63,
    "velocity": 83,
    "start": 214.72169428455138,
    "end": 214.91636490493627
  },
  {
    "pitch": 51,
    "velocity": 80,
    "start": 214.72169428455138,
    "end": 215.1110355253212
  },
  {
    "pitch": 42,
    "velocity": 83,
    "start": 214.91636490493627,
    "end": 215.1110355253212
  },
  {
    "pitch": 82,
    "velocity": 70,
    "start": 214.91636490493627,
    "end": 215.3057061457061
  },
  {
    "pitch": 63,
    "velocity": 84,
    "start": 214.91636490493627,
    "end": 215.3057061457061
  },
  {
    "pitch": 42,
    "velocity": 65,
    "start": 215.1110355253212,
    "end": 215.3057061457061
  },
  {
    "pitch": 42,
    "velocity": 74,
    "start": 215.3057061457061,
    "end": 215.500376766091
  },
  {
    "pitch": 82,
    "velocity": 76,
    "start": 215.3057061457061,
    "end": 215.69504738647592
  },
  {
    "pitch": 63,
    "velocity": 83,
    "start": 215.3057061457061,
    "end": 215.69504738647592
  },
  {
    "pitch": 42,
    "velocity": 75,
    "start": 215.500376766091,
    "end": 215.69504738647592
  },
  {
    "pitch": 42,
    "velocity": 76,
    "start": 215.69504738647592,
    "end": 215.88971800686082
  },
  {
    "pitch": 85,
    "velocity": 81,
    "start": 215.69504738647592,
    "end": 216.08438862724572
  },
  {
    "pitch": 63,
    "velocity": 85,
    "start": 215.69504738647592,
    "end": 216.08438862724572
  },
  {
    "pitch": 42,
    "velocity": 74,
    "start": 215.88971800686082,
    "end": 216.08438862724572
  },
  {
    "pitch": 42,
    "velocity": 78,
    "start": 216.08438862724572,
    "end": 216.2790592476306
  },
  {
    "pitch": 85,
    "velocity": 76,
    "start": 216.08438862724572,
    "end": 216.47372986801554
  },
  {
    "pitch": 63,
    "velocity": 85,
    "start": 216.08438862724572,
    "end": 216.47372986801554
  },
  {
    "pitch": 42,
    "velocity": 78,
    "start": 216.2790592476306,
    "end": 216.66840048840044
  },
  {
    "pitch": 85,
    "velocity": 79,
    "start": 216.47372986801554,
    "end": 216.66840048840044
  },
  {
    "pitch": 66,
    "velocity": 89,
    "start": 216.47372986801554,
    "end": 216.66840048840044
  },
  {
    "pitch": 49,
    "velocity": 84,
    "start": 216.47372986801554,
    "end": 216.66840048840044
  },
  {
    "pitch": 78,
    "velocity": 62,
    "start": 216.66840048840044,
    "end": 216.86307110878533
  },
  {
    "pitch": 66,
    "velocity": 83,
    "start": 216.66840048840044,
    "end": 216.86307110878533
  },
  {
    "pitch": 49,
    "velocity": 74,
    "start": 216.66840048840044,
    "end": 216.86307110878533
  },
  {
    "pitch": 78,
    "velocity": 78,
    "start": 216.86307110878533,
    "end": 217.05774172917026
  },
  {
    "pitch": 66,
    "velocity": 80,
    "start": 216.86307110878533,
    "end": 217.05774172917026
  },
  {
    "pitch": 49,
    "velocity": 76,
    "start": 216.86307110878533,
    "end": 217.05774172917026
  },
  {
    "pitch": 78,
    "velocity": 79,
    "start": 217.05774172917026,
    "end": 217.25241234955516
  },
  {
    "pitch": 66,
    "velocity": 84,
    "start": 217.05774172917026,
    "end": 217.25241234955516
  },
  {
    "pitch": 49,
    "velocity": 72,
    "start": 217.05774172917026,
    "end": 217.25241234955516
  },
  {
    "pitch": 80,
    "velocity": 80,
    "start": 217.25241234955516,
    "end": 217.44708296994006
  },
  {
    "pitch": 66,
    "velocity": 81,
    "start": 217.25241234955516,
    "end": 217.44708296994006
  },
  {
    "pitch": 49,
    "velocity": 73,
    "start": 217.25241234955516,
    "end": 217.44708296994006
  },
  {
    "pitch": 80,
    "velocity": 75,
    "start": 217.44708296994006,
    "end": 217.64175359032495
  },
  {
    "pitch": 66,
    "velocity": 83,
    "start": 217.44708296994006,
    "end": 217.64175359032495
  },
  {
    "pitch": 49,
    "velocity": 76,
    "start": 217.44708296994006,
    "end": 217.64175359032495
  },
  {
    "pitch": 80,
    "velocity": 77,
    "start": 217.64175359032495,
    "end": 217.83642421070988
  },
  {
    "pitch": 66,
    "velocity": 83,
    "start": 217.64175359032495,
    "end": 217.83642421070988
  },
  {
    "pitch": 49,
    "velocity": 77,
    "start": 217.64175359032495,
    "end": 217.83642421070988
  },
  {
    "pitch": 82,
    "velocity": 82,
    "start": 217.83642421070988,
    "end": 218.03109483109478
  },
  {
    "pitch": 63,
    "velocity": 74,
    "start": 217.83642421070988,
    "end": 218.03109483109478
  },
  {
    "pitch": 49,
    "velocity": 77,
    "start": 217.83642421070988,
    "end": 218.22576545147967
  },
  {
    "pitch": 39,
    "velocity": 76,
    "start": 218.03109483109478,
    "end": 218.22576545147967
  },
  {
    "pitch": 82,
    "velocity": 79,
    "start": 218.03109483109478,
    "end": 218.4204360718646
  },
  {
    "pitch": 63,
    "velocity": 84,
    "start": 218.03109483109478,
    "end": 218.4204360718646
  },
  {
    "pitch": 39,
    "velocity": 67,
    "start": 218.22576545147967,
    "end": 218.4204360718646
  },
  {
    "pitch": 39,
    "velocity": 76,
    "start": 218.4204360718646,
    "end": 218.6151066922495
  },
  {
    "pitch": 82,
    "velocity": 79,
    "start": 218.4204360718646,
    "end": 218.8097773126344
  },
  {
    "pitch": 63,
    "velocity": 89,
    "start": 218.4204360718646,
    "end": 218.8097773126344
  },
  {
    "pitch": 39,
    "velocity": 75,
    "start": 218.6151066922495,
    "end": 218.8097773126344
  },
  {
    "pitch": 39,
    "velocity": 76,
    "start": 218.8097773126344,
    "end": 219.00444793301932
  },
  {
    "pitch": 85,
    "velocity": 83,
    "start": 218.8097773126344,
    "end": 219.19911855340422
  },
  {
    "pitch": 63,
    "velocity": 87,
    "start": 218.8097773126344,
    "end": 219.19911855340422
  },
  {
    "pitch": 39,
    "velocity": 75,
    "start": 219.00444793301932,
    "end": 219.19911855340422
  },
  {
    "pitch": 39,
    "velocity": 77,
    "start": 219.19911855340422,
    "end": 219.39378917378912
  },
  {
    "pitch": 85,
    "velocity": 78,
    "start": 219.19911855340422,
    "end": 219.588459794174
  },
  {
    "pitch": 63,
    "velocity": 82,
    "start": 219.19911855340422,
    "end": 219.588459794174
  },
  {
    "pitch": 39,
    "velocity": 78,
    "start": 219.39378917378912,
    "end": 219.78313041455894
  },
  {
    "pitch": 85,
    "velocity": 76,
    "start": 219.588459794174,
    "end": 219.78313041455894
  },
  {
    "pitch": 63,
    "velocity": 82,
    "start": 219.588459794174,
    "end": 219.78313041455894
  },
  {
    "pitch": 51,
    "velocity": 91,
    "start": 219.588459794174,
    "end": 219.78313041455894
  },
  {
    "pitch": 82,
    "velocity": 68,
    "start": 219.78313041455894,
    "end": 219.97780103494384
  },
  {
    "pitch": 61,
    "velocity": 79,
    "start": 219.78313041455894,
    "end": 219.97780103494384
  },
  {
    "pitch": 51,
    "velocity": 76,
    "start": 219.78313041455894,
    "end": 219.97780103494384
  },
  {
    "pitch": 82,
    "velocity": 77,
    "start": 219.97780103494384,
    "end": 220.17247165532874
  },
  {
    "pitch": 61,
    "velocity": 79,
    "start": 219.97780103494384,
    "end": 220.17247165532874
  },
  {
    "pitch": 51,
    "velocity": 81,
    "start": 219.97780103494384,
    "end": 220.17247165532874
  },
  {
    "pitch": 82,
    "velocity": 76,
    "start": 220.17247165532874,
    "end": 220.36714227571366
  },
  {
    "pitch": 61,
    "velocity": 84,
    "start": 220.17247165532874,
    "end": 220.36714227571366
  },
  {
    "pitch": 51,
    "velocity": 73,
    "start": 220.17247165532874,
    "end": 220.36714227571366
  },
  {
    "pitch": 85,
    "velocity": 76,
    "start": 220.36714227571366,
    "end": 220.56181289609856
  },
  {
    "pitch": 61,
    "velocity": 78,
    "start": 220.36714227571366,
    "end": 220.56181289609856
  },
  {
    "pitch": 51,
    "velocity": 79,
    "start": 220.36714227571366,
    "end": 220.56181289609856
  },
  {
    "pitch": 85,
    "velocity": 77,
    "start": 220.56181289609856,
    "end": 220.75648351648346
  },
  {
    "pitch": 61,
    "velocity": 85,
    "start": 220.56181289609856,
    "end": 220.75648351648346
  },
  {
    "pitch": 51,
    "velocity": 76,
    "start": 220.56181289609856,
    "end": 220.75648351648346
  },
  {
    "pitch": 85,
    "velocity": 76,
    "start": 220.75648351648346,
    "end": 220.95115413686835
  },
  {
    "pitch": 61,
    "velocity": 80,
    "start": 220.75648351648346,
    "end": 220.95115413686835
  },
  {
    "pitch": 51,
    "velocity": 76,
    "start": 220.75648351648346,
    "end": 220.95115413686835
  },
  {
    "pitch": 87,
    "velocity": 84,
    "start": 220.95115413686835,
    "end": 221.14582475725328
  },
  {
    "pitch": 63,
    "velocity": 92,
    "start": 220.95115413686835,
    "end": 221.14582475725328
  },
  {
    "pitch": 51,
    "velocity": 80,
    "start": 220.95115413686835,
    "end": 221.34049537763818
  },
  {
    "pitch": 42,
    "velocity": 77,
    "start": 221.14582475725328,
    "end": 221.34049537763818
  },
  {
    "pitch": 82,
    "velocity": 71,
    "start": 221.14582475725328,
    "end": 221.53516599802307
  },
  {
    "pitch": 63,
    "velocity": 83,
    "start": 221.14582475725328,
    "end": 221.53516599802307
  },
  {
    "pitch": 42,
    "velocity": 67,
    "start": 221.34049537763818,
    "end": 221.53516599802307
  },
  {
    "pitch": 42,
    "velocity": 73,
    "start": 221.53516599802307,
    "end": 221.729836618408
  },
  {
    "pitch": 82,
    "velocity": 77,
    "start": 221.53516599802307,
    "end": 221.9245072387929
  },
  {
    "pitch": 63,
    "velocity": 79,
    "start": 221.53516599802307,
    "end": 221.9245072387929
  },
  {
    "pitch": 42,
    "velocity": 72,
    "start": 221.729836618408,
    "end": 221.9245072387929
  },
  {
    "pitch": 85,
    "velocity": 86,
    "start": 221.9245072387929,
    "end": 222.1191778591778
  },
  {
    "pitch": 42,
    "velocity": 73,
    "start": 221.9245072387929,
    "end": 222.1191778591778
  },
  {
    "pitch": 63,
    "velocity": 80,
    "start": 221.9245072387929,
    "end": 222.31384847956272
  },
  {
    "pitch": 85,
    "velocity": 80,
    "start": 222.1191778591778,
    "end": 222.31384847956272
  },
  {
    "pitch": 42,
    "velocity": 78,
    "start": 222.1191778591778,
    "end": 222.31384847956272
  },
  {
    "pitch": 85,
    "velocity": 77,
    "start": 222.31384847956272,
    "end": 222.50851909994762
  },
  {
    "pitch": 42,
    "velocity": 75,
    "start": 222.31384847956272,
    "end": 222.50851909994762
  },
  {
    "pitch": 63,
    "velocity": 82,
    "start": 222.31384847956272,
    "end": 222.70318972033252
  },
  {
    "pitch": 85,
    "velocity": 77,
    "start": 222.50851909994762,
    "end": 222.70318972033252
  },
  {
    "pitch": 42,
    "velocity": 77,
    "start": 222.50851909994762,
    "end": 222.89786034071741
  },
  {
    "pitch": 85,
    "velocity": 81,
    "start": 222.70318972033252,
    "end": 222.89786034071741
  },
  {
    "pitch": 68,
    "velocity": 98,
    "start": 222.70318972033252,
    "end": 222.89786034071741
  },
  {
    "pitch": 49,
    "velocity": 81,
    "start": 222.70318972033252,
    "end": 222.89786034071741
  },
  {
    "pitch": 78,
    "velocity": 57,
    "start": 222.89786034071741,
    "end": 223.09253096110234
  },
  {
    "pitch": 68,
    "velocity": 87,
    "start": 222.89786034071741,
    "end": 223.09253096110234
  },
  {
    "pitch": 49,
    "velocity": 74,
    "start": 222.89786034071741,
    "end": 223.09253096110234
  },
  {
    "pitch": 78,
    "velocity": 72,
    "start": 223.09253096110234,
    "end": 223.28720158148724
  },
  {
    "pitch": 68,
    "velocity": 84,
    "start": 223.09253096110234,
    "end": 223.28720158148724
  },
  {
    "pitch": 49,
    "velocity": 78,
    "start": 223.09253096110234,
    "end": 223.28720158148724
  },
  {
    "pitch": 78,
    "velocity": 75,
    "start": 223.28720158148724,
    "end": 223.48187220187214
  },
  {
    "pitch": 68,
    "velocity": 85,
    "start": 223.28720158148724,
    "end": 223.48187220187214
  },
  {
    "pitch": 49,
    "velocity": 78,
    "start": 223.28720158148724,
    "end": 223.48187220187214
  },
  {
    "pitch": 80,
    "velocity": 82,
    "start": 223.48187220187214,
    "end": 223.67654282225706
  },
  {
    "pitch": 68,
    "velocity": 79,
    "start": 223.48187220187214,
    "end": 223.67654282225706
  },
  {
    "pitch": 49,
    "velocity": 80,
    "start": 223.48187220187214,
    "end": 223.67654282225706
  },
  {
    "pitch": 80,
    "velocity": 79,
    "start": 223.67654282225706,
    "end": 223.87121344264196
  },
  {
    "pitch": 68,
    "velocity": 84,
    "start": 223.67654282225706,
    "end": 223.87121344264196
  },
  {
    "pitch": 49,
    "velocity": 77,
    "start": 223.67654282225706,
    "end": 223.87121344264196
  },
  {
    "pitch": 80,
    "velocity": 73,
    "start": 223.87121344264196,
    "end": 224.06588406302686
  },
  {
    "pitch": 68,
    "velocity": 86,
    "start": 223.87121344264196,
    "end": 224.06588406302686
  },
  {
    "pitch": 49,
    "velocity": 72,
    "start": 223.87121344264196,
    "end": 224.06588406302686
  },
  {
    "pitch": 82,
    "velocity": 82,
    "start": 224.06588406302686,
    "end": 224.26055468341175
  },
  {
    "pitch": 70,
    "velocity": 87,
    "start": 224.06588406302686,
    "end": 224.26055468341175
  },
  {
    "pitch": 49,
    "velocity": 73,
    "start": 224.06588406302686,
    "end": 224.26055468341175
  },
  {
    "pitch": 39,
    "velocity": 65,
    "start": 224.26055468341175,
    "end": 224.45522530379668
  },
  {
    "pitch": 82,
    "velocity": 72,
    "start": 224.26055468341175,
    "end": 224.64989592418158
  },
  {
    "pitch": 63,
    "velocity": 67,
    "start": 224.26055468341175,
    "end": 224.64989592418158
  },
  {
    "pitch": 39,
    "velocity": 77,
    "start": 224.45522530379668,
    "end": 224.64989592418158
  },
  {
    "pitch": 39,
    "velocity": 76,
    "start": 224.64989592418158,
    "end": 224.84456654456648
  },
  {
    "pitch": 82,
    "velocity": 72,
    "start": 224.64989592418158,
    "end": 225.0392371649514
  },
  {
    "pitch": 63,
    "velocity": 82,
    "start": 224.64989592418158,
    "end": 225.0392371649514
  },
  {
    "pitch": 39,
    "velocity": 76,
    "start": 224.84456654456648,
    "end": 225.0392371649514
  },
  {
    "pitch": 39,
    "velocity": 79,
    "start": 225.0392371649514,
    "end": 225.2339077853363
  },
  {
    "pitch": 85,
    "velocity": 80,
    "start": 225.0392371649514,
    "end": 225.4285784057212
  },
  {
    "pitch": 63,
    "velocity": 82,
    "start": 225.0392371649514,
    "end": 225.4285784057212
  },
  {
    "pitch": 39,
    "velocity": 78,
    "start": 225.2339077853363,
    "end": 225.4285784057212
  },
  {
    "pitch": 39,
    "velocity": 80,
    "start": 225.4285784057212,
    "end": 225.6232490261061
  },
  {
    "pitch": 85,
    "velocity": 72,
    "start": 225.4285784057212,
    "end": 225.81791964649102
  },
  {
    "pitch": 63,
    "velocity": 80,
    "start": 225.4285784057212,
    "end": 225.81791964649102
  },
  {
    "pitch": 39,
    "velocity": 77,
    "start": 225.6232490261061,
    "end": 226.01259026687592
  },
  {
    "pitch": 85,
    "velocity": 75,
    "start": 225.81791964649102,
    "end": 226.01259026687592
  },
  {
    "pitch": 63,
    "velocity": 87,
    "start": 225.81791964649102,
    "end": 226.01259026687592
  },
  {
    "pitch": 51,
    "velocity": 93,
    "start": 225.81791964649102,
    "end": 226.01259026687592
  },
  {
    "pitch": 82,
    "velocity": 70,
    "start": 226.01259026687592,
    "end": 226.20726088726082
  },
  {
    "pitch": 61,
    "velocity": 78,
    "start": 226.01259026687592,
    "end": 226.20726088726082
  },
  {
    "pitch": 51,
    "velocity": 78,
    "start": 226.01259026687592,
    "end": 226.20726088726082
  },
  {
    "pitch": 82,
    "velocity": 73,
    "start": 226.20726088726082,
    "end": 226.40193150764574
  },
  {
    "pitch": 61,
    "velocity": 83,
    "start": 226.20726088726082,
    "end": 226.40193150764574
  },
  {
    "pitch": 51,
    "velocity": 74,
    "start": 226.20726088726082,
    "end": 226.40193150764574
  },
  {
    "pitch": 82,
    "velocity": 77,
    "start": 226.40193150764574,
    "end": 226.59660212803064
  },
  {
    "pitch": 61,
    "velocity": 81,
    "start": 226.40193150764574,
    "end": 226.59660212803064
  },
  {
    "pitch": 51,
    "velocity": 75,
    "start": 226.40193150764574,
    "end": 226.59660212803064
  },
  {
    "pitch": 85,
    "velocity": 83,
    "start": 226.59660212803064,
    "end": 226.79127274841554
  },
  {
    "pitch": 61,
    "velocity": 82,
    "start": 226.59660212803064,
    "end": 226.79127274841554
  },
  {
    "pitch": 51,
    "velocity": 74,
    "start": 226.59660212803064,
    "end": 226.79127274841554
  },
  {
    "pitch": 85,
    "velocity": 77,
    "start": 226.79127274841554,
    "end": 226.98594336880046
  },
  {
    "pitch": 61,
    "velocity": 83,
    "start": 226.79127274841554,
    "end": 226.98594336880046
  },
  {
    "pitch": 51,
    "velocity": 73,
    "start": 226.79127274841554,
    "end": 226.98594336880046
  },
  {
    "pitch": 85,
    "velocity": 76,
    "start": 226.98594336880046,
    "end": 227.18061398918536
  },
  {
    "pitch": 61,
    "velocity": 80,
    "start": 226.98594336880046,
    "end": 227.18061398918536
  },
  {
    "pitch": 51,
    "velocity": 73,
    "start": 226.98594336880046,
    "end": 227.18061398918536
  },
  {
    "pitch": 87,
    "velocity": 75,
    "start": 227.18061398918536,
    "end": 227.37528460957026
  },
  {
    "pitch": 63,
    "velocity": 93,
    "start": 227.18061398918536,
    "end": 227.37528460957026
  },
  {
    "pitch": 51,
    "velocity": 75,
    "start": 227.18061398918536,
    "end": 227.56995522995516
  },
  {
    "pitch": 42,
    "velocity": 76,
    "start": 227.37528460957026,
    "end": 227.56995522995516
  },
  {
    "pitch": 82,
    "velocity": 68,
    "start": 227.37528460957026,
    "end": 227.76462585034008
  },
  {
    "pitch": 63,
    "velocity": 86,
    "start": 227.37528460957026,
    "end": 227.76462585034008
  },
  {
    "pitch": 42,
    "velocity": 74,
    "start": 227.56995522995516,
    "end": 227.76462585034008
  },
  {
    "pitch": 42,
    "velocity": 77,
    "start": 227.76462585034008,
    "end": 227.95929647072498
  },
  {
    "pitch": 82,
    "velocity": 70,
    "start": 227.76462585034008,
    "end": 228.15396709110988
  },
  {
    "pitch": 63,
    "velocity": 85,
    "start": 227.76462585034008,
    "end": 228.15396709110988
  },
  {
    "pitch": 42,
    "velocity": 76,
    "start": 227.95929647072498,
    "end": 228.15396709110988
  },
  {
    "pitch": 85,
    "velocity": 83,
    "start": 228.15396709110988,
    "end": 228.3486377114948
  },
  {
    "pitch": 42,
    "velocity": 80,
    "start": 228.15396709110988,
    "end": 228.3486377114948
  },
  {
    "pitch": 63,
    "velocity": 83,
    "start": 228.15396709110988,
    "end": 228.5433083318797
  },
  {
    "pitch": 85,
    "velocity": 74,
    "start": 228.3486377114948,
    "end": 228.5433083318797
  },
  {
    "pitch": 42,
    "velocity": 74,
    "start": 228.3486377114948,
    "end": 228.5433083318797
  },
  {
    "pitch": 85,
    "velocity": 75,
    "start": 228.5433083318797,
    "end": 228.7379789522646
  },
  {
    "pitch": 42,
    "velocity": 73,
    "start": 228.5433083318797,
    "end": 228.7379789522646
  },
  {
    "pitch": 63,
    "velocity": 84,
    "start": 228.5433083318797,
    "end": 228.9326495726495
  },
  {
    "pitch": 85,
    "velocity": 79,
    "start": 228.7379789522646,
    "end": 228.9326495726495
  },
  {
    "pitch": 42,
    "velocity": 78,
    "start": 228.7379789522646,
    "end": 229.12732019303442
  },
  {
    "pitch": 85,
    "velocity": 77,
    "start": 228.9326495726495,
    "end": 229.12732019303442
  },
  {
    "pitch": 66,
    "velocity": 89,
    "start": 228.9326495726495,
    "end": 229.12732019303442
  },
  {
    "pitch": 49,
    "velocity": 85,
    "start": 228.9326495726495,
    "end": 229.12732019303442
  },
  {
    "pitch": 78,
    "velocity": 58,
    "start": 229.12732019303442,
    "end": 229.32199081341932
  },
  {
    "pitch": 66,
    "velocity": 85,
    "start": 229.12732019303442,
    "end": 229.32199081341932
  },
  {
    "pitch": 49,
    "velocity": 80,
    "start": 229.12732019303442,
    "end": 229.32199081341932
  },
  {
    "pitch": 78,
    "velocity": 76,
    "start": 229.32199081341932,
    "end": 229.51666143380422
  },
  {
    "pitch": 66,
    "velocity": 84,
    "start": 229.32199081341932,
    "end": 229.51666143380422
  },
  {
    "pitch": 49,
    "velocity": 77,
    "start": 229.32199081341932,
    "end": 229.51666143380422
  },
  {
    "pitch": 78,
    "velocity": 72,
    "start": 229.51666143380422,
    "end": 229.71133205418914
  },
  {
    "pitch": 66,
    "velocity": 87,
    "start": 229.51666143380422,
    "end": 229.71133205418914
  },
  {
    "pitch": 49,
    "velocity": 76,
    "start": 229.51666143380422,
    "end": 229.71133205418914
  },
  {
    "pitch": 80,
    "velocity": 86,
    "start": 229.71133205418914,
    "end": 229.90600267457404
  },
  {
    "pitch": 66,
    "velocity": 81,
    "start": 229.71133205418914,
    "end": 229.90600267457404
  },
  {
    "pitch": 49,
    "velocity": 76,
    "start": 229.71133205418914,
    "end": 229.90600267457404
  },
  {
    "pitch": 80,
    "velocity": 77,
    "start": 229.90600267457404,
    "end": 230.10067329495894
  },
  {
    "pitch": 66,
    "velocity": 86,
    "start": 229.90600267457404,
    "end": 230.10067329495894
  },
  {
    "pitch": 49,
    "velocity": 73,
    "start": 229.90600267457404,
    "end": 230.10067329495894
  },
  {
    "pitch": 80,
    "velocity": 75,
    "start": 230.10067329495894,
    "end": 230.29534391534384
  },
  {
    "pitch": 66,
    "velocity": 83,
    "start": 230.10067329495894,
    "end": 230.29534391534384
  },
  {
    "pitch": 49,
    "velocity": 75,
    "start": 230.10067329495894,
    "end": 230.29534391534384
  },
  {
    "pitch": 82,
    "velocity": 80,
    "start": 230.29534391534384,
    "end": 230.49001453572876
  },
  {
    "pitch": 63,
    "velocity": 78,
    "start": 230.29534391534384,
    "end": 230.49001453572876
  },
  {
    "pitch": 49,
    "velocity": 74,
    "start": 230.29534391534384,
    "end": 230.49001453572876
  },
  {
    "pitch": 39,
    "velocity": 66,
    "start": 230.49001453572876,
    "end": 230.68468515611366
  },
  {
    "pitch": 82,
    "velocity": 75,
    "start": 230.49001453572876,
    "end": 230.87935577649856
  },
  {
    "pitch": 63,
    "velocity": 83,
    "start": 230.49001453572876,
    "end": 230.87935577649856
  },
  {
    "pitch": 39,
    "velocity": 77,
    "start": 230.68468515611366,
    "end": 230.87935577649856
  },
  {
    "pitch": 39,
    "velocity": 74,
    "start": 230.87935577649856,
    "end": 231.07402639688348
  },
  {
    "pitch": 82,
    "velocity": 79,
    "start": 230.87935577649856,
    "end": 231.26869701726838
  },
  {
    "pitch": 63,
    "velocity": 44,
    "start": 230.87935577649856,
    "end": 231.26869701726838
  },
  {
    "pitch": 39,
    "velocity": 79,
    "start": 231.07402639688348,
    "end": 231.26869701726838
  },
  {
    "pitch": 39,
    "velocity": 79,
    "start": 231.26869701726838,
    "end": 231.46336763765328
  },
  {
    "pitch": 85,
    "velocity": 78,
    "start": 231.26869701726838,
    "end": 231.6580382580382
  },
  {
    "pitch": 63,
    "velocity": 38,
    "start": 231.26869701726838,
    "end": 231.6580382580382
  },
  {
    "pitch": 39,
    "velocity": 76,
    "start": 231.46336763765328,
    "end": 231.6580382580382
  },
  {
    "pitch": 39,
    "velocity": 74,
    "start": 231.6580382580382,
    "end": 231.8527088784231
  },
  {
    "pitch": 85,
    "velocity": 79,
    "start": 231.6580382580382,
    "end": 232.047379498808
  },
  {
    "pitch": 63,
    "velocity": 43,
    "start": 231.6580382580382,
    "end": 232.047379498808
  },
  {
    "pitch": 39,
    "velocity": 75,
    "start": 231.8527088784231,
    "end": 232.2420501191929
  },
  {
    "pitch": 85,
    "velocity": 73,
    "start": 232.047379498808,
    "end": 232.2420501191929
  },
  {
    "pitch": 63,
    "velocity": 37,
    "start": 232.047379498808,
    "end": 232.2420501191929
  },
  {
    "pitch": 51,
    "velocity": 83,
    "start": 232.047379498808,
    "end": 232.2420501191929
  },
  {
    "pitch": 82,
    "velocity": 71,
    "start": 232.2420501191929,
    "end": 232.43672073957782
  },
  {
    "pitch": 61,
    "velocity": 40,
    "start": 232.2420501191929,
    "end": 232.43672073957782
  },
  {
    "pitch": 51,
    "velocity": 74,
    "start": 232.2420501191929,
    "end": 232.43672073957782
  },
  {
    "pitch": 82,
    "velocity": 80,
    "start": 232.43672073957782,
    "end": 232.63139135996272
  },
  {
    "pitch": 61,
    "velocity": 42,
    "start": 232.43672073957782,
    "end": 232.63139135996272
  },
  {
    "pitch": 51,
    "velocity": 73,
    "start": 232.43672073957782,
    "end": 232.63139135996272
  },
  {
    "pitch": 82,
    "velocity": 77,
    "start": 232.63139135996272,
    "end": 232.82606198034762
  },
  {
    "pitch": 61,
    "velocity": 36,
    "start": 232.63139135996272,
    "end": 232.82606198034762
  },
  {
    "pitch": 51,
    "velocity": 75,
    "start": 232.63139135996272,
    "end": 232.82606198034762
  },
  {
    "pitch": 85,
    "velocity": 83,
    "start": 232.82606198034762,
    "end": 233.02073260073254
  },
  {
    "pitch": 61,
    "velocity": 41,
    "start": 232.82606198034762,
    "end": 233.02073260073254
  },
  {
    "pitch": 51,
    "velocity": 78,
    "start": 232.82606198034762,
    "end": 233.02073260073254
  },
  {
    "pitch": 85,
    "velocity": 76,
    "start": 233.02073260073254,
    "end": 233.21540322111744
  },
  {
    "pitch": 61,
    "velocity": 41,
    "start": 233.02073260073254,
    "end": 233.21540322111744
  },
  {
    "pitch": 51,
    "velocity": 75,
    "start": 233.02073260073254,
    "end": 233.21540322111744
  },
  {
    "pitch": 85,
    "velocity": 80,
    "start": 233.21540322111744,
    "end": 233.41007384150234
  },
  {
    "pitch": 61,
    "velocity": 43,
    "start": 233.21540322111744,
    "end": 233.41007384150234
  },
  {
    "pitch": 51,
    "velocity": 75,
    "start": 233.21540322111744,
    "end": 233.41007384150234
  },
  {
    "pitch": 87,
    "velocity": 78,
    "start": 233.41007384150234,
    "end": 233.60474446188724
  },
  {
    "pitch": 63,
    "velocity": 47,
    "start": 233.41007384150234,
    "end": 233.60474446188724
  },
  {
    "pitch": 51,
    "velocity": 77,
    "start": 233.41007384150234,
    "end": 233.79941508227216
  },
  {
    "pitch": 42,
    "velocity": 76,
    "start": 233.60474446188724,
    "end": 233.79941508227216
  },
  {
    "pitch": 82,
    "velocity": 65,
    "start": 233.60474446188724,
    "end": 233.99408570265706
  },
  {
    "pitch": 63,
    "velocity": 38,
    "start": 233.60474446188724,
    "end": 233.99408570265706
  },
  {
    "pitch": 42,
    "velocity": 70,
    "start": 233.79941508227216,
    "end": 233.99408570265706
  },
  {
    "pitch": 42,
    "velocity": 74,
    "start": 233.99408570265706,
    "end": 234.18875632304196
  },
  {
    "pitch": 82,
    "velocity": 71,
    "start": 233.99408570265706,
    "end": 234.38342694342688
  },
  {
    "pitch": 63,
    "velocity": 41,
    "start": 233.99408570265706,
    "end": 234.38342694342688
  },
  {
    "pitch": 42,
    "velocity": 75,
    "start": 234.18875632304196,
    "end": 234.38342694342688
  },
  {
    "pitch": 85,
    "velocity": 82,
    "start": 234.38342694342688,
    "end": 234.57809756381178
  },
  {
    "pitch": 42,
    "velocity": 75,
    "start": 234.38342694342688,
    "end": 234.57809756381178
  },
  {
    "pitch": 63,
    "velocity": 41,
    "start": 234.38342694342688,
    "end": 234.77276818419668
  },
  {
    "pitch": 85,
    "velocity": 79,
    "start": 234.57809756381178,
    "end": 234.77276818419668
  },
  {
    "pitch": 42,
    "velocity": 73,
    "start": 234.57809756381178,
    "end": 234.77276818419668
  },
  {
    "pitch": 85,
    "velocity": 80,
    "start": 234.77276818419668,
    "end": 234.96743880458158
  },
  {
    "pitch": 42,
    "velocity": 77,
    "start": 234.77276818419668,
    "end": 234.96743880458158
  },
  {
    "pitch": 63,
    "velocity": 41,
    "start": 234.77276818419668,
    "end": 235.1621094249665
  },
  {
    "pitch": 85,
    "velocity": 74,
    "start": 234.96743880458158,
    "end": 235.1621094249665
  },
  {
    "pitch": 42,
    "velocity": 78,
    "start": 234.96743880458158,
    "end": 235.3567800453514
  },
  {
    "pitch": 85,
    "velocity": 72,
    "start": 235.1621094249665,
    "end": 235.3567800453514
  },
  {
    "pitch": 68,
    "velocity": 46,
    "start": 235.1621094249665,
    "end": 235.3567800453514
  },
  {
    "pitch": 49,
    "velocity": 86,
    "start": 235.1621094249665,
    "end": 235.3567800453514
  },
  {
    "pitch": 78,
    "velocity": 58,
    "start": 235.3567800453514,
    "end": 235.5514506657363
  },
  {
    "pitch": 68,
    "velocity": 38,
    "start": 235.3567800453514,
    "end": 235.5514506657363
  },
  {
    "pitch": 49,
    "velocity": 75,
    "start": 235.3567800453514,
    "end": 235.5514506657363
  },
  {
    "pitch": 78,
    "velocity": 79,
    "start": 235.5514506657363,
    "end": 235.74612128612122
  },
  {
    "pitch": 68,
    "velocity": 37,
    "start": 235.5514506657363,
    "end": 235.74612128612122
  },
  {
    "pitch": 49,
    "velocity": 77,
    "start": 235.5514506657363,
    "end": 235.74612128612122
  },
  {
    "pitch": 78,
    "velocity": 76,
    "start": 235.74612128612122,
    "end": 235.94079190650612
  },
  {
    "pitch": 68,
    "velocity": 38,
    "start": 235.74612128612122,
    "end": 235.94079190650612
  },
  {
    "pitch": 49,
    "velocity": 73,
    "start": 235.74612128612122,
    "end": 235.94079190650612
  },
  {
    "pitch": 80,
    "velocity": 84,
    "start": 235.94079190650612,
    "end": 236.13546252689102
  },
  {
    "pitch": 68,
    "velocity": 39,
    "start": 235.94079190650612,
    "end": 236.13546252689102
  },
  {
    "pitch": 49,
    "velocity": 77,
    "start": 235.94079190650612,
    "end": 242.94893424036277
  },
  {
    "pitch": 80,
    "velocity": 82,
    "start": 236.13546252689102,
    "end": 236.33013314727594
  },
  {
    "pitch": 68,
    "velocity": 33,
    "start": 236.13546252689102,
    "end": 236.33013314727594
  },
  {
    "pitch": 54,
    "velocity": 81,
    "start": 236.13546252689102,
    "end": 242.94893424036277
  },
  {
    "pitch": 80,
    "velocity": 78,
    "start": 236.33013314727594,
    "end": 236.52480376766084
  },
  {
    "pitch": 68,
    "velocity": 41,
    "start": 236.33013314727594,
    "end": 236.52480376766084
  },
  {
    "pitch": 58,
    "velocity": 82,
    "start": 236.33013314727594,
    "end": 242.94893424036277
  },
  {
    "pitch": 82,
    "velocity": 78,
    "start": 236.52480376766084,
    "end": 242.94893424036277
  },
  {
    "pitch": 66,
    "velocity": 45,
    "start": 236.52480376766084,
    "end": 242.94893424036277
  },
  {
    "pitch": 70,
    "velocity": 45,
    "start": 236.52480376766084,
    "end": 242.94893424036277
  },
  {
    "pitch": 61,
    "velocity": 87,
    "start": 236.52480376766084,
    "end": 242.94893424036277
  }
]